<?xml version="1.0" encoding="UTF-8"?>
<svg xmlns="http://www.w3.org/2000/svg" version="1.1" xmlns:xlink="http://www.w3.org/1999/xlink" viewBox="0 0 1000 1000">
  <defs>
    <style>
      .cls-1 {
        fill: none;
      }

      .cls-2 {
        clip-path: url(#clippath-1);
      }

      .cls-3 {
        display: none;
      }

      .cls-4 {
        clip-path: url(#clippath);
      }
    </style>
    <clipPath id="clippath">
      <path class="cls-1" d="M615.5,16.8c0,0-.1,0-.2,0h0,.2q0,0,0,0ZM677.7,61.1s0,0,0,0h0c0,0,0,0,0,0h0ZM764,115.9c-.1,0-.2,0-.3,0,0,0,0,0,0,.2h.3c0-.1,0-.1,0-.1ZM638.8,61.7h0s0,0,0,0h0ZM704.2,747.7c0,0-.2,0-.3,0h0s.3,0,.3,0ZM735.1,477c0,0-.2,0-.2.1,0,0,0,0,.1,0v-.2ZM624.4,58.9s0,0,0,0c0,0,.1,0,.2,0h-.3c0-.1,0-.1,0-.1ZM315.8,226.2c0,0,0,.1,0,.2,0-.1,0-.1,0-.2ZM614.8,999.4c-1,.1-2.1-.2-2.1-.7-.1-2.5-2.4-5-1.4-7.6.4-1-.2-2.1-1.7-3-1.4-.8-1.4-1.7-1.5-2.6,0-.4.2-1,.9-1.2,2.8-.7,3.4-1.6,2.9-2.7-1-2.7-2.2-5.3-2.9-8-.5-1.8-.4-3.6-.5-5.4,0-1,.5-2.2-.2-3.1-2.2-2.9-2.2-5.9-1.6-8.8.3-1.4-.7-2.6-3.1-3.7-1.1-.5-1.1-1.2-.3-1.7,2.7-1.9,3.7-3.9,4.2-6,.3-1.4.8-2.8,1-4.3.2-.8-.9-1.2-4.3-1.6-.3-.7-1-1.4-1-2.2,0-2.8,0-5.6.2-8.5,0-1.1-.7-2-3.6-2.5-1.2-.2-2.1-.9-2.3-1.5-.8-1.6-2.2-3.1-.7-4.8.6-.7,0-1.5,0-2.2,2.1-.5,1.7-1.2,1.4-2,1.4-3.2-.8-6.2-2.8-9.3-.4-.6-1.4-1.1-2.9-1.3-1.1-.1-2.3,0-3.5,0-1.3,0-2.6,0-3.9,0-.6-.7-1.2-1.4-1.9-2-1-.8-1.2-1.7-1.1-2.5.5-.3.4-.6-.3-.8-1.4-5.1-2.8-10.1-2.3-15.2,0-1-.5-2.1-.8-3.1,0-.3-1.9-.8-2.7-.7-1,.2-2.6.4-2.8.7-.9,1.3-1.1,2.7.8,3.9,1.4,1,1.8,1.9,0,2.9-2,1.2-2.1,2.5-1.2,3.9,1,1.6,2.2,3.2.5,4.8-.5.5,0,.9.7,1.2,3.6,2,3.2,4.3,3.4,6.5-1.7,1.5-.6,2.9.6,4.4,1.1,1.3,1,1.4-2.5,1.9-2.9.4-3.8.8-3.5,1.5,1.2,2.4.2,4.8.4,7.1-2.7-.3-5.4-.7-8.1-1,1.7-1.7,3.5-3.3.5-5.1-.1-1.2-.3-2.5,1.6-3.4,2.6-1.2,2.6-2.4,2.6-3.8,0-.8-.7-1.4-2.4-1.9-1.2-.4-2.5-.7-3.7-1.1-1.3-.4-1.8-1-1.2-1.6,2.6-2.1,1.2-4-1.3-6-1-.8-1.9-1.6-2.9-2.4-.6-.5-1.8-.5-2.9-.3-1.1.2-2.2.3-3.3.5-1.5,0-3-.2-4.4-.2-.3-.3-.9-.5-.9-.8-.1-1.8-.1-3.6-.1-5.3.9-.7.9-1.3,0-2-.2-.3-.5-.6-.5-.9.3-4.2-1.9-8.3-1.3-12.5.2-1-.7-2-1.8-3-2.2-1.9-3.8-3.9-2-6.1.8-.9-.3-1.8-1.6-2.5-.5-.3-1.5-.5-1.8-.9,0,0,0,0,0,0-4.2.9-5.5,2.4-5.5,4.1,0,2.7,1,5.4.2,8.1-.2.6.9,1.2,2.2,1.5,2.8.8,3.5,1.9,3.4,3.2-1.1,0-2.2,0-3.3,0-.8,0-1.6,0-2.4,0-1.3,0-2.5.3-2.8.7-1.2,2.3-2.3,4.7-.5,7.1.4.6,1.2,1.2.9,1.7-1.1,1.8.3,3.6.2,5.4-.2,1.7-.2,3.3,1,4.9.2.2-.4.6-.7.8-1.5,0-2.9,0-4.4,0-1.1-.7-2.9-.7-4.6-.6-1,0-2.1-.1-3.1-.2-.2-1.2-.6-2.4-2.9-3.3-1.8-.7-2.4-1.5-2.5-2.4-.3-2.4-1.2-4.7-1.1-7.1,0-2.4-1.4-4.7-2.3-7.1-.2-.6-.5-1.2-1-1.7-.2-.2-1.1-.5-1.7-.4-.7,0-1.3.3-1.9.5-.3,0-.5.2-.6.4-.6,1.6-.4,3.2-1.1,4.9-.7,1.6,0,3.3.2,4.9.2,2.7,1.7,5.3,2.7,8,.5,1.2.9,2.4,2.9,3.3,2.5,1.2,2.6,2.5,1.5,3.8-.8.9-1.2,1.7-.4,2.6-1.2,0-2.5,0-3.7.1-.5-.4-.7-.9-1.5-1.2-2.1-.8-3.4-1.7-3.5-2.8-.1-.8-1.1-1.5-2.7-1.9-2.7-.7-2.8-1.7-2.3-2.8.1-.2-.4-.6-1-.8-.5-.2-1.4-.2-2.1-.2-.9,0-1.5.2-1.5.5,0,.6,0,1.2.2,1.8,1,2.4,1.4,4.7-.6,7.1-.3.3-.9.5-1.8.4-.7,0-1.5-.2-1.9-.4-.4-.2-.7-.5-.6-.8.4-2.6-1.3-5.1-1.7-7.6,0-.4-.5-.9-1.2-1.3-.6-.3-1.7-.6-2.7-.8-1.8-.3-4.5.2-4.5.9,0,.6,0,1.2.2,1.8.4,2.4,1.1,4.8.1,7.2-.2.4-.5.9-.2,1.3,1.9,2.2,0,4.5.6,6.7l-.2,1.9c-2.3,1.2-2.5,2.6-1.7,3.9,1.5,2.1,1.8,4.1,1.4,6.2-.3,1.9,1.8,3.2,6.8,3.7.8,0,1.8.2,2.1.3.6.4.7.8,1,1.2-1.5-.1-3-.5-4.4,0-1,.6-2.1,1.2-3.1,1.7-1.7.4-1.9,1.1-2,1.8h-.4c-.9.4-1.8.6-2.7.9-.8-1.3.8-2.6.5-3.9-.1-.4-.4-.9-.8-1.3s-1.2-.7-2.5-.8c-1.5,0-2.4.3-2.6.7-.6.8-.8,1.7-1.1,2.6-.7,0-1.5,0-2.2,0-.2-.6-.7-1.2-.6-1.8.1-1.3.3-2.6-1.8-3.9-1.1-.7-1-1.7-1.7-2.5-.2-.2-1-.5-1.7-.6-.6,0-1.6.1-1.9.3-.9.7-1.7,1.3-2.1,2-.7,1.1,0,2.4-1.5,3.5-.8.6-1.2.8-3.5.8-.4,0-.7-.2-1.1-.2-1.9,0-3.3.9-2.9,1.6.3.5,1.8.8,3.7.7,2.8-.2,3.7,0,4.2.6.9,1.3,1.7,2.6,1,3.9-.8,0-1.7,0-2.5,0-2-.6-4.7-.5-7-.9v-.3s-.8,0-.8,0c-.6-1.9-1.6-3.8-4.8-5.4-1-.5-2.4-.7-4-.7-3.4,0-4-.2-4.3-1-.4-.9-.5-1.8-1.1-2.6s-1.7-1.6-4.1-2c-1.7-.3-2.8-1-4.3-1.4-.5-.1-1.5,0-2.2,0-1.1.1-2.1.4-2.1.9-.1,1.2.7,2.3,2,3.5.7.6.3,1.2-.9,1.6-1.5.5-2.1,1.2-2.5,2-2.1.9-2.1.9,0,1.8,0,.9,0,1.8,0,2.8-1.9.5-2.1,1.2-1.7,2-.1.5-.2.9-.3,1.3,0,.8-.9,1.5-2.7,1.9-1.5.3-2.2.8-2.1,1.5,0,.6,0,1.2.4,1.8.6,1,1.1,2-.6,3-.6.3-.8.9-.7,1.3.3,2.5.6,5.1,1.1,7.6.1.6.6,1.3,1.7,1.6,2.6.9,3.1,2,2.9,3.2-.1.7.9,1.5.4,2.2-.3.4-2.2.8-3.5,1.1-1,.2-3.4-.4-3.9-.8-.7-.5,0-.8.6-1.2,1.8-1,2-1.9-.2-2.9-3-1.2-4.1-2.9-5.6-4.4-.7-.7-1.2-1.4-1.7-2.2-.9-1.5-2-2.9-1-4.4.4-.7.1-1.5,0-2.2-.2-.8-1.1-1.5-3-1.8-2.6-.4-3.2-1.1-3.2-2.1,0-1.6-.1-3.3-2.1-4.8-.6-.5-1.5-.9-2.5-.8-2.8.3-3.9-.4-4.1-1.1-.7-1.9-.9-3.9-1.3-5.8,0-.4-.7-.6-1.7-.5-.7,0-1.8.2-1.9.4-.1,1.2-1.5,2.3-3.4,3.3-1.2,0-1.9-.4-2.4-.8-.5-.4-1.1-.7-1.7-1.1-.7-.7-1.4-1.3-2-2-.5-.5-1.3-1.2-.8-1.6,1.6-1.6,0-2.8-2.3-4-.5-.3.1-.8.3-1.2,1.5,0,3.1-.2,4.7-.2,1.5.3,2.3.8,2.2,1.5,0,.6-.6,1.2.8,1.7.5.2,1.4.4,2,.4.6,0,1.5-.3,1.5-.5.9-2.7.6-5.4,0-8.1,0-.4-.6-.9-1.3-1.2-1.8-.8-1.8-1.5,0-2.4,1.3-.6,1.6-1.5,0-2.1-4.3-1.5-5.2-3.3-4.8-5.3.2-1.1.3-2-.6-3.1-.4-.4-.6-1,0-1.3,3.5-1.7,1-3.5,1.1-5.2,0-.4-.8-.8-1.5-1.2-1.5-.7-3.1-1.4-.9-2.3.5-.2.8-.5.8-.8,0-2.5,0-5.1-.2-7.7,0-.8-1.6-1.1-4.4-.9-1.4,0-2.3.4-2.4.8-.2.9.2,1.8,0,2.7-.2,1.5-.5,3-1,4.5-.3.8.2,1.5,1.5,2.1.5.2,1,.6.8.8-2.4,1.8.5,3.5,0,5.3-.5,1.6-.1,1.6-4.9,1.7-3.8,0-3.7,0-4.8,1.4-.5.6-1,1.1-.7,1.7.3.6.7,1.2.6,1.8-.1.7-.8,1.5-1.2,2.2-.9,0-1.8,0-2.7.1-.9-.3-1.8-.5-2.8-.8-3.4-.8-3.2-2,.6-3,.3,0,.9-.1,1-.2.2-.3.3-.6,0-.8-.4-.4-1-.4-1.8-.2-1,.2-2.5.3-2.4-.4.5-2.5,1.3-5-.9-7.5-.3-.4,0-1,.6-1.3,3.1-1.4,2.7-3,2.4-4.7-.1-.4-.4-.9-.6-1.3-.4-1-1.2-2-3.8-2.6-.9-.2-.5-.5.2-.7,2.1-.5,3.2-1.3,3.3-2.2,0-1,.6-2.1-.2-3.1-1-1.3-.1-2.7-.4-4,.8-1.5.7-3-.7-4.5.2-1.6.3-3.2-.8-4.9-.9-1.4-.6-3-.7-4.5,0-1.1-.7-2-2.9-2.8-2-.7-1.9-1.7-.4-2.5,2.5-1.2,2.4-2.5,2.2-3.8-.1-.8-.9-1.4-2.6-1.9-1.5-.4-1.8-1.1-1.2-1.6,2.7-2.3,2.2-4.7.9-7.1-.9-1.8-1.5-3.5-1.1-5.4,0-.3,0-.6-.2-.9-.5-.7-2.9-1.2-2.5-2,.4-.7,2.1-1.3,2.3-2,.3-1.2.3-2.4-.4-3.5-1.6-2.5-2-5-1.7-7.6.2-1.2,0-2.4-.4-3.6-.1-.4-1-.9-1.8-1-2-.4-2.6-.9-2.6-1.8.1-1.8-.3-3.6-.5-5.4,0-.4-.6-.6-1.5-.5-.7,0-1.6.2-2.1.4-2.1,1-2.2,2.2-2.2,3.4,0,1.1,1.5,1.9,3.8,2.7,2.1.7,1.8.8,0,1.8-.2.1-.5.2-.7.4-2.2,1-2.4,2.2-1,3.4.6.5,1.7,1.2,1.5,1.6-1,1.8.5,3.6,1.4,5.3,1,1.9.7,3.8.8,5.8.1,1.8.6,3.6.8,5.4.1,1.5.2,3-.1,4.5-.5,2.2,1.4,4.1,2.4,6.2.3.6-.8,1-2.7,1-1.6,0-3.2,0-4.7-.3-1-.1-2.1-.4-2.6-.8-.7-.5-1-1.1-1.2-1.7-1-3.1-1.8-6.2-2.6-9.4,0-.3.5-.6.7-.8,2.1-.4,3.9-.8,3.2-1.9,0-1.2,0-2.5-.1-3.7,1.7-.5,2.5-1.1,2.2-1.9.3-.8.5-1.5-1.2-2.1-1.9-.6-3.1-1.3-3.2-2.3-.1-2.4-.3-4.8-2.1-7.1-.3-.4,0-.9.3-1.3.8-1-.7-1.7-2.2-2.4-1.8-.9-1.4-1.3,1.1-2.2.9-.3,1.9-.5,1.8-1.1-.1-.8-.2-1.5,0-2.2.5-1.9-.7-3.6-5-4.8-.4-.1-.5-.5-.3-.8.1-.3.6-.5,1.1-.8,3.5-1.6,4.5-3.5,3.9-5.5-.2-.9-.8-1.8-2.2-2.5-1.2-.6-2.2-1.2-3.2-1.9-1.1-.7-1.3-1.5-.1-2.1,2-1,2.2-2.1,2.2-3.4,0-2.3-2.5-4.4-2.8-6.6,0-.7-1.2-1.1-3-1.2-2.9-.2-3.8-1-3.7-2,0-.5.1-.9.2-1.3h-.4c1.2,0,3,.1,3.4,0,1.4-.9,3.1-1.5,5.3-2.1.6-.2.7-.9.4-1.2-.7-.7-1.7-1.3-2.8-1.9-2-1.1-3.5-2.3-3.6-3.7v-.2c1-1.3,2-2.6,3-3.9,3.9-.6,4-1.1.8-2.1-2.9.2-4.3-.5-5.5-1.3-1-.7.2-1,1.6-1.4.6-.1,1.1-.5,1.1-.7-.2-1.8-.3-3.6-.9-5.3-.9-2.5-3-5-3.1-7.5-.1-2.8-2.5-5.3-3.9-7.9-.9-1.6-1-3.3-1.5-4.9-.1-.4-.1-.9-.2-1.3-.3-1.6-3.3-2.3-6.8-2.8-.5,0-1.5.2-1.8.3-2.2,1.2-3.1,2.4-.6,3.7,1.1.6,2.4,1.3,1.9,2.1-1,1.4-.9,3-3.1,4.3-.8.5-1.2.7-3.6.7-2.8,0-3.8.4-3.7,1.2.3,2,1,3.9,2.6,5.7.9,1,.9,2,.4,3.1-1.5,2.9,0,5.6,4.3,8.1,1,.6,2,1.3,2.2,2.1.3,1.7,1,3.2,3,4.8,1.5,1.1.7,2.4.6,3.5-1.3,0-2.6,0-3.9,0-.9-.8-1.5-1.7-2.7-2.5-.7-.5-2-.9-3.8-1-1.5,0-3.8.4-3.7.8.2.9.8,1.8.5,2.7-.7,1.8,2.6,3.5,1.6,5.3-1,1.8.4,3.6.8,5.4.3,1.3-.5,2.8.4,4,1.3,1.9.8,3.9,1.2,5.8,0,.4.1,1-.5,1.3-2.3,1.2-1.4,2.3,0,3.4.8.6.9,1.1.2,1.7-1.4,1.2-1.5,2.3,0,3.5.9.7.9,1.5,1.5,2.2.9,1.1.2,1.7-2.8,2-1.1,0-1.1.8-.3,1.1,3,1.2,6.4,2.3,9,3.5,1.8.9,3.8,1.4,6.7,1.6,1.4,0,2.4,1,2,1.4-.1.1-.2.3-.4.4-1.1.8-2.7,1.5-3.2,2.4-.6,1-.5,2.1-.4,3.1.1,1.7.6,3.3.3,4.9-.3,1.4,1.9,2.2,5.3,2.7h0c-1.3,0-1.8.5-2.4.9-.6.4-1.6.6-2.9.6s-2-.4-2-1c0-.9,0-1.8,0-2.7s-1.2-2-2.7-2.9c-.6-.3-1.9-.5-2.9-.6-.9,0-3.1.8-3.1,1.2-.2,1.5-.9,3-.3,4.5.8,1.7.5,3.3.2,4.9-.3,1.4,0,2.7,1.1,4,.4.5,1.6,1,2.7,1.4,1.8.6,4,.9,6.4,1.2.9,0,1.5.6,1.3,1.1-.2.5-1.1.7-2.5.6-.4,0-.7-.2-1.1-.2-1.1,0-2.4-.3-3.2.2-.6.4-1.4.8-1.6,1.2-.2.6.1,1.2.2,1.8.2,1,1.5,1.7,4.3,1.8,2.2,0,3.7.4,3.6,1.4-.1,1.2.2,2.4,1.6,3.5.5.4.8.8,1,1.3.3.6.2,1.2-.8,1.7-1.1.6-2.8.5-4.3.5-.4-.2-.9-.2-1.4,0-.7-.1-1.4-.3-2.1-.4-1.2-.2-2.4-.1-3.1.3-.6.4-1.3.8-1.8,1.2-.8.6-.2,1.7-2.6,1.7s-2-1.2-3.4-1.7c-3-1-1.4-1.8.3-2.6.6-.3.6-.9.8-1.3.4-.6,0-1.2-1.5-1.5-1-.2-2-.5-2.9-.8-.6-.2-1.2-.4-1.5-.7-.5-.4-1.2-.8-1.2-1.2,0-1,.6-2.1.7-3.1.1-1.1,0-2.1,3.5-2.5.5,0,1-.4,1.2-.7,1.3-1.6,2.6-3.2.9-4.8-.9-.9-.6-1.8.9-2.6,1-.5,1.1-1.1.9-1.7-.6-2.5.5-5-.9-7.6-1.1-2-.6-4.2-.7-6.3,0-.2.8-.4,1.4-.6,0,0,.7,0,.8.1,1,.6,1.8,1.3,3,1.9.7.3,1.8.6,2.8.8,1.5.3,3.4,0,3.5-.7.6-1.9-1.8-2.8-6.9-2.5-.4,0-.7.1-1.1.2-2.2.2-2.9,0-3.5-.7-.4-.4-.7-.9-1.1-1.3-.5-.5-1.8-.6-2.8-.5-1.5.1-3,.4-4.5.6-1.6.2-3.3-.2-3.9-.7-.8-.7-1.1-1.4-.6-2.2.2-.3.5-.7,1-.8.6-.1,1.5,0,2.3.1.7,0,1.8.2,2.2,0,.8-.3,1.3-.7,1.9-1.1s.3-.3.2-.4c-1.5-3.9.5-7.8-.3-11.7,0-.3-.4-.6-1-.8-.5-.2-1.5-.2-2.3-.2-1.8,0-3-.2-3.1-1-.1-.6.2-1.2-.3-1.8-2.6-3.2-2.2-6.5-3.9-9.8-.5-1-.5-2.1.2-3.1,1.3-1.9.7-3.9,1.4-5.8.2-.6.2-1.3-.6-1.7-2.4-1.5-1.8-3.2-2.2-4.8-.1-.4-.3-1,.2-1.3,4.1-2.4,1.3-5,2.3-7.5.2-.4.1-.9-.2-1.3-2.7-3.3-3-6.8-3.9-10.2-.2-.6-.8-1.2-1.3-1.7-.1-.1-.5-.2-.7-.3-.2.1-.6.2-.6.4-.4.7-.6,1.5-1,2.2-.1.3-.5.6-1.1.8-.9.2-2,.4-3.1.4-.5,0-1.5-.4-1.6-.6-.5-1.3-.8-2.7-1.3-4,0,0-.5-.2-.9-.3-.2,0-.6,0-.6,0,0,1.3.1,2.7,0,4,0,.6-.3,1.2-.5,1.8,0,0-.4.2-.6.2-.4,0-1,0-1.1,0-1.1-.6-2.2-1.2-3.1-1.9-3.4-2.2-3.9-4.5-.9-6.9.7-.5.9-1.1,1.4-1.7.5-.5,1.8-.4,2.8-.6,1.9-.4,2.3-1.6.4-1.8-4.3-.5-3.4-1.6-2.9-2.7,0-.2,1.1-.5,1.7-.5,1.9,0,3.9.2,5.8.3,1.5,0,3.3-.5,3.2-1.1-.1-1.6-.3-3.3-.5-4.9,0-.7-1.3-1.1-4.1-1.2-1.6,0-3.1-.1-4.3-.6-.1-.5-.2-.9-.3-1.4,2.6,0,4.2-.5,4.6-1.5.5-1.5.6-2.9-.9-4.3.2-.5.5-1.1.7-1.7.2-.6-.3-1.1-1.5-1.5,0-.5.2-.9.2-1.3.1-1.3-.9-2.3-3.5-3.2,1.9,0,4.1,0,4.8-.7,1-1.2,1.9-2.4-.4-3.6-.8-.3-1.5-.7-.9-1.2.5-.4,1.5-.7,1.9-1.1.8-.7,0-2-1.6-2.4-2.7-.6-5.5-1.2-6.9-2.3-.9-.7-1.1-1.2-.1-1.7.8-.4,2.5-.3,4,.3.6.2,1.2.4,1.6.7.5.3,1,.5,1.9.3.3,0,.5-.2.5-.3,0-1,0-2.1,0-3.1s-.8-.9-1.9-1c-1.3-.1-2.3-.3-2.6-.7-.1-.2,1-.5,1.3-.7.4-.4.9-.8,1-1.3.2-3.6.5-7.1.4-10.7,0-1.6-.1-3.3.3-4.9.6-2.4,1.3-4.8-.4-7.1,0-1.4,0-2.9,0-4.3.8-2.7,0-5.5-.3-8.2,1.2-1.6,1.1-3-3.7-3.8.3-1.1.7-2.2,1-3.2.2-.3.4-.6.6-.9,1.6-.4,2.7-1,2.7-1.8,0-1-.3-2-.4-3-.2-.7-.4-1.4-.6-2,1.7-.9,2.8-1.8,2.6-2.9-.3-1.9-.2-3.9-.8-5.8-1-3.6-1.5-7.2-1.3-10.8,0-1-.6-2.1-1.1-3.1-.9-2.1-2-4.1-1.1-6.3.5-1.2-1-2-4-2.5-1.2-.2-1.4-.3-.5-.5,3.6-.6,3.8-1.9,3.6-3.1-.3-1.9-1.1-3.9-1.8-5.8,0-.2-1-.5-1.5-.6-2.5-.1-3.4-.6-3.1-1.5.2-.6.2-1.2.5-1.8.3-.7,1.6-1,3.1-1.2,2.8-.5,3.2-.6,2-1.6-1.2-1.1,0-2.1,0-3.1.1-1.3-.5-2.3-3.4-3.2-2.1-.7-2-1.6.6-2.3,4.3-1.1,2.8-2.5,2.6-3.9-5-1.5-3.4-3.5-2.8-5.4.4-1,.9-2.1,1.4-3.1.2-.6-1.1-.7-2.1-.9-2.3-.6-2.5-.6-1.7-1.3.9-.8,1.9-1.6,1.9-2.6,0,0,.7-.3.8-.3.6,0,1.2.2,1.6.4,1.3.5,1.9.5,2.3,0,3.3-2.8,5.7-5.6,4.1-8.7-.1-.2-.8-1-1.5,0,0,.1-.6.2-.9.3-1.2.2-2.9,0-3.1-.3-.8-1.3-2.2-2.5-2-3.9,0-.3-1.5-.6-2.3-.8-.5.2-1.2.4-1.4.7-.8,1-1.2,2.2,0,3.1,3.2,2.4.9,4.7-.4,7,0,.1-1.3.2-2,.2-.2,0-.4-.3-.7-.3-2.7-.7-4.3-.5-4.6.7-.2.9-.7,1.8,1.9,2.4,1.3.3,1.8.7,1.2,1.1-2.6,1.8-3.2,3.6-3.2,5.6,0,1.2-1.2,2.3-1.9,3.5h0c-.4.2-.7.2-1.1.3-2.5.2-4.1.7-3.9,1.8.3,1.6.1,3.2.1,4.8-.3,0-.6-.2-.9-.3-1.2-.4-2.5-.7-4.2-.5-1.6.3-2.1.8-2.1,1.4,0,1-.1,2.1-.3,3.1-.1.8.8,1.4,2.6,1.8,2.2.5,1.2,1.2.4,1.9-1.2,0-2.3.2-3.5.2-1.6,0-3.4-.4-3.7-.9-.7-1-1.3-2-.7-3.1.6-.9,1.1-1.8,1.8-2.6,1.3-1.5,1.6-2.9-.3-4.4-1.5-1.1-1-2.3,0-3.5,1.4-1.9,3.8-3.6,4.7-5.6.2-.4,1.2-.8,2.2-1,4.3-1,5.5-2.5,5.7-4.2,0-.4-.4-.9-.6-1.3-1.1.1-2.2.2-3.3.3-1.5.1-2.2,0-2.4-.5-.2-.6-.4-1.2-.5-1.8-.1-.5.8-.8,2.2-.6,1.1.1,2.2.4,3.3.4.6,0,1.6-.2,1.9-.4,2-1.2,1.9-2.6.7-3.9-.3-.3-1.7-.7-2.6-.8-2,0-3-.4-3.1-1-.3-3-2.6-5.9-1.7-8.9.2-.5-.4-1.2-1-1.7-.7-.7-1.2-1.4-.3-2.2,1.9-1.5,2.3-3.2,3-4.8,1-2.4,2.1-4.7,3.2-7.1,0-.2.1-.3.2-.4,1.3-1.4,2.9-2.8,3.7-4.3.7-1.3.3-2.7,1.2-4,1.1-1.7,1.7-3.5,3.6-5.2,1.6-1.5,1.8-3.2,1.9-4.9.1-2.2,1.7-4.1,3.7-6.1,2.5-2.4,3.3-4.9,2.1-7.5-.5-1-.1-2.1-1-3.1-.8-.9-1.7-2-5.1-2.3-.5,0-1-.3-1.3-.5-.1,0,.3-.3.5-.4,4.4-2.5,8.1-5.2,10.4-8.1.5-.6,1.3-1.4-1.1-2-2.2-.6-2.2-.8-1.4-1.4.2-.1.5-.2.7-.4,2.6-1.1,3.1-2.5,2.2-3.8-1.4-2.1-1.2-4.2-1.5-6.3-.3-2.7-.6-5.4-1.8-8-.9-1.9-1-3.9-.8-5.8.2-2.8.4-5.7-2.1-8.4-.9-1-.9-2.1.9-3,1.9-1.1,2.1-2.2,1.9-3.5-.3-2.1-.6-4.2-1.9-6.3-.9-1.5-.9-3,1-4.4,1,0,2,0,3,0,3.3.5,4.6,1.5,4.4,2.8,0,.2,1.1.5,1.6.5.6,0,1.4-.4,1.4-.6.2-1.8,1.4-3.5,1.3-5.2-.2-2.1.5-4.2,2.5-6.2.5-.5.7-1.2.8-1.8,0-.2-.4-.6-1-.7-.5-.1-1.5-.2-2.1,0-1.1.2-1.9.6-2.9.8-.4,0-1.8-.2-1.8-.3,0-2.5.2-5.1.4-7.6.3-3,1-6,.9-9,0-1.5-1.1-3-2.1-4.4-.8-1.2-1.6-2.3-1.3-3.5,0-.3.4-.5.6-.8.9.3,2.1.5,2.6.8.8.7,1.1,1.4,1.8,2.1,0,.1.8.2.9.2.3,0,.5,0,.6,0h0c.5-2.1,2.8-4.1,2.4-6.2,2.7-4.6,1.5-9.2,2-13.9.5-3.9.8-7.8,1.7-11.7.6-2.7.6-5.4,1.2-8.1.8-.6,1-1.2.4-1.8,0-2.4,0-4.8,1.4-7.2.8-1.4.6-3,.5-4.5-.2-1.5-.2-3,1.3-4.4,1.5-1.4,1.6-2.9,1.7-4.4,0-1.5.5-3,1.6-4.4,2.5-3.5,2.7-7.1,3-10.7.3-3.1,0-6.2,1.8-9.4,1.3-2.3,1-4.8,1-7.2,0-.8-1.5-1.7-2.2-2.5-.5-.6-.6-1.2.3-1.7,1.2-.7,1.6-1.3.8-2.1-1.4-1.4-1.8-2.9-4.2-4.2-.7-.4.2-1.1.5-1.7.1-.3,1.1-.4,1.8-.1,1.1.4,1.9.9,2.9,1.4,1,.5,2.3.7,2.9.4.4-.2,1.1-.5,1.1-.7.2-2.7.8-5.4,2-8.1.6-1.3.3-2.7.5-4,.6-4.1-.5-8.1-1.4-12.1.9,0,1.8-.1,2.6-.2,1.9-2.1.9-4.3,1.2-6.5-1.9-1.3-2-2.8-2.5-4.2-.2-.6.4-1.1.6-1.7,3.7-.2,5.4-1,5.2-2.4-.1-.7-.3-1.5-.4-2.2,4,.7,7.5.6,10.5-.7h1s.2-.3.2-.3c2.6-1.1,5-2.2,3.1-3.8,0,0,.2-.2.6-.3-.3,0-.7.1-1,.1-.6,0-1.2-.3-1.7-.5-.2-.1-.5-.3-.4-.4.4-3.4-.5-6.9-1.1-10.3-.2-1.1.2-2.1,2.3-2.9.5-.2.8-.5.8-.8,0-.9.2-1.8,0-2.7-.3-.7-.8-1.4-.1-2.2.7-.9.6-1.8,0-2.7-.2-.4-.5-.5-1.4-.5-3.1,0-6.4.6-6.9,1.4-.5.9-.3,1.8-1,2.6-.6.7-2.2,1.2-2,2,.1.4.2,1-1.1,1.2-3.7.4-3.4,1.4-3.5,2.5,0,.6,0,1.2,0,1.8,0,1.1-1.2,2-3,2.9-.2.1-.8.3-1,.2-.6-.1-1.6-.3-1.7-.4-.6-1.3-1.4-2.7-1.4-4,0-1.5,1.2-2.9,1.3-4.4.1-1.5-.4-3,.6-4.4.3-.4-.8-.6-2.5-.5-1.1,0-2.3.2-3.4.3-.7,0-1.7-.6-1.4-1.1.1-.2.7-.6,1.2-.7,1.9-.1,4-.1,5.8-.3,1-.1,2.2-.4,2.7-.8,1.7-1.1,1.9-2.3,1.4-3.5,0-.2-.9-.5-1.5-.6-1.8-.3-2.7-.8-1.4-1.3,2-.9,2.1-1.9,1.4-2.9-.6-.9-.5-1.7,1.2-2.5,2.8-1.4,1.8-2.8-.2-4.2-.3-.2-1.3-.3-1.8-.6-.3-.1,0-.4,0-.6.4,0,.8.1,1.1.1,2.5,0,4-.6,3.2-1.3-.4-.4-1.3-.8-1.7-1.2-.2-.2,0-.7.2-.8,3.1-.3,2.9-1.3,2.9-2.2,0-.4.1-.9,0-1.4-.2-.6-1.2-1.1-2.8-1.3-.4,0-1-.1-1-.2-.8-1.4-1.8-2.9-1-4.4.1-.3,1.6-.5,2.6-.7,2.5-.5,3-.6,2.1-1.2-1.5-1-1.4-2.1.2-2.9,3.7-2.1,2.2-4.3,2-6.5-2.5-1.8-2.7-3.7-3.6-5.6,1.1,0,2.2,0,3.3,0,1.6,0,2.7-.3,3-.9.1-.9.2-1.8.3-2.7,2-.5,4-1,6.1-1.5.6.2,1.2.4,2,.5,1.9.3,3.6.6,3.4,1.6-.3,1.2-.5,2.4,1.4,3.6.5-.6,1-1.2,1.5-1.7.1-.1.5-.2.9-.3.2,0,.7,0,.8,0,1.2.8,2.2,1.6,3.4,2.3.3.2,1.4.4,2,.3.6,0,1.5-.3,1.7-.5.5-.6,1-1.2.8-1.7-1-2.4-.8-4.8-.7-7.1,0-.7.1-1.5-.4-2.2-1.5-2.2-.9-4.4-.9-6.6,3.2.2,6.4.4,9.5-.2.6.2,1.7.4,1.7.6.3,1.3.5,2.7.6,4,0,.3-.4.6-.9.8-1.8.9-2.2,1.9-2.1,3,.2,3.1-.4,6.3,1.8,9.4.8,1.1,1.2,2.4.5,3.6-.4.6.3,1.2,1.3,1.7,1.7.9.7,1.7-.8,2.4-.7.3-1.9.5-2.8.7-.9.2-1.9.5-1.7,1,.6,1.2,1,2.4,1.7,3.5.5.8.6,1.5.2,2.2-.7,1.1-.4,2.1,1.4,3,2.5,1.2.7,3,3.6,4.2-.4.6-1.3,1.1-1.2,1.6.3,1.3,1,2.7,1.7,4,.3.6.6,1.2-.3,1.7-1.7,1.1-1.7,2.2-1.2,3.4,1,2.5,2.4,5,1.3,7.6-.3.6.5,1.2,1.9,1.5.3,0,.8.1,1.1.1s.6,0,.7-.2c.2-.4.7-.9.3-1.3-1.3-1.6-1.3-3.2.4-4.8.6-.5.4-1.2.5-1.8.2-.9,0-1.7-1.8-2.5-1.9-.8-1.9-1.9-2.1-3,0-.2.5-.7,1-.7,2.3-.2,2.9-.8,3.5-1.5,1.5-1.6,1.1-3.3.2-4.9-.7-1.2-1.6-2.3-2.3-3.5-.6-1.1,0-2.1,3.4-2.4.9,0,1.3-.3,1.3-.7s0-.6.2-.9c.8-1.4-3.1-2.6-1.8-3.8,1.2-1.1,2.3-2.2,2.5-3.4.3-1.3.5-2.7.7-4,1.3-.4,2-.9,2-1.5,0-2.5-.1-5-.3-7.5,0-.4-.7-.8-1.1-1.2.3-.6,1.1-1.1,2.6-1.4,1.1-.2,2.1-.4,3.1-.7,1.3-.3,2-1.1,1.1-1.5-3.9-1.9-3.9-4.1-3.2-6.3,1.1-3.5,1.7-7.1,2.6-10.6.2-1.1,0-1.1-2.2-1.5.1-.6.2-1.3.4-1.9.3,0,.6.1.9,0,.5,0,1-.2,1.5-.3,2.6,0,4-.6,4.8-1.5,1.2,0,2.5,0,3.7,0,.4,1.6.8,3.3,1.2,4.9,1.6.6,1.9,1.2.2,1.9-.5.2-1,.5-1.2.7-.3.3-.5.6-.5.9-.4,2.5-.6,5.1-1.1,7.6-.1.8.6,1.4,1.8,2.1.6.3.8.9-.2,1.2-1.9.6-2.7,1.4-2.4,2.4.3,1,.4,2.1.5,3.1.1.6,1.1.8,3.6.9.8,0,1.6,0,2.4,0,1.1,0,1.9-.7,1-1-2.5-.8-3.3-1.6-.8-2.6.7-.3.7-.8-.1-1.2-1.4-.7-3.3-1.4.2-2.1.3-.6.8-1.2.7-1.7-.2-1.1-.3-2.1,1.6-3,.4-.2.7-.6.4-.9-2-1.4-.6-2.6,1.4-3.8.5-.3.5-.6-.3-.8-2.1-.5-3.3-1.2-4.8-1.9-.6-.3-.6-.3.2-1.6.5-.7.7-1.4,1-2.2-.4,0-.9,0-1,0-.4-.2-.7-.4-.8-.6,0-.1.3-.2.5-.4.5.1,1,.2,1.4.4.2,0,.1.3.2.4,1.5,0,3.1,0,4.6-.1.7,0,1.5-.2,1.9-.1.6.1,1,.4,1.2.7.2.4.2.9.3,1.3,0,.1.4.3.5.4.2,0,.5-.2.5-.3-.6-2.5,1.2-4.9-.1-7.4-.9-1.7-1-3.5-1.5-5.3,2.6-1.9,2.6-2.2-.6-3.7-.6-.4-1.4-.7-1.9-1.1-.6-.4-1.5-.6-2.8-.6-4.8-.3-4.9-.4-4.6-2.7.9,0,1.8,0,2.7,0,.6.1,1.3.4,1.9.4,1.2,0,1.9-.3,2.7-.6,2.1-.8,4.3-.7,5.3.3.9,1,1.6,1.9,2.5,3,.7-.4,1.2-.8,2-1,.4-.1,1.3,0,2,0-.4.9.7,1.6,2.9,2,1.3.2,2.7.4,4.1.5.9,1.2,2.7,2.2,4.8,3.2h0c2.3-.2,4.7-.3,7-.4,1.9-.2,3.8-.4,5.6-.7,2.1-.3,2.4-1.1,2.3-1.9-.1-.7-1-1.1-2.8-1.1-2.5-.1-4.5-.5-4.9-1.6,0-.5,0-.9,0-1.4.5-.2.9-.5,1.5-.7,1-.3,1.8-.6,1.1-1.1-1-.8-1.6-1.7-3.1-2.4-.2-.1-.5-.2-.6-.3-.2,0-.4.1-.8.2-2.5.4-3.3,1.2-3.2,2.2,0,.4.2.9.2,1.3h-4.1c-.4-1.7-2.7-3.1-5.6-4.3-.7-.3-1.2-.2-1.8,0-2.7.6-5.4.5-7.2-.5-1.3-.7-3.6-.5-5.2-1,0,0-.1,0-.2,0,0,0,0,0,0,0,.9.3,1.5.7.6,1.1-1.1.5-3.1.6-4,.2-.7-.3-1.1-.7-1.7-1.1-1-.6-2.5-.6-4-.5-1.9-.1-3.4,0-4.5.7-.7-.3-1.4-.7-2.1-1h-.1c1.5-.5,2.8-.9,3.3-1.6.7-.3,1.2-.8,2.1-1,.9-.2,2.4,0,3.3,0,1.5-.3,2.3-.8,2.2-1.4-.1-.6-.9-1.1-1.4-1.7,1.3-.4,2.8-.4,4.3-.5,1.8,0,2.9-.6,2.8-1.1-.1-1.7-1.2-3.2-5.2-4.2-.9-.2-1.2-.7-1.8-1.1v-.3c-.2-.5-1-.8-2.5-.8h-.2s0,0,0,0c0,0,0,0,0,0h0c1.4-.1,2.9-.3,4.3-.4,1.1-.1,2.2-.2,2.2-.8,0-1,0-2.1,0-3.1,0-.6,0-.6-3.3-.8-1.8,0-2.8-.3-3-1,.7-.2.7-.4,0-.7.6-.1,1.4-.4,2-.4,1.5.1,2.4-.2,2.4-.6.2-1.9.4-3.8.3-5.8,0-.6-.6-1.2-1.7-1.6-2.7-.9-2.6-2.1-3-3.3-.3-1.2-.4-1.2-5.1-2,.6-.8.3-1.7-.4-2.5.6-.5,1.1-1.1,1.8-1.6,1.1-.8,1.6-1.6,1-2.5-.9-1.3-.5-2.6,1-3.8,1.1,0,2.2,0,3.3,0,.6.4,1.4.7,1.7,1.1.6.7,1.3,1.3,3.9,1.1,1.3,0,4.4-.4,5.3-.7.5-.2,1.2-.4,1.8-.5,1.5,0,3.1.1,4.6,0,1.2,0,2.1-.4,2.2-.8.2-.6.2-1.2.3-1.7,1.1-1.2-.2-2.3-1.2-3.5-.6-.7-1.1-1.6-.5-2.2,1.5-1.5,1-3.3,4.1-4.7.5-.2,1.4-.4,2.1-.4,3.6,0,5-.6,5.1-1.9,0-.4.6-.6,1.3-.5s1.6.3,1.8.5c.6.7.8,1.5,1.5,2.2.5.5,1.4,1.1,2.2,1.6.7.4,1.4.3,2.5-.3.4-.2.8-.4,1.4-.7.3.9.5,1.6.7,2.3-.1,1.2-.3,2.4-.5,3.7,5.5-.6,5.7-.6,5.8-2.1,0-1.3.4-2.3,4.1-2.9.5,0,.4-.8.6-1.2.1-.5.3-1.1.3-1.7,0-.5,1-.7,2-.8,1-.2,2.1-.2,3.1-.3,3.9.4,4.5.2,4.5-1.2,0-.1-.2-.3-.3-.4,2.2-1.2,1.8-2.6,2.1-3.9.7-.2.7-.4.3-.7.8-1.3,2.2-2.5,4.8-3.5.8-.3,1.6-.8.9-1.2-2-1.2.1-2.3.5-3.4,0-.2-.7-.6-1.2-.6-2.4,0-4.7,0-7.1,0-2.3,0-3,.2-3.1.8,0,1.4.4,2.7,1.6,4,.3.3-.8.8-1.4,1.1-.8.4-2.3.4-3,0-3.5-1.4-4.4-3.1-3.9-5,.4-1.2.1-1.2-.9-1.5-2.3-.8-6-.9-7-2.3-.8-1.1,1.6-2,1.2-3.1,0,0,.2-.2.5-.4,2.2.3,4.4.6,6.7.8,3.6.3,5.2,1.2,6,2.5.3.4.8.8,1.5,1.5,1-.9,1.8-1.6,2.5-2.3.6-.6,1.7-.9,3.3-1.2,2.2-.4,2.2-.6,0-1.2-3-.8-4.1-1.8-3.1-3.1,1.5-1,1.5-2,.7-3-.3-.4-1.3-.7-2-1,.2-1.2,1.5-2,5.1-1.9,1.1,0,2.2-.5,1.9-.9-.9-1-4.2-1.9-1.4-3.2-.6-.4-1.2-.7-1.9-1.1-1.6-.9-1.9-1,0-1.9,2-.9,1.1-1.6.6-2.5,0-.1-.7-.2-1-.2-2.7.1-5.3.3-7.9.5-.5,0-1,.5-.9.7.4.7,1.1,1.4,1.5,2.1.3.4.9,1,.4,1.2-2.1,1-1,2-.2,2.9,0,.1-.2.3-.5.4-.6.1-1.4.2-2,.2-3.1-.3-4.5-1.7-8-1.8-.6,0-1-.5-1.5-.8,0,.1-.2.2-.2.2,0,.6.1,1-.2,1.1-.3.2-1.2.2-1.8.3-.3,0-.8-.1-.9-.2-.9-.8-1.1-1.6.7-2.3.3-.1.8-.3.9-.2.2,0,.5.1.8.2.1-.2.5-.4.9-.5,3.4-.5,5.1-1.3,5.2-2.7,0-.6.3-1.2.8-1.8.2-.2,1.1-.5,1.7-.5,4.9.1,7.4-1.2,9-2.5,1.2-1,2.8-1.2,5.2-1.4.6,0,1.1-.4,1.7-.6,1.3,0,2.6,0,4,0,.7,1.2,1.4,2.5,2,3.7,0,.7.1,1.4.1,2.1-.9.3-2,.5-2,1,.2,1.3,0,2.7.8,4,.8,1.2,1.1,2.4.1,3.5-1.8,2.1-.5,4.1,1.4,6.1-.1.6-.3,1.1-.5,1.7-2.1.2-3.1.7-3.3,1.5-.8.8-1.4,1.7-1,2.6.2.6.1,1.2,1.4,1.7,1.1.4,2.4.8,3.4,1.3,1.2.6,2.2,1.4,1.5,2.1-2.6,2.7-.9,5.3,0,7.9.7,1.9,1.1,3.8.9,5.8,0,.6-1.3.9-3.3.8-1.1,0-2.1-.6-3.2-.1-.7.3-1.3.8-1.3,1.1-.2,1.7.8,3.2,2.6,4.8,1.1.9,2.4,1.9,2.9,2.9.5.8-.1,1.8-.2,2.7,0,.3.7.5,1.6.4.3,0,.5-.2.6-.3.2-.3.4-.6.4-.9-.1-.4-.5-.9-.6-1.3-.2-.7.5-1,2.7-1.1.8,0,1.6,0,2.4,0,1,0,1.5,0,1.8-.4,2.1-3,4.1-6.1,1.9-9.2-.7-1,.1-1.7,1-2.5.6-.5.5-1.2,2.1-1.5.8,0,1.7,0,2.5,0,1.9.9.9,2.4,4.4,3,.8.2,1,.8,1.4,1.2.6.7,1.1,1.4,1.6,2.1-.3.9,0,1.8,1.8,2.5-1.7.6-3.7.2-5.5.3-2.1,0-4.1,1-2.9,1.5,2.7,1.2,1.4,2.5,2.3,3.8.3.4,1.1.6,2.6.3,1.5-.2,2.7-.5,2.6-1.2,0-.6-.2-1.2-.1-1.8,0-.2.5-.6,1-.7,3.2-.6,2.6-1.7,2.8-2.7.7-.8.6-1.5-1.6-2-.2-1.3,1.1-2.7,0-4-.2-.2.5-.5.8-.8,4.2.4,8,1.4,12.6,1.2.9.8.1,1.4-.9,2.1-.9.6-1.1,1.5-3.9,1.2-.4,0-1.1.3-1.6.6-.2,0-.2.3-.2.4,0,1.5.5,3-.3,4.5-.6,1.1.3,2.1,1.1,3.1.8.9,2.2,1.2,6.4,1.1,1.1,0,2.4,0,2.7.6.2.6.6,1.2.5,1.8-.2.7-1.1,1.4.2,2.1.1,0-.8.5-1.3.6-.5,0-1.5-.1-1.7-.3-.5-.4-.4-.9-.9-1.3-.2-.2-1-.4-1.6-.5-1.9-.2-4.4.4-4.2,1.1.7,1.9,1.4,3.8,2.1,5.8.1.4-1.3.8-2.4.7-1.5,0-3.1-.3-4.6-.3-2,0-4,.2-5,.9-1.9,1.4-5,1.8-8.8,1.7-.2,0-.6.1-.7.2-.4.3-.2.6.6.7,2.5.3,4,.9,3.7,1.9-.9,2.4-.4,4.8.2,7.1,0,0,.5.2.6.2.4,0,.9-.1,1-.2.9-1.4,1.6-2.9,2.6-4.3.3-.4,1.3-.7,2-1,1.4.4,1.7,1,2.3,1.5.2.2,1.2.2,1.9.3.3,0,.8-.1.9-.2.9-.7.9-1.4.5-2.2h0c.9.3,1.8.7,2.7,1.1.5.2.9.5,1.4.7,3,.9,4.3.7,5.2-.8,1.1-.8,3.1-1,5.3-1.1.5.2,1.5.5,1.3.6-1.4,1.3-1.1,2.6-.9,4,0,.2.9.6,1.4.6s1.5-.2,1.8-.5c.5-.4.8-.9.8-1.3,0-2.1-.1-4.2-1.8-6.2-.8-.9-.4-1.7.9-2.6.8-.5,1-1.1,1.5-1.7,1.6,0,2.1-.3,1.8-.8.1-1.2.4-2.4.2-3.5,0-.5-.7-1.2-1.8-1.6-2.5-.7-3.3-1.6-3.3-2.7s-.3-2.7-.5-4h3.3c3.3,0,4-.1,4.2-1,0-.3,0-.6,0-.9-.1-.6-.6-.7-2.2-.2-1.2.3-2.1.2-2.7-.3-.3-.3-.2-.6-.4-.9,1.5-1.3.4-2.7.5-4.1.9-.8,1.9-1.6,2.8-2.4,1.8-1.6-.9-3-5.5-2.8-.8,0-1.5.2-2.3.2-1.3,0-3.3-.7-2.8-1.1.4-.3,1.3-.7,2.1-.9.6-.1,1.6-.2,2.2,0,4.8.8,9.9.8,15,.7,1.8,0,3.6.1,5.4.2,0,1-.1,2,.1,3.1.2.7.9,1.4,1.3,2.1,1.2,0,2.3.2,3.5.2.2.9.4,1.7.7,2.6.1.5,1.3.6,2.5.4.6-.1,1.1-.4,1.8-.5,1.2-.2,2.6,0,2.6.5,0,.7-.4,1.5-.4,2.2s.5.5,1,.7c.6.3,1.5-.3,1.4-.9-.1-.4,0-1-.5-1.3-1.8-.9-2-1.8-2-2.8,0-.5-1-1.1-1.5-1.6,1.4,0,2.8,0,4.2-.1,1.2-.1,2.2-.4,2.3-.9.8-2.2,1.8-4.4,2.1-6.6.3-2.1,3.1-4,2.2-6.1,3.1-1.3,1.8-3,3.2-4.5.2-.3.9-.5,1.3-.7,2.1,0,4.1-.2,6.2-.3-.2,2.4-.4,4.8-.7,7.1,0,.6-.8,1.1-1.5,1.7-1.5,1.1-1.3,2.3-.8,3.5,0,.1.3.3.4.4.5-.2,1.4-.3,1.6-.5.6-.7.8-1.5,1.5-2.2,2.6-2.4,4.3-4.8,4.1-7.4,0-.6.6-1.2,1.8-1.6,1,.4,1.9.8,2.8,1.2,0,.4,0,.9.1,1.3.3.7.9,1.4,1.3,2.1.4.7.5,1.4-.7,2-.8.5-1.2,1-1.4,1.6-.2.7-.8,1.4-1.9,2-1.2.7-1.1,1.4,0,2.1.4.2,1.3.4,1.9.4s1.5-.2,2-.4c1.2-.6,1.3-1.4.9-2.1.4-.4,1-.5,1.4-.2,1.5,1,.9,2.4,3.1,3.3.8.3-.1.8-1,1.1-1,.4-2.2.3-3.3.2-.4,0-.7-.1-1.1-.2-1.7-.3-3.1-1.1-5.2-.4-1.7.6-1.1,1.4-1.1,2.1,0,1.1.9,1.4,4.3,1.6.8,0,1.6,0,2.4,0,.8,0,2,.8,1.6,1.1-1.7,1.3-2.9,2.7-3.6,4.2-.6,1.2,4.1,2.5,7.4,2,.7-.1.8-.6-.4-1-1.6-.6-1.4-1,0-1.5.8-.3,1.7-.6,3.1-.4,1.5.2,2.9.5,4.5.6,1.6.1,2,.8,1.7,1-2,1.4-2.2,2.9-2.2,4.4,0,.6-.8,1.1-2.2,1.4-1.6.4-2.9,1-4.2,1.6-1.7.8-.7,1.7,2,2.1,1.4.2,2.9.4,4.2.7,1,.2,1.3.9.5,1.1-.6.2-1.2.4-1.9.5-2.5.5-3.2,1.3-2.8,2.2.2.4.4.9.3,1.3,0,.2-.8.5-1.4.6-2.3.4-2.5,1-2,1.8.2.3.3.6.5.9,0,.6-.1,1.1-.2,1.7-1.5.2-2.3.6-2.2,1.2,0,.5.3,1,.5,1.5,2,0,3.9,0,5.8,0,1.1,0,2.3.3,2.4.8,0,.3.3.6.3.9.3,1-.4,1.4-2.9,1.6-.4,0-.8,0-1.2,0-2.1,0-3,.4-2.9,1,.1.4,0,1,.5,1.3,2.4,1.5.9,3.2,2.6,4.8,0,0,.5.2.8.2.4,0,1,0,1.1-.1.5-.4.8-.9,1.4-1.2.6-.3,1.5-.7,2.4-.8.5,0,1.4.2,2.1.4,2.2.3,2.2.3,3.3-.4.4-.2.4-.7,1-.8,3.1-.7,4.2-1.7,4.4-3,0-.7,1.2-1.1,2.7-1.3,1.2-.2,1.6-.7,1.9-1.1.4-.6.4-1.2,2.5-1.2,2.7,0,4.6.5,5.8,1.3.5.4.9.8.9,1.3,0,1,0,2.1-.1,3.1,0,.2-.8.4-1.4.5-1,.2-1.4,0-1.5-.5,0-.3-.3-.6-.8-.8-.4-.2-1.5-.5-1.9-.4-1.3.3-3.3.6-3.6,1.1-.9,1.3-1.3,2.7,0,4,.2.2,1,.4,1.7.5.7.1,1.6,0,2.3.1,1,.2,2.5.3,2.1.9-.7,1.1-.7,2.1,1.1,3,2.5,1.3,3.4,2.7,3.5,4.2,0,1.1.5,2.1.8,3.1.2.3.5.5.4.8s-.7.4-1,.7c-.5-.2-1-.3-1.5-.4-.2,0-.2-.3-.2-.4-1.7.3-2.5.8-2.4,1.4.2.9.2,1.9,1.3,2.6,1.7,1.1,2.5,2.2,2.1,3.4-.3,1,1.2,1.6,3.8,1.9.5,0,.8.4,1.1.7.2-.1.5-.3.9-.4,1.5-.5,2.8,0,4.2,0,.8.1,1.5-.2,1.3-.6-.2-.2-.6-.6-1.1-.7-1.5-.3-2.8-.5-3-1.2-.1-.5.7-.8,1.4-1.2.3-.1.5-.2.8-.3.5-.2,1.3-.4,1.5-.7,0,0-.8-.4-1.4-.5-1.4-.3-2.8-.5-4.2-.9-.6-.2-1.1-.5-1.1-.8,0-.2,1-.5,1.6-.5,1.8,0,3.1-.2,3.4-.9.7-1.8,1.4-3.5,2-5.3.2-.6-.6-1-2.7-1.2-.8,0-1.6,0-2.3-.2-1.3-.1-2-.5-2-1-.1-.9,0-1.8,0-2.7,0-.9.6-1.8,1.8-2.6,1.4-.9.8-1.7-.8-2.5-1.3-.6-1.8-1.3-1.4-2.1.4-.9.4-1.8.8-2.7,0-.2,1-.4,1.5-.6l1.3-.6c.5.2,1.3.3,1.4.5.1.2-.3.5-.4.8h0c-.3.6-.9,1.2-.9,1.7,0,.6.8,1.2,2.6,1.3.6,0,1.4-.2,2-.3.2,0,.4-.3.3-.4-1.3-2.8.4-5.6-.1-8.4-.2-.9-.4-1.7-1.8-2.5-.6-.3-1-.8-.8-1.2.7-1.8,1.6-3.5,2.4-5.3.2-.3.6-.4,1.6-.5.9,0,1.5,0,1.9.3.2.1.5.2.7.3-.5.7-1,1.4-1.4,2.2-.3.6.7,1.1,2.4,1.3.6,0,1.8,0,2.1-.2.6-.3,1.2-.8,1-1.2-.4-.7-1.3-1.4-2-2.1.7-.1,1.4-.3,2.1-.3,2.7,0,4.9-.5,4.6-1.6-.3-1.3,1.3-2.3,1.5-3.5,0-.3,0-.7-.4-.8-1.2-.3-2,0-2.8.4-.5.2-1.3.3-2,.4-2,.3-3.3-.2-3.4-1.1,0-.4-.3-.9-.5-1.3-.3,0-.8.1-1,.2-.4.2-.9.5-.9.8,0,.3.6.6.5.8-.4,1.6-1,3.2-1.5,4.8,0,0-.7.1-1.1.2-.3,0-.8,0-.9,0-.6-.4-1.3-.8-1.5-1.2-.7-1.6,1-3.3-1.2-4.8-.3-.2,0-.6.1-.9,1.6-2.8,1.6-5.6,1.4-8.5,0-1,1.1-1.5,4.2-1.8,3.4-.3,6.8-.7,10.5-.7.3,0,1-.6.9-.7-2.3-.7-3-1.7-3.5-2.7-.3-.7-.2-1.1,1.1-1.6.7-.3.8-.8.8-1.2,0-.7-1.7-1.1-3.2-.8-1.1.2-2,.5-3,.7-3.1,0-6.2-.1-9.3-.2-1.3-1.7-2.4-3.3-2-5.1.2-.8-.4-1.7-.6-2.6,1.4.2,2.7.3,4.1.5.2.7.5,1.5.6,2.2.1.6-.4,1.2,1.5,1.5,1.4.2,2.2-.2,3-.6,1.5-.6,3.4-.7,5.4-.4,1.8.3,3.4.7,5.2,1,.9.2,2.3-.3,2.2-.8,0-.4,0-.9-.3-1.3-.9-1.1-2-2.3-3-3.4.5-.2.5-.5,0-.7,2.2-.7,2.2-1.7,1.9-2.7.5-1.1.3-2.2-2.2-2.9,0-.6,0-1.2-.4-1.7-.4-.5-.2-.8.6-1.1,1.5-.6,1.4-1.3,0-1.9-1.4-.6-2.3-1.2-2-2,.5-1,.2-2-.5-3,0-.4,0-.7,0-1,.6-.2,1.3-.4,1.8-.6,2.3-.9,2.4-1.3.7-2.3-.7-.4-1.7-.5-2.8-.3-.7.1-1.2.4-1.9.5-1.7-.3-3.4-.6-5.1-.9-1-.9-.2-1.7,1.4-2.4,1.3-.5,3.3-.6,5.3-.6l2.2.3c1.3.4,2.6.3,3.8,0,.7-.2,1.3-.5,1.9-.8,2.2,0,3.7.6,4,1.4.5,1,.5,2.1.3,3.1-.3,1.3.6,2.3,2.5,3.4,1,.5.1,1.1-1.8,1.2-.8,0-1.6,0-2.4,0-1.3,0-2.2.5-1.4.8,2.3.9,3.7,1.9,4.3,3.1.5,1.1.4,2-2,2.8-2.1.7-2.2,1.5-.3,2.3.5.2.9.5,1.1.8.3.4,5.1,4.2,5.7,4.5.2.1.3.3.4.4-.4.7-.7,1.4-1.1,2.1-3,.7-4.4,1.7-3.9,3,.4,1,1,2,1.7,3,.4.7,2,.8,3.5,1,.6,0,1.4.3,1.6.6.7.9.2,1.7-1.3,2.5-1.3.6-2.5,1.1-4.8.9-.7,0-1.5,0-2.3,0-1,0-1.6.8-.8,1,3.5,1,4.7,2.2,4.5,3.8,0,0,.5.2.7.3.6.5,0-.1,1,0,1,1.7,1.8,3.4.5,5.2-.3.4,0,.9-.1,1.3,0,.6,1.3,1.2,3,1.2,4.9,0,9.2.4,13.3,1.5,2.4.6,5.2,0,7.4-.8,1.2-.5,1.8-.7,2.5-.7-1.1,0-1.8-.4-2-1.1-.2-.6.6-1.2-.8-1.7-.2,0-.6-.2-.9-.2-.4,0-.8,0-1.1.2-1.3.5-.8,1.1-.6,1.7.1.4-.2.5-1.2.7-1.2.1-2.3,0-2.8-.4-.9-.7-1.8-1.3-2.7-2,0-.7-.1-1.4-.2-2.1,1.8,0,3.9.6,5.4-.3.3-2.2.7-4.4-1-6.6-.3-.4.6-.9,1.6-1,1.4,0,2.3.2,3,.5,1.7.9,2,1.9,1,2.9-1.1.3-1,.6,0,.9.4.2.8.5,1.3.8,1.1.4,2.2.8,3.8.2.9-.3,2.4-.3,3.1.1.5.3.8.9.4,1.2-1,.7-1.8,1.3-1.4,2.1,0,.2.2.4.3.4.7,0,1.7,0,2,0,1-.5,1.7-1,2.5-1.5,1.5-1,1.2-2,.4-3-.5-.5-1.7-.9-3.6-.9-1.2,0-2.3,0-3.5,0-.7,0-1.6-.3-1.7-.5-.4-1.1-.5-2.3-.6-3.4,0,0,.5-.2.9-.3,3.5-.7,6.6-.3,6.9,1.1,0,.2,0,.3,0,.5,0,.1.1.2.2.3.7-.1,1.8-.2,2-.3,1.4-1,2.8-2.1,2-3.4-.2-.3.7-.4,1.4-.6,2.4-.7,2.5-.9,1.1-1.8-1.2-.8-2.6-1.4-1.8-2.4.7-1-.4-1.8-3-2.1-2.3-.3-4.3-.7-5.7-1.5-1.2-.7-3.3-.9-5.2-.6s-3.5.5-5.1-.2c-1-.5-2.4-.8-3.6-1.1.5-.6,1.1-1.1,1.6-1.7,2.3-.6,4.2-1.3,5.5-2.2.7-.5,1.8-.9,3.4-1.1,3.5-.4,3.2-1.5,3.4-2.5,0-.2-1-.5-1.5-.5-3.1.1-6.1.3-9.2.4-1,0-2-.4-3-.6,1.7-.6,3-1.3,3-2.3,0-.4.9-.8,1.4-1.1.5.2.8.5,1.4.7,1,.3,2.8.1,3-.2,1.2-1.3,1.1-2.6.9-4,0-.5.9-.7,2.3-.7,1.6,0,3.1.2,4.7.2s1.6-.2,1.8-.4c1.5-2,2.9-4,4.2-6.1.4-.6.7-1.2.4-1.8-.9-1.7,0-3.3,1-4.9,3,.8,6,1.7,9,2.5-1.6,1.1-2.2,2.2-1.5,3.4.1.2.8.5,1.4.6.7,0,1.6,0,2.2-.1,1.8-.4,2.7-1.1,2.3-1.9-.5-.9-1.2-1.7-1.8-2.6-.6-1-1.1-2-1.7-3-.7-1.1,1.7-1.9,1.8-3,0-.3,0-.6,0-.9,1-.2,2.5-.3,3.1-.7,2.2-1.2,3.8-2.6,4-4.2,0-.3-.2-.8-.7-.8-1-.2-2.3-.1-3.5-.2-1.5,0-3-.1-4.5-.2,1.5-1.7,4.4-2.6,9.3-2.3.6,0,1.3-.2,1.9-.4,1,0,2.1,0,3.1,0,0,1.2.5,2.3-.8,3.5-1,.8-1.1,1.7-.6,2.6.8,1.3,0,2.7-1.4,3.9-2,1.7-1.9,3.4-2.5,5.2-.1.1-.4.3-.3.4.3.4.5,1,1.3,1.1,1.6.3,3,0,3.7-.6.7.1,1.7.1,2,.3,1.3.7,2.4,1.6,3.5,2.3.5.3,1.1.4,2,.2.3,0,.8-.1,1-.2.8-.7,1.6-1.4,2.1-2.1,1-1.6,3.8-2.6,7.3-3.4,1-.2,2.3-.2,3.2.2,0,.5.2,1,.2,1.5-1.5.4-3.5.6-4,1.4-1,1.6-2.8,3-5.7,4.2-1.8.1-3.7.2-5.5.3-1.8-.2-3.8-.4-5.5-.7-4-.7-3.9-.8-4.9.9-.2.3-.2.6-.4.9-.6,1-.7,1-4.1,1-.8,0-1.6,0-2.3,0-.2,0-.4.2-.5.3-.1.1-.4.4-.2.4,1.2.4,2.4.8,3.8,1.1,1.2.3,1.4.7,1.5,1.1,0,.5-1.4.6-3.8.4-1.1,0-2.3-.2-3.4-.2-.3,0-.8,0-1,.1-.7.3-.6.5,0,.8,2.9,1,5.7,2,8.6,3.1-.4.5-.7,1.1-1.1,1.6-2.7.2-3.3,1.1-4,1.9-.6.6-1.7.9-3.3,1-1,0-1.3.3-.8.7.4.2.8.5,1.4.6,1.9.3,3.8,0,5.5-.3,1.6-.3,1.1-1,1.7-1.5h4.2c-.5,3.3-1,6.5-1.5,9.8-.1.7-1.8,1.1-3.2.7-.6-.2-1.5-.3-2-.5-.8-.3-2-.4-1.7-1,.8-1.4,2.3-2.8,2-4.3,0-.1-1.2-.4-1.6-.4-1.6.3-2.5,1.1-4.9.9-.3,0-1.4.4-1.4.6-.2,2.1-.5,4.2,0,6.2.5,2.1.3,4.1.3,6.2s-1.2.3-1.6.5c-1,.5-.9.8.7,1.5.2.1.5.2.8.3-.2.6.1,1.3-.6,1.7-3.1,1.9-3.4,3.8-1.5,5.9.4,1.1,2.1,1.8,5.1,1.9,1,0,1.5,0,1.6-.4,0-.5.1-1.1.2-1.6.5-.1,1-.3,1.5-.4,1.4-.3,2.5-.2,3.4.3h-.3c1.1,1,3.2,2,1.5,3.3-1,.7.1,1.4,1.3,2.1.4.2.6.4.7.6.3-.2.7-.3,1.4-.4.7-.1,1.5-.2,2.2-.3,1.2-.2,1.4-.6,1.2-1.1-.4-.8-3.5-1.3-1.6-2.3,1.2-.6,2.2-1.2,3.3-1.8,1,.4,1.9.9,3,1.3,1.1.4,3.2.2,3.6-.4.5-.7.3-1.4-1.8-1.8-.2-1.3-.3-2.5-.5-3.8,0-.6,0-1.1.9-1.6,1.5,0,3,0,4.4,0,.3,1,.6,2.1.8,3.1.2,1,.2,2.1,1.8,3,1.2.7,1,1.5.8,2.2-.2.8.5,1.4,1.8,1.9,0,0,0,0,0,0,1.8-.5,2.3-1.2,2.9-1.9.7-.1,1.4-.2,2.1-.4.6.4,1.8.7,1.8,1.1,0,3-.3,6-.5,8.9,0,.4-.7.8-1,1.3,0,.1-1,0-.6.2,4.1,1.4,4.2,2.4.5,3.7-1.1.4-2.5.7-3.5,1.1-.3.1.1.5.3.8,0,0,.6.2.8.2,2.2-.3,4.4-.6,6.6-.8.9,0,1.5-.2,1.5-.6,0-2.1,1.4-4.1,2.5-6.1.7-1.2-.2-2.3-2.7-3.3-1.2-.4-1.7-1-1.2-1.6.7-.9,1.4-1.7,1-2.6-.8-1.7,2.3-2.4,5.9-2.8,1.7,0,3.3,0,5,0,1.3.4,1.8,1,1.8,1.6s-.1,1.5-.2,2.2c-.7.6-.5,1.2.2,1.8.2,2.3,0,4.7.8,7,.6,1.7-.2,3.5-.3,5.2-.2.3-.5.6-.5.8,0,.5.7.9,2,1,1.9.2,2.8-.3,3.1-.9.6-.2,1.3-.4,1.9-.6,1.5,0,3,0,4.4,0,2.1,0,3.1-.4,3.3-1.3,0-.4-.1-.8-.2-1.2,1.5-1,3.2-1.2,5.4-.2.2,0,1.8,0,2-.2,1.8-1.2,1.9-2.5,2.3-3.9.2-.6,1.4-.7,2.5-.8,1.4-.2,3.6.4,3.3.8-1.3,2.2-2.2,4.4-1.7,6.6-1.3,1.2-2.4,2.5-6.1,3.1-1.9.3-3.4.7-3.9,1.5-.2.2-.8.6-1.4.7-5.3.3-7.8,1.9-10.7,3.2-.7.3-2.7.4-2.8.7-.4,1.2-1.6,2.3-3.3,3.3-1.8,1.1-.6,2.3-1.7,3.4,2.4.2,4,.8,4,1.8,0,3.6,2.8,7,2,10.6,0,.3.5.6.6.8.2.4,1.6.5,2.8.3,2.2-.3,2.1-1.1,2.7-1.8.4-.4,2.3-.4,2.9,0,.4.2.5.6.9.8.4.2.9.4,1.4.6.1-.1.4-.3.3-.4-.3-.7-.6-1.4-1.1-2.2-.6-.9-.9-1.7-.3-2.6,1.3.3,2.7.6,4,.9.5,1.9,1.5,3.8,3.2,5.6,1.3,1.4,1.8,2.9,2.7,4.4,2.6-.9.8-2.4,2.9-3.3,2.1-.9.8-2,1.6-3,.5.1,1,.1,1.5,0,1.5.9.5,2.3,4.3,2.9,2.3.4,2.2,1.5,1.5,2.4-.7.9-3.6,1.5-3.4,2.6-1.5-.2-3.1-.1-4,.4-1.1.6-2.2.8-3.8.5-1.1-.2-2.2-.4-3.3-.5-1.1-.1-2.7.2-2.8.6-.5,1.6-.8,3.2-2.3,4.8-.4.4,0,.9.3,1.3,3,3.2,1.8,6.5.8,9.8-.2.7-1.4,1.4-3.6,1.6-.4,0-.8,0-1.1.2-.7.3-1.7.7-1.8,1.1-.2.9,0,1.8,0,2.7,0,.9.4,1,3.6.7,1.3-.1,2.9,0,3,.2.5,1.9,2.3,3.8.4,5.7-.7.7-.5,1.5-.4,2.2.3,1.2.4,2.4-.5,3.6-.4.6-.6,1.2-.3,1.8.7,1.5,0,3-.3,4.5-.2,1.2-.8,2.4-.6,3.6.2,1.7,0,3.3-1.8,4.8-.6.5-.8,1.2-.6,1.8,1.1,2.8,0,5.7.3,8.5-.1,1.8-.3,3.6-.4,5.3,0,.6.3,1.2,1.6,1.6.5.1,1.5,0,2.2,0,.3,0,.6-.2.6-.4,1-2.3,2.4-4.6-.2-7,.5-1.1,1-2.3,1.4-3.4,2.9-1,1.9-2.5,3.2-3.7.4-.3,1.7-.6,3-.4,1,.2,1.9.4,2.9.7-.4.9-1.5,1.7-2.6,2.5-1.6,1.2,0,2,3.5,2.1,2,0,3.9,0,5.9,0,.8,3.1,2.1,6.2,2.2,9.4,0,.6,0,1.3,1,1.7,2.8,1.2.5,2.2-.3,3.3-2.5,1.3-2.5,1.4-.2,2.7-.9,3.9,0,9.6,2.2,13.8v.4c-2,1.2-2,2.6-1.4,3.9,1.3,2.7.9,5.4.3,8.1-.3,1.3,0,2.7,0,4.1,0,1.1-.3,2.1-.3,3.1,0,1.1-.2,2.1.3,3.1,1.3,2.8,1.1,5.6.1,8.5-.7,2.1-.9,4.2-1.2,6.3,0,.4.5,1,1.3,1.2,3.4.9,2.4,2,1.8,3.2-.3.6-.5,1.2-1.4,1.7-1.4.8-1.8,1.8-1.1,2.6,1.3,1.5.3,2.9,0,4.4-.5,1.6.1,3.3.4,4.9.3,2.1.8,4.2,1.1,6.3.1,1,1,1.6,2.8,2.3,3.4,1.4,3.2,2.6.5,4-.9.5-1.8.3-2.7,0-.5-.2-1.4-.5-1.6-.5-1,.2-1.8.5-2.5.9-.2.1-.2.3-.3.4-.3.9-1,1.8-1,2.7.3,3-1.1,6-1.2,9-.1,3.1-1.2,6.3-.4,9.4-.2.5-.4,1-.6,1.5-.2.7.3,1.6-.6,2.1-2.6,1.5-1.7,2.8.7,4-.7.9-1.4,1.9-1.9,2.8-.2.4.3.8.5,1.2.9,1.3,1.2,2.7-.2,4-1.9,1.8-2.7,3.7-2.7,5.7,0,.4-.6.9-.9,1.3-.7,1,.3,1.7,1.8,2.5,1.3.7,1.1.7-1.5,1-2.1.2-3,.5-2.9,1.1,0,.4,0,.9.2,1.3.5.9,2.8,2-1.1,2.6-.2,0-.3.3-.3.4-.4,2.5-1.3,5-2.4,7.5-.2.4,1.2,1,2,.9.7-.1,1.4-.2,1.8-.5.4-.2.3-.6.7-.8.8-.5,1.7-1,2.6-1.5,1.8.2,3.6.5,5.4.7,4.3-.8,8.6-1.6,12.9-2.4h.2c1.2,0,6.9-1,7.8-1.2.5-.1,1.3-.3,1.7-.2,1.8.2,3.4.6,5.2.9l-.3.3.6.2c-.1,1-.4,2-.4,3,0,.9-1.5.7-3,.7-.3,0-.9,0-1,.1-1.8,1.4-4.3,2.7-4.5,4.5-.2,1.7-1.6,3.5-.4,5.2-1.5.1-3.1.2-4.4.5-1.8.3-3.6.5-5.6.5-1.3-1-1.5-2-1-3,.7-1.4,0-2.7-1.6-3.9-.2-.2-1.2-.3-1.9-.3-.8,0-2.6.6-2.4.8.3.4.5.9,1.1,1.2,2.9,1.3,2.7,2.7,1.2,4.2-.3.3-.3.6-.5.9-.4.6-2.3,1.2-3.1,1-1.1-.3-.8-.7-.6-1.2,0-.1-1-.4-1.5-.5-.2,0-.8.1-.9.2-.3.2-.4.5-.6.8-.2.3-.3.6-.5.9-.5.5-1.8.6-3.8.3-2.2-.4-3.1-.3-3.5.3-.5.9-.8,1.8-1.6,2.6-.9.9-.8,1.7.5,2.5,2.4,1.7,2.5,3.4-1.1,4.9-.7.3-1.1.8-1.5,1.2-.6.6-.8,1.2.3,1.7,2.5,1,1.6,2.2,1.7,3.4-.9,0-1.8,0-2.7,0-.6.1-1.8.2-1.9.3-1,1.7-1.8,3.3-2.7,5-1.1,1.2-.9,2.4-.2,3.6,0,.7.5,1.6-.3,2.2-2.3,1.7-1.6,3.4-1.9,5.2-.5,2.8.5,5.6-1.9,8.3-.6.7-.2,1.5-.2,2.2-1,1.3-1.1,2.5-.4,3.8,0,.8,0,1.7.1,2.5,0,.4.4.8.8,1.2.2.3,1,.2,1.7,0,.7.1,1.3.1,2,0,.2.3.4.6.6.9.7.9.5,1.8-1.4,2.5-1.7.6-1.5,1.3-1.4,2.1.2.4.3.9.7,1.3.3.2,1.1.4,1.7.6,2.3.6,3,1.3,1.9,2.3-.5.4-1,.8,0,1.2,0,.6,0,1.2,0,1.9-1.6.3-3.2.7-4.9,1-1.7-.9-2-1.8-1.8-2.9.4-.2,1.1-.4,1.2-.7.4-.6-.5-1.2-1.9-1.3-1.3-.1-2.7.2-3.2.9-.3.4,0,.8,1,1.1-.3,2.1-1.1,4.2.2,6.4-.5.2-1.1.4-1.5.6-.8.5-.6,1.1.5,1.5,1.2.5,2.6.4,4,0,.6-.1,1.3-.3,2-.4,1.2.6,1.7,1.3,1.5,2.1-.6,1.9-1.4,3.8-1.8,5.8-.2.7.3,1.5.3,2.2,0,1,2,1.5,3.9,2,.3,0,.5.2.7.4-.3,0-.7.2-1,.2-2.3,0-4.7,0-7,0s-2.1.6-2.1.9c-.3,1.4.4,2.7,1.7,3.9,2.1,2,2.7,4.2.3,6.1-1.8,1.5-1,2.9-.8,4.4,0,.1,1.5.4,1.6.3,1.2-.4,2.4-.3,2.7.1,1.4,2.8.2,5.7.2,8.5-2.4,1.3-1.7,2.8-2.4,4.2,0,0-.5.2-.8.2-.4,0-1,0-1.1,0-.6-.4-1-.8-1.5-1.2-2.1.7-.6,1.7-1.5,2.5-.8.7-1.4,1.4-1.9,2.1-.2.3,0,.6.3.9,2.2,1.9,2.4,3.7-.4,5.6-1,.7-.8,1.5.5,2.1.8.4,1.1.8.7,1.2-.2.2-1.1.4-1.8.5-.9.1-1.3.3-1.4.6-.8,2.4.7,4.7,3.7,6.8-1.5.8-2.9,1.7-2.5,2.7,0,.1,0,.3,0,.5-.4,2.3,3.5,4.4,2.9,6.6-.6,2.3.3,4.5,1.8,6.6,1.1,1.6,2.7,3.1,4,4.7.3.4.6.9.2,1.3-2,1.6-1,3.2-1.2,4.9,0,.3-1.6.6-2.5.8-1.5.4-2-.1-2.6-.5-1.2-.7-1.3-1.2.2-1.5,2.9-.5,3-1.3,2.1-2.2-.8-.8-1.8-1.6-2.7-2.5-.2-.1-.7-.3-.8-.3-.6.1-1.2.3-1.7.4-1.5.5-2.5,1.3-1.8,2,1.6,1.8,0,3.5-.2,5.3-.1.7-.6,1.5-.4,2.2.4,1.3,0,2.8,4.2,3.4-.4.1-.9.4-1.2.4-1-.1-1.6,0-1.9.3-.7.9-.4,1.8,2,2.3.9.2,1.2.4.6.7-1.9.7-2.4,1.5-1.6,2.5.7.9.7,1.8.1,2.7-.9,1.4.5,2.6,3,3.7,2.2,1,2.9,2.1-1,2.9-.7.2-.6.8-1,1.3-.6.8-1.2.9-3.3.5-1.1-.2-2.2-.3-3.2-.5-.3,0-1,0-1.1.2-.8.8-2.1,1.6-2.3,2.5-.5,2.7-1.1,5.3,0,8,.3.6,1.5.6,2.6.6,3.1,0,3.1,0,3.6,1,.3.6.4,1.2,1.1,1.7.4.4,1.5.8,2.5.9,1.4.2,1.6-.4,2.1-.8.4-.2,1-.4,1.6-.6,3,1.5,8.3,2.4,8.3,4.7,0,.9.7,1.8,1.2,2.7h-3.5c-2.1-.9-1.2-2.4-3.8-3.2-.3,0-.7-.1-1.1-.1-.4,0-.7.1-1,.2-.2,0-.6.2-.5.3.5,2.4-1,4.8-1.7,7.1-.3.9-.2,1.8-.5,2.7-.7,2.4-1.4,4.8-.9,7.2.3,1.6,0,3.3-.1,4.9,0,.3-.1.6-.5.9-3,2.5-2.5,5.2-2.7,7.9,0,.4-.5.8-.8,1.3-1.2,1.6-.2,2.2,4.5,3,.4,0,1.8-.2,1.8-.3,0-1.9,5.2-2.1,7.6-3.2.2,0,.7,0,1.1,0,.3,0,.8.1.8.2.1,3.1.2,6.3-1.3,9.4-.3.6-.5.7-3.5.8-1.7,0-3.2,0-3.7.8-.8,1.2-1.5,2.3-2.2,3.5-.3.5.4.8,1.7,1,1.3.2,2.3,0,3.1-.4.3,0,.3-.3.5-.4.7-.7,1.1-1.6,3.8-1.3,1.8.2,1.7,1,1.5,1.5-.8,2.8.3,5.7,0,8.5,0,.9-.4,1.4-3.2,1.4-1.3,0-2.2.4-2.4.8-.6,1.2-1,2.3-1.4,3.5,0,.1.2.3.3.4.6,0,1.4,0,1.9-.2.8-.3,1.4-.7,2.2-1,.8-.3,2.5,0,2.9.3.6.7,1.4,1.4,1.5,2.1.5,2.1.7,4.2,1,6.3.1.8.2,1.5.4,2.2.2.9,2,1.7,1.4,2.6-.6.9-1.5,1.7-2.4,2.5-2.3,2-3.1,4-2.6,6.1.3,1.6.2,3.3-.5,4.9-.5,1.2-2.1,2.2-3.1,3.4-.8.9-.2,1.7,2.3,2.3,1.8.4,3.5.6,2.5,1.6-.5.5-.6,1.2-.9,1.8-.3.6-.9,1.1-2.4,1.5-2,.4-2.5,1.2-2.4,1.9.2,1.5-.4,2.9-1.4,4.4-1.4,2.2-1.9,4.5-.4,6.7.2.4,1.5.7,2.4.9.4,0,1.3-.2,2-.3,1.8-.3,1.9-.3,2.1.3.2.6.2,1.2.5,1.8.2.6,2.1.7,3.7.3.7-.2,1.2-.4,1.7-.6h.6c0,.1.5,0,.5,0,2.3,1.9,1.8,4.1,4.6,6-.7,1.6.7,3.3-1.9,4.8-1.2,0-2.3,0-3.5,0-.6-1.3-1-2.7-1.9-4-.6-.8-1.8-1.6-2.9-2.4-.2-.1-1.6-.1-2.1,0-.6.1-.9.5-1.1.8-.9,1.2-1.1,2.5-2.8,3.4-3.6,2.1-3.5,4.2-2.7,6.5.6,1.6.7,3.3,1.7,4.9,1.1,1.7,1.1,3.3-.3,4.9-2.2,2.5-2.6,5-.3,7.5.7.8-.2,1.5-1.7,2-1.3.5-1.2,1.1-.7,1.7,1,1,2.5,1.9,3.4,2.9.7.8.8,1.7,1,2.6,0,.1-.4.3-.7.3-.2,0-.6,0-.8,0-.9-.3-1.6-.7-2.6-.9-2.3-.6-5.1,0-5.3.9-.2.9-.5,1.8-.5,2.7s.4,1.2,2.3,1.4c2.5.2,4,.8,5.4,1.6,2.8,1.7,4.7,3.5,4.3,5.5,2,2.2,2.1,4.4,2.6,6.6.4,2.1,1,4.2,1.5,6.2-1.3,0-2.6,0-3.9,0-1.8-2.8-2-5.6-2.8-8.5-.2-.8-.6-1.5-2.2-2-.8-.2-1.4-.3-2.1,0-.7.3-1.5.7-1.9,1.1-.6.6-1.3,1-2.9,1.3-1,.2-2,.5-1.7,1,.4.9.6,1.8,1,2.7.1.2.8.5,1.4.6,1.3.3,2.1-.1,2.9-.4.5-.2,1-.5,1.5-.7.1,0,.6,0,.8,0,.3,0,.6.2.7.3.1.1.2.3,0,.4-1.9,1.5-3.8,2.9-5.7,4.4-.1,0-.7.2-.9.2-.7-.1-1.6-.2-2-.4-1.9-1-.9-2.4-3.8-3.2-.3,0-.8-.2-1.1-.2-.7,0-1.3.3-1.9.5-.2,0-.3.3-.3.4.6,3.7,1.2,7.5,1.9,11.2.2,1,1.5,1.7,3.9,2,1,.4,2.1.8,3.1,1.2-.6.9-1.3,1.8-1.9,2.8-1,0-2.1-.1-3.1-.2-.9-.3-1.7-.6-2.7-.9-2.1-.5-3.4-1.2-3.7-2.2-.5-1.8-1.1-3.5-1.5-5.3-.2-1-1.2-1.7-3.3-2.2-.9-.2-1.6-.6-2.2-1-.9-.5.2-.8.8-1.1-.7,0-1.7,0-1.8-.2-.7-.7-1.7-1.3-3.2-1.9-1.1-.4-2.1-1-2.3-1.5-.7-1.9-1.1-3.9-1.5-5.8,0-.4.5-.9.8-1.3.2-.3,2.6-.5,3.2-.3,1.1.4,2.1.9,3.2,1.3.3.1.7.2,1,.2.2-.1.5-.3.5-.4-.2-.9-.4-1.8-.6-2.7-.5-2.8-1.1-5.7-1.5-8.5-.1-.9.2-1.8,1.6-2.6,2.2-1.2,1.2-2.2-1.1-3.2-.5-.2-1-.5-1-.8s-.5-.9,1.5-.9c.9,0,1.7-.5,2.4-.8.2,0,.3-.3.3-.4,0-.5.1-.9,0-1.3-1-3.7,2.7-7.5-.2-11.2-.2-3.6-.4-7.2-.5-10.8,0-.3.4-.5.7-.8.5-.3,1-.2,1.8.1,1,.4,2.2,1,3.8.6.7-.2.6-.8.9-1.2,0-.1,0-.3-.1-.5-2.7-2.6-2.3-5.3-2.3-8,0-2.4-.1-4.8-.1-7.2s-1.3-1.4-2.3-2c0-.3,0-.6,0-.9,1.6-1.1,1.7-2.3,1-3.5-.4-.7-1.4-.9-4-.7-1.8.1-3.4-.2-3.4-.8,0-.7-.1-1.5,0-2.2.1-1.3.2-1.3,4.5-1.2,2.2,0,4-.5,4-1.2,0-.6-.2-1.2-.7-1.7-.3-.4-1.4-.7-1.8-1.2-.4-.4-.8-.9-.6-1.3,1.8-2.5,1.1-5,1.1-7.6,0-4.3.4-8.7-1-13-.9-2.8-1.5-5.6-2.3-8.4,0-.1-1.2-.2-1.8-.3-.2,0-.7.1-.8.2-.3.3-.7.5-.8.8-.5,1.3-.2,2.7-1.9,3.9-.5.3-.3.9.1,1.3,1.5,1.3-.6,2.3-1.4,3.4-1.3,0-2.6,0-3.9,0,0-1-.6-2.1-.2-3.1,1.2-3,1-6,1.1-9,0-1.5.3-1.5,4.8-1.4.8,0,1.6,0,2.4,0,1.8,0,3.2-.5,3.1-1,0-.8.2-1.5-.5-2.2-2-2-2.6-4-1.8-6.2.3-.9-1.1-1.2-4.8-1.4-1.4,0-2.7,0-4.1,0-.6-.7-1.4-1.3-3.1-1.8-1.8-.5-1.6-.7,0-1.5.2-.1.6-.2.8-.3,2.4-1.1,2.5-2.2.2-3.3-.6-.3-1.1-.6-1.4-.8-.3,0-.6,0-.9,0-.8,0-1.5-.2-2.3-.2-1.8,0-3.2.4-3.2.9s0,1.2.1,1.8c.5,1.3,2.3,2.6-.3,3.8,0,1.8-.1,3.6.3,5.4.6,2.1-.4,4.1.2,6.2.6,2.1,0,4.2,0,6.3,0,4.5-.6,9-.4,13.5,0,.9.2,1.8.6,2.7.6,1.3,1,2.6.4,4-.5,1.2,0,2.4.5,3.6.7,2.1.8,4.2.4,6.3-.4,2.2-.5,4.5,2.1,6.6.6.5.6,1.3-.1,1.7-2,1.2-2.3,2.5-2,3.9.2.9.3,1.8.5,2.7.2,1.4,1.2,2.6,3.7,3.7,1.2.5.7,1.1-.5,1.6-2.6.9-3.7,1.9-2.2,3.2.9.8,1.2,1.7,1.6,2.6.2.4.3,1-.2,1.3-2.9,1.8-1.7,3.8-1.1,5.7,1.1,3.3,1.8,6.5,1.9,9.8,0,1.1,1,2,2.8,2.9.7.3,2.3.5,3.1.3.6-.2,1.5-.4,1.5-.6.2-1,.4-2.1.1-3.1-.4-1.5-.5-3,1-4.4.1-.1.7-.3.8-.3.6.1,1.5.3,1.5.5.4,1.2.9,2.4.9,3.6,0,1.7-.7,3.3,1.3,4.9-.8,1.9.3,3.9,0,5.8,0,.5-1.4.8-2.3.8-.9,0-1.2-.2-1.5-.5-.7-1.2-.4-2.4-2.4-3.5-.9-.5-2.6-.9-3.9-.8-1.8.1-3.9.9-3.8,1.5,0,1.2,0,2.4.2,3.6.7,3.8,1.6,7.5,2,11.2.2,1.9-.2,3.9-.3,5.8-2,1.4-1.3,2.9-1,4.4.7,4,.5,8.1,2.8,12.1.6,1,1.4,2,3,2.9,2.7,1.5,3.8,3.3,4.9,5,.1.2-.6.4-.9.7-.3,0-.6-.2-1-.3-2.4-.3-4.5,0-4,.8,2.2,2.9,2,5.9,1.4,8.9-4,.5-4.3.5-5,1.4-.9,1.2-1.6,2.3-1,3.5.7,1.3.8,2.7,1.2,4,.2.7,1.7.8,3.5.4,2.2-.4,3.6-1.2,5.1-1.8.2,0,.8-.2,1-.1.6.1,1.6.3,1.7.5,1,3,2.2,5.9,4.8,8.8.6.7-.3,1.1-2.3,1.2-.8,0-1.2.2-1.4.6-.1.4.2,1-1.1,1.2-.8,0-1.9-.3-3-.5-1.8-.3-3.4,0-4,.5-1.3,1.2-2.6,2.5-3.6,3.8-.5.7-.5,1.5-.7,2.2-.5,1.6.4,3.3-1.5,4.9-.7.6-.7,1.5,0,2.2,2,2.4,1.1,4.8,1.3,7.2,0,.5,0,1-.4,1.3-2.3,1.9-2,3.8-.8,5.7.7,1.2.7,2.3-.8,3.5-.9.7-.6,1.5,0,2.2.5.6,1.7.9,3.6.8,3.2-.2,3.9-.1,4.5.6.9,1.2,1,2.3.9,3.6-.2,1.3-.3,2.7.5,4,.7,1.2,0,2-1.2,3-.7.5-.5,1.2-.5,1.7,0,1.2.3,2.4.5,3.6,0,.6-.5,1.2-1.8,1.6-1.7.5-2.6,1.1-2.8,1.9-.4,1.5-.7,3-1.1,4.5-.1.5-.4,1.1-.6,1.6-2.3-.1-1.4-1-2.2-1.4s-.8-.5-1.4-.7c-.6-.2-1.4-.2-2.1-.2-.1,0-.5.2-.5.3,0,1-.3,2.1,0,3.1.2.5,1.2,1.1,2.2,1.5,4.3,1.6,5.8,2.4,6.5,3.4.5.8.7,1.5,0,2.2-1.5,1.4-1.7,2.9-2,4.4-.2,1-.2,2.1-1,3.1-1,1.3-.9,2.7-.9,4,0,2.2.3,4.2,3.7,6,.8.5,1.1,1.1,1.1,1.7-.2,1.5,0,3-2.3,4.3-.6.3-.7.8-.7,1.3,0,3.6-.7,7.2.8,10.8.2.4.1.9,0,1.3-.1.2-.7.5-1.3.6-.6.1-1.7.2-2.2,0-1.6-.4-3-1-4.5-1.4-1.7-.5-2.6-1.1-2.9-1.9-.4-.9-1-1.8-1-2.7,0-1.7-2.6-2.8-5.2-3.9-.4-.2-1.6-.2-2.2-.2-.6,0-1.1.4-1.5.6-.2,0,0,.3,0,.4.5,1,.7,2.1,1.5,3.1,1,1.2,1.6,2.3,1.7,3.5,0,1.2.5,2.4,2,3.5.7.5,1.3,1.2.8,1.7-1.6,1.8,0,3.2,2.2,4.7.8.5.8,1.1,1.2,1.7.2.4-.4.4-1.4.5-2.4.3-3,1.5-1,2,.4,0,1.2-.2,1.9-.2.7,0,2,.1,2,.3.9,1.8,1.7,3.5,2.5,5.3-.1.4-.2.8-.3,1.2-1.7,0-2.8-.4-4.1-.8-1.5-.5-2.9-1.1-4.7-1.3-3.2-.4-4-1.4-4.9-2.3-.5-.5-.5-1.2-.6-1.8-.5-3.4-3-6.8-3-10.2,0-1-1.5-1.6-3.8-2.1-1.8-.3-3.5-.7-5.1-1.1-1.1-.3-2.2-.2-3.3,0-1.5.2-1.2.7-1.4,1.1,0,.1,0,.3-.1.5l-.6.3.3.4c-.6.2-1.6.3-1.9.5-1.9,1.8-1.2,3.5,1.9,5,1.2.6,1.9.7,4.9.2.6.2,1.4.3,1.8.5,1.5,1,1,1.5-1.9,2-.7.1-1.4.2-2,.4-.5.5-1.8,1.1-1.5,1.6,1.5,2.2-.5,4.2-.7,6.4-2.3.2-4.9.2-5.7,1.3,0,1.2.5,2.3-1.3,3.5-.9.6-.7,1.4-.9,2.2-.3,1.6,1.6,3.3-1.7,4.8-.4.2-.5.6-.2.9,1.6,1.6,1.6,3.2,0,4.8-.2.2,0,.7.5.8,2.8,1.1,2,2.1,0,3.2-.4.2-.6.6-.6.9.6,3-.8,6-.7,9,0,.9,0,1.8.7,2.7,1.7,2.1,1.4,4.1,1.4,6.2,0,3.5.4,6.9.6,10.4-3-.3-6-.2-9,0-.2-1.8.8-3.6-1.7-5.2-.2-.1.5-.5,1.1-.7.6-.2,1.5-.2,2.1-.4,1.9-.5,2-1.5,0-1.8-3.1-.5-5.1-1.3-5.7-2.6,0-.1-.4-.3-.6-.4-.5-.3-2.2-.4-3.2-.2-1.8.3-3.1,1.2-2.4,1.8.6.5,1.5,1,2.2,1.6.8.5,1.7,1.1.8,1.7-1,.6-2.7.4-4.2.2-1.9-.2-3.8-.4-5.8-.1-1.6,0-3.2,0-4.7,0-3.5-.7-3.5-.7-3.8.3,0,.3-.3.6-.4.9-.6,2.6.2,5.3-2,7.9-.4.5,0,1.2.6,1.7,1.5,1.2,1.2,2.2-.4,3.3-1.3.9.1,2.1,2.6,2.7,1,.2,2.3.2,3.4.3,0,.3,0,.7,0,1-.6.8-1.5,1.7.3,2.4.4.2,1.3.2,1.9.2.8,0,1.6,0,2.3-.2.7-.1,1.5-.3,1.8-.5.2-.2-.3-.6-.5-.8,3.1.6,3.2.6,2.6,1.4-.3.4-.8.8-1,1.2-.3.5-.5,1.1-.8,1.6-1.8,0-3.5,0-5.1.4-.7,1-1.5,1.9-1.9,2.9-.2.5.3,1.2,2.4,1.2.8-.2,1.6-.5,2.4-.7,1-.3,2-.7,2.9-1,1.7,2,2.5,4.1,1.7,6.2-1.3,0-2.6,0-3.9,0-.7-.5-1.2-1.1-2-1.6-.3-.2-1.3-.3-2-.3-.7,0-1.7.2-1.9.4-.6.5-1,1.1-1.1,1.7-.2,1.9,0,3.9-.2,5.8,0,.7,0,1.6-1.1,2.2-2.8,1.7-2.2,3.4-1.6,5.2.3,1,0,2.1,0,3.1,0,1,0,2.1,1.3,3.1.5.3.4.8.2,1.3-.6,1.3-1.3,2.7-2.2,4-.9,1.3-1,2.6,0,4,.6.8.3,1.8.1,2.7,0,.4-.8.8-2.1,1v-.2ZM714.8,724.7c-.3,0-.7.1-.9.2-1.3.6-.9,1.3-.7,2,3.5-.4,4.2-.9,2.5-2.1-.2-.1-.6-.2-.8-.2ZM664.6,36.4c.3-.2.8-.5.8-.7s-.8-.4-1.2-.6c-.4.2-1.1.4-1.2.6s.5.5.8.7c0,0,.5,0,.8,0ZM661.2,39.2c.8-.3,2-.4,1.8-1,0-.3-1.2-.9-1.8-.9s-1.8.6-1.9.9c-.2.6,1.1.7,1.9,1ZM606.8,62.5c.4-.2,1.1-.4,1.3-.6.2-.3,0-.6-.2-.9.6-.2,1.1-.4,1.7-.6.9-.3,2.2-.3,2.3-.9,0-.5-1.5-1.1-3.1-1.1-2.3,0-4.7,0-7,0-.4,0-1,.5-.9.7.6.9,1.8,1.6,4.5,1.8,0,.3,0,.6.3.9.2.2.8.5,1.2.7h0ZM698.2,71.8c0,0-.5.2-.5.3,0,2.1-.1,4.2,0,6.3,0,.2,1,.4,1.6.6.9.2,1.6.1,1.7-.3.3-.9.6-1.8,1-2.9-.2-.8-.3-1.9-.7-2.9,0-.3-.5-.6-1.1-.8-.5-.2-1.3-.3-2.1-.3h0ZM645.9,70.6c-.5,0-1.1.3-1.6.4,0,.3,0,.6.3.8.7.5,1.6,1,2.3,1.4.2.1,0,.4.1.4,1,0,1.3-.2,1.4-.5.1-.4.7-.8.9-1.2.4-.8-1-1.3-3.4-1.3h0ZM708.3,69.1c0-.5-.5-.8-1.1-1.2-.6.4-1,.8-.7,1.3,0,.1.3.3.4.4.5-.2,1.4-.4,1.4-.6ZM657.3,67.8c.9-.3,1.1-1.1.5-1.6-.4-.3-2-.5-3.1-.2-.3,0-.5.2-.8.3-1,.2-1.8.3-2.5.4.7,0,1.5.3,2.9.9.5.2,1.3.3,2,.4.2,0,.7,0,1-.2h0ZM687.5,70.8c.3.2,2.8,0,3.3-.2.3-.2.6-.6.3-.8-1.5-.7-3.3-1.2-5-1.8-.2,0-.4-.2-.5-.3,0,.1-.2.2-.3.3-1.6,1.2.9,1.9,2.2,2.8h0ZM628.9,73.8c2.3-.3,4.6-.2,6.9-.1.4,0,1.3-.4,1.3-.5-.1-.4-.7-.8-1.2-1.4,0,0-.2-.1-.1-.2,1.3-1.6-2.6-1.5-4.5-1.9-2.3-.4-5.2.7-4.7,1.6.4.7.7,1.4,1.2,2.1.1.2,1,.5,1.3.5h0ZM679.6,73.6c.2-.4-.4-.7-1.8-.9-1.2-.1-2.3.2-2.4.6,0,.5.8.8,1.9.9,1.1.1,2-.1,2.3-.6ZM638.7,78.1c.6,0,1.7-.1,1.9-.3.5-.4-1.3-1.2-2.5-1.1-.5,0-.8.4-1.3.6-.2.5.5.8,1.9.8h0ZM637,79.9c.5,0,1-.4,1-.5-.1-.3-.9-.5-1.7-.3-.5,0-.7.3-1,.5.3.3,1,.5,1.8.3h0ZM687.5,81.9c.3.2,1.1.4,1.7.4.6,0,1.6,0,1.9-.3,1.8-.9,1.3-1.9.9-2.9,1.5-1.5,1.9-2.9-2.5-3.9-1.3-.3-2-.9-3.1-1.3-.2,0-.8,0-1.1,0-.3,0-.5.2-.6.3-1.1,1.7.6,3.2,2.4,4.7-.8,1-1,2,.3,2.9h0ZM608,82.2c.5-.1.4-.5.6-.8-.5-.2-1-.4-1.6-.5-2-.1-3.7.2-5,.8-.4.1-.3.5-.2.7,0,0,.6.2.9.2,1.9.1,3.8,0,5.3-.5h0ZM633.7,84.3c.3-.6-.8-.7-1.8-.9-.9-.2-1.5,0-1.9.2-.8.6-.3,1.1,1.4,1.3,1.1.1,2.1-.1,2.3-.6ZM503.7,65.9c.6-.3.9-.7,1.1-.9,0-.7-.7-1-2-1.1-1.4,0-2.2.3-2.4.7-.2.4,0,.8.4,1.2.3.4,2.2.5,2.9.1ZM548.5,86.2c-.9.2-1.9.3-2.7.5-.2,0,.1.5.4.8.4.3,1.3.3,1.7,0,.4-.3.5-.8.6-1.2h0ZM516.7,91c.5-.2,1.1-.4,1.5-.7,3.5-2.6,4.4-5.4,5.2-8.3,0-.3-.7-.9-1.6-1.1-3-.7-2.9-1.7-2.3-2.8.3-.6,1.1-1.1,1.5-1.7.8-1,1.5-2.1,0-3.1-.9-.6-3-.9-4.5-1.3,0-.5,0-1,0-1.5.1-1.2.3-2.4.3-3.6,0-.5-1.2-.8-2.6-.7-2,.1-3.9.3-4.6,1.2-2.2,2.7-3.7,5.2,2.5,7.5,1.8.7,1.7,1.7,1.8,2.6,0,.8-1.2,1.2-3.8,1.1-1.6,0,.2-.6-1-.2-2,.7-4,1.4-5.6,2.2-.9.5-.2,1.2.7,1.7.7.4,1.9.6,3,.5,1.9-.1,3.8-.4,5.8-.5.6,0,1.3.2,2,.4.1,0,0,.3,0,.4-.8.7-2.1,1.3-2.4,2-.6,1.6-.7,3.3-.8,4.9,0,.3,1.2.7,2.1,1,1.2.4,2.5.3,3.1,0h0ZM390.6,65.4c1.1-.1,1.8-.6,1.3-1-.3-.2-.9-.4-1.5-.5-1.1-.2-2.2.3-2.1.8s1.2.9,2.3.8ZM400.6,72.5c.3,0,.6-.2.7-.3.3-1.6,2.2-3.1-.2-4.7-1.7-.2-2.2-.7-2.6-1.3-.4-.6,1.2-.2-.2-.4-.9-.2-.9,0-.8.3,0,.9-.3,1.8-.5,2.6-.2,1.4,1.1,2.6,2.9,3.8,0,0,.6,0,.7,0h0ZM311.7,183.1c.7,0,1.4-.3,1.6-.6.4-.4.5-.9.5-1.3-.4-2.3-1.5-2.7-6.7-2.8-1.2,0-2.3,0-4.6-.2h-1.2c-.9,0-2.3.7-1.8,1,1.8,1.1,3.7,2.2,5.5,3.3,2.3,0,4.2.8,6.7.6h0ZM311.6,193.2c.5-.2.9-.5.9-.7s-.7-.4-1.1-.7c-.2-1.4-.4-2.7-.6-4.1,0-.9.2-1.7.1-2.6,0-.5-1.2-.7-2.4-.7-1.1,0-2.3,0-3.4.2-1.7.2-2.2.8-2.2,1.4,0,.5,0,1.2,2.4,1.1,1.9,0,2.2.7,3.1,1.1-.2.6,0,1.3-.9,1.7-1.8.8.3,1.3.6,1.9.2.4.2.8.6,1.2.5.4,2.1.5,2.9.1h0ZM302,196.9c.3,0,.8,0,.9-.1.3-.4.5-.9.6-1.1,0-.5.2-.8,0-1.1-.2-.2-.9-.4-1.3-.6-.5.2-1.2.3-1.4.6-.5.7-.8,1.5.3,2.2.1,0,.6.1,1,.1h0ZM320.6,204c.6,0,1.4-.3,1.6-.5.4-.4.3-.9.3-.9,0-.7,0-1,0-1.3,0-.1-.2-.3-.2-.4-.2-.4-1.7-.8-2.6-.6-.6.1-1.5.3-1.6.5-.7,1-1,2,.7,2.9.3.2,1.3.3,1.9.3ZM730,261.2c-.3-.4-.9-.5-1.7-.3-2.2.5-3.1,1.3-2.3,2.1.2.2,1,.4,1.6.5.6,0,1.6-.1,1.9-.3.6-.3.8-.8,1-1-.2-.4-.3-.7-.5-1h0ZM312.6,263.5c.2-.4.3-.9.5-1.5-.1-.4-.3-1-.5-1.5,0,0-.6-.2-.7-.2-.7.1-1.9.3-1.8.4.4,1,1,1.9,1.6,2.9,0,0,1,0,1.1,0ZM761.9,243.5c-1.5,1.4-3.2,2.8-2.6,4.3.6,1.4-.5,2.6-1.9,3.9-.6.5-.8,1.2-.3,1.7,1.8,1.6,1.8,3.2,1.7,4.9,0,.9-.5,1.8.9,2.6.2.1.5.2.8.2.2-.1.7-.2.7-.4.7-2.4,3.1-4.7.6-7.1.4-1.8-.4-3.6,1.1-5.3,1.4-1.6.8-3.2,0-4.9,0,0-1,0-1.1,0h0ZM744.6,224.4c.3.2,1.1.2,1.6.3.9-.1,1.3-.4,1-.7-.3-.2-.8-.5-1.3-.6-.8-.1-1.8.6-1.2.9ZM755.8,210c-.5.7-.9,1.4-1.3,2.1-1,1.8,1.9,3.2,2.5,4.8,0,0,.5.2.9.2.2,0,.8,0,.8,0,.2-1.9.3-3.9.3-5.8,0-.4-.6-.9-1-1.3,0,0-.7,0-1.1,0s-1.1,0-1.1,0h0ZM759.5,196.3c-.6.1-1.6.3-1.7.5-.3.9-.3,1.7-.3,2.6,0,.4.8.5,1.6.4.3,0,.9-.1,1-.2.6-.7,1.2-1.4,1.5-1.8-.2-.6-.3-.9-.5-1.1-.2-.4-.8-.5-1.6-.4h0ZM740.9,193.4c-.9,0-2.2.3-2.5.7-.3.4.2.8,1.3,1,.7-.1,1.6-.1,1.9-.3,1-.6.5-1.3-.7-1.4h0ZM742,188.3c-1.7.1-3.4.4-5.1.5.2.6.2,1.3.5,1.9,0,.2,1,.5,1.6.5,4,0,5.8-.6,6-2,0-.6-1.3-1.1-2.9-1h0ZM741.1,141.4c-.3,0-.8,0-.8.2-.4.7-.7,1.4-1,2.1,0,.5,0,.9.2,1.4.2.2.7.6,1.3.6.6,0,1.7,0,2.1-.2.7-.3,1.7-.8,1.5-1.1-.5-1-1.4-1.9-2.3-2.9,0,0-.7,0-1.1,0h0ZM740.6,119.8c-.2.2-.3.6-.1.8.6.7-.7,1.1-1.2,1.7-.2.3-.4.6-.2.8.3.4.9.8,2.3.9.4,0,1,0,1.1,0,.2-.3.5-.6.3-.8-.7-.8-2-1.7-1.2-2.6,0-.3.2-.6,0-.9-.1-.3-.7-.2-1,.2h0ZM740.5,110.9c-.7,0-1.5.1-2.3.1-2.6,0-4.1.4-4.1,1-.1,1.4.1,1.9,2.1,3.4.4.3,1.5.4,2,.2,1.5-.8,3.1-1.7,4.1-2.6.5-.5,0-1.2-.2-1.7,0-.2-1-.3-1.6-.3h0ZM642.8,85.5c0,0,0-.1.1-.2-.8,0-.2.1-.1.2ZM646.5,89.7c0,.2-.2.5-.3.7,1.6,0,2.7-.3,3.5-.8.4-.2.7-.7.3-.8-1.2-.6-2.6-1.1-3.9-1.6-1-.4-3-.7-3.4-1.2-.3.7-1.8,1-4,1-1.2,0-1.8.5-1.7,1,.2.7,1.3,1.1,3,1.1,1.5,0,3.1-.2,4.6-.3,1.4,0,1.9.4,1.9.9ZM640.6,95.8c1.1.2,2.4.3,2.8-.1,1.1-1.1,1.9-2.1,2.7-3.2.3-.4-.5-.8-.7-1.2,0,0-.1,0-.2,0-2,0-3.9-.2-5.8-.2-.7,0-1.5.2-2,.3-1.3.5-1.5,1.6-.3,2,1.1.4,2.4.7,3.5,1.1.7.3.7.8,0,1.2h0ZM594.9,98.3c.3,0,.7-.2.8-.2.3-.6.7-1.1.7-1.7,0-.2-.5-.6-1-.7-.9-.2-1.5,0-1.5.4,0,.3-.1.6-.2.9,0,.3.1.6.1.9,0,.4.3.6,1.1.4ZM613,103.1c.6-.1,1.4-.3,1.5-.5.3-.6.3-1.2.5-2,0-.4,0-1.2,0-1.9,0-.2-.9-.5-1.5-.5-.6,0-1.3.2-2,.3-.3,0-.6.2-.6.3,0,1.3.1,2.6.3,3.9,0,.4.9.5,1.8.3h0ZM638.5,103.6c2.2,0,3.7-.5,3.6-1.3,0-.6,0-1.2-.7-1.7-1.9-1.3-2.1-2.8-2.2-4.2-1.1-.2-2.6-.1-2.7.3-.7,2.1-.9,4.1-2.5,6.1-.3.4.7.8,2.1.8.8,0,1.6,0,2.4,0h0ZM683.7,119.5c.2,0,.7,0,.7-.1.2-1.2.2-2.3.5-3.5.1-.5,1.3-.7,2.6-.7s.6-.2.8-.3c0-.1,0-.2,0-.2,0,0-.2.3-1,.1-2.1-.4-2.3-1.1-2.9-1.8,0,0-.6-.2-1-.2-.2,0-.6,0-.7.1-.9,1.3-1.9,2.6-2.6,3.9-.5.8,1.7,2.4,3.5,2.6h0ZM456.4,76.3c-.8-.5-1.6-.9-2.6-1.4-.1,0-.8,0-1.1,0-.3,0-.6.2-.6.3.1.6.2,1.1.6,1.7.1.2,1.2.2,1.9.3,1.3,0,2.4-.5,1.8-.8h0ZM460.8,74.5c-.5.2-.7.5-.8.8-.1.5.7.8,1.9,1,1.1.2,2.1-.2,2.3-.7,0-.2.1-.3.1-.4,0-.2,0-.3-.2-.4-.4-.2-.9-.5-1.5-.5-.6,0-1.5.2-1.9.4h0ZM433.8,76.1c-.6,2.7-1.2,5.3-1.5,8,0,.5.5,1.2,1.4,1.6,1.8.8,1.9,1.5,1.6,2.4-.4,1.5,0,3,.2,4.4,0,.6,1.1.8,3.6.8s1.5-.2,2.1,0c1.5.1,1.2.7,1.5,1.1.2.4.6.6,1.5.3.3,0,.7-.2.7-.3.2-1.4-.4-2.7-2.2-3.9-.5-.3-.4-.5.3-.8,2.4-1.1,1.5-2.3-.6-3.2-1.3-.6-2.2-1.2-1.2-2,1.8-1.4.9-2.6-2.1-3.6-.8-.2-.8-.5-.3-.8,2.7-1.2,2-2.8,3.7-4.2.8-.6-1.6-1.5-3.4-1.5-2.7,0-5.1.7-5.2,1.5h0ZM417.5,91.6c.4,0,.9,0,1.2,0,.6-.1,1.2-.3,1.7-.5.1,0-.1-.3-.4-.4-.9-.3-1.8-.6-2.7-.8-.4-.1-.6-.2-.9-.3,0,0-.1,0-.2.1-1.3.6-2.1,1.5-3.7,1.7-3,.4-2.9,1.3-3.1,2.1-.3,1.1,0,2.1,2.2,2.9.2,0,.8.1,1.1,0,.2,0,.6-.1.7-.2,1.2-1,.1-2.1,0-3.1-.1-1.1.5-1.4,4.1-1.5h0ZM418.8,86.3c0-1.9-1-3.8-2.2-5.7,0,0-.6-.1-.9-.1s-1.1,0-1.1,0c-.2,1.3-.3,2.7-.5,4-.2,1.4.2,2.6,2.5,3.8.9-.7,2.2-1.3,2.2-2h0ZM395,101.9c.6,0,1.5-.3,1.6-.5.3-1.2.4-2.4.4-3.6,0-2.1,0-4.2,0-6.3-2.7-1.6.9-3.2.7-4.8,0-.1,1.1-.3,1.7-.4,1.6,0,3.2,0,4.7-.2.6,0,1.6-.5,1.5-.6-2-1.1,1.1-1.6,1.8-2.3.5-.6,1-1.1.6-1.7-.5-.7-.9-1.5-1.6-2.2-.2-.2-1.2-.4-1.8-.4-4.2,0-5.3.3-6.3,1.9-.4.6-.5,1.1-1.9,1.6-1.5.4-1,1.1,0,1.6.5.2,1.1.5,1.4.7.4.4.9.9.6,1.3-.6.7-2.4.4-3.9.5-1.1,0-2.1.3-3.2.5-.5.8-1.9,1.2-3.9,1.5-1,.1-2.3-.2-2.4-.7-.4-1.1,1.3-1.6,3.7-2-.7-.6-1.2-1.3-2.7-1.7-.6-.1-1.4-.2-1.9-.4-.4-.2-.8-.5-.8-.7,0-.3,1.6-.4,3-.2.6.1.9.4,1.3.6.4,0,.8,0,1.2,0,.8,0,1.7,0,2.3-.1.6-.1,1.1-.5,1.1-.7,0-1.8,0-3.6-.2-5.4,0-.8-3.9-1.5-5.6-1-.9.2-1.5.7-2.4,1-1.9.6-4.1,1.1-6.5.7-4.2-.7-7.8,0-11.5.4-.6,0-1.4.4-1.5.6-.5,1.2-1,2.4-1.2,3.6-.2,1.3-.6,2.7,3.2,3.6,2,.5.4,1.4.5,2.1.2.9.7,1.8,3.5,2.1,3.1.3,4.5,1.2,4.5,2.3,0,1.4.2,2.7,2.8,3.8.7.3-.2.8-1.1,1.1-1.7.7-1.9,1.6-1.5,2.5.3.6,1.2,1.1,2.8,1.3.7,0,1.6,0,2.3,0,.6-.1,1.3-.5,1.1-.7-1.3-1.3-2.3-2.6-1.4-3.9.9-1.3,2-2.6,3.1-3.8.1-.2,1.4-.3,1.9-.3,2.3.3,4.4.8,4.4,1.8,0,1.2.9,2.4-.9,3.5-1.5,1-.9,2.1-.7,3.1,0,.5,1.1.8,2.3.8,1.6,0,3.2.1,4.8,0h0ZM426.5,97c-.7.6-.9,1.2-.2,1.7.3.2,1,.4,1.5.6.9.1,1.6,0,2-.3.8-.7,1-1.5-.4-2.1-.4-.2-1.4-.2-2.1-.2-.2,0-.6.2-.8.3h0ZM454.3,103.4c1.6,0,2.9-.4,4-.8.7,0,1.9,0,2.1.2,1.4,1.2,3.6,2.3,4.3,3.7.2.4,1.6.6,2.9.5,1.2,0,1.8-.5.9-1-2-.9-2.6-1.8,0-2.7.3,0,.6-.2.9-.3,1.3-.5,1.2-1,.9-1.6-.4-1-1.5-1.7-3.9-2.1-1.5-.2-1.1-.8-.8-1.1.4-.4,1.3-.7,2.1-1.1,1.5-.7,4.5-1,6.4-.6,1,.2,1.8.6,2.8.8,1,.2,2.1.4,3.2.5.9.1,2.4-.3,2.6-.7,0-.3.2-.8-.2-.8-4.3-.9-7.7-2.6-13.6-2.3-1.5,0-1.6-.5-2.1-.9-.4-.3-.6-.6-1.2-.8-.5-.2-1.3-.2-2-.3-1,0-1.4.2-1.2.6.5,1.8-.9,3.6,1.5,5.3.5.3.4.5.2.8-1.1,1.1-2.1,2.2-3,3.4-.5.7-1.9.4-2.9.5-1.2-.6-2.6-1.1-4.9-1.1-1.2,0-2.2.2-2.6.7-.3.3.5,1,1.5,1.1.7,0,1.5.2,2.3.2h0ZM442.2,105.8c0-.1,0-.3-.2-.4-.5,0-1.2,0-1.8,0,.1.2.2.4.4.7.8.2,1.4.1,1.6-.2ZM377.2,107.8c0-.4.4-.9.7-1.6-.3-.6-.8-1.5-1.2-2.4,0,0-.7,0-1,0-.3,0-.8,0-.9.2-.6,1.3-.8,2.6.4,3.9.1.1.4.3.7.3.9.2,1.2,0,1.3-.4h0ZM391.2,110.8c.2-.1.4-.3.7-.4.5-.2,1.1-.4,1.7-.5,2.7-.6,3-1.2.9-1.8-2-.6-4.2-.8-6.5-.9-1.4,0-3.1.7-2.4,1.2,1.1.8,2.4,1.5,3.7,2.2.3.2,1.3.2,2,.2h0ZM564.5,111.5c.3,0,.7-.2,1-.2,1.7-.3,3.3-.1,3.8.4.7.8,1.2,1.8,2.4,2.5,1.7,1,1.6,1.8,0,2.8-1.8,1.1-1.8,2.3-.3,3.4.7.5,1,1.1,1.7,1.7.3.3.8.6,1.5.7,1.9.4,4.7,0,5.3,1.3.5,1,3.3,1.2,5.5,1.6,2.9.5,3.1,1.3.6,2-.3,0-.8.1-1.1.2-1.9.5-2.1.7-1.3,1.4,1.4,1.3,3.4,2.4,5.6,3.4.8.4,1.4.8,2,1.1.2-.1.4-.3.6-.4,2-1.4,2.4-2.8,1.6-4.3-.5-1,.2-1.7,2-2.4,1.1-.4.5-1.2-.7-1.6-2-.7-3.8-1.5-6.7-1.8-1.2-.1-1.1-.5.7-.8,1.7-.3,2.5-.7,2-1.4,0-.1-.2-.3-.4-.4-.6-.3-1.1-.7-1.2-1-.4.2-1,.3-1.8.3-1.6.1-3.1.2-4.7,0-1.6-.2-3-.1-4.6,0-.7,0-2.4-.1-2.2-.8,0-.3,0-.6,0-.9.2-1.1-2.9-1.8-2.5-2.8.3-.9,1.5-1.7,1.8-2.6.3-1.2,0-2.3.8-3.5.3-.5-1-.7-2-1-1-.2-1.2,0-1.8.2-1.9,1.1-2,1.1-4.7,0-.5-.2-1-.5-1.7-.6-3.1-.3-3.3-1.1-3.3-2.1,0-.4-.2-.9-.7-1.3-.2-.1-1.5-.2-2-.1-2.7.6-3.7,1.6-3.6,2.7.1,1,.9,2.1,1.4,3.1.9,1.9,2.5,2.2,7.1,1.3h0ZM685.2,122c-1,.5-2,.9-2.8,1.4-.3.2,0,.7.5.8.9.2,2,.4,3.1.4.3,0,.8-.5,1.1-.7.2-.1.2-.3.3-.6-.2-.3-.3-.8-.6-1.2,0-.1-.3-.3-.5-.3-.3,0-.8,0-1.1.2h0ZM454.6,130.1c.5-.8,2.3-1.9-.4-2.3-4-.7-5.2-1.4-3.3-3.1.9-.8-.6-1.7-1.9-2.4-.5-.3-1.1-.2-1.9,0-1.7.6-2.3,1.4-1.4,2,1.5.9,1.8,1.8,1.7,2.8,0,.6,1.4.5,2.5.4.4,0,.7-.2,1-.2.6.2,1.4.3,1.7.5.3.2.3.6.3.9,0,.4,0,.9,0,1.3,0,0,0,.1,0,.2,0,0,.3,0,.8,0,.1,0,.8,0,.8,0h0ZM367.4,116c1.1-.3,2.3-.5,2.5-1.1.1-.3,0-.6-.3-.8-.3-.3-2.4,0-2.8.3-.7.5-1,1.1.3,1.6,0,0,.1,0,.2,0ZM395.5,119.2c.2-.1.4-.2.8-.3.7-1.9.3-3.9-.6-5.8,0-.2-1.1-.4-1.7-.4-.4,0-1.4.3-1.4.4.5,1.8,1,3.5,1.7,5.3.1.3.8.5,1.2.8ZM429.7,130.6c.2,0,.7-.2.7-.3,0-.9-.2-1.8-.1-2.7,0-.2.7-.7,1.2-.7,4.5-.2,4.6-1.3,4.1-2.6-.3-.7-1.5-1.5-1.2-2.2,1.3-3.4-2.7-6.4-4.1-9.6,0-.1-1.4-.3-2-.3-1.1,0-2.2.3-3,.6-2.5.9-3,1.2-1.3,2.3,2,1.2,2.3,2.6,2.3,3.9,0,1.3.1,2.3,3.6,2.9.6.1,1.2.9.8,1.2-2.5,1.8-1.3,3.8-3.4,5.6-.5.4.8,1.1,1.4,1.6,0,0,.7,0,1.1,0h0ZM464.5,131.4c2.1,0,3.8-.5,4-1.3.1-.6-1.1-1.1-2.6-1.2-2.4-.1-4.1.2-4.5,1-.4.8,1,1.5,3.1,1.5h0ZM380.7,135.5c.6-.1,1.3-.2,1.8-.4.3,0,.2-.3.4-.4.4-.2.9-.5,1.3-.7.5.2,1,.5,1.5.6.9.3,2,.5,3.1.1.5-.2,1.1-.5,1.1-.7,0-.7-.4-1.4-.6-2.2-2.4.4-4.5.3-6.5-.4-.9-.3-2.1-.3-3.2-.1-1.3.2-1.5.7-1.3,1.1.4.9,1.1,1.7,1.8,2.6,0,.1.5.3.6.3h0ZM400.5,133.7c-1,.3-1.2.7-.8,1.1.3.2.9.4,1.4.6.9.1,2.2-.2,2.4-.7.2-.4,0-.9-1.1-1.1-.5-.1-1.5,0-2,0h0ZM430.7,140.1c.7,0,1.4,0,1.5.1.5.7.7,1.4,1.1,2.2.1.2.9.4,1.5.5.7.2,2.2-.3,2.4-.7.2-.9.5-1.8.4-2.6,0-.7-1.3-1-3-1.2-2.4-.3-2.6-.4-1.3-1.5,1.4-1.2.6-2.3-.4-3.4-.1-.1-.6-.3-.9-.3-.7,0-1.8,0-2,.3-1.2.9-2.2,1.9-3.1,2.8-.2.2.5.5,1,.7.5.2,1.2.4,1.9.5,3,.6,2.8.6,2.5,1.9-.1.5-.9.6-1.6.7h0ZM448.5,134.6c-.5.2-1.2.4-1.3.6-.3.8.3,1.4,2.4,1.7.1.4.8.6,1.6.4s.3-.5.4-.8c.1-.8-.5-1.4-2.3-1.9-.3,0-.8-.2-.9-.1h0ZM435.8,149.5c.3,0,.7,0,1-.1,2.1-.5,2.1-1.6,0-2.2-.7-.2-1.3-.1-2,.1-1.2.5-1.4,1-.7,1.6.3.2,1.1.4,1.7.6h0ZM428.8,149c-.2.3-.6.6-1,.9-.8.7-.4,1.5.5,2.2.1.1.4.2.7.3.5-.2,1.4-.4,1.5-.6.5-1,.5-2.1-1.7-2.8h0ZM428.6,145.3c-.2.6-.3,1.2.2,1.7,0,0,0,0,0,.1.6-.6.2-1.2-.3-1.8ZM447.9,146.8c.6,0,1.6-.1,1.7-.3.5-.6,1.2-1.2,1.1-1.7-.5-1.8-.2-3.5.8-5.3.1-.2-.7-.6-1.2-.6-.6,0-1.5,0-2,.2-.5.2-1,.5-1,.8-.4,1-.6,2.1-.8,3.1,0,1.2-.6,2.4.8,3.5.1.1.6.3.8.3h0ZM427.5,142.2c.3.3.6.6.9.8.5-.5.3-1.1.1-1.6-.8.1-1.6.3-1,.8h0ZM399.4,154.1c0,.3.3.6.6.9,0,0,.7,0,1,0s.9,0,1.1,0c.5-.2,1.1-.5,1.2-.7.5-1.5.6-3-.7-4.4-.6-.7-.9-1.5-1.7-2.1-1.1-.9,1.6-1.7.8-2.6-.1-.1-.5-.2-.7-.4-.3,0-.7.1-.9.2-1.5.7-.2,1.4.4,2.1-2.5,2.3-.8,4.8-1.2,7.1h0ZM432.2,154.8c-.2,0-.9-.1-1.1,0-1,.3-1.2.7-.8,1.1.2.2.9.4,1.4.6.3,0,.8,0,.9-.1,1-.5.9-1.1-.4-1.5h0ZM572.8,155.1c-.5.2-1.1.4-1.1.6,0,.2.5.5,1,.7.1,0,.8,0,1,0,.8-.3.8-.9,0-1.2-.2,0-.8-.1-1,0h0ZM369.8,158.4c1.1-.1,2.2-.4,3.3-.4,2.1-.2,3.7-.4,3.8-1.4,0-.7.5-1.5.5-2.2,0-1.3-1.7-2.2-4.4-3-.3,0-1.7,0-1.9.2-1.2,1-.6,2-.1,3.1.6,1.1.4,1.2-2,2.9-.1.1-.1.3,0,.4.1.1.5.2.8.4h0ZM585.7,159.1c3.2-1.6,4.2-3.4,3.1-5.4-.2-.3-.8-.5-1.3-.7-1.2-.6-.3-1,.6-1.5.6-.3.8-.8.7-1.2-.5-1.6-1-3.2-1.9-4.8-.2-.3-1.7-.7-2.7-.7-1.5,0-3.1.1-4.7.2-2.6.2-5.5-.6-3.9-1.9.3-.3.8-.5,1.2-.8.4,0,.8,0,1.1,0,2.7-.2,3.6-.6,2.8-1.3-.5-.5-1.3-1-1.9-1.6,0-.8-.2-1.5,2.6-1.6.4,0,.7,0,1.1-.1,1.4-.2,1.5-.6,1.3-1.1-.1-.4-1.3-.8-2.5-.7-1.2,0-2.3.2-3.4.3-2.4.2-2.6.2-2.6-.7,0-.5.1-.9-.9-1.2-1.4-.4-2.5-.8-1.4-1.4,1.7-1.1,2.7-2.2,2-3.4-.6-1.1,0-2,1.2-3,.3-.2.2-.6,0-.9-.2-.2-.8-.5-1.4-.6-.6,0-1.4,0-2.1.2-.3,0-.5.2-.7.3-1.8,1.6-1.5,3.5-4.5,5-.6.3-.6.9-.4,1.3.7,1.6,1.5,3.2,2.4,4.8,0,.2,1.3.3,2,.4.7,0,1.5-.2,2.3-.2,2-.2,3.1,0,3.1.6s-.2,1.5-.4,2.2c-.7,0-1.4.2-2,.3s-1.2.3-1.9.4c-3.2.6-3.3.6-2.8,2.2-1,1.7,1.8,3.1,2.7,4.7,0,0,.7.2,1,.2s.3-.2.4-.3c.2-.3.3-.6.7-.8.4-.2,1.3-.4,1.9-.4.6,0,1.5.3,1.6.5.3.4,0,.9,0,1.3.2.8,1.1,1.3,3.2,1.6,2.3.3,2.4.6,2,1.3-.5.7-2.1,1.3-1.2,2.1,1.9,1.7.8,3.5,1.5,5.3.2.4.5.9.8,1.3.2.2.5.2,1,0h0ZM589,140.5c0,.1.4.3.7.3,1,.2,1.4,0,1.6-.3.3-.9.8-1.8,1-2.6,0-.3,0-.7-.3-.8-.3-.1-.6-.3-.8-.4-2.7,1.1-2.3,2.5-2.1,3.9h0ZM683.2,149.4c.6,1.3,1.3,2.6,1.9,3.9,0,.1.4.3.5.4.5-.2,1.2-.4,1.4-.7.5-.7.7-1.4,1-2,0-1-.3-1.7-2.4-2-.3,0-.7,0-1.1,0-.9,0-1.5.1-1.3.5h0ZM374.4,161.4c.7,0,1.4-.1,2-.3.9-.1,1.1-.4.5-.7-.2-.1-.7-.2-1-.1-.7,0-1.6.2-1.9.4-.2.2.1.5.3.7h0ZM361.6,176.3c1-.7.7-1.4-.2-2.1-.3-.2-1.1-.4-1.8-.4-.7,0-1.5,0-2.3,0-.4,0-.8,0-1.1,0-2.3,0-3.2.6-2.1,1.5.7.5,1.6,1,2.6,1.4,1.1.5,4,.3,4.9-.4h0ZM373.1,178.7c.8,0,1.7-.5,2.2-.9.3-.2,0-.6-.2-.9-.7-.7-1.4-1.4-.8-2.1.6-.9,1-1.8,1.1-2.6.2-1.5.5-2.9,2.3-4.3,1.1-.9.4-1.8-1.9-2.4-1.9-.5-2.5-1.1-2.4-1.9.1-.7.5-1.4.7-2.1-1.5.2-3,.3-4.3.5-1,.2-2.1.5-2.1,1,0,1.8-.8,3.6.2,5.3.9,1.6,1.3,3.2,1.5,4.9.2,1.6.5,3.3,1,4.9,0,.3,1.8.7,2.6.7h0ZM706.2,162.9c-1,.2-1.9.4-1.8.9,0,.5,1.4,1,3,1s2.9-.4,3.3-.9c.2-.2,0-.6-.4-.8-.8-.5-2.4-.6-4-.3ZM572.1,173.5c.2.5,1.2.8,2.4.7,1.7,0,2.6-.6,2.3-1.3-.2-.5-1.2-.8-2.4-.7-1.8.1-2.6.6-2.3,1.3h0ZM571.1,179.7c0-.4,0-.8,0-1.2-.3,0-.9,0-1,0-.3.2-.5.5-.6.8,0,.1.3.2.5.3h1.1ZM372.4,193.6c.7-.1,1.6-.3,1.8-.5,1.2-2.1,1.5-4.1-.8-6.1-.8-.7-1.1-1.4-1.4-2.2-.1-.2.3-.7.7-.8,4.2-.7,4.1-2,3.8-3.4,0,0-.4-.2-.7-.2-.4,0-.9-.1-1.1,0-2.4.8-4.8,1.6-4,3,.3.6.5,1.2.2,1.8-.8,1.5-.8,3-.2,4.4v2.8c0,.3,0,.6.1.9.2.4.9.6,1.6.4h0ZM719.4,211c0,0,0-.2.2-.3.9-.7.8-1.4-.6-2.1-.4-.2-1.1-.3-1.8-.4-.2,0-.8.1-.8.2-.5.6-1.4,1.1-1.3,1.7.3.9,2.4.8,4.2.9ZM319,217.1c1.4-1,4.4-1.7,4.2-3-.2-1.5-.5-2.9-.8-4.4,0-.3-1.7-.7-2.7-.6-1,.1-2.5.3-2.7.6-.6.8-.7,1.7-.8,1.9,0,1.4-.2,2.2,0,2.9.4.9,1.2,1.7,1.9,2.5,0,0,.8,0,.8,0h0ZM317.9,228c.6-.1,1.6-.3,1.7-.5.7-1.3.5-2.6-.4-3.9,0-.1-.5-.2-.8-.3-.3,0-.6-.1-.9-.2-1-.3-1.5-.2-1.5.3,0,.7-.2,1.4-.3,2.9,0,0,0,.3,0,.6,0,.3.2.6.4.8.3.4,1,.5,1.9.3h0ZM359.8,228.8c.3,0,.6-.2.6-.3,0-1.1,1.3-2.3.1-3.4-.3-.3-.3-.3-1,0-1.3.5-.7,1-.6.8,0,1.3,0,1.9,0,2.5,0,.4.2.6.9.4h0ZM717.4,232c1.1-.4,2.2-.8,3-1.3.8-.5.2-1-1.8-1.4-.5-.1-1.6-.2-2.1,0-2.7.8-2.8,1.6-.2,2.5.3,0,.9.2,1,.2h0ZM312.2,244.1c.7-1.6,1.6-3.2,2.1-4.8.1-.4-.5-.9-1-1.2-.3-.2-1.4-.6-1.6-.6-.9.2-1.9.5-2.4.8-.3.2-.2.6.2.9,2.3,1.4-1,2.5-1.9,3.7,1.5.3,3,.8,4.7,1.2ZM721.2,240.3c.1,0,.5.1.8.2.3-.1.6-.2.9-.3-.3-.1-.5-.3-.8-.3-.8,0-1.2.2-.9.4ZM736.1,246.9c.5-.4.8-.6.9-.8,1-2.6.7-5.4,2.9-7.9-1-1.8,2-3.5,2.1-5.2,0-.9-.7-1.4-2.6-1.8-.7-.1-1.7-.5-1.5-.6.5-.3,1.2-.6,2-.9,1.3-.4,1.9-1,1.6-1.6-.9-1.8-2.8-3.4-3-5.2,0-.6-1.2-1-2.5-1.4-1.2-.4-1.8-1-2.8-1.4-.7-.3-.8-.6,0-.7,2-.5,2.4-1.6,4.9-1.9,2.2-.3,3.2-.9,2.5-1.7-.6-.7-.6-1.4-.4-2.2.4-1.8.6-3.6-1.5-5.3-.7-.5,0-.9.7-1.2.8-.5,2.2-.9,2.7-1.4,1.5-1.9,1.9-3.8.2-5.7-.2-.2-1.2-.4-1.7-.4-1.2,0-2.2.3-3.4.4-4.7.4-8.8-.8-9-2.6,0-.6.1-1.2.2-1.8,0-.5-.8-.8-2-.9-1.5,0-3.1,0-4.7,0-.8-.9-.5-1.7.5-2.5h.9c2.5-.2,4.4-.7,4.7-1.8.2-.7.2-1.5.4-2.2,0-.2.8-.4,1.2-.5,0,0,4.2.6,5.5.8-1-.5-.4-.9.2-1.5.5-.4.2-.9-1.1-1.1-.6,0-1.4,0-2.1,0-1,0-1.4.7-2.9.4-3.3-.5-4-1.1-2.5-2.3.6-.5,1-1.1,1.8-1.6.6-.4,1.7-.4,3-.4,2.6,0,2.9-.1,3.4-.9,1.6-2.2,2.1-4.4-.6-6.6-.9-.7-.6-1.4,1.2-2,.6-.2,1.6-.4,1.7-.6.9-1.3,2.6-2.5,2.7-3.8,0-.8-.6-1.2-3.5-1.4-2.9-.2-3.4-.4-3.6-1.3-.2-1.1-.3-2.1.9-3.1.8-.7,1.7-1.4,1.3-2.1-.6-1.4-.3-2.6,2.2-3.8.7-.3.8-.8.8-1.3,0-1.5-.2-3-.4-4.5,0-.6-.8-1.1-2.1-1.5-.7-.2-2.1-.4-1.3-1,1.2-.9,2.1-1.9,3.3-2.9.9-.7.3-1.2-1-1.5-1.7-.5-2.9-1-2.7-1.8.2-1,.7-2.1.8-3.1.3-1.8,1.2-3.6-.8-5.3-.3-.2-.4-.6,0-.9,2.6-1.7,1.2-3.5,2-5.2.2-.5-.3-1-1.3-1.2-3.2-.5-3.7-1.4-3.2-2.6.4-.9.7-1.8.6-2.7-.8-4.8-1.6-9.6-3-14.3-.5-1.7-.7-3.3-.5-4.9.2-1.9.4-3.9.6-5.8-.8-.3-1.6-.6-2.1-.9-1.3-.9-3.3-1.1-5.9-1.2-3.3,0-6.1.5-9.2.8-2.8.2-5.5,0-7.5-.9.9-1.3-1.6-2.1-3.5-2.9-1.7-.8-3.8-.8-6.1-.8-.8-.7-1.5-1.4-2.6-2-.6-.3-2-.5-3-.5-1.3,0-3,.7-2.9,1.2.2.7.2,1.5.8,2.2,2,2,.4,4.2,2.4,6.2.1.1-.2.3-.2.4-.1.5-2.8,1.5-4.2,1.4-1,0-2-.4-2.3-.9-.8-1.2-2.3-2.2-2.3-3.5,0-.4-.5-.9-1.3-1.2-1.6-.4-2.9-1-4.3-1.5-.2,0-1.5.1-1.7.3-1.6,1.4-1.6,2.9-.2,4.3,1.5,1.6,2.4,3.2,2.3,4.8,0,.4.4.9.6,1.3.2.5,1.4.7,2.5.8,2.3.2,4.1-.2,4.3-1,.3-.9.5-1.8,1-2.6,0-.2,1.1-.4,1.8-.4.6,0,1.5.1,1.9.3.4.2.6.6.6.8,0,1.3,0,2.7,0,4,0,.6,0,1.2,0,1.8,0,1,.8,1.4,2.2,1.1,1.6-.3,2.2-.9,2.2-1.4,0-.9-.3-1.8-.1-2.7.7-3.9.7-7.8-.3-11.6,0-.3.6-.5.9-.8,3.1.6,4.4,1.9,6.8,2.8,1.1.4,1.9.9,3.6.9.8.3,1.6.7,2.4,1,2.8,1.1,5.7,2.2,1.7,3.8-.6.2-.3.9,0,1.3.6,1,1.7,2,1.4,3.1-.2,1.2,1,2,4.3,2.3,1.2.1,1.5.6,1.7,1.1.7,1.3,2.8,2.5,2.1,3.9-.1.2.7.5,1.2.7.8.3,2,.6,2.5.9.9.7,1.6-.3,2.6,0,2.6.7,3.2,1.7,2.8,2.8-.3.9-.7,1.8-4.1,1.7-1.1,0-2.3.2-2.8.7-.4.4-.9.8-1.5,1.2-1.4,1.1.1,2.3-2,3.4-2.4,1.3.1,2.6,1,3.9.3.4.2.9.2,1.3,0,3.3-.2,6.6.3,9.9.4,2.3-.1,4.4-1.7,6.6-.6.8-.3,1.8-.3,2.7,0,.8.6,1,3.9,1.2,2.6.2,2.8.2,2.7,1.1,0,1.2.2,2.4-4.3,2.7-1.7,0-2.5.7-2.5,1.3,0,.8,0,1.5,0,2.2,0,.9,1,1.3,3.4,1.4,1,0,2.7.4,2.8.7.8,1.6,1.8,3.3,0,4.9-2,1.9-2.8,3.7-.5,5.7.5.4.7.9.3,1.3-2.5,2.2-1.4,4.4-1.3,6.7,0,1.1,1.2,1.9,3.8,2.5,1.8.4,1.2,1.8-.8,2.2-2,.4-3.1.8-3.1,1.7,0,2.2-.1,4.5-.3,6.7-.2,2.4.6,4.8-.4,7.2,0,.2.4.7.9.8,1.4.2,1.7-.5,2.7-.7.8,0,1.6,0,2.5,0,0,1.1,0,2.3-.3,3.4,0,.2-1,.5-1.5.5-3.9,0-5.5.9-5.8,2.2-.2.9,0,1.8,0,2.6,0,.1,1.2.3,1.8.3.7,0,1.5-.1,2.2-.2,1.5,0,3,0,4.5.1.4.3.6.6.6.9.2.6.8,1.1,2.1,1.4-2.4.7-4.3,1.6-4,2.9,0,.3-.2.6-.3.8-.3.5-1.2.4-2.1.4.8.2,1.8.3,1.6.9-.3.8-1.3,1.4-3.4,1.6-1.1.1-2.8.3-3.1.5-1.2,1.4-3.2,2.9-1.7,4.3,1.3,1.3,1.3,2.6,2.1,3.9.3.4,1,.8,1.6,1.2.2.1.7.3.9.3.6,0,1.7-.2,1.7-.4.2-1.6.2-3.2.5-4.9.1-.8,1.4-1.4,3.2-1.7,1-.2,2.2-.3,3.4-.4.2.4.3.8.5,1.2,0,2.1.5,4.1,3.9,5.9,1,.5.7,1.1.7,1.7.2,1.5-2.2,2.9-1.4,4.4,1.2.3,2.3.7,1,1.3-1.3.6-2.5.3-3.6-.1h0c-1.5.1-3,.2-3,1,0,1.1,0,2.3,0,3.4.2.7,1,1.2,2.3,1.7-.5.6-1.1,1.1-1.6,1.7-1,1-.9,2.1-.5,3.1.3.9,3,1.4,5.4,1,.3,0,.6-.2,1-.2,1.4-.3,2.4-.2,2.5.2.4,1.2.7,2.3,1.1,3.7h0ZM722.7,255.5c1.8,1.2,3.7,2.3,5.7,3.4.3.2,1.5.2,2.1.1.7,0,1.6-.4,1.6-.6.1-1.3.1-2.7,0-4,0-.2-1-.5-1.7-.6-.9-.2-1.4-.4-1.6-.7-.3,0-.6,0-1,0-.3,0-.9,0-1,0-1.4-1.1-1.5-1.9-.7-5.2.7.2,1.2.4,2,.5,1.3.2,2.6,0,2.7-.4.1-.7,0-1.4,0-2.1,0-.4-1.6-.5-2.8-.3-1,.2-2,.5-2.9.7-.6.2-1.7.4-1.7.5,0,2.7,0,5.3-.9,8,0,.3,0,.6.4.9h0ZM313.3,257.5l-.6.2h.7c0,.1,0-.2,0-.2h0ZM304.8,267.6c.3,0,.5,0,.6,0h0c0-1.1,0-2.1,0-3.6-.2-1.3-.5-3.1-1-4.9-.2-.9-1.3-1.7-3.6-2.2-1-.2-1.8-.5-2.8-.8-.3,0-.8,0-1.1-.1-.1.3-.4.6-.3.8.7,1.2.5,1.6-1.8,2.7-1.2.6-1.3,1.8,0,2.5,1,.5,2.1,0,3.2,0,3.3-.1,4.9.2,5.2,1.2.3,1.3.5,2.7.8,4,0,.1.6.3.8.3h0ZM295.9,270.2c1.1,0,2.1-.3,2.2-.7.2-.5-1.2-1.1-2.7-1-.6,0-1.3.3-1.6.5-.5.5.7,1.1,2.1,1.2h0ZM304,317.6c-.6.4-.9.8-1.2,1,.1.3.2.5.3.6.3.5,2.6.9,3.7.5,1.6-.5,2.1-1.3,1.2-2-.7-.5-3.1-.7-3.9-.2h0ZM306.5,303.2s0,0,0,0c-1.1.5-3.1.9-.7,1.7,1.4.5,2.3,1.2,3.5,1.7,0,0,.2-.1.2-.2-.2-.7-.6-1.5-.6-2.2,0-.5-1.6-.7-2.3-1.1h0ZM300.1,311.7c.5-.1,1.1-.5,1.1-.7,0-.6.1-1.3-.7-1.7-2-1.1-2.5-2.1-1.8-3.4.3-.6,0-1.2,0-1.8,0-1.6,1.4-1.8,6-2.2.4,0,1,.3,1.5.6-.3-.4-1.1-.8.5-1,1.5-.2,3.8.1,3.6-1-.5-2.2.1-4.5.2-6.7,0-1.8.6-3.6-.4-5.4-.5-1,0-2.1,0-3.1,0-1,.2-2.1-.3-3.1-.5-.9.1-1.4,1.8-1.9,1.1-.3,1.1-.8.8-1.2-.4-.6-1.2-1.1-1.6-1.7-.6-1-1.9-1.2-4.2-.8-.5.1-1.7,0-2.1-.2-1.7-.6-3.2-1.3-4.7-1.9,0,1.1,0,2.2,0,3.3,0,.2-.7.5-1.3.7-.6.2-1.9-.2-2.3-.7-.2-.3-.3-.6-.5-.9,0-.1-.3-.3-.5-.4-.4.2-1.2.4-1.2.5.1,4.2-1,8.4-2.5,12.5-.2.4.2.9.3,1.3.2,1.1.6,2.1,2.7,2.9,1.2.5,1.3,1,1.2,1.7-.3,1.2-.7,2.4-.9,3.6-.1.6-.5,1.2,0,1.7,1,.9,1.1,1.8.9,2.6-.6,2.7.8,5.4,2.6,8,.2.4,1.1.5,1.8.3h0ZM306.8,314.4c.7,0,1.6,0,2.2-.1.6-.1,1-.5,1.1-.7.5-1-1-1.7-2.1-2.5-.2-.1-.6-.2-1-.2-.2,0-.7,0-.7.1-.3.4-.5.9-.8,1.4.2.5.3,1.1.6,1.7,0,.1.4.4.6.4h0ZM298.1,331.4c1.1-1.6.6-3.2,1.4-4.8,0-.1,0-.3-.3-.4-2.3-.9-2.2-1.7.1-2.6,1.6-.6,1.7-1.4.6-2.1-2.5-1.6-2.4-3.1-.2-4.7.5-.4.4-.9.5-1.3,0-.1,0-.3-.1-.4-.3,0-.7,0-.8,0-1.5.7-3.2,1.3-3.3,2.3,0,1,.6,2.1,0,3.1-.8,1.5-1.7,2.9.9,4.3.3.2-.1.5-.3.8-1.4,1.9-.5,3.9,0,5.8,0,.1.3.3.5.4.4.3.7.3,1-.2h0ZM730.2,388.6c1.2-1.5.5-2.9-.3-4.4,0,0-1.1,0-1.1,0-.3.7-.5,1.5-.7,2.1.1.8.2,1.5.4,2.3h0c0,0,.2,0,.7.2.5.2.8.1,1-.1h0ZM727.2,396.5c.7,0,1.4-.2,2-.3.3,0,.7-.2.8-.3.9-1.1,1.2-2.3.5-3.5-.2-.5-1-.8-2.2-.9-1.5-.1-2.8.3-3,1-.1.4-.2.9-.4,1.5.2.5.4,1.3.8,2,.1.2,1,.4,1.6.5h0ZM716.2,458.8c-.2,0-.3.2-.5.4.1,1,.4,1.3,2.8,2.3.4.2,1.3.2,2,.2,1.1,0,1.9-.7,1.7-1-.5-.9-1.8-1.6-4-2-.5,0-1.3,0-1.9.1h0ZM719,435.5c-.3,0-.8.2-.9.3-.5.9-1.1,1.7-1.2,2.6-.1,1.4.2,2.7.2,4,0,.6-.6,1.2-2.4,1.4-2.8.4-3.2,1.2-3.1,2.9.5,1.6,1.2,4,2,6.4,0,.3.6.5,1,.8.5.4,2,.8,2.7.6.6-.2,1.1-.4,1.3-.7.3-.3.5-.6.3-.9-1.1-2.7,0-5.4-.7-8.1-.2-.5.5-.8,1.3-1.2,1.1-.5,1.6-1,1.3-1.6-.3-.6-.6-1.2-1-1.8-.7-.9.5-1.4,2.1-1.9.7-.2,1.1-.5.7-.8-.9-.7-1.8-1.3-2.7-2-.1,0-.6-.2-.8-.1h0ZM294.5,415c.1,0,.6,0,.6-.2,1-1.8,1.7-3.5,1.1-5.3-.2-.7-.4-1.6.3-2.2,1.6-1.3,1-2.6,1.6-4.2,0-.4-.2-1-.2-1.6,0-.4-.5-.6-1.5-.5-.6.1-1.5.3-1.7.5-1.4,1.4-1.8,2.9-1.3,4.4.6,1.7.6,3.2-.9,4.8-1.2,1.3-.7,2.6.9,3.9.2.1.6.2,1,.2h0ZM715.5,418.6c.4-.3.7-.5.9-.8.2-.4.6-.5,1.7-.5,1.5,0,2.1.4,2.7.7.2,0,.2.2.3.4,0,0,.2-.1.2-.2.6-.5,1.8-.9,3.7-.7,1.1.1,2.6,0,2.8-.4.7-1.3,1.3-2.6,1.5-3.9,0-1.1-3.9-1.3-4.7-2.4-.2-.3-.8-.5-1.2-.8.1-.7.4-1.5.4-2.2,0-.6-1.8-1.1-3.2-1-1.4,0-2.2.4-2.2.9-.1.9,0,1.8.2,2.6-.3.6-.4,1.2-.8,1.8-.6.8-.5,1.4,1.2,2,.8.3,1.3.7,1.7,1.1.5.5-.2,1.3-1.3,1.6-1,.2-2.1.2-3.3,0-1.6-.2-2.7,0-3.5.6-.6.4-.6.8.3,1.2.8.3,2.4.4,2.9,0h0ZM716.7,421.2c-2.1,1.9-4.8,3.7-3.4,6,.6,1,0,2.1.2,3.1.3,1.2.3,2.4,2.1,3.4.4.2.9.5,1.5.5,1,0,1.4-.2,1.5-.5,0-.3.3-.6.4-.9.8,0,1.5-.1,2.3-.2,4-1.6,4.8-3.5,3.9-5.5-.2-.4-1.2-.7-2.5-.6-.8,0-1.5,0-2.3,0,0-.4.6-1,.2-1.3-2.2-1.5-2.4-3-1.6-4.5-.5.2-1.2.3-2.3.4h0ZM292.5,463.8c.5,0,1.3-.3,1.2-.5-.2-1.9-.2-3.9-.8-5.8-.3-1,0-1.8,1.5-2.5,1.5-.8,1.5-1.7.8-2.6-.6-.7-.8-1.3.1-2.1.9-.8,1-1.8.5-2.6-.8-1.2.4-2.4,0-3.6-.3-1.3-.6-2.6-.1-4,.7-1.8.9-3.6-.2-5.3-2-3-1.9-5.9-1.1-8.9.2-.6,0-1.2,0-1.8s-1.5-1-2.2-.8c-.5.2-1.2.4-1.1.6.3,1.8-.3,3.6,1.6,5.3,1.1,1.1.5,2-.7,3-.6.5-1.1,1.2-.9,1.7,1.1,3-2.3,5.9-.4,8.9.2.3,0,.6-.3.9-2.2,1.2-1.4,2.6-1.1,3.9.4,1.8.4,3.6-1.2,5.3-.5.5-.5,1.2-.5,1.8.1,1,.5,2.1,1,4,.1.6.3,2.1.7,3.5.1.4.6.9,1.2,1.2.3.2,1.3.4,2,.3h0ZM717.2,474.9c.2-.1.6-.2.6-.4.7-1.5,1.4-2.9,2-4.4.1-.3,0-.7-.4-.9-2-.9-.5-1.6.6-2.4.7-.5-.1-.9-.9-1.1-.5-.2-1.4-.2-2.2-.2-1.1,0-2.1.5-1.9.9.5,1,1.4,2-.3,3-.6.4-.6.9-.8,1.2.7,1.4,0,2.8,2.4,3.9.2.1.5.2.8.3h0ZM724.2,490.1c-.4.2-.9.5-.9.7,0,.2.7.4,1.1.7.3,0,.7-.1.9-.2.7-.4.4-.8-.4-1.1-.1,0-.7,0-.7,0ZM726.5,482.8c-1.1.9-2.3,1.8-2.9,2.8-.3.5.5,1.1,1,1.6.2.2,1.2.3,1.8.3.6,0,1.6-.2,1.7-.5.7-1.1,1.2-2.2,1.9-3.5,0,0,0-.2-.1-.3-.4-.2-.8-.5-1.4-.6-.6,0-1.9,0-2.1.1h0ZM710,492.8c.2.1.7.2,1,.2.7,0,1.8-.1,1.9-.3,1-1.6,1.8-3.2,2.6-4.8.6-1.2-.7-2-3.4-2.6-.7-.2-1.1-.8-1.1-1.2,0-.4.6-.9,1.2-1.2,1.9-1.2.5-2.3-2.9-2.8-.8-.1-2.9.1-3,.3-.9,1.4-1.6,2.9-2,4.3-.3,1.1.8,2,3.3,2.7.9.2,1.6.6,1.4,1.1-.3.7-.5,1.5-.8,2.4,0,.5.5,1.2,1.8,1.8h0ZM292.9,495.5c.7,0,1.7,0,2-.3,1.5-.8.3-2.4-2-3.1-.2,0-.8,0-.9,0-.4.4-.6.9-.9,1.2.2.5.3.9.5,1.4,0,.1.3.3.5.4.2.1.5.3.8.3h0ZM294.8,506.3c.1,0,.5-.1.6-.2.2-.1.3-.3.3-.4,0-1,.2-2.1.1-3.1,0-.2-.9-.5-1.4-.5-.7,0-1.7.2-2,.4-.5.4-.5.8-.7,1.4.3.6.5,1.4,1.1,2,.1.2,1.2.3,1.9.4h0ZM695.9,513.8c.7,0,1.8-.2,1.9-.3.5-.7.8-1.4,1-2.1.2-.7-.9-1.1-2.4-1.3-1.6-.2-1.1-.6-1-1,0-1.1,2.3-2.1,1.6-3.4-.2-.3.9-.8,1.5-1.1.9-.5,2-.9,3-1.4.8,0,1.7,0,2.6,0,3.5,0,4.2-.2,4.3-1.2,0-.4,0-.8-.2-1.2.1-.5.3-1,.4-1.5.5-.2,1.1-.4,1.5-.6,1.4-.6,1-1.3.3-1.9-.6-.6-2-.7-3.5-.8-1.2,0-2.4,0-3.5-.1.2-.4.5-.9.4-1.3,0-.2-.7-.6-1.2-.7-.6,0-1.7,0-2,.2-3,1.7-6.4,3.4-6,5.6,0,.4,0,.9-.5,1.3-2.1,1.9-1.6,3.8-2.1,5.7-.2.6.3,1.2.7,1.7.4.6,1.7.4,2.8.4-.3,1.4-1.5,2.9-.7,4.3.2.4.4.6,1.3.5h0ZM708.8,538.3c1.6.7,3.1,1.4,4.6,2,.2,0,.3.2.5.3.5-.2,1.3-.4,1.4-.6,1.6-2.7.9-5.4.3-8.1-.1-.6-1-1.2-1.9-1.6-1.1-.5-.3-.8.4-1.1.8-.3,2.7-.5,2.7-.8.2-2,3.1-4.1-1.8-5.9-1-.4-1.6-1-1.8-1.6-.3-.6,0-1.5,1.5-1.6,3.9-.2,2.8-1,2.4-1.8-.2-.5.7-.7,2-.9,2.3-.3,2.3-1.1,1.7-1.9-.2-.2-.9-.4-1.5-.5-.9,0-1.5.2-1.7.5-.8,1-2.4,1.8-5,2.4-1.5.4-2.2,1-2.3,1.5-.6,2.4-1.5,4.8-1.2,7.2.2,2.3-.3,4.5-2,6.6-.8,1-1.1,2.1-1.3,2.5-.2,1.6.6,2.3,3.2,3.3h0ZM294.8,542.1c.3,0,.8-.1.9-.2.9-.8,1.9-1.6,2.3-2.5.4-.7,0-1.5-1.9-1.9-1-.2-1.8-.5-2.3-.7-.7-.4-1-.7-1.6-.9-.5-.2-1.3-.2-2-.3,0,0-.4.2-.4.3-1.2,2.1.2,4,3,5.9.3.2,1.3.2,2,.3h0ZM296.1,551.2c2-.6,2.2-.8,2.4-1.4.3-1.3.3-2.6-.6-4-3,1.1-4.7,2.3-2.7,3.8.5.4.7.8.9,1.2,0,.1,0,.2,0,.3h0ZM292.4,555.4c.6-.1,1.5-.4,1.6-.6.2-1,0-2,0-3.1-.4,0-.7,0-1.1,0-3.4,0-4.5.3-4.4,1.5,0,.6.5,1.2.8,1.7.2.3,2.3.7,3,.5h0ZM715.4,572.8c1.4.5,1.8,1.3.9,2.1-1.6,1.4-1.7,2.9-.5,4.4.5.7.2,1.5.4,2.2,0,.6.1,1.2.5,1.8.1.2,1.1.4,1.7.6,1,.3,1.5.2,1.7-.3,1.1-2.4,2.2-4.8,1.2-7.1-.6-1.3,1.2-2.4,1-3.5-.2-1.2-1.1-2.4-1.7-3.5-.1-.3-.1-.6,0-.9.9-1.8,0-3.6.2-5.4.1-1.3-1-2.3-2.9-3.3-.9-.5-1.6-1-.9-1.6,1-1,1.6-2,2.7-3,.7-.6.8-1.1-.3-1.7-2.9-1.4-4.5-2.8-3.4-4.6,1-1.9-.7-3.6-2.6-5.2-.2-.1-.4-.3-.7-.3-.7-.1-1.4-.2-2.1-.2-1,0-1.3.1-1.4.5-.8,4.5,1.5,9,3.2,13.4.2.4.7.9,1.4,1.2,3.2,1.6,2.8,3.3,1.8,5.1-.2.3-1.1.3-1.8,0-.8-.4-2-.5-2.8,0-1.2.6-2.3,1.3-2,2.1.3.9.6,1.8,1.1,2.7.8,1.8,1.6,3.5,5.6,4.8h0ZM699.6,587c.1,0,.2,0,.4-.2.7-.2,1.1-.8,1.1-1.2,0-1.2.3-2.5-.5-3.6-1-1.5-.5-2.9,0-4.3.5-1.6-.3-3.2-.8-4.9,0-.2-1.1-.7-1.5-.6-1.1,0-2.6.3-2.9.6-.8.8-1.2,1.7-1.5,2.6-.3.7-.5,1.5-.6,2.2s.5.6,1.1.7c2.7.6,2.7,1.3,1.6,2.3-.5.4-.8.8-1.3,1.2-.8.8-.8,1.5.6,2.1,2,.9,3.4,1.9,4.1,3h0ZM292.7,716.6c.3-.6.2-1.2.5-1.8,0-.2,1-.3,1.6-.4.2,0,.9.1,1,.2.5.6.9,1.1,1.3,1.7.1.1.3.3.6.4,1,.1,1.6,0,1.7-.4,0-.3,0-.6,0-.9h-.2c0-.8.2-1.5,0-2.2-1-2.5-2.2-5-3.4-7.5-.2-.4-.8-.5-1.8-.4-.7,0-1.9.2-2.1.3-1.2,1.4-2.1,2.9-.6,4.4.7.7,1.5,1.4,2.1,2.1.2.3.3.6,0,.9-.5.4-1.7.4-2.8.6-3.5.4-4.2,1.3-2.4,2.4.6.4,1.5.7,2.5.9.4,0,1.9,0,1.9-.2h0ZM285.5,753.4c-.9.1-1,.9-.1,1.2.6.2,1.4.2,2,.3.6-.1,1.3-.2,1.9-.4.1,0,0-.3-.3-.4-.4-.2-.8-.5-1.4-.6s-1.5,0-2.2,0h0ZM266.7,733.1c0-.6-.8-1.1-2.3-1.3-.3,0-.8,0-1.1,0-.3.1-.6.2-.8.3-1,.5-.7,1.1.3,1.6.7.3,2,.5,3,.2.5-.2,1-.5,1-.7h0ZM285.5,728.8c-.1.2-.3.3-.5.5-.4.4-.6.9-.9,1.3.2.4.3.9.8,1.3.2.2,1.2.2,1.9.2.3,0,.9-.2.9-.3-.2-.9-.2-1.8-1.6-2.6-.3-.2-.5-.3-.6-.5h0ZM282.5,724.4c.8,1.2,1.3,2.4,2.8,3.4.1,0,.2.2.3.2,0,0,.2-.2.3-.3,1.6-1.1,1-2.3.4-3.5-.1-.2-.9-.5-1.5-.6-.6-.2-2.5.5-2.3.8h0ZM692.2,754.7c1.1-.2,1.8-.6,1.4-1-.4-.3-1.8-.5-2.8-.4-1,.2-1.3.7-.5,1,.4.2,1.2.2,1.8.3h0ZM693.6,821.1c.2,0,.4-.2.5-.4.8-1.1.6-2-1.5-2.9-.5-.2-1.4-.3-2-.3-.6,0-1,.4-1.4.6-.2.1-.2.3-.3.4.2.9,0,1.8,2.4,2.3.6.1,1.5.2,2.2.2h0ZM456.4,914.7c-.3,0-.9,0-1,.2s0,.3.1.6c.6.2,1.5.5,2.4.8,0,0,.6,0,.6-.1,0-.4.2-.8-.1-1.2,0-.1-1.3-.2-2-.2h0ZM441.1,891c-1,.2-2.3.5-2.4.8-.3.9.8,1.9,0,2.6-2.6,2.2-3.6,4.2-1.2,6.5.7.7.2,1.5.2,2.2.2,1.5,0,3,.7,4.5,1.8,3.4,2.6,6.8,2.6,10.3s1.4,2.3,3.9,3.2c.7.2,1.1.2,2,0,2.3-.5,3.8-1.2,3.4-2.2-1-2.8-.7-5.7-3.6-8.4-.5-.5-.3-1.2,0-1.8,0-.2.8-.6,1.4-.7,1.1-.1,2.3-.1,3.5-.2,2.7-.1,4.8-.8,4.7-1.6-.4-3-1.3-6-5.6-8.6-1.6-.1-3.2-.2-4.9-.3-.7-1.9-1.7-3.8-1.9-5.7,0-.3-2-.8-2.7-.7h0ZM433.1,912.6c-.7-.4-1.9-.5-3.1-.4-1.2,0-2.4.2-2.7.7-.2.4-.2.9-.3,1.7,0,.1,0,.6.5,1,.3.2,1.2.6,1.7.6,4.3-.3,6.3-2.1,3.9-3.5h0ZM403.5,904.8c-.6.1-1.3.4-1.2.7,0,1.2,1.3,2.3,3.5,3.2.4.2,1.4.2,2.1.3.5-.2,1.3-.4,1.4-.6.1-.9.1-1.8-.1-2.7-.2-.9-3.1-1.3-5.6-.9h0ZM426.2,905.8c0,.3-.1.6-.1.8,0,.8.9,1.3,1.4.9.3-.2.5-.5.6-.8,0-.3,0-.6-.2-.8-.2-.2-.8-.4-1.3-.5-.1.1-.3.3-.4.4h0ZM392.1,890.3c-1,0-2.2.6-2.1,1,.5,1.6,1.1,3.3,1.7,4.9.4,1.1.2,2.1-1.2,3-.8.5-1.3,1.2-1.1,1.7.8,2.3-.5,4.5-1,6.7-.3,1.3-.5,2.7,1.2,4,2.3,1.7,2.1,3.5,0,5.2-.7.6-.5,1.1-.3,1.7,1,2.2,3.8,4.2,2.8,6.5-.2.4,0,1,.7,1.3,2.2,1.2,2.1,2.5,2.4,3.9.2.9.7,1.8,1.4,2.6.8.9,2.6,1.5,5.2,1.6,1.1,0,2.6-.3,2.8-.6.8-2,1.3-3.9-3.1-5.5-1.2-.4-.2-.8.2-1.2.3-.3,1-.5,1-.7,0-.3-.6-.5-.8-.8-.4-.6-.7-1.2-1-1.8-.3-.7.4-1,2.4-1.3,3.9-.5,4.2-.5,3.8-1.7-.3-.9-1-1.7-.2-2.7.6-.7.6-1.5.9-2.2.2-.8,0-.8-3.5-1.3-.6,0-1.5-.2-1.8-.4-1.6-1.3-1.6-2.9-4.9-4-.7-.2-.8-.8-.7-1.3.5-2,.7-3.9,0-5.8-.1-.4,0-.9.1-1.3h.1c.4-1.7.6-3.3,1.1-4.9.6-1.8,0-3.6-1-5.4-.1-.3-.6-.5-.9-.8-.4-.3-2.9-.6-4.3-.5h0ZM498.2,889.8c-.3,0-.5.2-.5.4s.5.2.7.2c.3,0,.7-.1.8-.2.2-.4-.2-.6-1-.4h0ZM536.2,858.2c.2,0,.3,0,.4.1.5-.3,1.3-.4,1.7-.6.7-.4,1.4-.7,1.8-1.1.8-.7-.7-1.6-2.6-1.7-1.3,0-3.1.4-3.4,1-.6.9-.4,1.8,2,2.3ZM504.1,858.8c0-.1-.4-.3-.7-.3-.7,0-1.4-.2-2.1-.2-.3,0-.9.1-1,.2-.4.4-.8.8-1,1.1.2,2.7,3.6,5.1,2.9,7.7-.2.6,2.2,1.2,4.3,1.3,1,0,2.5-.4,2.6-.7.7-1.5.7-3.1-1-4.4-2-1.5-3-3-4-4.6h0ZM636.7,926.1c1.1-1.7,1.3-3.3-2.6-4.5-2-.7-2.8-1.3-.2-2.1,1.5-.5,1.2-1.4-.2-2-1.5-.8-3.5-1-6.2-.5-1.5.3-2,.1-2.7-.2-.2,0,0-.3-.2-.4-.7-1.8.4-3.6-2.4-5.2-.3-.2.1-.5.5-.8,1-.7,1.9-1.3,1.6-2.1-.2-.4-.4-.5-1.4-.5-.9,0-1.4,0-1.9.4-1.1.8-.1,1.5.6,2.1.4.4.4.5-.4.8-2,.5-3.4,1.2-3.6,2.2-.2,1-1.4,2-1.4,3.1,0,1,.8,2.1,1.2,3.1.4,1,1.2,2.1.1,3,0,.8,0,1.5,0,2.3,0,.3.3.6.5.9.2.4,1.8.8,2.8.6.6,0,1.3-.3,1.5-.6.3-.4.6-.9.4-1.3-.4-.7-1.2-1.4-1.7-2.1-.2-.3-.3-.7.1-.8,2.2-.7,3-1.7,4.4-2.6.4-.3,1-.2,1.7.1.5.2,1.3.3,2,.5,3,.7,3.1.7.7,2-1,.5-1.7,1-1.4,1.6.7,1.3,2.2,2.6,4.9,3.5.6.2,3.1,0,3.3-.2h0ZM620.8,932.3c.7-.2,1.5-.3,1.9-.6,1.6-.8,1.2-1.7.2-2.5-.5-.4-1.2-.8-2.5-.8-1.4,0-3.1.5-3.3,1-.3.8-.3,1.5.9,2.1.7.3,1.9.5,2.8.7h0ZM775.9,104.1c.5,1.6-.8,2.9-2.8,4.3-.5.3-.9,1-.4,1.2,2.2.8,1.1,1.7,1.2,2.5.2,2.2.2,4.5,0,6.7-.3,3.1.4,6.3.7,9.4.1,1.5.7,3,.2,4.5-1.6,5,1.3,9.9,1.3,14.8,0,.8,2.5,1.3,4.2.8,1.5-.5,2.6-.4,4.2-.4,2.5,0,4.7-.8,4.2-1.6-.4-.7-1.6-1.4-1.5-2.1.3-1.9,1.1-3.9,1.7-5.8,3.2-1.5,1.7-3.2,1.5-4.8,0-1-1-2.1-1.4-3.1-1.1-2.8-1.9-5.7.4-8.5.9-1.1.6-2.4,2.1-3.5.8-.6,0-1.2-1.5-1.5-2.5-.6-2.2-1.5-2.1-2.4,0-.9,1.4-1.3,3.4-1.6.8-.1,1.4-.7,1.4-1.1,0-1.8-.3-3.6-.3-5.4,0-1.8-1.5-3.5-1.1-5.3,0-.1-1.1-.3-1.7-.4-.3,0-1,0-1.1,0-1,.6-2,1.3-3,1.9-.2.1-.5.2-.8.3-.4-.2-1.1-.4-1.2-.7-.4-.6-.5-1.2-.7-1.8-1.5,0-2.9,0-4.3,0-1.9,1-2.9,2.2-2.5,3.4h0ZM199.7,650.2c1.7-1.7.2-3.5,1.2-5.3.2-.4-.3-1-1-1.2-2.1-.8-2.2-1.8-2.2-2.9,0-2.4.2-4.7,1.4-7.1.4-.8-1.1-1.4-3.5-1.5l-.7-.2c-.4-.4-1.1-.8-1.3-1.2-.5-1.2-.8-2.4-1.3-3.5-.2-.4-.8-.5-1.4-.4-.3,0-.8.2-.8.3,0,3.4,0,6.9.2,10.3,0,2.1.3,4.2.6,6.3,0,.6,1,.5,2.2.2,1.3-.3,3.7,0,4,.4.9,1.2,1.6,2.3,1,3.5-.4.7-.7,1.5.1,2.2.5-.1.9-.1,1.4,0h0ZM785.4,150c-1.4.4-2.8.5-4.3.1-.3,0-.5-.2-.9-.3-2.1-.5-3.9-.3-4.2.5-.8,2.7,0,5.4.8,8.1,1.3,0,2.5,0,3.8,0,.8,0,1.5-.2,2.3-.2,1.1,0,2.6,0,3.4-.2.8-.2,1-.8,1.2-1.2.6-2.1,1.1-4.1,1.5-6.2,0-.2-.4-.5-.9-.8-1.3-.6-1.9,0-2.7.3h0ZM581.4,27c-.9-.3-1.1-.5-.8-.8-2.9.4-6.1.5-9.1.9-1.6.2-3.8-.1-5.7-.1-.5,0-1.2.4-1.3.7-.2.2,0,.6.4.8.8.3,1.8.6,2.9.7,3.1.2,6.3.2,9.4.5,2.3.1,3,.9,3.2,1.6,1.2,0,2.4,0,3.6,0,1.2-.6,2.4-1.2,3.5-1.8,1-.5,1-1.1.6-1.7-1.1,0-2.2,0-3.2,0-1.5,0-2.8-.1-3.4-.7h0ZM581.3,25.9c-.3.1-.5.2-.7.3.3,0,.6,0,.9-.1l-.2-.2ZM640.6,989.9c0,.8,1.2,1.7,3.6,2.1.7-.7,2.1-1.4,1.8-2-.7-1.3.9-2.7-.7-3.9-.2-.1-.6-.2-.9-.3-.8,0-1.6,0-2.4.2-2,1.2-1.5,2.6-1.4,3.9h0ZM644.4,992c0,0-.1,0-.2,0,0,0,0,0,0,0h.3ZM552.2,991.8c0,0-.2-.2,0,0h0ZM554.6,997.6c0-.2.2-.3.4-.8-.9-1.4-.9-3.2-2.8-4.9,0,0,0,0-.1-.1,0,0-.2,0-.7,0-.3,0-1,0-1.1.2-.6.5-1.7,1.1-1.5,1.6.5,1.5,1.5,2.9,2.4,4.4.2.3,1,.4,1.9.3.8,0,1.3-.2,1.4-.6h0ZM415.5,13.1c0-.2-.7-.5-1.2-.6-.6-.1-1.5,0-2.2,0-.9,0-1.7,0-2.4,0-2.4,0-3.3.6-3.9,1.4-.2.2,0,.7.2.7,1.4.2,3,.3,4.5.4,3.6.3,5.4-.4,5-1.9h0ZM270.3,181.9h0c-.1,0-.3,0-.4,0h.4c0,0,0,0,0,0ZM275.3,178.5c-.8-.3-1.8-.5-2.8-.7-.9-.2-1.5,0-1.7.3-1,1.3-.7,2.6-.4,3.9,1.7-.5,3.4-1,5-1.5,1.5-.5,1.5-1.3,0-1.9h0ZM458.9,946.6c-.1-1-.4-2-.4-3,0-.8-.6-1.4-1.7-2-.8,0-1.7,0-2.5,0-.4.4-1.1.8-1,1.2.5,1.8-.2,3.5-1.2,5.2,1.9,0,3.8.2,5.7.2.7,0,1.2,0,1.5-.3-.1-.4-.2-.9-.3-1.3h0ZM561.5,930.8c.6,0,1.2-.1,1.8-.1.3,0,.6.1.8.2.5-.5,1.1-1,1.6-1.6.6-.7.4-1.4-1.3-1.9-.5.1-1.1.1-1.6,0-2.8,1-2.7,2.2-1.3,3.4h0ZM761,498.5c1.6,0,3.1,0,4.7,0,0-1.2,0-2.3,0-3.5-1.3,0-2.7,0-4.1,0-.5.6-1.1,1.3-1.6,1.9-.5.6,0,1.1.9,1.5h0ZM534.5,36.8c-.2-.7-.5-1.3-.7-2-1.3,0-2.6-.2-3.2-.6-.2.4-.5.8-1.1,1.1.7.9,2.4,1.4,5.1,1.5ZM530.5,34.2c.2-.5.2-.9,0-1.4-.1.4-.5.8-.3,1.2,0,0,.2.2.3.2h0ZM360.1,102.4s-.6,0-.7.1c-.2.4-.3.8-.5,1.2.8-.2,1.7-.4,2.5-.7-.4-.2-.8-.4-1.3-.6h0ZM473.1,931c.6.3.7.8,2.1.8,2.2.1,3.6-.2,3.5-1,0-.3-.3-.5-.5-.8-.7,0-1.4,0-2.1,0h-.4c-.9.4-1.8.7-2.7,1h0ZM554.8,1001.2c0-.4.3-.8.2-1.2,0-.4-1.4-.7-2.1-.5-.5.2-1,.4-1,.6,0,.4.6.8.9,1.2.6-.2,1.3-.2,2,0h0ZM739.4,487.7c.6,0,1.1-.3,1.7-.5-.9-.2-1.8-.4-2.8-.6,0,0-.4.2-.6.4-.2.5.5.9,1.7.7ZM443.8,56.5c.2,0,.8-.2.7-.3-.1-.2-.4-.4-.7-.6-.2,0-.7.2-.7.3.1.2.4.4.7.6ZM442.4,61.2c-.1-.2-.6-.5-.9-.7,0-.3.2-.6,0-.8-.6-.8-2.5-1.1-4.2-.8-1.2.2-2,1-1.3,1.4.8.5,1.9.8,2.9,1.3h0c.6.1,1.2.3,1.9.3,1.3,0,1.9-.2,1.7-.7ZM722.5,144.4c-.3-1.5-.8-2.9-1.3-4.4,0-.1-.3-.2-.6-.3-.3-.1-.7-.2-1-.2-.6,0-1.4.2-1.7.4-1.1.7.1,1.4,0,1.1.4,1.9.5,2.7.8,3.6,0,.1,1.3.3,2,.3.6,0,1.8-.3,1.7-.4h0ZM309,286.2c-.5-1.4-.8-2.4-1.1-3.4,0-.1-.5-.2-.7-.3-.5.2-1.3.4-1.3.6-.4,1.5-.6,2.9-.8,4.4,0,.3,0,.6.3.9.5.3,1.4.6,2,.9.5-.2,1.3-.4,1.3-.7.3-.9.3-1.8.4-2.2h0ZM298.4,281c-.2-.2-.9-.3-1.4-.4-.1,0-.7.2-.8.3-.3.6-.6,1.1-.8,1.6.2.7.2,1.3.6,1.9.3.4,1,.8,1.6,1.1.6-.4,1.6-.7,1.7-1.1.4-1.2.2-2.4-.9-3.5h0ZM302.9,292.8c-.9-1-2-1.9-2.4-2.9,0-.1-1.4-.1-2.2-.2-1.2.1-2.6,1-2.2,1.4.9.8,1.9,1.6,2.8,2.4.2.2,2.5.2,3.2,0,.9-.2,1.1-.4.8-.7h0ZM308.5,292.5c0-.2-.8-.4-1.3-.6-1.1-.1-1.8.1-2.8,1-.4.4-.2.5.7.7.8.2,1.2.2,2,0,1-.3,1.5-.7,1.4-1.1h0ZM300.2,260c.2-.2-.3-1.1-.8-1.1-.7,0-1.9,0-2.1.1-.5.3-.7.7-.7,1.1,0,.2.7.4,1,.6,1.2,0,2.2-.2,2.6-.7h0Z"/>
    </clipPath>
    <clipPath id="clippath-1">
      <rect class="cls-1" x="185.3" y="-6.1" width="612.5" height="1012.4"/>
    </clipPath>
  </defs>
  <!-- Generator: Adobe Illustrator 28.7.7, SVG Export Plug-In . SVG Version: 1.2.0 Build 194)  -->
  <g>
    <g id="Layer_1">
      <g class="cls-4">
        <g class="cls-2">
          <image width="1277" height="2111" transform="translate(184.8 -6.6) scale(.5)" xlink:href="Stencil-1.png"/>
        </g>
      </g>
      <image width="662" height="886" transform="translate(169 57)" xlink:href="../media/res_01_Inverted.png"/>
      <image class="cls-3" width="662" height="886" transform="translate(169 57)" xlink:href="../media/res_01_White.png"/>
    </g>
  </g>
</svg>