<?xml version="1.0" encoding="UTF-8"?>
<svg id="Layer_1" data-name="Layer 1" xmlns="http://www.w3.org/2000/svg" viewBox="0 0 1000 1000">
  <defs>
    <style>
      .cls-1 {
        fill: teal;
        stroke: #c3e5d0;
        stroke-miterlimit: 10;
        stroke-width: 3px;
      }

      .cls-2 {
        fill: #c3e5d0;
      }
    </style>
  </defs>
  <g>
    <path class="cls-2" d="M97.77,764.41c2.44-1.51,4.94-2.95,8.17-4.81-1.96-1.38-3.88-2.74-7.56-5.35-.27,4.53-.44,7.38-.6,10.16Z"/>
    <path class="cls-2" d="M114.67,783.77c2.23.71,4.46,1.41,6.68,2.12.12-.96.24-1.93.36-2.89-2.29-.18-4.58-.37-6.86-.55-.06.44-.12.88-.18,1.33Z"/>
    <path class="cls-2" d="M115.38,762.81c-.89.26-1.77.52-2.66.78,0,1.47-.53,3.32.14,4.32.79,1.18,2.63,1.62,6.57,3.8-2.18-4.79-3.11-6.84-4.05-8.9Z"/>
    <path class="cls-2" d="M146.46,804.4c-2.44-1.66-4.33-2.95-6.59-4.48q-.13,6.73,6.59,4.48Z"/>
    <path class="cls-2" d="M384.27,51.79c4.51,1.14,8.26,1.41,10.66-3.55-4.97-2.51-9.54-5.13-10.66,3.55Z"/>
    <path class="cls-2" d="M49.89,648.93c.87.35,1.75.69,2.62,1.04,1.26-3.13,2.51-6.26,4.58-11.41-6.13,3.16-7.23,6.46-7.2,10.37Z"/>
    <path class="cls-2" d="M45.61,659.03q-.75-9.07-5.62-12.41c-.57,15.72,3.08,22.42,14.75,24.44-1.19-5.28-2.26-10-3.38-14.93-2.31,1.16-3.89,1.96-5.76,2.9Z"/>
    <path class="cls-2" d="M75.59,676.3c-.73.54-1.46,1.08-2.19,1.63.78,3.59,1.11,7.6,6.88,6.65-1.56-2.76-3.12-5.52-4.69-8.28Z"/>
    <path class="cls-2" d="M44.47,619.64c-7.04,8.8-6.78,10.48,3.72,24.57-1.41-9.3-2.47-16.34-3.72-24.57Z"/>
    <path class="cls-2" d="M53.89,377.33c1.88-3.68,3.03-5.92,4.17-8.16-.78-.49-1.56-.99-2.33-1.48-1.97,2.08-4.41,3.99-1.84,9.63Z"/>
    <path class="cls-2" d="M69.45,670.81c-1.3-3.14-2.07-5.01-2.97-7.19q-4.53,5.36,2.97,7.19Z"/>
    <path class="cls-2" d="M257.62,908.35c.96-2.57,1.7-4.55,2.8-7.48-4.32.93-7.53,1.63-13.58,2.93,4.9,2.06,7.55,3.18,10.78,4.54Z"/>
    <path class="cls-2" d="M340.63,43.57c-2.47.92-4.94,1.83-7.41,2.75.17-.18.36-.31.53-.48-3.74,2.09-7.48,4.18-12.12,6.77,10.24,3.53,15.12-1.61,19-9.05Z"/>
    <path class="cls-2" d="M296.24,918.7c.2,1,.39,2,.59,3l7.94-1.76-.53-2.75c-2.67.5-5.33,1.01-8,1.51Z"/>
    <path class="cls-2" d="M349.12,937.89c-9.46-1.59-19.43-1.71-27.01-9.31-.81-.81-2.83-.37-4.54-.53-1.47,4.24-1.77,7.41,2.71,9.14,7.3,2.81,14.38,6.74,21.92,8.19,8.92,1.72,17.77,6.27,28.65,2.97-6-8.41-13.93-9.15-21.74-10.46Z"/>
    <path class="cls-2" d="M135.29,798.78c-2.51,7.72-.07,15.82,4.34,19.43,2.92,2.39,5.58,2.49,8.21-1.73-4.96-4.5-11.57-7.8-12.54-17.7Z"/>
    <path class="cls-2" d="M119.05,211.89c6.81,1.48,2.31,8.08,4.98,12.5,3-5.21,5.62-9.73,8.17-14.16-5.63-5.32-9.25-.99-13.15,1.65Z"/>
    <path class="cls-2" d="M153.22,821.86c-.36.04-.45,2.83-.65,4.47,3.91,2.37,6.51-.15,11.53-4.17-5.38-.26-8.15-.58-10.87-.31Z"/>
    <path class="cls-2" d="M216.83,873.69c-1.58-1.63-5.16-1.22-8.54-1.88,5.5,13.48,18.49,18.56,24.19,29.94,2.39-2.43,5.39-4.34,1.49-8.48-5.94-6.3-11.1-13.38-17.13-19.58Z"/>
    <path class="cls-2" d="M216.33,860.76c-2.41-.41-4.82-.83-7.24-1.24-.11.64-.22,1.28-.33,1.92,2.4.5,4.79,1,7.19,1.49.13-.72.25-1.44.38-2.17Z"/>
    <path class="cls-2" d="M84.85,693.43c-1.65-3.26-2.94-5.81-4.27-8.29-2.34,5.96-2.13,6.05,4.27,8.29Z"/>
    <path class="cls-2" d="M24.59,624.53c-.19-3.57-2.75-4.96-6.09-4.72,0,.04,0,.09,0,.13l-.33-.12s.33.12.33.12c-.08.15-.14.29-.22.44.73,3.75,1.46,7.5,2.19,11.25.17.13.31.27.5.39.01.06.03.13.04.19,4.85-.56,3.74-4.73,3.58-7.68Z"/>
    <path class="cls-2" d="M788.58,864.7c-1.46,2.6-1.08,6.28-1.46,9.53.09.05.19.1.28.14,3.74-1.53,7.48-3.07,11.23-4.6.11-.19.22-.38.33-.57-4.07-6.77-8.07-8.6-10.38-4.5Z"/>
    <path class="cls-2" d="M43.41,385.67q-7.01,2.9-3.85,8.64c1.44-3.24,2.65-5.94,3.85-8.64Z"/>
    <path class="cls-2" d="M37.83,411.06c-.74-.11-1.47-.21-2.21-.32-.16,1.59-.33,3.19-.49,4.78.68.1,1.35.19,2.03.29.22-1.58.45-3.17.67-4.75Z"/>
    <path class="cls-2" d="M32.04,563.69v-12.58c-4.54,4.44-6.09,7.81,0,12.58Z"/>
    <path class="cls-2" d="M32.64,432.17c1.48-3.11,2.95-6.52,2.11-9.19-1.37-4.37-5.43-4-9.11-3.67,4.67,2.77,3.36,8.88,7,12.85Z"/>
    <path class="cls-2" d="M472.74,34.4c.16.49.32.99.48,1.48,4.49-1.46,8.99-2.92,13.48-4.37.03-.05.07-.1.1-.15-2.4-1.22-4.81-2.44-7.21-3.66-2.29,2.24-4.57,4.47-6.86,6.71Z"/>
    <path class="cls-2" d="M20.58,397.37c4.98-2.52,8.36-6,7.31-12.18-.11.04-.22.07-.33.11-2.27,3.92-4.53,7.84-6.8,11.76.05.04.09.07.14.11l-.32.2Z"/>
    <path class="cls-2" d="M63.39,296.58c-.09,0-.25.01-.25.01,3.63,4.09,4.6,3.6,7.44-3.75,0,0-.04.05-.09.11l-.21.24s0,0,0,0h0c-.01-.06-.03-.11-.04-.17-2.28,1.15-4.56,2.3-6.83,3.44.02.04.04.08.06.12-.02,0-.04,0-.06,0Z"/>
    <path class="cls-2" d="M40.62,585.11c-1.09,2.86-2.42,5.66-3.14,8.61-1.11,4.57.8,7.46,5.37,8.5q1.85-6.33-2.23-17.11Z"/>
    <path class="cls-2" d="M28.5,622.55v8.11q4.23-4.03,0-8.11Z"/>
    <path class="cls-2" d="M24.62,544.69c-.41,1.92-.81,3.84-1.22,5.76.62.15,1.25.3,1.87.46.51-1.88,1.03-3.77,1.54-5.65-.73-.19-1.46-.38-2.19-.57Z"/>
    <path class="cls-2" d="M27.88,611.47c.1,2.21.54,4.39.89,6.59,1.3-.21,2.59-.41,3.89-.62-.6-2.28-1.21-4.57-1.81-6.85-1.03.3-2.97.64-2.96.88Z"/>
    <path class="cls-2" d="M17,528.05c-.27,3.7-.49,6.68-.71,9.62,2.01.16,4.02.32,6.25.5.19-4.73.37-8.56-5.53-10.13Z"/>
    <path class="cls-2" d="M25.4,565.05c1.03,8.94-2.33,17.56,6.25,24.48.97-2.96,1.64-4.98,1.71-5.2,2.92.19,5.11.33,7.2.55-1.04-9.15-9.11-12.75-15.16-19.82Z"/>
    <path class="cls-2" d="M26.62,461.23c-.76-2.5-1.42-4.66-2.07-6.81q-.89,4.93,2.07,6.81Z"/>
    <path class="cls-2" d="M26.64,490.92c-2.94.92-5.42,1.69-8.64,2.7,2.93,4,5.08,6.93,7.2,9.83,3.85-3.41,3.04-7.39,1.44-12.53Z"/>
    <path class="cls-2" d="M10.04,544.05c1.93-2.08,3.85-4.15,5.76-6.23-5.36-2.08-6.02-1.31-5.76,6.23Z"/>
    <path class="cls-2" d="M17.47,513.12c8.38-.62,8.49-.64,7.71-9.29-7.36-1.1-7.42,3.84-7.71,9.29Z"/>
    <path class="cls-2" d="M15.75,441.92c-.61.73-1.21,1.46-1.82,2.19,1.94,1.92,3.88,3.84,6.68,6.61.84-6.06-1.17-8.11-4.86-8.8Z"/>
    <path class="cls-2" d="M164.18,835.68c2.18,4.35,3.95,7.87,5.71,11.39q4.16-9.48-5.71-11.39Z"/>
    <path class="cls-2" d="M815,113.92c-3.84,1.23-6.3,2.03-8.76,2.82.34.96.68,1.91,1.02,2.87,2.77-.24,6.07.66,7.74-5.69Z"/>
    <path class="cls-2" d="M824.36,825.85c-2.01,2.62-4.02,5.25-6.03,7.87.9.72,1.79,1.44,2.69,2.15,4.01-1.34,6.01-4.03,3.34-10.03Z"/>
    <path class="cls-2" d="M794.21,851.28c.49.44.97.88,1.46,1.32,1.5-1.37,3.01-2.75,4.51-4.12-.7-.73-1.4-1.46-2.1-2.19-1.29,1.66-2.58,3.33-3.87,4.99Z"/>
    <path class="cls-2" d="M891.35,203.45q2.22-5,0-9.55v9.55Z"/>
    <path class="cls-2" d="M867.52,166.3c-4.51.62-6.94-1.77-7.77-6.46-.36-2.05-2.07-3.85-3.17-5.76-.93.08-1.86.17-2.79.25-.35,2.49-1.89,5.88-.85,7.31,5.12,7.05,12.22,11.48,21.28,14.18.53-5.84,1.31-10.61-6.7-9.51Z"/>
    <path class="cls-2" d="M802.15,853.86c2.84-.64,5.74-1.29,9.11-2.05-.46,3.57-.71,5.52-1.13,8.71,6.09-5.64,11.01-10.2,15.89-14.72-.67-2.59-1.33-5.18-1.95-7.59-12.94-.7-18.69,3.54-21.93,15.66Z"/>
    <path class="cls-2" d="M760.52,74.97c-1.11.74-2.23,1.48-3.35,2.21,1.97,3.03,2.08,7.82,7.25,8.34,3.76-5.82-2.27-7.32-3.9-10.55Z"/>
    <path class="cls-2" d="M773.54,106.76c1.24-.38,2.42-1.26,3.31-2.24.19-.2-.96-1.67-3.68-6.22-.77,3.13-1.43,4.66-1.42,6.2,0,.81,1.41,2.38,1.79,2.26Z"/>
    <path class="cls-2" d="M743.91,84.51c4.11,8.37,5.87,9.44,15.3,9.27q-6.68-9.66-15.3-9.27Z"/>
    <path class="cls-2" d="M429.69,35.44c-1.85-.68-3.7-1.37-5.55-2.05-.23.71-.45,1.41-.68,2.12,1.91.55,3.83,1.09,5.74,1.64.17-.57.33-1.14.5-1.7Z"/>
    <path class="cls-2" d="M790.09,856.76c.27.86.53,1.73.8,2.59,2.16-.55,4.32-1.11,6.48-1.66-.27-1.1-.54-2.21-.82-3.31-2.16.79-4.31,1.59-6.47,2.38Z"/>
    <path class="cls-2" d="M977.91,535.75c.78-.24,1.56-.47,2.33-.71-1.73-5.55-3.46-11.11-5.72-18.37-4.8,9.37,2.82,13.17,3.39,19.07Z"/>
    <path class="cls-2" d="M981.37,552.56c.25,4.29.4,6.88.55,9.48,1.99-2.67,4.74-5.34-.55-9.48Z"/>
    <path class="cls-2" d="M968.14,590.12c1.98-5.73,3.62-10.46,5.25-15.2-1.42-.42-2.85-.85-4.27-1.27,4.69,6.56-6.4,8.7-.98,16.47Z"/>
    <path class="cls-2" d="M901.16,736.05c.71.19,1.41.39,2.12.58.53-2.08,1.06-4.15,1.59-6.23l-2.04-.56c-.56,2.07-1.11,4.14-1.67,6.21Z"/>
    <path class="cls-2" d="M938.43,278.5c-2.42-8.3-4.33-14.81-6.23-21.3-.3,7.04-4.53,14.91,6.23,21.3Z"/>
    <path class="cls-2" d="M949.75,307.94c.29,1.99.58,3.97.87,5.96.81-.13,1.62-.26,2.44-.39-.34-1.98-.68-3.96-1.01-5.94-.76.13-1.53.25-2.29.38Z"/>
    <path class="cls-2" d="M965.33,632.09c.55.2,1.1.39,1.65.59.56-1.52,1.12-3.03,1.69-4.55-.62-.21-1.75-.63-1.77-.59-.59,1.49-1.07,3.02-1.57,4.54Z"/>
    <path class="cls-2" d="M974.24,411.46c-.96-1.5-1.92-3-2.88-4.5-.53.33-1.05.65-1.58.98.78,1.61,1.55,3.21,2.33,4.81.71-.43,1.42-.86,2.13-1.29Z"/>
    <path class="cls-2" d="M769.75,876.9c3.79-1.56,7.59-3.11,13.6-5.58-8.57-4.21-10.96,1.03-13.6,5.58Z"/>
    <path class="cls-2" d="M464.21,977.69c-.11.99-.22,1.98-.33,2.96h5.79c-.01-.72.11-2.03-.05-2.07-1.78-.41-3.6-.62-5.4-.89Z"/>
    <path class="cls-2" d="M529.88,28.7h-12.21c3.7,4.22,4.03,4.07,12.21,0Z"/>
    <path class="cls-2" d="M475.15,968.94c.36.92.72,1.84,1.08,2.76,2.35-.99,4.71-1.98,7.06-2.97l-1.02-2.6c-2.37.94-4.75,1.87-7.12,2.81Z"/>
    <path class="cls-2" d="M560.75,949.43c.16.9,1.64,2.42,1.99,2.27,1.1-.46,1.94-1.59,2.88-2.45-.83-.67-1.66-1.33-2.81-2.27-.86.97-2.17,1.84-2.06,2.45Z"/>
    <path class="cls-2" d="M557.1,36.7c0,.4.01.8.02,1.21,3.99.29,7.98.57,11.97.86-.03-1.18-.06-2.36-.09-3.54-3.97.49-7.93.98-11.9,1.47Z"/>
    <path class="cls-2" d="M410.32,38.7c4.26-1.01,7.24-1.71,11.95-2.83-6.28-5.45-9.43-5.45-11.95,2.83Z"/>
    <path class="cls-2" d="M422.28,965.24c3.98.19,7.13.34,10.23.49-2.85-2.3-5.56-5.84-10.23-.49Z"/>
    <path class="cls-2" d="M448.33,963.82c-2.18.19-4.34.47-6.51.73.1.58.21,1.16.31,1.74h6.27c.33-.85.61-1.23.57-1.57-.04-.34-.43-.92-.63-.9Z"/>
    <path class="cls-2" d="M726.54,69.68c6.78,2.08,8.68,14.01,18.49,7.2-5.03-8.87-8.82-10.44-18.49-7.2Z"/>
    <path class="cls-2" d="M543.05,30.26c3.51.75,7.01,1.5,10.52,2.25l.33-3.28c-3.47-.48-6.93-.97-10.4-1.45-.15.83-.3,1.65-.45,2.48Z"/>
    <path class="cls-2" d="M637.77,48.71h-10.56c4.01,8.59,7.22,3.48,10.56,0Z"/>
    <path class="cls-2" d="M717.97,65.56c-1.61-2.73-3.05-5.17-4.48-7.6-1.5.86-3.03,1.72-5.18,2.92,3.37,2.62,3.78,8.55,9.66,4.68Z"/>
    <path class="cls-2" d="M713.93,75.64c4.83.5,8.1,7.71,14.09,3.64-3.97-4.95-4.97-5.26-14.09-3.64Z"/>
    <path class="cls-2" d="M754.75,75.72c-2-1.16-3.99-2.33-5.99-3.49-.46.74-.92,1.47-1.38,2.21,1.77,1.4,3.53,2.8,5.3,4.2.69-.97,1.38-1.95,2.07-2.92Z"/>
    <path class="cls-2" d="M714.43,906.02c.11.61.22,1.21.34,1.82,2.3-.41,4.6-.81,6.9-1.22-.12-.65-.23-1.31-.35-1.96-2.3.45-4.59.9-6.89,1.35Z"/>
    <path class="cls-2" d="M630.77,956.56c2.41-1.41,4.55-2.67,7.28-4.26q-7.75-2.98-7.28,4.26Z"/>
    <path class="cls-2" d="M692.9,908.97c.65.64,1.3,1.28,1.95,1.92,1.56-1.7,3.11-3.4,4.67-5.09-.35-.39-.71-.78-1.06-1.17-1.85,1.45-3.71,2.89-5.56,4.34Z"/>
    <path class="cls-2" d="M663.06,48.95c-1.31.46-2.5,1.24-3.74,1.9,1.7.25,3.39.5,6.9,1.01-2.17-2.04-2.85-3.02-3.16-2.92Z"/>
    <path class="cls-2" d="M695.56,913.54c-3.87,2.33-7.74,4.65-13.36,8.03,9.23,3.04,12-1.25,13.36-8.03Z"/>
    <path class="cls-2" d="M306.34,936.36c-.03-.05-.07-.1-.1-.15-.02,0-.04,0-.05,0l.16.15Z"/>
    <path class="cls-2" d="M1000,527.6c-13.09,2.71-9.53,15.66-16.27,21.41.72-8.73-.34-17.92,7.35-23.03-.61-3.26-2.31-6.75-1.33-7.98,5.34-6.66,1.86-11.9-1.7-16.59.54-5.16,7.74-9.03,2.68-13.39-4.03-3.47-2.54-7.16-3.24-10.8-.67-3.47.3-8.09-1.57-10.34-4.67-5.58-1.01-10.49-.57-13.95-6.04-8.65-12.92-14.52-8.38-26.38,2.85-7.44,3.01-16.5-3.83-23.73-2.19-2.31-4.21-7.43-3.17-9.81,3.61-8.19-.39-15.83-.1-23.66-1.42,1.04-2.87,2.09-5.23,3.8-2.09-14.83-4-28.45-5.94-42.17.87-.23,2.28-.62,4.21-1.14-2.02-7.21-3.6-14.25-5.99-20.99-1.91-5.4-5.64-10.06-2.86-16.56.61-1.44-2.38-4.49-3.76-6.89-1.69,1.41-2.82,2.35-4.18,3.48-5.56-3.96-4.49-10.3-4.92-15.45-.6-7.23-2.92-12.69-9.02-16.36-.43-1.67-.76-3.32-1.28-4.91-1.06-3.25-3.94-7.14-3.02-9.55,2.71-7.11.74-13.68-5.04-15.01-7.95-1.83-3.13-12.75-11.18-13.13-2.16-.1-4.73-1.12-6.27-2.61-2.72-2.65-7.03-6.26-6.71-8.98.88-7.52-3.11-10.75-8.06-14.22-4.04-2.83-3.53-6.21,0-9.79-6.78-.78-14.11-.44-12.94-11.09.22-2.03-3.31-5.85-5.75-6.58-6.72-2.01-8.71-7.4-10.52-14.07-6.51,3.9-11.76.97-14.26-3.85-3.03-5.83-8.42-4.61-11.82-6.14-1.6-5.25-2.91-9.58-4.5-14.8-6.49,8.38-10.93,10.45-13.39,7.07-1.31-6.23,3.65-2.07,5.61-3.59-1.98-4.35-4.01-8.8-5.44-11.94-6.11-2.16-11.43-3.48-16.23-5.89-4.74-2.39-8.94-5.9-13.4-8.88-7.38-4.93-13.31-11.21-17.16-19.39-.11-.22.98-1.03,1.5-1.57,5.2-1.69,6.91,10.23,13.72,3.76-3.28-6.35-15.24-5.32-11.91-16.55q-3.03,10.06-13.83,9.22s.01.02.01.03c-4.75-3.53-9.43-7.15-14.3-10.47-1.08-.74-2.92-.59-4.37-.46-9.98.93-19.11-2.13-28.09-5.98-.28-6.18-4.54-4.86-8.43-4.74-7.13.22-14.49,4.26-21.47-.76,2.03-5.49,2.03-7.89.3-11.17-1.75,2.86-3.14,6.28-5.49,8.71-4.11,4.25-6.67,1.98-8.53-3.02,2.26-1.16,4.06-2.08,5.86-3.01-10.81-3.45-21.55-4.81-32.28-6.13-.76-.09-2-.3-2.25.08-4.11,6.19-10.11,1.32-15.02,2.69-.31.09-.94-1.07-2.02-2.37,1.96-1.55,3.87-3.07,5.75-4.57-1.03-2.64-2.07-5.29-3.75-9.58,3.23,1.09,4.57,1.75,5.98,1.96,1.1.16,2.27-.25,4.41-.55-6.24-7.69-12.42-1.33-17.98-2.42-1.28-1.41-2.55-2.82-3.83-4.24-.48.53-.97,1.06-1.45,1.59,1.47,1.17,2.95,2.34,4.42,3.51-2.48,1.11-5.34,1.74-7.38,3.43-4.87,4.03-9.88,3.73-13.75-.35-5.13-5.4-11.14-4.91-17.39-4.87-3.48.02-7.52.86-10.32-.63-7.45-3.95-14.78-3.09-23.59-.13-.45-4.95-.8-8.69-1.13-12.32-9.56.49-2.43,11.12-8.49,14.9-1.16-1.76-2.09-3.83-3.59-5.28-1.86-1.79-4.19-3.07-7.44-5.37-1.74,3.63-3.09,6.47-4.42,9.24-.24.05-.48.09-.73.13.1.2.21.41.32.62-.94,1.7-1.88,3.4-2.81,5.1-3.09-.04-6.28.41-9.22-.28-7.72-1.81-14.66-.11-21.3,3.83l.39-.3s-.1-.05-.14-.07c-.03.05-.07.1-.1.15-4.49,1.46-8.99,2.92-13.48,4.37-.16-.49-.32-.99-.48-1.48,2.29-2.24,4.57-4.47,6.86-6.71,2.4,1.22,4.81,2.44,7.21,3.66,1.94-2.9,3.92-5.89,7.22-10.83.06-.97-7.77-3.57-1.87-8.08-3.94,1.14-9.39,4.55-11.55,3.03-8.17-5.71-14.05-1.55-20.4,2.64h13.14c1.58,2.61,3.42,5.65,5.27,8.69h0c-7.18,1.37-14.2,1.4-20.74-2.63-3.57-2.2-2.01-4.33.08-6.45-8.57,2.92-17.04,6.33-25.81,8.44-2.48.6-5.83-2.58-8.79-4.02-3.64,8.07-11.24-.35-15.77,4.48-.84-2.64-1.36-4.26-1.93-6.05-2.23,1.62-4.82,2.47-5.23,3.96-2.15,7.74-6.7,6.33-11.83,3.87-3.18-1.52-6.34-3.15-9.65-4.28-2.59-.88-5.4-1.08-8.11-1.58-.22.81-.43,1.62-.65,2.43,6.36-.18,11.76,1.32,15.01,7.13-11.2,7.49-23.34,8.84-35.75,8.85-5.77,0-11.24.74-15.65,4.9-10.41.68-20.54,1.19-25.44,13.65-.85,2.15-8.05,3.41-11.43,2.28-2.94-.98-4.77-1.27-7.22.16-9.65,5.63-19.32,11.24-27.95,16.25-4.7-1.04-8.8-1.95-13.99-3.1,1.56,3.15,2.39,4.82,3.46,6.97-2.12,1.23-4.19,2.24-6.06,3.54-5.79,4.05-12.4,7.37-17.07,12.52-8.14,8.96-8.79,10.3-15.23,10.78-2.21.17-4.42.3-5.42.36-3.35,5.85-6.08,10.62-8.81,15.39,3.99-1.08,7.99-2.16,13.81-3.73-1.68,2.74-2.66,5.61-3.56,5.58-3.42-.1-6.81-1.14-10.22-1.83-8.44,9.88-21.68,14.75-27.34,27.67-.76,1.74-3.8,2.48-5.85,3.58-3.41,1.83-6.87,3.58-10.73,5.58,1.4,3.66,2.61,6.82,3.82,9.99-5.53,4.67-11.34,8.78-16.17,13.85-5.92,6.23-11.5,12.37-19.62,16-4.48,2.01-7.87,6.55-11.76,9.94.38.62.77,1.24,1.15,1.86,2.21-.38,4.42-.75,6.62-1.13,1.6,8.18-2.33,14.12-7.92,19.32,1.74.91,3.27,1.71,6.09,3.19-5.24.87-9.74.29-12.19,2.31-5.08,4.17-9.06,9.75-13.54,14.69-1.51,1.67-3.03,4.26-4.83,4.55-6.31,1.01-8.15,5.24-9.37,10.77-1.39,6.3-4.75,12.05-3.57,19.05.35,2.1-1.88,4.66-3.07,7.03-.06.03-.12.06-.18.09.01.06.03.12.04.17h0s0,0,0,0l.21-.24c.05-.06.09-.11.09-.11-2.83,7.35-3.81,7.84-7.44,3.75,0,0,.16,0,.25-.01.02,0,.04,0,.06,0-.03-.04-.04-.08-.06-.12-.08.04-.15.08-.23.12-4.47-.16-8.08.99-8.85,6.39-3.14,2.99-4.74,6.52-4.55,13.67,4.61-5.1,6.44-8.4,5.71-12.94,5.15,9.83,4.96,14.6-2.77,18.97-6.22,3.51-8.04,8.02-7.45,14.59.69,7.64-2.3,13.04-8.59,14.6.88,5.51,1.87,10.1,2.07,14.72.03.72-3.59,1.59-5.6,2.43,5.15,4.03,4.06,6.7-1.85,9.04-1.91-3.41-3.65-6.53-5.4-9.65-.54.27-1.07.54-1.61.81,1.31,5.29,2.62,10.59,3.93,15.88l-.36-.27s0,0,0,0h0c-.09.16-.19.33-.28.49.11-.04.22-.07.33-.11,1.05,6.17-2.33,9.66-7.31,12.18l.32-.2c-.05-.04-.09-.07-.14-.11-.06.1-.11.19-.17.29-7.13,3.69-3.75,14.25-12.11,17.33,1.84,2.36,2.96,3.79,4.05,5.19,8.97-7.54,7.82-22.34,20.87-27.38,1.25,10.88-5.15,18.31-8.4,26.71-3.13,1.88-6.23,3.73-8.24,4.94.89,3.54,1.68,6.72,2.44,9.76-12.27,5.01-13.53,17.02-3.16,26.87-2.59,4.32-5.26,8.76-8.14,13.57,1.27.58,3.16,1.45,6.51,2.99-4.86,4.24-8.9,7.77-13.83,12.06,3.44.57,5.48.9,7.15,1.18.52.81.85,1.12.92,1.48,1.89,9.47-3.42,20.09,4.44,28.71.58.64-.06,3.7-.99,4.35-8.06,5.64-3.7,12.45-2.12,19.02-.06.07-.12.13-.18.2.08.02.16.03.25.05,0,.02.01.05.02.07,0-.02,0-.05,0-.07,2.41.45,4.8.9,6.32,1.19.88,11.33,1.68,21.69,2.49,32.05.24,3.07,1.36,6.62-3.61,6.78,1.02,3.66-.56,5.66-3.73,6.63.84,2.13,1.24,5.56,2.63,6.06,4.57,1.64,4.31,5.09,4.35,8.66.05,4.69,0,9.38,0,14.08,3.34-.24,5.9,1.15,6.09,4.72.16,2.96,1.27,7.12-3.58,7.68,1.12,5.1,2.23,10.21,3.39,15.5.5-3.29.97-6.38,1.88-12.38,3.66,11.99,15.59,18.58,8.33,31.32-4.66-4.65-8.85-8.82-13.04-13-.79.66-1.57,1.33-2.36,1.99,4.62,5.88,9.16,11.84,13.93,17.59.84,1.01,3.22,2.06,3.93,1.59,6.82-4.56,8.63,1.5,11.92,5.27,4.65,5.32,7.18,11.34,7.93,18.36.07.69,1.67,1.21,3.16,2.22.84-3.26,1.53-5.92,2.72-10.53,9.81,8.98,1.3,19.77,6.79,26.85-2.24,1.15-3.6,1.81-4.9,2.57-.17.1-.08.68-.16,1.61,21.09,8.29,22.96,26.71,22.38,46.36.68-.19,5.49-4.76,5.86-5.63,1.61.93,3.22,1.86,4.82,2.78.03,1.45-.4,3.11.21,4.08,5.51,8.59,13.5,15.76,13.68,27.15,9.94-2.88,10.99-2.34,13.96,6.5.38,1.14,1.01,2.19,1.37,3.34,3.84,12.34,8.78,23.26,24.65,20.31.3-.06.66.23,1,.39,2.99,3.68,11.66,19.76,13.02,24.13.47,1.53,1.12,3,1.69,4.5.08-.06.17-.11.25-.17,1.2,7.49,3.49,8.89,9.66,5.97-3.16-2.03-6.32-4.06-9.48-6.1,7.85-5.64,16.48-3.95,24.28,5.51-5.31,0-9.95,0-14.6,0,2.45,1.2,4.89,2.42,7.36,3.58,11.91,5.59,24.83,10.03,27.34,26.04.14.91,1.51,1.81,2.49,2.35,6.05,3.34,12.15,6.58,18.24,9.85-.01-.03-.03-.05-.04-.08,3.55,2.27,7.18,4.33,10.52,6.8,5.52,4.08,10.95,6.76,18.26,4.8,2.58-.69,6.74,1.42,9.01,3.55,6.26,5.87,13.52,9.28,21.71,10.12,6.4.65,10.8,3.62,14.09,8.89,8.4-1.41,13.56,5.55,19.04,9.43,12.85,9.09,26.91,14.74,41.3,20.06.57-2.16,1.14-4.31,1.63-6.17,7.96-.67,14.92-.97,20.69,4.35,10.27-2.91,17.36,9.18,27.73,6.22.71-.2,1.91,1.94,2.82,1.88,3.78-.23,7.64-.54,11.26-1.58,1.09-.31,1.61-2.67,2.33-4.29,3.74,1.83,6.54,4.26,5.28,9.72-1.72.25-3.61.52-6.21.89,1.12,2.57,2.15,4.96,3.19,7.35,2.91-2.03,5.81-4.07,8.62-6.03,1.53,1.09,3.3,3.15,5.45,3.73,4.04,1.08,8.3,1.31,12.46,1.89,3.42.48,7.17,2.1,10.17,1.17,4.47-1.39,7.87-.37,10.85,2.38,7.71,7.13,17.55,7.89,26.95,10.12,2.11.5,4.05,1.74,6.07,2.65-1.42-2.57-2.84-5.15-4.69-8.5-10.33,3.58-17.44-3.08-24.36-11.47,8.65-5.72,17.21-4.97,25.83-3.81,3.47.47,7.42,2.15,10.35,1.05,9.62-3.63,18.54-1.23,27.71,1.31,2.43.67,5.26.43,7.8-.02,4.57-.82,9.11-1.94,13.58-3.26,7.76-2.3,16.82-.08,23.33-6.56,8.05-8,18.31-9.53,28.8-11.72-.21,2.31-.34,3.82-.48,5.4,3.99.63,10.03-5.04,11.49,4.73,5.02-9.82,12.26-14.71,22.09-12.73-2.45-11.47,11.13-10.38,12.31-18.08,5.89-.13,10.93-7,18.81-2.54-3.87,3.5-6.84,6.19-9.8,8.89,4.71-.94,8.36-3.42,12.11-5.75,1.15-.71,3.2-1.81,3.74-1.35,4.18,3.49,6.49-.55,6.79-2.82.61-4.59,3.57-5.93,6.74-7.45,7.81-3.77,15.66-7.44,23.55-11.19.64,2.26,1.09,3.84,1.54,5.42.52-.08,1.05-.16,1.57-.23.49-2.99.99-5.98,1.4-8.46,3.7-.96,6.98-1.81,10.25-2.66-.14-.53-.29-1.06-.43-1.59h-7.34c3.39-4.55,5.26-8.71,8.43-10.92,4.75-3.31,10.3-5.54,15.71-7.7,8.72-3.47,17.63-6.44,24.11-13.92l.33.46h0s0,0,0,0c.1-.04.2-.08.31-.12-.09-.05-.19-.1-.28-.14.37-3.24,0-6.93,1.46-9.53,2.31-4.1,6.31-2.27,10.38,4.5-.11.19-.22.38-.33.57.18-.07.36-.15.54-.22l-.21-.35c4.44-3.8,9.24-6.49,15.25-7,2.34-.2,6.31-1.97,6.49-3.43.67-5.33,5.32-8.53,6.01-13.61-.17.16-.34.31-.51.47,2.9-7.52,6.96-14.84,8.27-22.64,1.78-10.62,9.48-15.06,16.28-20.93,2.83-2.44,5.43-5.29,7.61-8.35,3.25-4.58,6.61-7.63,12.23-3.9-1.37,2.86-3.04,5.61-4.06,8.59-2.36,6.86-6.25,12.03-13.33,14.13,0,0-.11.05-.14.05.07.04.14.09.22.13,0-.05,0-.08-.02-.13,11.62.71,15.85-8.48,20.5-16.74.6-1.07-1.59-3.79-2.48-5.74,12.69.65,15.49-1.77,17.29-14.92-1.73-.23-3.46-.47-5.62-.76,5.04-6.87,8.44-16.18,14.37-18.41,7.71-2.9,8.59-12.83,17.94-14.33-1,3.84-1.7,6.47-2.92,11.17,6.91-5.85,8.1-12.99,5.27-17.05-4.93-7.09-1.02-8.84,3.64-11.53,1.47-.85,3.16-1.6,4.19-2.86,4.37-5.33,8.54-10.84,12.51-15.93-.5-.87-2.7-3.02-2.3-4.34,2-6.6,4.62-13.04,13.29-14.6-4.77-2.1-6.47-4.24-4.71-8.85,4.8-12.55,4.61-12.63,10.43-13.33-.6,3.32-1.19,6.63-1.79,9.94,5.21-11,8.31-22.72,13.78-33.13,5.38-10.23,2.79-24.41,14.82-31.32.97-.56,1.28-2.9,1.34-4.43.17-4.53.06-9.07.06-13.72-1.21.9-2.25,1.68-3.72,2.78-2.39-8.32-1.23-15.38,4.17-21.56,5.51-6.3,8.38-13.97,7.93-22.05-.37-6.65,2.16-11.52,5.14-16.66,1.03-1.77,1.95-3.6,3.59-6.64ZM43.41,385.67c-1.2,2.7-2.41,5.4-3.85,8.64q-3.15-5.75,3.85-8.64ZM35.62,410.75c.74.11,1.47.21,2.21.32-.22,1.58-.45,3.17-.67,4.75-.68-.1-1.35-.19-2.03-.29.16-1.59.33-3.19.49-4.78ZM34.75,422.98c.83,2.66-.63,6.08-2.11,9.19-3.64-3.97-2.33-10.08-7-12.85,3.68-.34,7.74-.7,9.11,3.67ZM32.04,551.11v12.58c-6.09-4.77-4.54-8.14,0-12.58ZM17.47,513.12c.29-5.45.35-10.39,7.71-9.29.78,8.65.67,8.68-7.71,9.29ZM25.21,503.45c-2.12-2.89-4.28-5.83-7.2-9.83,3.22-1.01,5.7-1.78,8.64-2.7,1.6,5.14,2.41,9.12-1.44,12.53ZM24.55,454.42c.66,2.16,1.31,4.32,2.07,6.81q-2.96-1.88-2.07-6.81ZM13.93,444.11c.61-.73,1.21-1.46,1.82-2.19,3.69.69,5.7,2.75,4.86,8.8-2.8-2.77-4.74-4.69-6.68-6.61ZM15.8,537.81c-1.92,2.08-3.84,4.16-5.76,6.23-.26-7.55.4-8.31,5.76-6.23ZM22.53,538.18c-2.22-.18-4.24-.34-6.25-.5.22-2.95.44-5.92.71-9.62,5.9,1.57,5.73,5.4,5.53,10.13ZM23.4,550.45c.41-1.92.81-3.84,1.22-5.76.73.19,1.46.38,2.19.57-.51,1.88-1.03,3.77-1.54,5.65-.62-.15-1.25-.3-1.87-.46ZM28.5,630.66v-8.11q4.23,4.08,0,8.11ZM28.76,618.06c-.34-2.19-.79-4.38-.89-6.59-.01-.25,1.93-.59,2.96-.88.6,2.28,1.21,4.57,1.81,6.85-1.3.21-2.59.41-3.89.62ZM33.36,584.32c-.07.23-.74,2.25-1.71,5.2-8.58-6.92-5.22-15.54-6.25-24.48,6.05,7.07,14.13,10.67,15.16,19.82-2.1-.22-4.28-.36-7.2-.55ZM37.47,593.72c.72-2.95,2.06-5.75,3.14-8.61q4.08,10.76,2.23,17.11c-4.58-1.04-6.48-3.93-5.37-8.5ZM44.47,619.64c1.25,8.23,2.31,15.28,3.72,24.57-10.5-14.09-10.76-15.78-3.72-24.57ZM39.99,646.63q4.87,3.34,5.62,12.41c1.86-.94,3.45-1.73,5.76-2.9,1.11,4.93,2.18,9.65,3.38,14.93-11.67-2.02-15.33-8.72-14.75-24.44ZM52.51,649.97c-.87-.35-1.75-.69-2.62-1.04-.03-3.91,1.07-7.21,7.2-10.37-2.07,5.15-3.33,8.28-4.58,11.41ZM53.89,377.33c-2.57-5.65-.13-7.55,1.84-9.63.78.49,1.56.99,2.33,1.48-1.15,2.24-2.29,4.48-4.17,8.16ZM66.48,663.62c.9,2.18,1.67,4.05,2.97,7.19q-7.51-1.83-2.97-7.19ZM73.4,677.93c.73-.54,1.46-1.08,2.19-1.63,1.56,2.76,3.12,5.52,4.69,8.28-5.77.95-6.09-3.06-6.88-6.65ZM80.58,685.14c1.33,2.48,2.62,5.03,4.27,8.29-6.4-2.24-6.61-2.34-4.27-8.29ZM97.77,764.41c.17-2.78.33-5.63.6-10.16,3.68,2.61,5.61,3.97,7.56,5.35-3.22,1.86-5.72,3.3-8.17,4.81ZM139.87,799.91c2.26,1.54,4.15,2.82,6.59,4.48q-6.72,2.25-6.59-4.48ZM112.86,767.92c-.67-1-.14-2.85-.14-4.32.89-.26,1.77-.52,2.66-.78.94,2.06,1.87,4.12,4.05,8.9-3.94-2.18-5.78-2.62-6.57-3.8ZM121.36,785.89c-2.23-.71-4.46-1.41-6.68-2.12.06-.44.12-.88.18-1.33,2.29.18,4.58.37,6.86.55-.12.96-.24,1.93-.36,2.89ZM124.03,224.4c-2.66-4.43,1.83-11.03-4.98-12.5,3.89-2.64,7.51-6.97,13.15-1.65-2.56,4.43-5.17,8.95-8.17,14.16ZM139.62,818.21c-4.41-3.61-6.84-11.71-4.34-19.43.97,9.9,7.58,13.2,12.54,17.7-2.62,4.22-5.29,4.12-8.21,1.73ZM152.56,826.33c.2-1.65.3-4.44.65-4.47,2.72-.27,5.49.05,10.87.31-5.01,4.02-7.61,6.54-11.53,4.17ZM169.89,847.08c-1.77-3.52-3.53-7.04-5.71-11.39q9.87,1.91,5.71,11.39ZM209.1,859.52c2.41.41,4.82.83,7.24,1.24-.13.72-.25,1.44-.38,2.17-2.4-.5-4.79-1-7.19-1.49.11-.64.22-1.28.33-1.92ZM232.47,901.74c-5.7-11.38-18.69-16.46-24.19-29.94,3.38.67,6.96.26,8.54,1.88,6.03,6.2,11.19,13.28,17.13,19.58,3.91,4.14.9,6.04-1.49,8.48ZM257.62,908.35c-3.23-1.36-5.88-2.48-10.78-4.54,6.05-1.31,9.25-2,13.58-2.93-1.09,2.93-1.83,4.9-2.8,7.48ZM296.82,921.7c-.2-1-.39-2-.59-3,2.67-.5,5.33-1.01,8-1.51l.53,2.75-7.94,1.76ZM333.75,45.85c-.17.17-.36.3-.53.48,2.47-.92,4.94-1.83,7.41-2.75-3.88,7.43-8.76,12.58-19,9.05,4.64-2.6,8.38-4.69,12.12-6.77ZM342.22,945.38c-7.54-1.46-14.63-5.38-21.92-8.19-4.49-1.73-4.19-4.91-2.71-9.14,1.71.16,3.73-.28,4.54.53,7.57,7.6,17.55,7.72,27.01,9.31,7.81,1.31,15.74,2.05,21.74,10.46-10.88,3.3-19.72-1.25-28.65-2.97ZM384.27,51.79c1.12-8.68,5.68-6.06,10.66-3.55-2.4,4.96-6.15,4.69-10.66,3.55ZM424.14,33.39c1.85.68,3.7,1.37,5.55,2.05-.17.57-.33,1.14-.5,1.7-1.91-.55-3.83-1.09-5.74-1.64.23-.71.45-1.41.68-2.12ZM410.32,38.7c2.51-8.28,5.67-8.28,11.95-2.83-4.71,1.11-7.69,1.82-11.95,2.83ZM422.28,965.24c4.67-5.36,7.38-1.81,10.23.49-3.1-.15-6.25-.3-10.23-.49ZM448.39,966.3h-6.27c-.1-.58-.21-1.16-.31-1.74,2.17-.26,4.34-.55,6.51-.73.2-.02.59.57.63.9.04.34-.24.73-.57,1.57ZM469.67,980.65h-5.79c.11-.99.22-1.97.33-2.96,1.81.27,3.63.48,5.4.89.16.04.04,1.35.05,2.07ZM476.23,971.7c-.36-.92-.72-1.84-1.08-2.76,2.37-.94,4.75-1.87,7.12-2.81l1.02,2.6c-2.35.99-4.71,1.98-7.06,2.97ZM517.67,28.7h12.21c-8.18,4.07-8.51,4.22-12.21,0ZM553.57,32.51c-3.51-.75-7.01-1.5-10.52-2.25.15-.83.3-1.65.45-2.48,3.47.48,6.93.97,10.4,1.45l-.33,3.28ZM562.74,951.71c-.35.15-1.83-1.37-1.99-2.27-.11-.61,1.19-1.48,2.06-2.45,1.16.93,1.99,1.6,2.81,2.27-.94.87-1.78,1.99-2.88,2.45ZM557.13,37.91c0-.4-.01-.8-.02-1.21,3.97-.49,7.93-.98,11.9-1.47.03,1.18.06,2.36.09,3.54-3.99-.29-7.98-.57-11.97-.86ZM627.2,48.71h10.56c-3.34,3.48-6.55,8.59-10.56,0ZM630.77,956.56q-.47-7.24,7.28-4.26c-2.73,1.6-4.87,2.85-7.28,4.26ZM659.32,50.85c1.24-.66,2.43-1.45,3.74-1.9.31-.11.99.87,3.16,2.92-3.51-.52-5.21-.77-6.9-1.01ZM682.2,921.57c5.62-3.38,9.49-5.7,13.36-8.03-1.36,6.78-4.13,11.07-13.36,8.03ZM694.85,910.9c-.65-.64-1.3-1.28-1.95-1.92,1.85-1.45,3.71-2.89,5.56-4.34.35.39.71.78,1.06,1.17-1.56,1.7-3.11,3.4-4.67,5.09ZM748.76,72.23c2,1.16,3.99,2.33,5.99,3.49-.69.97-1.38,1.95-2.07,2.92-1.77-1.4-3.53-2.8-5.3-4.2.46-.74.92-1.47,1.38-2.21ZM708.31,60.88c2.16-1.21,3.68-2.06,5.18-2.92,1.43,2.43,2.87,4.88,4.48,7.6-5.88,3.87-6.29-2.06-9.66-4.68ZM714.76,907.84c-.11-.61-.22-1.21-.34-1.82,2.3-.45,4.59-.9,6.89-1.35.12.65.23,1.31.35,1.96-2.3.41-4.6.81-6.9,1.22ZM713.93,75.64c9.12-1.62,10.11-1.31,14.09,3.64-5.98,4.07-9.26-3.14-14.09-3.64ZM726.54,69.68c9.67-3.24,13.47-1.67,18.49,7.2-9.81,6.82-11.71-5.12-18.49-7.2ZM743.91,84.51q8.63-.4,15.3,9.27c-9.43.17-11.19-.9-15.3-9.27ZM764.41,85.52c-5.16-.52-5.28-5.31-7.25-8.34,1.12-.73,2.24-1.47,3.35-2.21,1.63,3.23,7.66,4.73,3.9,10.55ZM773.16,98.3c2.72,4.54,3.87,6.02,3.68,6.22-.89.98-2.07,1.86-3.31,2.24-.38.12-1.78-1.45-1.79-2.26-.01-1.53.64-3.07,1.42-6.2ZM769.75,876.9c2.65-4.55,5.04-9.78,13.6-5.58-6.02,2.47-9.81,4.02-13.6,5.58ZM790.89,859.35c-.27-.86-.53-1.73-.8-2.59,2.16-.79,4.31-1.59,6.47-2.38.27,1.1.54,2.21.82,3.31-2.16.55-4.32,1.11-6.48,1.66ZM795.67,852.61c-.49-.44-.97-.88-1.46-1.32,1.29-1.66,2.58-3.33,3.87-4.99.7.73,1.4,1.46,2.1,2.19-1.5,1.37-3.01,2.75-4.51,4.12ZM824.36,825.85c2.67,6,.67,8.68-3.34,10.03-.9-.72-1.79-1.44-2.69-2.15,2.01-2.62,4.02-5.25,6.03-7.87ZM815,113.92c-1.68,6.34-4.97,5.45-7.74,5.69-.34-.96-.68-1.91-1.02-2.87,2.46-.79,4.92-1.58,8.76-2.82ZM810.14,860.51c.41-3.19.67-5.14,1.13-8.71-3.37.76-6.27,1.41-9.11,2.05,3.24-12.11,9-16.36,21.93-15.66.62,2.42,1.28,5,1.95,7.59-4.88,4.52-9.81,9.08-15.89,14.72ZM874.22,175.81c-9.06-2.69-16.15-7.13-21.28-14.18-1.04-1.43.5-4.82.85-7.31.93-.08,1.86-.17,2.79-.25,1.1,1.91,2.81,3.71,3.17,5.76.83,4.7,3.26,7.08,7.77,6.46,8.01-1.1,7.22,3.67,6.7,9.51ZM891.35,203.45v-9.55q2.22,4.55,0,9.55ZM903.28,736.62c-.71-.19-1.41-.39-2.12-.58.56-2.07,1.11-4.14,1.67-6.21l2.04.56c-.53,2.08-1.06,4.15-1.59,6.23ZM932.2,257.19c1.9,6.5,3.8,13.01,6.23,21.3-10.75-6.4-6.53-14.27-6.23-21.3ZM950.62,313.89c-.29-1.99-.58-3.97-.87-5.96.76-.13,1.53-.25,2.29-.38.34,1.98.68,3.96,1.01,5.94-.81.13-1.62.26-2.44.39ZM971.36,406.96c.96,1.5,1.92,3,2.88,4.5-.71.43-1.42.86-2.13,1.29-.78-1.6-1.55-3.21-2.33-4.81.53-.33,1.05-.65,1.58-.98ZM966.98,632.69c-.55-.2-1.1-.39-1.65-.59.5-1.52.98-3.05,1.57-4.54.02-.04,1.15.38,1.77.59-.56,1.52-1.12,3.03-1.69,4.55ZM968.14,590.12c-5.42-7.77,5.67-9.92.98-16.47,1.42.42,2.85.85,4.27,1.27-1.64,4.73-3.27,9.47-5.25,15.2ZM977.91,535.75c-.57-5.9-8.19-9.71-3.39-19.07,2.26,7.26,3.99,12.81,5.72,18.37-.78.24-1.56.47-2.33.71ZM981.92,562.04c-.15-2.6-.3-5.19-.55-9.48,5.29,4.14,2.55,6.81.55,9.48Z"/>
    <path class="cls-2" d="M515.9,999.99s0,0,0,0c0,0,0,0,0,0,3.58-1.87,7.16-3.73,10.74-5.6-.55-.84-1.1-1.67-1.65-2.51-3.03,2.7-6.07,5.4-9.1,8.1-.01,0-.02-.01-.04-.02,0,.01.01.02.02.03h.03Z"/>
    <path class="cls-2" d="M366.62,965.71s0,0,0,0c0,0,0,0,0,0,6.59,1.63,13.17,3.26,19.75,4.89-6.1-4.28-11.93-10.05-19.78-4.9,0,0,0,0,0,0,0,0,0,0,0,0h.03Z"/>
    <path class="cls-2" d="M18.5,619.81c-.11,0-.21,0-.33.01l.33.12s0-.09,0-.13Z"/>
    <path class="cls-2" d="M48.52,687.71c-.15-1.43-1.07-2.79-1.64-4.17-4.9,12.64-.41,22.5,4.51,33.56.88-1.82,3-4.5,2.45-5.34-4.84-7.4-4.48-15.82-5.32-24.04Z"/>
    <path class="cls-2" d="M502.54,14.51c-3.37-.75-6.7-1.65-10.05-2.49,6.82,9.74,16.09,12.53,27.09,10.42-1.12-2.18-2.17-4.24-2.52-4.94-5.85-1.2-10.2-2.04-14.52-3Z"/>
    <path class="cls-2" d="M306.28,936.31c.06.05-.1-.1-.1-.1-.06.01-.11.03-.17.04.09.02.18.04.27.06Z"/>
    <path class="cls-2" d="M299.52,935.35c-6.19,2.7-10.46,0-14.59-4.12-1.24-1.23-2.65-2.29-6.02-5.17,3.51,5.54,5.54,8.73,7.54,11.9,6.95,4.73,13.11-.35,19.57-1.71-2.25-.46-4.78-1.65-6.5-.9Z"/>
    <path class="cls-2" d="M844.4,817.99c.58.94,1.15,1.86,1.72,2.78,2.52.56,5.14.86,7.52,1.79,4.97,1.94,5.91-1.54,7.33-5.26-2.64-1.57-5.18-3.08-7.69-4.59,1.91,9.96-7.57.64-8.89,5.29Z"/>
    <path class="cls-2" d="M401.56,987.01c.09.64.19,1.28.28,1.92,5.89-.93,11.79-1.87,17.68-2.8-.14-.85-.28-1.71-.41-2.56-5.85,1.15-11.7,2.3-17.55,3.45Z"/>
    <path class="cls-2" d="M531.98,988.77c6.19.48,12.38.96,18.57,1.43l.08-1.44c-6.15-.83-12.29-1.66-18.44-2.48-.07.83-.14,1.66-.21,2.49Z"/>
    <path class="cls-2" d="M68.18,284.68c-2.64,5.14-8.01,6.31-4.79,11.78,2.28-1.15,4.56-2.3,6.83-3.44-.49-2.01-1-4.07-2.05-8.34Z"/>
    <path class="cls-2" d="M986.55,408.36c-.82-3.84-1.64-7.69-2.46-11.53-.79.17-1.58.35-2.37.52.62,3.84,1.23,7.68,1.85,11.51,1-.17,1.99-.34,2.99-.51Z"/>
    <path class="cls-2" d="M793.97,877.77c1.79-3.07,3.24-5.56,4.66-8.01-3.74,1.53-7.48,3.07-11.23,4.6,2.05,1.06,4.14,2.14,6.56,3.41Z"/>
    <path class="cls-2" d="M20.78,387.99c-4.09,2.82-4.43,6.1-.02,9.08,2.27-3.92,4.53-7.84,6.8-11.76-2.32.8-4.81,1.33-6.77,2.68Z"/>
    <path class="cls-2" d="M123.93,818.74c.58-.87,1.17-1.74,1.75-2.6-2.56-1.28-5.11-2.56-10.21-5.1,4.24,3.86,6.35,5.79,8.46,7.71Z"/>
    <path class="cls-2" d="M286.15,937.97c.12.04.25.08.37.12l.02.02s-.06-.1-.09-.15c-.05-.03-.09-.05-.14-.08-.05.03-.11.06-.16.09Z"/>
    <path class="cls-2" d="M286.15,937.97c-3.34-1.1-6.73-2.2-12.3-4.02,4.75,6,8.28,6.28,12.3,4.02Z"/>
    <path class="cls-2" d="M0,548.16c.2.98.4,1.97.6,2.95,1.88-.69,3.77-1.36,5.61-2.16.07-.03-.51-2.05-.62-2.04-1.88.32-3.73.8-5.59,1.25Z"/>
    <path class="cls-2" d="M11.19,590.63c-.01.17-.03.35-.07.51.14-.04.26-.09.4-.13,0-.02-.02-.05-.03-.07-.09-.1-.2-.21-.3-.31Z"/>
    <path class="cls-2" d="M13.7,581.39c-5.13-3.05-7.39-.95-6.54,4.45.28,1.77,2.51,3.23,4.04,4.8.23-3.25-4.35-7.83,2.51-9.25Z"/>
    <path class="cls-2" d="M615.78,977.76c.09.31.18.61.27.92,2.87-.49,5.73-.98,8.6-1.47-.05-.69-.1-1.39-.15-2.08-2.91.88-5.81,1.75-8.72,2.63Z"/>
    <path class="cls-2" d="M56.66,727.63c1.8,2.39,3.6,4.79,5.4,7.18.68-.66,1.36-1.33,2.04-1.99-2-2.17-3.99-4.33-5.99-6.5-.48.44-.96.87-1.44,1.31Z"/>
    <path class="cls-2" d="M20.47,631.63c.04.21.08.42.12.63.15-.01.28-.03.42-.05-.01-.06-.03-.13-.04-.19-.19-.13-.33-.26-.5-.39Z"/>
    <path class="cls-2" d="M20.47,631.63c-.73-3.75-1.46-7.5-2.19-11.25-2.31,4.4-1.91,8.22,2.19,11.25Z"/>
    <path class="cls-2" d="M18.18,619.82l.11.56c.08-.15.13-.29.22-.44,0,0-.33-.12-.33-.12Z"/>
    <path class="cls-2" d="M309.77,950.82c.02.55.04,1.1.06,1.65,1.67-.09,3.33-.18,5-.27-.02-.46-.03-.92-.05-1.37h-5.01Z"/>
    <path class="cls-2" d="M296.04,948.85c1.59,1.76,3.19,3.51,4.78,5.27.67-.63,1.34-1.27,2.01-1.9-1.49-1.81-2.97-3.61-4.46-5.42l-2.33,2.05Z"/>
    <path class="cls-2" d="M476.11,1.86c-.29-.59-.57-1.18-.86-1.77-1.61.8-3.22,1.6-4.83,2.4l.87,1.81c1.61-.81,3.21-1.62,4.82-2.43Z"/>
    <path class="cls-2" d="M148.59,834.53c1.8.9,3.61,1.79,5.41,2.69.19-.39.38-.78.56-1.17-1.8-.9-3.6-1.8-5.4-2.69-.19.39-.38.79-.58,1.18Z"/>
    <path class="cls-2" d="M10.78,567.11s-1.3.04-1.31.15c-.21,1.83-.32,3.67-.45,5.51.87-.06,1.73-.12,2.6-.18-.26-1.83-.51-3.65-.84-5.47Z"/>
    <path class="cls-2" d="M674.56,952.2c-.1.11.82,1.54.95,1.49.94-.36,1.8-.95,2.72-1.48-.58-.83-.96-1.37-1.34-1.9-.8.61-1.65,1.17-2.33,1.89Z"/>
    <path class="cls-2" d="M978.98,371.07c.08-.77.16-1.55.24-2.32-3.07.17-6.14.34-9.21.51h-.12s0,.06,0,.09c.03-.02.07-.05.1-.07,3.03.61,6.01,1.2,9,1.8Z"/>
    <path class="cls-2" d="M831.39,851.63c-.9-.06-1.84.46-2.76.74.27.61.51,1.7.83,1.73,1.02.09,2.08-.22,3.27-.4-.55-.91-.91-2.04-1.34-2.07Z"/>
    <path class="cls-2" d="M845.28,828.94c.35-4.08.51-6.03.67-7.85-4.05.58-3.66,2.71-.67,7.85Z"/>
    <path class="cls-2" d="M845.95,821.09c.12-.02.2-.05.33-.06,0,0,0,0,0,0-.05-.08-.1-.17-.15-.25-.05-.01-.1-.02-.14-.03,0,.11-.02.23-.03.34Z"/>
    <path class="cls-2" d="M74.72,762.11c1.89,1.44,3.78,2.88,5.67,4.32.46-.77.92-1.54,1.39-2.31-2.04-1.17-4.09-2.33-6.13-3.5-.31.5-.62.99-.92,1.49Z"/>
  </g>
  <g>
    <path class="cls-1" d="M296.48,690.07c-11.34,3.92-20.62,9.22-32.33,18.45-2.79,2.2-14.52,14.34-17.46,18.08-1.86,2.36-3.66,4.63-4.03,5.08-.95,1.15-5.66,8.17-7.09,10.57-11.3,18.97-18.3,38.23-21.8,59.99-1.72,10.66-2.26,18.88-1.9,28.75.36,10,.73,14.16,1.25,14.09.23-.03.76-.67,1.21-1.44,2.67-4.59,12.86-13.63,20.71-18.39,3.59-2.18,11.71-6.37,15.7-8.11,3.21-1.4,14.46-5.63,17.28-6.5,1.74-.54,11.35-3.87,18.3-6.35,6.83-2.44,18.24-7.81,22.16-10.44,1.22-.82,3.12-2.02,4.19-2.66,1.07-.64,4.19-2.98,6.91-5.19,10.42-8.46,22.05-21.67,28.67-32.57,7.24-11.92,7.36-12.27,3.7-10.64-11.46,5.09-25.95,6.57-40.63,4.14-4.63-.77-10.21-2.11-17.08-4.11-3.9-1.14-8.13-2.35-9.35-2.68-1.22-.33-2.7-.75-3.25-.92-1.95-.6-7.13-2.02-8.17-2.23-1.02-.21-.9-.38,2.93-4.33,6.23-6.42,8.93-10.9,14.2-23.55,4-9.6,5.39-12.81,6.76-15.66,1.92-3.99,1.83-4.33-.87-3.39h0ZM275.12,744.29c4.72.58,7.38,1.06,10.37,1.88.9.25,2.77.63,4.19.86,2.81.46,3.18,1.18.81,1.58-.81.14-1.97.57-2.6.98-1.32.86-3.82.95-6.91.26-6.1-1.36-18.46-1.67-27.82-.68-3.01.32-6.1.71-6.83.86-1.38.29-1.9-.38-.61-.79.41-.13,2.72-.94,5.21-1.83,4.85-1.74,9.23-2.74,14.27-3.27,4.64-.49,4.8-.49,9.92.15h0ZM275.74,757.92c-.15.24-.4.41-.64.41-.21,0-1.81.66-3.52,1.45-4.06,1.88-10.05,4.04-15.17,5.47-2.93.82-7.15,2.1-7.93,2.4-.45.18-2.07.73-3.66,1.26-1.57.51-4.47,1.64-6.47,2.5s-3.67,1.51-3.74,1.44c-.23-.23,1.46-1.72,4.72-4.13,7.1-5.26,16.67-9.26,25.42-10.62,4.07-.63,11.34-.75,10.99-.17h0ZM280.92,769.21c-.9,2.4-1.76,4.87-1.89,5.47-.41,1.82-1.1,1.34-.82-.57.46-3.21,3.47-10.16,4.12-9.52.13.13-.5,2.22-1.4,4.62h0ZM271.87,768.66c0,.11-.34.81-.74,1.55-1.4,2.53-4.09,9.07-5.4,13.14-1.76,5.49-1.75,5.46-1.93,3.86-.45-4.04,2.64-12.24,6.64-17.61.73-.98,1.42-1.43,1.42-.94h0Z"/>
    <path class="cls-1" d="M590.11,518.85c-.67.45-3.33,1.83-5.9,3.05-11.14,5.29-14.89,7.61-19.77,12.28-4.63,4.43-8.92,10.96-10.79,16.45-.28.81-.62,1.5-.74,1.5s-.62-.69-1.11-1.55c-1.59-2.77-6.11-7.24-9.72-9.64-3.93-2.61-7.32-4.25-12.16-5.89-2.95-1-4.35-1.31-11.14-2.47-1.21-.21-4.66-.38-7.67-.38h-5.47l.24,1.5c.61,3.85.73,10.98.26,15.98-.28,2.97-.34,5.51-.13,5.68.4.34,11.51-.5,18.95-1.44,5.29-.67,6.71-.59,6.15.31-.16.27-.44,4.96-.62,10.45-.36,11.22-.59,14.71-1.13,17.2-.21.96-.59,3.13-.85,4.8-.26,1.67-.63,3.7-.83,4.47-.2.78-.58,2.44-.83,3.66s-.79,3.25-1.18,4.47-.95,3.07-1.23,4.07c-1.16,4.08-5.63,13.22-8.75,17.89-2.42,3.61-8.62,10.2-12.61,13.38-4.27,3.41-6.87,5.32-7.24,5.32-.62,0-.24,1.18.45,1.4,1.95.62,10.68,10.76,13.78,16.01,1.13,1.91,1.75,2.2,1.75.81,0-2.51,4.12-11.59,7.22-15.9,3.71-5.16,14.74-14.23,14.74-12.12,0,.21-.37.52-.77.65-.94.29-8.84,7.93-10.3,9.97-3.23,4.48-5.33,10.05-6.24,16.55-.6,4.31-.5,6.83.34,8.46.23.45,1.8,2.52,3.51,4.64,1.71,2.11,3.28,4.08,3.51,4.39.5.67-.3,1.34-4.61,3.85l-3.01,1.76.2,1.83c.11,1.01.59,3.56,1.06,5.67.47,2.11.86,4.23.87,4.7.02,1.63.52,1.91,2.14,1.23,1.09-.46,3.05-.62,7.69-.63,11.22-.02,18.95-1.63,25.95-5.41,6.55-3.54,13.03-10.55,15.47-16.74.53-1.34,1.11-2.61,1.29-2.83.18-.21.33,1.91.33,4.76,0,4.27.15,5.55.87,7.5,3.44,9.33,14.01,16.47,27.8,18.79,7,1.18,8.6,1.7,10.78,3.54.69.58,1.34.98,1.44.88s.44-1.08.75-2.18c.31-1.09,1.51-4.11,2.66-6.67,3.96-8.87,6.94-19.39,6.94-24.52,0-6.22-1.72-13.77-4.06-17.85-1.78-3.09-1.59-3.54.48-1.18,5.03,5.71,7.88,11.51,9.45,19.24.91,4.47.82,11.36-.19,15.7-1.07,4.55-1.01,4.35-1.96,7.56l-.83,2.81,4.76-.26c5.63-.31,5.45-.05-1.55,2.16l-4.68,1.48-1.52,3.01q-2.34,4.64,2.42,4.31c5.73-.39,12.56-1.04,15.41-1.48,2.85-.44,4.89-.49,4.51-.12-.57.56-8.95,3.97-13.3,5.42-5.98,1.98-7.74,2.43-10.98,2.77-1.99.21-2.67.45-2.77.97-.1.55.28.74,1.83.92,1.06.12,2.85.41,3.9.62,2.89.59,11.79.49,16.19-.18,2.09-.32,5.94-.98,8.5-1.46,2.56-.48,5.69-.95,6.91-1.03,2.55-.18,2.77-.34-3.62,2.6-5.86,2.7-10.66,4.55-11.79,4.55-1.22,0-3.7.85-3.7,1.26,0,.37,4.92.68,16.1,1.01,6.39.19,9.13.1,12.53-.4,2.4-.36,4.57-.65,4.84-.65,1.03,0-1.3,1.13-4.8,2.33-6.87,2.36-10.36,2.96-17.2,2.96-6.38,0-11.83-.86-20.42-3.2-2.07-.57-9.87-3.3-10.7-3.75-.37-.2-.9-.38-1.14-.38-1.26,0-19.56-8.96-28.22-13.82-7.24-4.06-14.29-9.92-18.16-15.1l-2.1-2.81-1.87,1.81c-6.93,6.68-15.82,10.26-30.95,12.43-7.04,1.01-10.57,2.22-15.78,5.38-1.42.86-2.66,1.52-2.72,1.46-.07-.07-.4-1.22-.73-2.56-.33-1.33-.99-3.82-1.45-5.49-1.64-5.98-3.68-14.06-3.9-15.45-.4-2.5-.63-2.61-3.32-1.7-7,2.39-16.28,4.14-21.96,4.14-2.24,0-2.51.26-1.75,1.67.59,1.1,2.74,8.34,3.47,11.67,1.43,6.53,1.78,9.88,1.78,17,0,6.14-.16,8.14-1,12.4-.92,4.68-2.58,10.93-3.47,13.1-.2.49-1.21,3.05-2.25,5.69-2.73,6.95-9.99,22.36-10.77,22.84-.45.28,1.38,5.1,3.55,9.33,8.44,16.47,19.68,28.92,35.7,39.57,6.07,4.03,16.84,9.82,25.42,13.65,3.46,1.55,13.83,5.54,16.06,6.18,1.34.39,2.76.87,3.15,1.07.41.21.8.37.92.37.36,0,.24-1.42-.16-1.83-.72-.74-2.4-6.51-3.13-10.78-.65-3.77-.72-6.32-.63-21.66.06-11.06-.07-18.91-.36-21.57-.65-5.9-1.65-11.42-2.83-15.54-.45-1.56-.9-3.29-1.42-5.49-.16-.66-1.34-1.79-3.38-3.23-1.71-1.21-3.22-2.32-3.33-2.44-.11-.12-1.22-1.05-2.44-2.05-2.63-2.14-5.21-4.47-10.78-9.76-9.68-9.19-13.43-12.56-15.82-14.22-.49-.34-1.11-.87-1.45-1.24-.45-.49-6.73-5.28-8.92-6.8-1.27-.88,7.97.91,12.24,2.38,3.94,1.35,8.84,3.71,11.31,5.45,1.24.87,4.6,3.86,7.52,6.7,7.21,6.98,11.02,10.08,18.91,15.35,10.3,6.88,21.11,12.07,32.74,15.71,17.36,5.44,41.16,6.92,60.19,3.75.68-.11,2.48-.4,4.07-.65,6.51-1.03,16.63-3.38,23.75-5.52,7.85-2.36,14.86-4.81,21.39-7.47,3.94-1.61,5.23-2.14,7.52-3.1,1.46-.62,3.64-1.56,4.88-2.11,1.22-.54,3.86-1.72,5.82-2.58,4.23-1.87,9.8-4.61,12.89-6.35,3.21-1.8,5.33-2.87,6.63-3.35,1.06-.39,1.2-1.24.2-1.24-1.06,0-14.23-6.93-17.89-9.41-1.26-.86-2.45-1.57-2.6-1.57-.67,0-9.44-6.26-14.4-10.28-13.86-11.23-24.56-23.64-33.19-38.53-3.54-6.1-8.19-15.9-11.18-23.55l-1.8-4.6-3.25.22c-4.15.29-10.05-.54-15.17-2.13-2.36-.73-8.26-3.9-12.89-6.94-4.4-2.88-12.28-7.03-17.08-8.99-1.34-.55-3.99-1.78-5.86-2.73s-3.51-1.64-3.62-1.53c-.12.12-.14.25-.04.33.09.07.69.52,1.3.99,1.61,1.22,3.61,3.94,4.87,6.62,3.51,7.44,6.04,14.23,6.3,16.88.24,2.45.12,2.36-1.35-1.02-.63-1.45-2.45-4.45-4.02-6.65-1.57-2.2-3.46-4.85-4.17-5.88-1.87-2.68-6.9-8.06-7.24-7.73-.15.15.08.81.5,1.42.94,1.36,2.18,4.55,3.37,8.66.48,1.67,1.03,3.51,1.2,4.07.95,3.05,2.45,9.35,2.43,10.21-.02.63-2.01-1.59-2.02-2.24,0-.2-1.25-1.95-2.76-3.86-3.69-4.68-8.27-11.2-9.46-13.46-.53-1.02-1.15-2.08-1.38-2.4-.24-.31-.46-1.79-.5-3.29-.09-3.29-1.33-8.61-2.59-11.14-1.08-2.16-3.02-4.17-3.41-3.54-.53.85-.44,6.75.13,8.17,1.14,2.89,1.74,4.07,2.65,5.17.52.63,1.32,1.87,1.78,2.77,1.67,3.25,5.91,16.1,5.69,17.24-.25,1.27-7.27-8.91-8.47-12.28-.29-.81-.67-1.5-.82-1.5s-.39-.41-.51-.89c-.12-.49-.33-.79-.47-.67-.13.12-.07.67.14,1.2.87,2.2,1.38,5.62,1.1,7.44-.35,2.32-2.01,8.88-2.75,10.82-.8,2.11-3.07,6.41-3.54,6.69-.43.26-.27-.51.42-2.02,2.59-5.69,3.14-15.48,1.14-20.33-.49-1.19-.52-1.14-1.05,2.03-.3,1.79-.89,4.08-1.3,5.08-.42,1.02-1.07,2.87-1.46,4.17-.4,1.3-.84,2.34-1,2.34s-.51-2.81-.78-6.22c-.85-10.66-1.11-11.69-2.15-8.54-.62,1.89-3.57,6.83-6.02,10.09-2.02,2.68-8.79,9.83-9.88,10.42-.45.25-.03-1.05,1.36-4.22,1.1-2.51,3-7.16,4.19-10.29,1.19-3.13,2.84-7.04,3.65-8.64,2.5-4.99,1.99-4.96-2.48.12-6.65,7.56-11.39,13.61-12.69,16.19-.61,1.22-1.27,1.49-1.27.53,0-1.16,3.18-10.29,4.49-12.89,1.6-3.17,3.36-5.83,5.02-7.61.69-.73,1.11-1.41.96-1.55-.15-.13-1.55.16-3.13.67-1.59.51-2.98.81-3.11.67-.37-.37,1.34-2.17,3.5-3.66,2.24-1.55,3.54-2.73,3.01-2.73-.2,0-1.38.37-2.6.81-2.28.83-4.47,1.07-4.47.49s1.79-2.05,3.33-2.7c.81-.34,1.62-.82,1.76-1.04.28-.44-.38-.4-7.05.45-3.74.47-12.14.5-12.42.04-.12-.2.83-.61,2.09-.89,1.27-.29,5.25-1.41,8.83-2.48,3.58-1.07,7.56-2.17,8.85-2.44,1.3-.27,2.34-.63,2.34-.81,0-.51-12.12-.44-15.58.08-3.01.46-9.06,2.35-11.79,3.69-.85.42-1.69.68-1.81.56-.13-.13-.16-.28-.06-.37.89-.79,7.56-5.27,9.31-6.25,4.47-2.51,10.86-4.29,15.17-4.22,1.5.02,2.72-.11,2.72-.3s-.87-.67-1.93-1.06c-1.07-.39-3.84-1.62-6.2-2.75-5.69-2.71-9.04-3.94-11.55-4.23-1.14-.13-2.15-.31-2.24-.4-.62-.6,1.3-.78,7.04-.66,6.51.13,8.44.47,11.31,1.95,3.39,1.75-.08-1.51-4.35-4.09-1.34-.81-3.49-1.77-4.78-2.13-1.3-.36-2.34-.82-2.34-1.04,0-.23,2.75-.32,6.61-.22,6.1.15,6.81.25,9.25,1.26,1.46.61,3.41,1.65,4.37,2.34.94.67,1.73,1.05,1.73.83,0-.55-10-9.73-12.93-11.86-1.38-1.01-2.49-1.93-2.5-2.09-.05-.75,5.02-.02,9.82,1.41,2.28.68,3.31,1.31,5.92,3.59,1.75,1.53,3.21,2.71,3.27,2.64.24-.24-6.59-8.56-8.66-10.55-2.71-2.6-7.08-5.17-10.78-6.34-1.67-.53-3.47-1.12-3.99-1.31-.52-.19-1.57-.35-2.34-.35s-1.4-.21-1.4-.47c0-.33.81-.39,2.72-.22,8.83.82,17.48,5.09,24.85,12.26,3.42,3.33,4.9,4.39,3.63,2.61-.38-.53-.82-1.26-.96-1.59-.15-.34-.75-1.34-1.34-2.24-1.84-2.78-2.26-4.8-2.26-10.86,0-4.88.09-5.66.75-6.3.73-.71.74-.65.47,2.16-.54,5.56,1.03,10,5.75,16.31,1.92,2.56,2.99,3.74,2.99,3.29,0-.07-.27-1.02-.61-2.11-.34-1.1-.61-2.87-.61-3.94,0-2.32.73-5.94,1.26-6.27.42-.26,3.41,5.78,3.83,7.73.55,2.53.73,2.32,1.23-1.46.28-2.11,1-5.34,1.6-7.12,1.58-4.72,5.59-12.77,6.35-12.77q.49,0-.24,12.36c-.34,5.78-.51,10.64-.37,10.78.31.31,1.38-1.14,1.38-1.87,0-.79,1.96-4.55,5.26-10.13,1.57-2.64,2.87-5.07,2.87-5.35s.21-.51.49-.51c.89,0-.14,10.21-1.97,19.52-.96,4.88-1.06,5.69-.67,5.69.2,0,.6-.65.88-1.42.6-1.67,5.88-7.33,6.48-6.96.27.16.22,1.22-.14,3.14-.4,2.11-.94,3.43-2.01,4.92-.82,1.14-1.39,2.11-1.3,2.2.09.09.98-.46,1.95-1.22,2.32-1.79,11.35-6.38,11.35-5.78,0,.76-2.85,3.99-5.61,6.37-3.7,3.18-4.23,3.71-3.99,3.93.11.1,1.28-.47,2.62-1.28,1.34-.81,2.52-1.46,2.64-1.46s1.44-.56,2.91-1.24c1.46-.68,2.86-1.18,3.07-1.12.21.07-1.36,1.85-3.48,3.94-2.11,2.09-3.78,3.91-3.68,4.03.1.11,1.16-.19,2.34-.67,1.19-.48,3.25-1.15,4.6-1.49,4.55-1.15,13.97-1.86,13.44-1.01-.13.2-1.63.91-3.38,1.59-1.73.67-5.27,2.17-7.83,3.31-2.56,1.15-5.39,2.21-6.26,2.36-.85.14-1.66.49-1.75.75-.23.66,7.65.89,14.73.42,5.04-.33,10.43-1.02,13.75-1.77,2.53-.57.73.67-4.92,3.39-9.64,4.64-13.01,5.52-21.11,5.54-3.17,0-5.68.15-5.57.32.11.17,1.06.57,2.11.89,1.06.33,3.46,1.16,5.37,1.86,2.81,1.03,8.98,2.47,10.61,2.47.22,0,.37.13.37.33,0,.46-6.02,1.3-9.35,1.3-1.46,0-3.99-.28-5.65-.63-1.67-.35-3.21-.56-3.46-.48-.39.13,4.27,3.55,4.84,3.55.33,0,2.56,1.59,3.86,2.75.57.51,1.15.91,1.32.91s.31.28.31.65c0,.41-.22.57-.59.43-.33-.13-1.22-.34-2.03-.49-.81-.15-1.54-.42-1.67-.63-.13-.21-.47-.37-.79-.37s-1.79-.55-3.25-1.22c-1.46-.67-2.91-1.22-3.17-1.22-.63,0,5.9,6.24,8.13,7.77.94.64,1.83,1.17,1.97,1.17s.79.38,1.4.81c1.81,1.29,9.11,4.83,12.93,6.27,6.54,2.46,20.09,3.49,27.33,2.08,14.82-2.88,26.83-10.51,39.93-25.35,2.51-2.85,6.81-7.42,9.58-10.19,2.77-2.77,4.95-5.1,4.86-5.19-.14-.14-1.71.31-3.74,1.08-.44.17-1.46.54-2.24.82-.78.28-3.25,1.42-5.49,2.54-3.92,1.96-4.35,2.32-12.2,10.17-10.41,10.41-13.52,12.94-20.42,16.58-4.46,2.36-7.48,3.39-14.36,4.9-4.35.96-18.06.45-21.15-.78-.34-.13,2.32-.37,5.9-.52,8.26-.36,12.51-1.39,19.97-4.84,7.91-3.66,14.27-9.15,25.51-22,2.85-3.25,5.98-6.42,6.99-7.06,1.02-.64,1.83-1.31,1.83-1.5s-.53-.56-1.14-.8c-3.14-1.25-7.85-3.87-15.82-8.81-7.97-4.93-14.05-7.94-19.03-9.4-6.06-1.78-8.31-2.17-13.83-2.38-5.67-.22-6.22-.16-14.4,1.55-.98.21-3.74,1.35-6.1,2.52-5.25,2.61-5.09,2.55-4.73,1.96.63-1.03,6.32-4.42,9.41-5.6,5.56-2.14,9.07-2.97,16.02-3.82,7.99-.97,20.62,1.03,29.12,4.63,3.57,1.51,12.61,6.36,16.88,9.06,3.13,1.98,1.5.3-3.99-4.13-7.24-5.83-9.74-7.5-14.84-9.91-4.99-2.36-10-3.88-15.58-4.72-5.91-.89-8.78-.77-16.47.66-4.84.91-11.11,3.39-14.56,5.76-.98.67-1.85,1.1-1.97.98-.12-.12.31-1.36.98-2.79,2.37-5.04,3.27-8.87,3.62-15.37.47-8.56-2.34-17.77-8.49-27.78-1.07-1.75-1.95-3.25-1.95-3.33,0-.53-3.04-4.67-3.16-4.31-.17.5.93,3.58,2.47,6.95,4.17,9.11,6.38,18.13,6.38,25.99,0,6.07-.59,9.76-2.53,15.98-.83,2.64-1.92,3.97-1.37,1.67,1.83-7.67.55-18.18-3.23-26.43-.56-1.22-1.01-2.25-1.01-2.32s-1.16-2.56-2.6-5.57c-3.35-7.04-6.22-13.68-6.52-15.09-.13-.61-.41-1.14-.61-1.14s-1.53.7-2.95,1.57c-1.43.87-4.58,2.61-7.06,3.92-18.06,9.49-24.74,17.03-28.67,32.34-.2.78-.58,3.38-.85,5.77-.27,2.4-.65,4.25-.85,4.13-.5-.3-.4-11.08.12-13.64.61-3.01,3.03-10.01,4.23-12.28,4.62-8.69,10.61-14.6,22.12-21.83,3.99-2.5,6.42-4.39,9.05-7.02,1.99-1.99,3.6-3.85,3.6-4.17,0-.75-.37-.69-1.83.31h0ZM557.33,703.71c.02.93.21,2.6.41,3.66.2,1.08.57,3.13.83,4.6.48,2.72,1.02,5.27,1.65,7.73.2.8.58,2.32.84,3.46.81,3.46,3.95,12.7,5.29,15.58.7,1.5,1.44,3.16,1.65,3.7.34.85.31.91-.26.44-1.53-1.26-6.65-10.4-8.65-15.45-2.16-5.45-3.34-11.79-3.34-17.98,0-5.57.7-10.33,1.25-8.46.16.56.32,1.79.34,2.72h0ZM566.76,704.72c.43,2.32.96,5.01,1.2,6.02.24,1.02.58,2.46.76,3.25,1.61,6.87,5.06,17.66,7.03,21.96,2.69,5.9,4.67,9.71,6.38,12.32.99,1.5,1.7,2.82,1.58,2.93-.29.29-5.25-5.45-7.2-8.34-1.31-1.94-2.33-3.7-5.32-9.15-1.51-2.75-3.76-9.23-4.45-12.81-.24-1.22-.62-3.22-.85-4.39-.44-2.28-.57-16.65-.16-16.23.13.14.59,2.11,1.02,4.43h0ZM577.25,711.11c.85,4.4,3.83,13.01,7.38,21.39,1.48,3.5,3.92,8.37,4.89,9.8.67.98,1.19,1.84,1.19,1.95,0,.47,4.27,7.08,5.65,8.74,3.4,4.11,2.24,3.65-2.47-1-3.12-3.06-8.46-10.11-10.63-14.01-.57-1.02-1.54-3.15-2.14-4.7-.6-1.55-1.25-3-1.44-3.21-.18-.21-.35-.81-.35-1.3s-.16-1.02-.35-1.14c-.19-.12-.46-.81-.61-1.55-.15-.73-.44-2.14-.67-3.15-1.28-5.77-1.88-10.98-1.67-14.44.08-1.39.7-.08,1.22,2.6h0ZM587.85,715.93c.73,2.2,1.69,4.78,2.15,5.8,2.64,5.82,4.63,9.8,6.19,12.36,3.54,5.82,6.83,11.03,7.09,11.22.15.11.74.86,1.28,1.63,1.56,2.24,2.79,3.62,6.41,7.22,1.87,1.86,3.27,3.36,3.13,3.36-.54,0-4.84-2.97-7.69-5.3-1.65-1.35-4.27-3.97-5.8-5.8s-3.07-3.65-3.41-4.03c-.78-.87-5.39-8.66-6.2-10.49-2.13-4.8-3.68-10-4.35-14.64-.21-1.46-.5-3.23-.65-3.97-.15-.77-.1-1.32.12-1.32.21,0,.98,1.77,1.71,3.97h0ZM598.18,720.79c.73,2.22,5.5,9.84,8.92,14.27,1.51,1.95,3.5,4.54,4.44,5.78,2.55,3.33,11.2,11.81,14.52,14.22,1.63,1.18,2.86,2.2,2.77,2.29-.38.39-9.09-4.55-10.46-5.94-.11-.11-.93-.75-1.83-1.41-2.59-1.93-8.39-7.9-10.9-11.23-2.9-3.84-5.44-8.78-7.12-13.83-.72-2.16-1.3-4.1-1.3-4.35,0-.72.7-.57.95.2h0ZM612.95,728.76c5.47,6.63,15.17,16.45,18.84,19.08.56.4,2.28,1.64,3.82,2.76,1.55,1.12,3.88,2.63,5.19,3.36,1.3.72,2.38,1.47,2.38,1.65,0,.45-.71.37-1.01-.12-.13-.22-.54-.41-.86-.41-.98,0-8.17-3.54-11.35-5.58-7.92-5.1-14.67-12.47-18.98-20.73-.85-1.63-1.55-3.06-1.55-3.17,0-.75,1.11.24,3.52,3.17h0ZM676.16,730.62c2.11.43,5.31,1.01,7.16,1.3,3.78.58,4.09,1.19.61,1.18-3.94,0-13.5-2.07-13.5-2.91,0-.53,1.59-.41,5.73.44h0ZM631.71,736.01c7.48,6.28,14.33,10.98,20.54,14.1,2.48,1.25,4.29,2.34,4.03,2.43-.75.24-8.54-2.65-12.36-4.59-5.21-2.64-9.08-5.41-12.57-8.99-2.98-3.05-6.87-7.63-6.87-8.09,0-.73,1.63.43,7.24,5.14h0ZM647.45,737.61c7.04,4.68,19.43,10.96,21.64,10.96.28,0,.53.19.53.41s-.28.41-.61.41c-1.1,0-7.65-1.9-9.76-2.83-4.92-2.17-8.22-3.82-9.84-4.93-2.64-1.8-6.99-5.61-7.51-6.59-.36-.66-.11-.61,1.76.37,1.18.62,2.92,1.63,3.8,2.22h0ZM666.36,739.53c2.81,1.11,6.81,2.5,8.95,3.12,6.22,1.8,6.15,1.77,3.82,1.81-1.99.04-7.04-1-10.53-2.18-4.35-1.46-10.37-4.66-10.37-5.52,0-.4.81-.13,8.13,2.76h0ZM507.18,749.16c7.08,1.24,13.76,4.29,20.38,9.28,2.07,1.57,3.88,3,3.99,3.18.4.63-6.39-1.61-8.87-2.93-.37-.19-.94-.37-1.22-.37-2.03,0-20.2-8.48-20.21-9.44,0-.47,2.31-.37,5.93.27h0ZM510.23,763.33c3.78,4.68,12.98,18.6,12.98,19.64,0,.14.34.73.77,1.34.88,1.25,3.04,5.53,12.62,25.05,8.79,17.89,10.17,20.58,11.88,23.02.99,1.42,1.02,2.41.04,1.34-.39-.43-2.14-2.68-3.9-5.04-1.76-2.36-3.44-4.58-3.75-4.96-2.92-3.63-10.39-15.7-16.05-25.95-1.42-2.56-3.2-5.78-3.94-7.12-1.8-3.24-8.85-17.53-10.55-21.35-1.96-4.43-2.09-4.35-3,1.83-.26,1.79-.64,4.02-.84,4.96-.2.95-.37,2.97-.37,4.55s-.14,2.94-.33,3.05c-.45.28-1.3-3.38-1.3-5.61,0-3.41,1.04-8.22,3.47-15.98.27-.86.82-.57,2.26,1.22h0Z"/>
    <path class="cls-1" d="M616.34,163.99c0,.16.62,1.22,1.36,2.36,2.95,4.49,5.37,10.57,6.6,16.63.83,4.09,1.16,15.37.6,21.03-1.82,18.67-2,26.35-.84,36.81.71,6.41,2.85,16.31,5.15,23.79,1.89,6.14,4.87,18.83,7.31,31.11,1.31,6.59,2.49,12,2.63,12s.36-2.34.51-5.19c.15-2.86.44-8.56.65-12.71.21-4.13.59-11.47.83-16.27.25-4.8.62-11.31.83-14.44.21-3.13.49-8.99.61-13.01.12-4.03.33-7.96.47-8.74l.24-1.42.33,1.42c.18.79.54,4.51.81,8.34.81,11.59-.22,48.36-1.46,52.54-.16.53-.11.94.11.94s.63-.77.93-1.71c.54-1.71,1.25-3.42,3.44-8.26.61-1.35,1.9-4.35,2.87-6.71.98-2.36,2.52-6,3.46-8.13,4.85-11.1,8.1-21.25,9.8-30.5.74-4.03.75-19.25.02-22.37-.29-1.24-.8-3.42-1.15-4.88-2.22-9.39-6.72-18.26-14.35-28.35-3.29-4.35-12.15-12.72-17.03-16.1-4.35-3.01-14.72-8.77-14.72-8.18h0Z"/>
    <path class="cls-1" d="M588.03,197.04c-2.4,1.46-2.97,4.4-1.42,7.29.27.49,3.09,2.61,6.3,4.73,5.73,3.78,10.2,7.68,14.01,12.23,2.02,2.41,2.21,1.99.39-.85-3.27-5.12-10.09-18.07-10.09-19.16,0-.2-.66-1.14-1.5-2.11-2.4-2.81-5.27-3.6-7.69-2.12h0Z"/>
    <path class="cls-1" d="M507.34,203.54c0,.24.44,1.08.99,1.89,1.22,1.8,4.34,9.72,5.68,14.44,2.32,8.16,3.63,17.45,4.71,33.35,1.41,20.66,5.01,38.72,10.75,53.89,3.31,8.74,10.95,23.33,16.62,31.72,3.4,5.04,14.48,19.1,17.97,22.82,3.48,3.7,16.18,18.67,18.28,21.55,1.54,2.11,2.89,3.72,3.01,3.6.12-.12-1.34-3.36-3.27-7.22-10.04-20.13-15.73-31.73-16.99-34.65-.77-1.79-1.89-4.35-2.48-5.69-.59-1.34-1.49-3.54-1.99-4.88-.5-1.34-1.06-2.81-1.24-3.25-2.98-7.37-6.04-17.81-8.46-28.88-.88-4.03-1.29-6.34-2.53-14.44-.46-3.01-1.02-6.37-1.23-7.44-.5-2.48-.5-4.76-.02-4.76.2,0,.46.69.56,1.5.77,5.89,5.71,22.08,9.1,29.81.34.77.87,1.98,1.15,2.64.29.68.89,2.03,1.34,3.05.45,1.02,1.36,3.09,2.05,4.68.68,1.57,2.25,5,3.5,7.65,1.24,2.64,2.26,4.89,2.26,5s2.02,4.33,4.47,9.33c2.45,5,4.47,9.2,4.47,9.29s.81,1.89,1.79,3.97c.99,2.1,2.61,5.71,3.62,8.07,1.01,2.36,2.51,5.82,3.35,7.73,1.35,3.07,5.43,13.79,6.88,18.1,2.37,7.04,5.32,18.29,5.6,21.35.14,1.59.8,1.7,1.2.2.14-.54.47-3.86.73-7.4.61-8.27.06-18.75-1.67-31.84-1.08-8.16-5.11-26.96-8.12-37.82-.65-2.36-1.36-4.91-1.57-5.69-1.45-5.29-5.73-19.23-6.97-22.69-1.98-5.53-2.51-6.95-3.29-8.83-.48-1.14-.99-2.39-1.16-2.85-1.06-2.81-5.75-12.57-7.39-15.37-1.33-2.28-1.44-2.79-.35-1.63.76.81,7.35,10.99,7.35,11.35,0,.09.43.85.94,1.67,5.58,8.94,13.28,26.15,17.23,38.55.79,2.48,1.66,5.2,1.96,6.1,4.76,14.56,7.67,34.41,7.7,52.59.01,5.41.12,9.84.24,9.84s.81-2.14,1.53-4.78c.72-2.64,1.76-6.41,2.33-8.44,3.36-11.95,4.8-23.79,4.83-39.65.03-13.99-.5-18.45-3.85-32.33-2.82-11.67-5.98-19.76-12.25-31.32-3.88-7.16-4.09-7.51-7.62-12.77-7.42-11.06-15.65-20.23-26.71-29.76-5.37-4.63-18.53-14.2-19.52-14.2-.16,0-.85-.43-1.55-.95-2.87-2.16-11.63-6.95-18.34-10.03-5.86-2.69-7.4-3.35-10.78-4.67-1.91-.75-3.78-1.48-4.17-1.63-.41-.16-.71-.1-.71.14h0Z"/>
    <path class="cls-1" d="M567.7,208.44c-1.65.71-3,2.81-2.99,4.64.02,3.38,2.02,5.17,5.8,5.17,1.3,0,3.14-.2,4.11-.44,2.7-.68,10.41.84,15.41,3.04.71.31,1.95.85,2.72,1.18,4.8,2.05,6.92,3.04,8.54,3.98,1.01.59,2.89,1.68,4.19,2.45,1.3.76,3.26,2.07,4.37,2.91,1.1.83,2.01,1.4,2.01,1.24,0-1.12-7.36-7.36-13.42-11.38-3.84-2.55-10.98-6.26-21.35-11.1-3.82-1.78-7.59-2.46-9.39-1.68h0Z"/>
    <path class="cls-1" d="M600.07,263.71c0,.18.51,1.04,1.16,1.93.63.88,1.71,2.62,2.38,3.84,3.73,6.83,5.76,10.7,7.04,13.42q1.99,4.23,4.47,5.72c2.52,1.52,8.78,6.29,11.1,8.48.81.76,1.5,1.24,1.5,1.03s-.55-2.58-1.23-5.27c-1.55-6.14-2.43-10.3-2.43-11.47,0-.62-.59-1.36-1.73-2.18-.94-.67-2.19-1.59-2.75-2-1.36-1.02-8.62-6.13-13.42-9.46-2.11-1.47-4.21-3.06-4.63-3.53-.81-.89-1.47-1.13-1.47-.53h0Z"/>
    <path class="cls-1" d="M474.4,321.34c0,.09.36.77.79,1.5,2.86,4.87,4.9,11.83,7.96,27.17,3.33,16.67,7.12,26.64,14.14,37.21,7.68,11.56,16.31,19.69,32.5,30.61,15.94,10.75,32.22,26.44,38.58,37.19.77,1.3,1.56,2.36,1.76,2.36.4,0,.3-.41-.97-3.86-.5-1.36-1.41-4.07-2.05-6.1-2.15-6.83-6.4-18.51-6.97-19.11-.18-.2-.34-.65-.34-.98,0-.99-7.89-16.63-10.96-21.72-5.32-8.83-12.15-17.65-19.84-25.62-1.88-1.95-3.38-3.65-3.29-3.74.39-.4,7.37,5.53,11.91,10.13,7.26,7.35,10.49,11.55,16.14,20.99,1.97,3.29,6.55,12.28,6.94,13.62.13.45,1.08,2.81,2.13,5.29,1.91,4.51,5.1,13.68,5.1,14.64,0,.81,1.25,3.55,1.5,3.29.13-.13.04-1.59-.21-3.21-.46-3.01-.85-5.82-1.7-12.28-.82-6.22-2.04-12.16-3.68-17.89-.19-.66-.53-1.87-.74-2.64-.95-3.41-3.83-11.1-5.79-15.45-4.06-8.99-9.3-17.67-14.75-24.4-7.43-9.19-20.87-20.77-31.98-27.54-1.67-1.02-4.05-2.5-5.25-3.27-5.73-3.68-13.99-8.31-21.64-12.14-7.69-3.85-9.31-4.55-9.31-4.01h0Z"/>
    <path class="cls-1" d="M782.4,146.3c-2.6.55-5.55,2.2-7.43,4.17-2.27,2.37-2.65,2.97-3.67,5.73-.97,2.64-1.21,9.11-.41,11.14.25.63.82,1.99,1.28,3.05l.83,1.91-1.59,2.16c-.87,1.18-2.23,2.91-3.01,3.82-.77.9-2.35,2.77-3.46,4.07-6.03,7.12-16.63,17.98-23.3,23.88-2.56,2.27-4.44,4.17-4.19,4.26.24.09.98-.22,1.59-.66,1.03-.75,4.03-2.22,9.56-4.71,1.3-.58,2.44-1.06,2.54-1.06s.98-.35,1.91-.77c.94-.42,2.38-1,3.15-1.26.77-.27,1.8-.65,2.24-.83.45-.19,2.72-.92,5.08-1.63,2.36-.71,4.82-1.44,5.49-1.65,5.77-1.73,15.48-4.45,17.28-4.85,3.46-.76,3.6-.83,2.64-1.21-1.02-.41-11.63-.09-15.66.46-4.6.64-9.63,1.99-12.93,3.47-3.83,1.72-3.82,1.33.04-2.46,4.2-4.12,7.65-8.1,11.43-13.18,1.81-2.44,3.49-4.76,3.72-5.16.38-.65.5-.66,1.06-.08.35.36,1.85,1.04,3.36,1.53,7.73,2.49,16.67-1.46,20.05-8.85,1.27-2.77,1.67-7,.93-9.76-1.26-4.72-5.07-9.14-9.19-10.68-2.6-.97-6.93-1.36-9.35-.85h0Z"/>
    <path class="cls-1" d="M427.02,374.89c-9.19,1.79-12.01,2.66-17.61,5.47-2.52,1.27-4.69,2.46-4.8,2.65-.11.19.24.35.81.35s2.24.28,3.74.63c9.23,2.14,17.39,8.07,27.63,20.11,5.33,6.26,13.36,14.14,17.07,16.74,8.29,5.81,18.83,10.28,29.69,12.58,2.03.43,4.56.98,5.69,1.22,1.14.25,2.75.59,3.66.77,5.41,1.07,6.64,1.37,8.05,1.94.85.35,1.65.52,1.78.38.22-.23-.81-1.5-1.21-1.5-.28,0-5.65-3.44-9.39-6.01-1.71-1.17-3.16-2.12-3.25-2.12-.31,0-5.82-3.43-10-6.23-5.57-3.73-12.97-9.26-14.24-10.64l-1.01-1.1,1.55.96c2.9,1.8,3.7,2.25,7.4,4.22,2.03,1.08,4.2,2.26,4.88,2.65,1.3.75,3.9,2.17,8.54,4.65,6.75,3.61,10.56,5.88,16.19,9.63,3.29,2.19,6.11,4.01,6.22,4.01.39,0,6.39,4.11,7.81,5.34.77.67,1.47,1.12,1.59,1.02.11-.1-.23-.98-.77-1.95-.54-.97-1.31-2.87-1.71-4.21-.72-2.39-1.34-4.07-4.17-11.39-4.79-12.36-14.99-25.54-26.98-34.82-7.95-6.16-18.59-11.16-29.28-13.76-6.65-1.62-10.45-2.04-18.1-2.01-4.27.02-8.64.21-9.76.43h0Z"/>
    <path class="cls-1" d="M811.17,681.41c-7.18,34.88-31.8,100.52-42.06,144.64h-509.98l-9.23-16.42c142.6-196.98,312.91-432.2,457.57-640.47h-225.61c-91.31,0-124.31,31.85-145.86,63.66-10.26,13.34-35.73,52.56-49.07,91.54l-30.78-1.03c5.13-53.35,17.44-142.6,19.49-187.75h26.67c11.29,24.62,23.6,23.6,54.37,23.6h414.48l8.21,16.41c-142.6,200.06-292.27,430.85-433.85,638.08,31.8,2.05,98.49,3.08,168.25,3.08,134.4,0,174.19,7.56,202.92-24.25,21.54-21.55,51.9-68.12,70.36-111.21l24.12.1Z"/>
    <path class="cls-1" d="M700.97,129.28c-.31.73-1.15,2.05-1.85,2.95-5.04,6.39-14.56,23.87-18.93,34.77-7.77,19.4-10,40.51-6.87,65.07.83,6.53,1.56,10.37,3.46,18.38l.65,2.72-1.42,2.56c-4.16,7.48-24.28,47.66-24.28,48.48,0,.09-1.24,2.77-2.78,5.98-3.24,6.79-4.54,9.62-4.54,9.88,0,.11-.44,1.18-.98,2.36-3.52,7.77-8.81,20.13-10.59,24.73-.3.79-1.69,4.07-3.09,7.32s-2.77,6.44-3.05,7.12c-.28.67-1.37,3.42-2.42,6.1-1.05,2.68-2.19,5.49-2.52,6.24-.33.73-.76,1.86-.94,2.44-.18.6-.9,2.62-1.6,4.53-2.26,6.13-2.83,7.77-5.89,16.88-1.65,4.92-3.93,12.15-5.08,16.06-1.14,3.9-2.38,8.13-2.75,9.35-.37,1.22-.82,2.88-1,3.66-.18.78-.52,2.16-.75,3.05-.24.91-.61,2.52-.83,3.66-.23,1.14-.59,2.93-.83,4.07-.23,1.11-.6,3.05-.81,4.27-.21,1.22-.58,3.16-.81,4.27-.24,1.13-.59,3.21-.79,4.68-.2,1.47-.56,3.9-.8,5.49-1.63,10.59-2.42,23.3-2.44,39.08,0,7.85.09,14.38.23,14.52.14.14.59.03,1.04-.24.65-.4.9-.35,1.38.31.32.44.59,1.16.59,1.61,0,1.22,4.61,9.27,7.43,12.97,2.69,3.54,3.6,3.73,2.84.61-2.65-10.88-2.93-47.79-.51-67.23.22-1.79.57-4.35.77-5.69.2-1.34.48-3.26.62-4.27.71-5.07,2.67-14.15,4.99-23.18,2.74-10.66,2.72-10.55,3.79-14.03.49-1.59,1.03-3.39,1.21-4.07.79-2.94,6.8-20.09,9.04-25.82,1.35-3.46,3.25-8.35,4.2-10.84.95-2.48,2.04-5.24,2.42-6.1.38-.85.84-1.94,1.02-2.38.18-.44.6-1.46.94-2.24.34-.78,2.11-5.16,3.94-9.76,1.84-4.6,3.77-9.3,4.31-10.49.53-1.18.98-2.24.98-2.34s.35-.96.78-1.89c2.69-5.9,7.36-16.3,9.17-20.46,1.17-2.68,3.13-6.98,4.36-9.56,1.23-2.56,2.57-5.41,2.97-6.3.4-.89,1.42-3.09,2.27-4.88,1.87-3.94,11.35-25.39,11.35-25.66,0-.11.92-2.14,2.03-4.49,1.12-2.36,2.03-4.36,2.03-4.45s.56-1.3,1.25-2.72c7.82-15.98,15.71-36.28,18.28-47.05.51-2.11,1.07-4.23,1.25-4.68.47-1.17.48,6.34.01,8.46-.21.93-.6,3.09-.87,4.76-.53,3.25-2.53,11.35-3.46,14.03-1.8,5.16-2.52,6.94-4.5,11.14-1.21,2.56-2.19,4.8-2.19,5,0,.86.78.04,2.83-2.97,1.23-1.81,3.37-4.8,4.74-6.63,9.54-12.77,14.37-23.67,16.23-36.64,1.44-9.97.35-19.03-3.78-31.52-.99-3.01-2.06-6.04-2.35-6.71-5.84-13.26-7.97-21.45-7.89-30.26.03-2.81-.11-5.14-.3-5.21-.19-.07-.6.47-.92,1.2h0Z"/>
    <path class="cls-1" d="M731.23,152.91c-2.37.64-5.94,4.37-6.6,6.89-.95,3.62-.46,6.83,1.5,9.84,1.24,1.91,4.18,4.22,5.75,4.53,1.17.23,1.18.25,1.18,3.26,0,1.67-.17,3.8-.39,4.74-.21.95-.6,2.89-.87,4.35-1.71,9.35-4.7,19.27-7.34,24.36-.63,1.22-1.16,2.4-1.16,2.6s-.37.89-.83,1.55c-.46.65-.69,1.18-.51,1.18.34,0,2.01-2.44,4.71-6.87,6.19-10.16,9.24-19.4,10.67-32.29.27-2.4.97-3.54,2.18-3.54.4,0,1.55-.71,2.52-1.57,4.09-3.59,5.28-9.45,2.79-13.8-1.26-2.21-3.81-4.35-6.21-5.24-1.61-.59-5.21-.59-7.4,0h0Z"/>
    <path class="cls-1" d="M791.4,211.94c-.37.78-1.89,2.61-3.36,4.02-7.35,7.12-13.5,9.6-33.02,13.31-6.26,1.19-10.59,2.19-16.43,3.79-2.89.79-12.65,4.73-15.01,6.06-.94.53-2.43,1.37-3.29,1.86-2.28,1.29-7.04,4.55-9.6,6.57-7.82,6.17-18.16,18.23-22.65,26.41-.67,1.22-1.78,3.17-2.45,4.29-.67,1.12-1.83,3.33-2.56,4.88-.74,1.55-2.43,5-3.74,7.65-1.32,2.64-2.34,5.02-2.26,5.27.08.24.96-.65,1.93-1.95,1.74-2.34,8.1-8.89,11.03-11.36.76-.64,2.93-2.47,4.84-4.07,9.67-8.13,20.38-14.71,30.1-18.48,1.91-.74,3.87-1.51,4.39-1.71,2.07-.82.69.37-2.85,2.45-12.65,7.42-25.42,17.06-35.46,26.79-4.96,4.8-13.32,13.87-14.85,16.11-1.86,2.72-5.66,8.09-6.56,9.27-1.07,1.4-.46,1.47,1.53.16,1.41-.92,6.87-3.12,16.39-6.61,3.76-1.38,5.37-1.86,11.18-3.38,1.59-.41,3.84-1.02,5.08-1.37,2.28-.63,5.98-1.63,11.71-3.15,20.33-5.41,39.55-16.84,51.89-30.88,4.29-4.88,11.23-14.05,11.23-14.84,0-.09.87-1.59,1.95-3.33,1.85-3.02,3.19-5.61,5.5-10.7,3.91-8.58,6.03-16.45,6.6-24.48.3-4.31-.07-5.07-1.26-2.56h0Z"/>
    <path class="cls-1" d="M808.78,266.7c-.38.7-2.49,3.56-4.68,6.32-13.21,16.72-28.06,25.3-64.95,37.51-23.87,7.91-36.93,13.33-49.21,20.46-3.66,2.12-13.15,8.65-16.06,11.04-16.16,13.29-27.31,27.58-36.21,46.41-3.15,6.67-3.85,8.27-3.85,8.87,0,.33-.12.69-.28.85-.44.44-5.46,15.01-6.45,18.75-.3,1.13-.91,3.44-1.37,5.19-.46,1.75-1.18,4.46-1.62,6.08-.95,3.54-2.84,12.62-3.29,15.78-.18,1.24-.6,4.15-.95,6.51-2.16,14.56-3.4,33.03-2.95,44,.37,9.11.96,17.32,1.37,19.03l.34,1.42.28-1.63c.16-.89.28-2.32.28-3.17,0-2.7,1.46-7.52,4.74-15.62,2.88-7.12,4.66-10.29,6.49-11.57,3.02-2.13,14.88-7.79,22.53-10.77,2.56-1,5.04-1.97,5.49-2.16.45-.19,3.17-1.25,6.1-2.38,20.5-7.87,33.36-13.51,41.69-18.26.78-.45,2.16-1.23,3.05-1.74,22.33-12.73,37.82-25.66,50.37-42.02,6.33-8.26,14.59-21.72,18.8-30.66,1.03-2.18,2.89-6.1,4.11-8.66,3.24-6.78,8.42-20.17,10.86-28.06.38-1.22.86-2.61,1.06-3.05.2-.45,1.13-3.29,2.05-6.3.93-3.01,1.93-6.23,2.22-7.12.71-2.18,4.02-15.7,5.08-20.74.47-2.24,1.02-4.8,1.23-5.69,1.97-8.62,3.03-14.36,3.84-20.74.96-7.56,1.1-9.15.83-9.15-.13,0-.56.59-.94,1.28h0ZM803.21,291.36c-1.78,3.9-6.1,12.27-7.58,14.68-.9,1.46-2,3.31-2.44,4.07-5.1,8.9-18.04,23.58-29.47,33.44-7.61,6.56-23.23,18.4-26.03,19.71-.77.36-1.5.83-1.64,1.06-.35.54.59.38,8.39-1.45,1.46-.34,3.64-.84,4.88-1.11,4.1-.9,10.33-2.63,16.02-4.46,2.77-.89,2.8-.9,2.5-.42-.3.47-4.12,2.25-8.56,3.98-2.03.79-4.02,1.58-4.47,1.77-.45.19-3.17,1.08-6.1,1.99-2.93.91-5.92,1.85-6.71,2.1-1.55.49-7.45,2.64-8.74,3.19-2.93,1.24-15.26,7.45-15.46,7.79-.26.42,0,.38,3.67-.45.91-.21,2.52-.48,3.66-.63,1.13-.15,3.29-.43,4.88-.64,9.15-1.21,27.74-2.05,26.8-1.21-.2.18-2.72.64-5.65,1.02-2.93.38-6.74.97-8.54,1.31-2.88.55-4.72.94-12.61,2.69-9.07,2.01-14.97,3.89-21.76,6.93-3.33,1.49-3.64,1.66-3.48,1.82.1.1,2.91-.11,6.2-.47,3.29-.36,8.49-.84,11.47-1.06,6.34-.48,21.87-.5,24.24-.03l1.63.32-1.42.24c-.78.13-3.62.45-6.3.7-8.3.78-11.59,1.16-17.28,2.01-8.62,1.28-16.35,2.72-19.52,3.63-.78.22-2.81.8-4.47,1.28-1.67.48-3.51.98-4.07,1.1-.57.13-1.23.39-1.5.61-.82.65-.57,1.24.41.97,1.8-.49,9.15-1.41,13.91-1.74,8.78-.62,33.96-.15,33.96.63,0,.16-3.88.5-8.64.77-4.76.27-10.29.67-12.3.89-2,.22-5.41.6-7.52.84-8.99,1-23.67,3.85-25.01,4.85-.61.46-4.72,1.75-4.92,1.55-.24-.24,5.45-5.81,7.12-6.97.69-.48,1.36-1.17,1.48-1.53.33-1,9.95-10.01,13.82-12.94.68-.52,2.11-1.78,3.25-2.86,1.8-1.71,10.33-8.64,14.03-11.39.76-.56,2.52-1.98,3.9-3.14,1.38-1.16,3.44-2.82,4.55-3.68,8.38-6.43,11.49-8.91,15.94-12.68,2.81-2.38,7.03-5.9,9.44-7.87,8.5-6.96,24.6-22.8,30.06-29.58,3.84-4.77,8.42-11.31,14.6-20.82,1.9-2.93,2.55-3.3,1.42-.81h0ZM721.28,335.35c-.68,2.07-1.24,4.12-1.24,4.55s-.16,1.09-.37,1.48c-.34.63-.86,3.29-2.3,11.88-.32,1.91-.59,4.28-.59,5.29-.01,2.36-.96,7.64-1.63,9.07-.29.61-.79,1.1-1.12,1.1-1.27,0,.47-16.76,2.33-22.49,3.57-11.02,5.64-16.17,6.03-15.05.08.22-.42,2.09-1.1,4.17h0ZM735.47,340.57c-.85,7.48-2.3,13.95-3.19,14.25-.57.19-.47-1.31.34-5.02.2-.91.57-2.89.84-4.47.57-3.33,1.74-7.12,2.2-7.12.04,0-.04,1.06-.19,2.36h0ZM703.83,342.16c-.9,3.14-1.45,5.65-2.07,9.48-.24,1.46-.62,3.78-.85,5.19-.23,1.39-.51,6.89-.61,12.18-.18,9.48-.2,9.66-1.2,11.18-.56.85-1.32,1.55-1.69,1.55-.61,0-.65-.96-.45-9.86.19-8.5.37-10.54,1.26-14.74,1.19-5.57,2.15-8.94,3.69-12.97,2.17-5.65,3.31-6.85,1.91-1.99h0ZM686.66,351.64c-1.58,8.73-2.14,16.1-2.17,28.67l-.03,11.83-1.02,1.5c-.96,1.42-1.59,1.88-1.67,1.22-.02-.18-.1-.85-.19-1.55-.51-4.15-.64-16.72-.22-20.54.58-5.25,1.82-12.19,2.9-16.27.84-3.17,2.43-7.45,2.67-7.2.07.07-.05,1.1-.27,2.32h0ZM670.91,363.31c-1.36,7.33-1.59,20.78-.66,39.29.21,4.19.17,4.48-.84,6.2-.57.98-1.22,1.81-1.4,1.81s-.46-1.4-.61-3.15c-.15-1.73-.43-4.62-.64-6.41-.59-5.03-.45-18.1.24-23.34.91-6.91,1.87-11.26,3.67-16.67.47-1.41.64.16.24,2.28h0ZM654.77,385.47c-.18,5.04-.04,13.79.39,24.44.41,10.13.52,16.85.29,17.24-.41.7-.5.24-2.09-10.45-2.13-14.32-2.12-20.8.02-32.74,1.56-8.7,1.74-8.5,1.39,1.5h0ZM717.81,404.54c2.25.23,5.94.58,8.26.79,5.33.48,7.06.8,6.78,1.25-.13.2-3.12.37-6.65.37-6.37,0-11.71.37-18.14,1.25-4.68.64-16.49,2.77-17.69,3.2-.56.2-2.56.76-4.47,1.25-5.12,1.33-9.32,2.77-11.35,3.89-.98.54-1.88.9-1.99.79-.45-.45,7.48-8.33,9.48-9.41,2.21-1.2,8.54-2.61,15.25-3.39,3.97-.46,15.94-.45,20.54.02h0ZM704.39,418.72c14.56.98,19.72,1.41,19.72,1.65,0,.39-6.39.76-18.1,1.03-15.21.36-27.35,1.31-33.96,2.66-1.22.25-2.94.6-3.78.78-2.07.43-2.23-.03-.53-1.53,1.39-1.22,2.85-2,5.33-2.86,5.12-1.77,19.16-2.55,31.32-1.73h0ZM696.78,426.83c1.5.21,4.92.58,7.61.84,2.68.26,5.52.59,6.3.73,1.34.25,1.28.28-.92.53-1.29.15-6.12.39-10.76.53-10.29.33-15.86.94-25.13,2.78-5.69,1.13-11.66,2.65-14.07,3.59-2.52.98-2.49.99-1.93-.21.26-.57.62-1.02.82-1.02s.35-.24.35-.53c0-1,2.89-3.97,4.8-4.93,1.88-.95,4.19-1.59,8.01-2.25,2.8-.48,21.55-.53,24.93-.07h0ZM693.08,441.11c2.56,0,4.54.16,4.41.37-.12.2-2.38.57-5.02.83-20.7,1.99-32.44,4.4-43.88,9.02-.73.3-1.42.41-1.57.26-.15-.15.34-1.08,1.1-2.09.76-1.02,1.82-2.59,2.39-3.54,1.13-1.88,2.39-2.66,5.19-3.24,7.22-1.49,14.36-1.99,24.85-1.77,4.35.09,9.97.17,12.53.17h0ZM675.1,456.07c-.22.2-1.79.84-3.46,1.41-3.58,1.23-10.68,4.02-13.75,5.42-1.18.54-2.23.98-2.32.98-.48,0-9.39,3.94-12.61,5.57q-5.04,2.56-7.28,4.28c-1.1.84-2.07,1.46-2.18,1.37-.1-.09.14-.85.55-1.71,1.11-2.36,6.25-11.25,6.86-11.88,1.28-1.31,11.65-3.5,21.57-4.56,2.48-.27,5.56-.62,6.91-.8,3.46-.45,6.14-.5,5.69-.09h0Z"/>
    <path class="cls-1" d="M795.85,377.85c-1.18.83-1.97,3.6-1.36,4.78.76,1.48,2.09,2.33,3.68,2.34,1.18.01,1.73-.26,2.56-1.25.58-.69,1.16-1.68,1.29-2.2.27-1.1-.78-3.27-1.86-3.85-1.14-.61-3.33-.52-4.31.16h0Z"/>
    <path class="cls-1" d="M818.65,402.8c-.65.4-1.57.85-2.01.98-4.96,1.51-9.67,3.78-11.55,5.54-1.84,1.73-2.64,3.44-3.42,7.3-.31,1.5-.85,3.32-1.19,3.99-.82,1.59-9.54,10.57-9.9,10.21-.16-.16.03-1.46.42-2.89,1.11-4.1.51-11.1-1.33-15.49-.66-1.59-1.77-4.89-2.04-6.1-.44-1.96-1.32-1.67-3.03,1.02-6.49,10.21-7.25,17.29-2.85,26.39l1.47,3.05-1.59,1.44c-8.09,7.34-12.36,10.9-12.36,10.32,0-.2.26-1.26.57-2.36,1.8-6.24,1.61-9.35-1.03-17.37-.87-2.64-1.58-5.06-1.58-5.39s-.19-1.08-.43-1.69l-.43-1.1-1.18,1.38c-.66.77-1.19,1.55-1.2,1.77-.01.22-.36.75-.81,1.24-1.09,1.18-3.05,5.25-4.09,8.46-.78,2.42-.88,3.44-.72,7.34.16,3.99.37,5.01,1.69,8.5.91,2.4,1.38,4.19,1.18,4.53-.87,1.5-13.13,10.58-13.62,10.09-.18-.18-.06-1.22.28-2.36.84-2.82,1.13-7.28.66-10.13-.42-2.54-.57-3.13-2.24-8.74-.57-1.91-1.08-4-1.15-4.68-.08-.77-.38-1.26-.83-1.34-.41-.07-.71.05-.71.28s-.82,1.59-1.82,3.01c-2.47,3.54-4.52,7.75-5.12,10.53-.83,3.85-.32,9.64,1.27,14.32l1.36,3.99-1.02.8c-2.16,1.7-13.86,9.34-14.03,9.16-.09-.09.24-1.26.72-2.56,1.44-3.9,1.2-12.81-.47-17.04-.69-1.75-1.23-4.24-1.23-5.65s-.48-1.82-1.42-1.16c-.58.41-3.89,4.77-5.23,6.89-.59.94-1.55,2.91-2.13,4.37-1,2.51-1.05,2.97-.87,8.05.14,4.19.39,6.01,1.1,8.17.51,1.55.75,2.94.55,3.14-1.5,1.45-12.97,7.7-14.11,7.7-.53,0-.52-.2.05-1.55,1.14-2.68,1.74-5.5,1.74-8.13,0-2.49-.16-3.46-1.45-8.62-.37-1.46-.78-3.55-.93-4.68-.17-1.34-.47-2.06-.87-2.12-.68-.1-4.54,4.65-6.75,8.31-.79,1.31-1.8,3.62-2.28,5.21-.76,2.54-.83,3.5-.61,8.83l.24,5.98-1.1.77c-.61.43-1.77,1.01-2.62,1.32-.85.31-1.53.69-1.53.87,0,.53.61.4,4.39-.88,4.19-1.42,16.11-4.49,17.45-4.49.51,0,2.83-.45,5.1-1,3.77-.9,5.14-1.01,14.34-1.12,5.61-.07,11.53.03,13.22.22l3.05.35-1.22-1.17c-3.21-3.09-6.71-5.74-8.7-6.58l-2.24-.95,1.22-1.02c1.06-.88,9.65-6.16,10.33-6.35.16-.04,1.91,1.23,3.9,2.83,3.99,3.2,6.22,4.47,9.31,5.3,2.35.63,6.26.7,9.03.18,5.77-1.1,7.04-1.37,7.04-1.51,0-.09-.85-.93-1.91-1.89-1.06-.96-3.29-3.08-5-4.75-3.5-3.42-7.14-5.95-9.44-6.57-.85-.23-1.55-.56-1.55-.74,0-.33,3.99-3.34,8.01-6.06,1.38-.93,2.63-1.89,2.77-2.11.47-.75,1.25-.42,3.45,1.46,4.66,3.98,11.1,5.88,16.92,4.99,1.55-.24,3.72-.68,4.84-.98,1.14-.31,2.48-.66,3.05-.81,2.2-.57,2.22-.63.57-1.74-.89-.6-3.17-2.38-5.04-3.94-3.82-3.19-6.6-5.08-7.44-5.08-.33,0-.69-.12-.85-.28-.46-.47-3.22-1.34-4.32-1.36-.99-.02-.98-.06.41-1.26.79-.69,2.24-1.79,3.25-2.48,1.02-.69,3.03-2.3,4.53-3.62,1.5-1.32,2.88-2.38,3.11-2.38s.64.28.94.65c.29.36,2.26,1.49,4.41,2.54l3.88,1.89,5.49-.02c4.96-.02,5.78-.13,8.54-1.16,1.67-.62,3.56-1.23,4.17-1.34.61-.11,1.11-.32,1.1-.47-.01-.15-1.04-.99-2.3-1.89-1.27-.91-3.38-2.5-4.76-3.6-3.09-2.46-7.41-4.67-9.8-5.01-1.02-.14-1.83-.4-1.83-.58s1.36-1.64,3.07-3.29c1.71-1.65,3.44-3.56,3.9-4.29.69-1.09,1.08-1.32,2.22-1.32,1.6,0,5.45-1.61,7.4-3.1,2.05-1.56,4.39-4.75,5.31-7.23.91-2.44,2.15-10.07,1.71-10.53-.15-.15-.82.05-1.47.45h0Z"/>
    <path class="cls-1" d="M238.36,429.15c1.73,4.11,2.21,11.59,1.18,18.3-2.72,17.65-2.44,28.01,1.02,38.8.86,2.68,4.37,10.16,5.44,11.59.34.45,1.74,2.36,3.14,4.27,4.86,6.63,13.25,14.05,22.24,19.65,1.87,1.17,5.1,3.24,7.26,4.67,2.16,1.42,3.97,2.47,4.09,2.36.11-.11-.72-1.18-1.88-2.4-2.78-2.93-5.35-6.26-8.38-10.86-3.83-5.82-9.07-16.71-8.65-17.98.16-.49.85.57,3.47,5.37,1.38,2.52,3.6,6.19,4.68,7.73.39.56,2.35,3.52,4.37,6.61,2.02,3.09,3.82,5.59,4.03,5.59s-.02-.96-.49-2.14c-.79-1.98-.86-2.91-.9-13.12-.07-15.21-.55-18.4-4.26-28.06-.6-1.55-5.69-11.79-6.81-13.71-2.32-3.95-7.96-11.71-13.81-19.03-8.52-10.66-15.61-19.11-16.02-19.11-.18,0-.05.65.29,1.46h0Z"/>
    <path class="cls-1" d="M344.46,443.6c-2.18,1.12-3.71,2.59-5.03,4.83-1.46,2.46-1.49,7.08-.08,9.56,2.7,4.73,7.11,6.72,12.23,5.5l2.11-.5,1.63,1.57c.9.87,3.74,3.92,6.36,6.85,2.62,2.93,4.84,5.38,4.96,5.49.12.11,1.32,1.67,2.63,3.42,2.62,3.5,3.42,3.66,1.44.28-.69-1.18-1.24-2.19-1.24-2.28,0-.17-3.2-5.37-5.48-8.91-.84-1.31-2.6-3.8-3.94-5.59l-2.42-3.23,1.04-2.58c.57-1.42,1.04-3.33,1.04-4.25,0-2.11-1.31-5.57-2.79-7.36-2.78-3.36-8.76-4.7-12.46-2.79h0Z"/>
    <path class="cls-1" d="M381.43,446.57c-3.78,1.63-6.25,5.6-6.24,9.99.01,3.09.85,5.24,2.95,7.61l1.41,1.59-.57,3.05c-.66,3.55-.72,8.83-.14,13.26.44,3.42,1.9,9.71,2.47,10.7.2.35.25-2.07.1-5.69-.24-5.94.04-9.73,1.05-14.64.21-1.02.52-2.55.7-3.46l.33-1.63,2.64-.21c4.31-.34,6.94-2.15,9.11-6.26,1.91-3.62,1.17-8.71-1.71-11.75-1.99-2.1-4.59-3.12-7.89-3.11-1.63,0-3.54.26-4.23.56h0Z"/>
    <path class="cls-1" d="M478.06,451.48c-2.56.27-5.41.62-6.3.78-2.64.48-9.07,2.25-10.7,2.94-5.73,2.45-9,4.06-9.01,4.45,0,.26.71.45,1.69.46,2.05.01,7.16,1.69,10.9,3.57,4.76,2.4,9.36,6.22,17.46,14.52,15.46,15.84,22.88,20.46,44.76,27.84,14.15,4.77,22.03,9.08,28.79,15.75,4.44,4.38,4.49,3.67.22-3.45-.85-1.42-1.83-3.12-2.15-3.74-.9-1.75-7.67-9.5-11.25-12.89-3.52-3.33-3.74-3.51-8.26-6.9-6.79-5.1-8.85-6.53-12.81-8.88-7.32-4.34-12.82-7.41-13.3-7.41-.22,0-.37-.16-.37-.41,0-.47-.12-.48,2.03.16,3.12.94,12.24,4.72,15.9,6.6,4.96,2.54,12.47,7.58,17.04,11.43,4.72,3.97,11.07,10.62,12.55,13.13.79,1.34,1.11,1.63,1.21,1.1.12-.67-.12-1.55-1.15-4.15-.18-.44-.74-2.2-1.23-3.86-.97-3.25-1.43-4.35-4.45-10.78-1.59-3.38-7.16-12.47-8.1-13.23-.13-.11-1.02-1.21-1.95-2.43-2.34-3.08-9.93-10.38-13.14-12.64-4.6-3.24-6.55-4.31-12-6.6-8.62-3.62-14.23-4.88-24.81-5.57-3.38-.22-6.28-.37-6.51-.34-.22.03-2.52.28-5.08.55h0Z"/>
    <path class="cls-1" d="M178.74,459.12c0,.74,8.65,17.2,10.52,20.01,6.08,9.15,15.76,16.05,24.78,17.69,4.43.8,7.74-.08,9.63-2.56,2.58-3.39,1.44-8.62-3.46-15.94-5.64-8.42-16.45-15.27-28.05-17.77-5.25-1.13-13.42-2-13.42-1.43h0Z"/>
    <path class="cls-1" d="M437.27,468.2c-.16.16-.28.62-.28,1.07s-.33,1.26-.75,1.87c-.41.59-1,1.73-1.3,2.5-.75,1.94-2.69,5.53-4.17,7.73-2.01,2.98-4.67,5.61-9.43,9.32-6.1,4.75-10.68,8.47-12.57,10.21-4.81,4.42-10.98,12.61-14.31,18.99-1.34,2.56-2.2,3.62-2.2,2.68,0-.53,1.44-3.66,4.06-8.87,4-7.92,8.18-13.3,17.49-22.5,2.36-2.33,3.74-3.9,3.09-3.51-2.89,1.72-6.23,3.68-7.24,4.24-4.64,2.57-10.92,7.84-14.81,12.43-3.34,3.94-9.17,13.52-10.08,16.55-.33,1.1-.75.85-2.06-1.22-2.51-3.96-5.02-6.95-9.98-11.89-2.81-2.8-5.47-5.36-5.94-5.72-1.67-1.28-5.8-4.02-6.06-4.02-.16,0-.75-.32-1.36-.73-.59-.4-2.22-1.23-3.6-1.84-2.64-1.16-13.48-5.07-15.05-5.43-.53-.12-1.03-.37-1.16-.58-.13-.21-.59-.37-1.08-.37-1.29,0-.73.41,4.55,3.37,4.43,2.48,7.32,4.26,8.42,5.17.28.24.62.41.81.41.18,0,.81.42,1.38.92.58.5,2.85,2.38,5.04,4.19,5.98,4.9,12.93,12.88,16.59,19.02,1.3,2.18.49,1.59-1.67-1.22-3.31-4.3-10.16-11.11-14.88-14.8-1.5-1.17-9.35-6.28-10.41-6.78-6.71-3.14-9.86-4.55-15.25-6.82-3.66-1.54-5.16-2.35-7.93-4.28-3.17-2.21-9.24-8.12-11-10.71-1.13-1.67-2.27-2.01-1.87-.57.14.51.37,3.13.51,5.82.27,5.37-.07,8.38-2.01,17.69-1.36,6.57-1.66,9.39-1.66,16.06,0,7.04.37,10.05,1.89,15.45,1.8,6.39,5.73,15.15,8.87,19.77.94,1.38,1.58,2.58,1.44,2.7-.15.13-.3.16-.39.06-.08-.09-1.14-1.42-2.39-3.01-7.28-9.21-12.51-22.65-12.51-32.17,0-1.63-.17-3.07-.37-3.19-1.01-.62-1.04,17.06-.04,22.15,2.72,13.83,7.09,23,15.99,33.55,4.94,5.86,4.8,5.76,10.08,6.88,11.02,2.34,25,9.36,33.92,17.03,3.54,3.04,9.06,8.75,11.3,11.68,2.27,2.97,2.7,3.4,3.03,3.05.17-.18.08-.41-.2-.51-.28-.1-.51-.34-.51-.53s-1.34-2.58-2.99-5.35c-1.65-2.77-3.59-6.09-4.33-7.44-.74-1.34-1.8-3.26-2.36-4.27-1.63-2.93-9.18-17.92-9.93-19.72-1.17-2.81-2.21-5.2-3.36-7.73-.61-1.34-1.34-2.99-1.62-3.66-1.81-4.31-2.41-5.78-2.69-6.51-.81-2.16-3.85-9.01-4.15-9.35-.67-.77-.26-1.12.44-.37.76.82,6.91,10.21,9.83,15.01,3.89,6.39,6.51,10.81,6.51,10.98,0,.09.59,1.14,1.3,2.32.72,1.19,2.25,3.97,3.42,6.2,1.17,2.24,2.29,4.11,2.5,4.19.24.09.24-.75,0-2.22-.21-1.29-.29-5.57-.18-9.48.3-10.17,1.78-16.95,5.66-25.82,1.93-4.43,5.14-10.87,6.49-13.05.53-.85,1.11-1.92,1.26-2.32.39-1.03,1.01-.85,1.69.49.33.65,1.84,2.97,3.36,5.16,3.8,5.49,4.3,6.3,6.55,10.74,3.8,7.48,6.52,17,7.37,25.87.25,2.64.26,4.96.01,6.51-.48,2.97-.48,3.42-.02,3.42.41,0,.78-.98,2.27-5.9,1.06-3.49,1.64-5,5.46-14.23,2.88-6.95,9.11-20.1,9.43-19.89.18.11.17.62-.02,1.1-.19.49-.75,2.44-1.24,4.35s-1.23,4.73-1.65,6.3c-.42,1.57-1.15,4.39-1.64,6.3-2.12,8.3-6.2,21.27-8.9,28.27-.86,2.23-2.32,6.02-3.23,8.38-.91,2.36-1.67,4.46-1.67,4.64,0,.24-6.05,12.77-8.6,17.81-.19.38-.35,1.06-.35,1.5,0,1.37-.77.89-1.06-.65-.16-.86-.02-2.58.35-4.17.35-1.48,1.19-5.19,1.87-8.19,3.31-14.68,3.99-21.55,3.09-30.95-.64-6.63-.83-7.75-2.12-12.57-1.21-4.53-3.01-8.83-6.51-15.54-2.95-5.65-3.75-6.81-3.75-5.41,0,.31-.62,1.99-1.38,3.74-4.04,9.27-6.73,21.47-6.75,30.62-.03,9.7,2.78,21.11,8.99,36.48,1.54,3.82,2.81,7.16,2.81,7.42s-.56-.16-1.2-.89c-.66-.75-2.62-2.35-4.37-3.56-1.76-1.22-4.8-3.56-6.83-5.27-2.03-1.71-4.47-3.7-5.49-4.49-1.02-.79-2.1-1.64-2.44-1.9-8.09-6.37-21.17-13.98-27.86-16.21-11.63-3.88-23.43-4.51-35.22-1.86-8.19,1.84-15.74,5.53-26.39,12.9-4.35,3.01-9.44,6.31-11.27,7.32-3.82,2.1-9.89,4.64-11.06,4.64-.98,0-1.56.79-.89,1.21.72.45,8.38,6.43,10.41,8.14.95.8,2.58,2.16,3.68,3.06,1.1.91,2.17,1.82,2.42,2.06,2.77,2.69,13.59,10.34,14.64,10.34.09,0,1.22.64,2.52,1.42,2.7,1.63,10.09,4.67,14.15,5.82,1.59.45,3.75,1.09,4.88,1.46l2.03.65-2.85-.17c-3.82-.23-14.72-2.97-18.71-4.69-3.58-1.55-6.95-3.25-9.44-4.75-4.97-3.01-4.39-1.99,1.26,2.24,7.89,5.9,11.54,7.91,19.03,10.46,7.47,2.54,11.63,3.16,19.64,2.93,3.66-.11,6.92-.39,7.4-.64.47-.25,2.03-1.4,3.5-2.59,10.37-8.42,25.82-16.33,38.11-19.51,7.52-1.95,17.6-3.2,17.19-2.14-.11.27-.76.76-1.49,1.1-9.19,4.32-12.81,5.98-13.01,5.98-.32,0-3.17,1.28-8.38,3.77-6.3,3.02-14.11,7.58-18.5,10.83-1.12.83-3.5,2.59-5.29,3.92-1.8,1.34-5.61,4.78-8.54,7.71-4.44,4.44-6.39,6.63-10.9,12.2-.75.93-5.55,8.34-6.49,10-.55.98-1.43,2.53-1.95,3.42-3.26,5.6-7.17,14.27-9.08,20.13-.54,1.67-1.12,3.36-1.28,3.74-.49,1.21.37.81.89-.41,5.4-12.53,6.89-15.17,12.4-22.04,2.67-3.33,3.73-4.47,4.15-4.47.21,0-.32.94-3.7,6.51-2.04,3.38-7.04,13.88-7.04,14.8,0,.11-.62,1.55-1.36,3.17-.75,1.63-1.61,3.61-1.91,4.39-.96,2.5-3.68,7.44-5.53,10.05-2.25,3.17-6.42,6.99-8.28,7.6-1.75.57-1.85,1.24-.2,1.37.67.06,2.32.3,3.66.55,1.34.25,3.36.61,4.47.81,10.37,1.86,12.86,2.12,20.13,2.16,12.4.06,19.1-1.9,27.98-8.18,3.13-2.22,9.73-8.45,11.14-10.53.52-.77,1.08-1.38,1.26-1.38.56,0-1.19,3.01-3.69,6.34-4.38,5.86-9.88,10.45-15.26,12.77-2.2.94-2.95,1.63-1.79,1.63.54,0,5.04-1.38,6.59-2.02.45-.19,2.07-.82,3.66-1.43,7.04-2.7,16.1-8.99,22.59-15.66,6.31-6.48,12.43-17.49,14.64-26.31,1.68-6.72,1.96-9.48,2.45-24.73.51-16.02,1.8-33.55,2.46-33.55.5,0,.71.53,1.14,2.89.22,1.2.67,3.58.99,5.25.64,3.3,1.22,11.14,1.89,25.62.5,10.61,1.03,16.71,1.88,21.55.34,1.91.78,4.44.99,5.65.67,3.88,3.23,11.02,6.07,16.92,5.94,12.36,13.77,21.94,23.61,28.85,5.69,4,8.51,5.92,8.7,5.92.11,0,1.06.58,2.07,1.26,2.24,1.51,2.93,1.28.98-.32-5.79-4.72-11.19-11.48-15.19-19-2.66-5-3.01-5.94-2.26-5.94.24,0,.41.16.41.41,0,.64,4.76,7.69,6.8,10.09,2.81,3.29,10.97,11.33,13.41,13.21,9.44,7.26,15.13,12.01,18.79,15.64,2.11,2.11,3.86,3.75,3.91,3.68.58-.82,4.15-13.5,5.3-18.83.62-2.88,1.41-11.31,1.41-15.05,0-10.94-2.94-23.57-7.74-33.23-1.09-2.2-1.85-3.99-1.7-3.99.93,0,5.94,8.95,8.26,14.72,2.77,6.92,4.43,15.54,4.43,23.02,0,2.11.13,3.74.28,3.58,1.25-1.24,1.76-19.08.73-25.87-2.01-13.34-8.6-28.23-17.9-40.47-3.63-4.77-10.28-11.31-16.95-16.67-1.6-1.29-8.17-5.52-11.59-7.46-3.38-1.92-15.27-7.79-15.78-7.79-.11,0-1.08-.39-2.14-.85-1.06-.47-2.48-1.09-3.15-1.38-.67-.29-2.32-.99-3.66-1.55-9.23-3.87-10.38-4.46-9.84-5,.16-.16,1-.07,1.85.18.87.26,2.68.47,4.07.47s3.27.17,4.23.39c.95.21,2.83.59,4.17.84,7.32,1.37,17.61,5.01,25.87,9.16,5.16,2.6,8.26,3.01,15.74,2.1,11.88-1.44,24.61-5.77,32.41-11.04,5.44-3.67,13.83-11.67,18.38-17.52,4.42-5.69,9.71-14.93,12.45-21.76,1.26-3.13,3.51-11.1,4.14-14.64.46-2.6,1.32-11.99,1.13-12.32-.1-.17-.42-.15-.66.04-.26.2-1.28.56-2.3.81-8.17,1.98-13.05,2.38-21.23,1.77-13.38-1-21.78-.37-31.64,2.38-1.67.47-3.6,1-4.27,1.18-4.87,1.31-15.7,6.42-21.19,9.99-9.61,6.26-15.54,11.93-35.92,34.34-8.88,9.76-9.19,9.91-5.41,2.48,3.07-6.02,7.46-13.23,8.66-14.23.14-.11.75-1.02,1.37-2.03,1.07-1.73,4.34-5.98,6.7-8.7,3.13-3.62,12.02-12.47,14.62-14.57,3.13-2.52,7.66-5.67,10.66-7.41,4.88-2.83,13.57-6.84,17.45-8.05.33-.1.85-.92,1.14-1.78.3-.89.86-2.48,1.27-3.62,2.62-7.15,3.44-11.92,3.44-19.93,0-7.46-.43-10.61-2.57-18.95-1.77-6.87-4.21-13.41-4.79-12.81-.11.11.18,1.71.65,3.58,1.32,5.28,1.76,9.23,1.76,16.1,0,7.69-.43,10.5-2.69,17.57-1.36,4.27-2.28,6.47-3.38,8.13-1.09,1.64-1.18,1.46-.34-.69.67-1.74,1.92-6.18,2.6-9.27,1.3-5.9,1.69-15.39.83-20.5-1.91-11.31-3.29-15.54-8.82-26.88-3.11-6.39-4.69-10.47-5.72-14.76-.25-1.06-.64-2.68-.86-3.64-.22-.95-.47-2.62-.55-3.72-.14-1.91-.57-2.63-1.2-2.02h0ZM421.53,720.5c0,.24-.07.41-.18.41s-.28-.16-.43-.41c-.14-.23-.06-.41.18-.41s.43.17.43.41h0Z"/>
    <path class="cls-1" d="M387.57,479.09c-1.1,1.1-1.4,3.91-.49,4.61,1.26.98,3.2,1.3,4.35.7,1.3-.67,1.63-1.33,1.63-3.24,0-2.72-3.51-4.05-5.49-2.07h0Z"/>
    <path class="cls-1" d="M789.51,479.73c-.93.57-1.95,2.54-1.95,3.76,0,.53.46,1.46,1.05,2.16,1.4,1.63,3.76,1.68,5.31.12,1.37-1.38,1.5-4.03.25-5.29-.92-.93-3.64-1.37-4.66-.75h0Z"/>
    <path class="cls-1" d="M664.73,484.12c-3.58,1.35-5.12,5.64-3.23,9,1.26,2.24,3.07,3.29,5.67,3.29,1.99,0,2.29-.13,3.9-1.75,3.36-3.38,2.77-8.32-1.21-10.2-1.34-.63-3.9-.81-5.12-.35h0Z"/>
    <path class="cls-1" d="M638.1,498.68c-1.93,1-2.61,2.17-2.63,4.49-.01,1.71.17,2.21,1.12,3.13,2.78,2.66,6.02,2.04,7.79-1.5l1-1.99-.8-1.46c-.89-1.63-3.12-3.29-4.4-3.29-.48,0-1.38.28-2.07.64h0Z"/>
    <path class="cls-1" d="M724.11,498.48c-1.69.19-5.04.55-7.52.81-2.48.26-6.01.73-7.93,1.06-1.91.33-4.46.74-5.69.94-7.39,1.14-20.99,4.57-29.93,7.54-9.35,3.11-14.31,5.11-21.72,8.78-13.18,6.52-20.99,11.73-29.08,19.39-4.42,4.18-4.27,3.6-2.29,8.97,2.25,6.1,3.3,11.51,3.3,17,0,2.07-.19,4.28-.42,4.88-.53,1.38.08,2.19,1.15,1.52.39-.24,1.95-.65,3.54-.93,1.59-.28,3.71-.67,4.8-.87,3.05-.57,10.37-.43,13.71.26,5.01,1.04,4.46,1.48,6.1-4.9,2.11-8.22,3.03-10.71,6.77-18.22,2.09-4.2,3.45-6.26,7.02-10.66,1.45-1.79,2.7-3.33,2.77-3.42.07-.1.22-.07.37.08.13.13-.59,1.67-1.61,3.42-2.26,3.88-3.57,6.75-5.4,11.83-.77,2.16-1.89,5.24-2.47,6.79-.59,1.59-1.19,3.48-1.36,4.27-.17.78-.58,2.52-.92,3.86-.34,1.34-.88,3.54-1.22,4.88-.34,1.34-.74,2.76-.89,3.15-.23.58.08.87,1.63,1.53,1.06.45,2.13.81,2.4.81s2.5.84,4.94,1.85,6.2,2.31,8.32,2.87c2.11.56,4.88,1.3,6.1,1.65,1.25.35,3.5.95,5.08,1.36,1.59.41,3.37.94,4.03,1.2,1.29.51,8.74,2.15,12.89,2.83,1.49.25,4.25.44,6.2.44s3.52.16,3.52.37c0,.67-7.56,1.4-14.23,1.38-5.98-.02-13.11-.76-15.25-1.59-1.26-.49-.53.89,1.1,2.07.93.67,3.29,2.39,5.21,3.78,5.74,4.18,12,7.96,19.68,11.9l7.28,3.74,4.11-2.78c10.53-7.12,18.63-13.84,24.47-20.32,8.1-8.99,11.69-13.79,23.87-31.97,12.51-18.67,16-23.49,21.67-29.97,5.66-6.47,13.67-14.19,15.32-14.78,1.54-.55-.98-1.22-11.06-2.93-10.08-1.71-20.38-2.98-31.52-3.88-6.14-.5-32.3-.48-36.81.02h0ZM730.78,518.29c-.69.61-2.52,2.19-4.07,3.53-7.09,6.12-10.01,9.33-20.06,21.93-.55.69-1.38,1.6-1.84,2.01-.81.73-.84.73-.96-.02-.15-.91,1.62-4.31,4.51-8.66,4.67-7.03,11.19-13.01,19.61-17.99,3.66-2.17,4.7-2.46,2.81-.8h0ZM717.4,519.1c-11.13,10.15-13.45,12.99-24.74,30.23-1.65,2.52-2.99,3.88-3.41,3.46-.74-.74,3.39-10.09,6.59-14.88,4.83-7.26,13.1-14.99,21.15-19.79,1.75-1.04,1.99-.46.41.98h0ZM701.08,522.97c-7.27,7.39-13.27,15.86-18.62,26.31-3.37,6.59-5.63,10.17-6.42,10.17-1.28,0,2.01-10.33,5.04-15.82,4.47-8.09,11.49-16.33,18.02-21.14,7.52-5.54,7.83-5.47,1.98.48h0ZM741.8,519.6c-.13.22-2.04,1.85-4.19,3.6-2.16,1.74-4.59,3.8-5.37,4.53-.78.74-3.78,3.55-6.67,6.26-3.66,3.43-5.15,4.61-4.92,3.9.49-1.55,2.34-3.99,5.59-7.36,4.17-4.33,7.99-7.31,12.95-10.09,2.32-1.3,3.02-1.53,2.61-.85h0ZM688.32,522.69c0,.13-1.06,1.55-2.34,3.13-2.81,3.46-6.95,9.53-8.67,12.69-3.59,6.62-5.51,10.7-8.99,19.07-1.69,4.07-3.53,7.37-4.72,8.46l-1.02.93.29-2.44c.82-6.97,5.42-18.42,10.2-25.42,3.61-5.29,8.18-10.77,11.55-13.88,2.77-2.55,3.7-3.19,3.7-2.55h0ZM748.67,524.11c-.43.47-1.58,1.41-2.6,2.09s-2.53,1.86-3.4,2.64c-.85.77-1.65,1.31-1.76,1.2-.38-.4.23-1.01,3.4-3.42,4.31-3.27,5.81-4.14,4.35-2.52h0ZM755.43,538.67c1.79.23,2.03.34,1.22.56-2.32.62-9.39,1.11-16.06,1.11s-8.49-.31-6.22-1.05c2.3-.75,16.76-1.18,21.07-.62h0ZM748.72,546.22c.68.21-.57.49-6.3,1.39-8.01,1.27-24.95,1.2-22.86-.09.69-.42,4.31-1.17,7-1.45,2.48-.25,21.27-.13,22.16.15h0ZM720.86,554.19c7.65.48,16.12.55,19.03.16,3.09-.42,2.64.28-.81,1.29-6.18,1.79-14.3,2.81-19.77,2.47-5.94-.37-13.67-1.5-14.88-2.18-.72-.4-.61-.51.94-.93,4.33-1.16,7.32-1.32,15.49-.8h0ZM705.4,562.27c5.33,1.02,8.42,1.3,16.63,1.51,6.22.16,9.21.08,10.49-.27,1.71-.48,3.06-.25,1.5.25-.43.14-1.14.4-1.59.59-3.2,1.32-13.95,2.84-20.13,2.84-4.15,0-11.77-1.02-15.25-2.05-1.59-.47-3.79-1.13-4.98-1.49-1.18-.36-2.14-.78-2.14-.94,0-1.13,10.29-1.42,15.45-.43h0ZM683.69,569.24c2.12.39,5.61,1.06,10.53,2.03,7.85,1.54,16.04,2.42,22.57,2.42,6.18,0,6.91.36,2.44,1.21-1.46.28-3.55.7-4.68.95-1.12.25-5.86.45-10.57.45-7.48,0-9.04-.12-12.61-.94-4.96-1.14-14.15-4.18-15.86-5.24-.22-.14.69-.47,2.03-.73,3.29-.65,3.37-.65,6.14-.14h0Z"/>
    <path class="cls-1" d="M122.84,501.79c-.34,1.08-1.3,7.77-2.48,17.41-.92,7.44-1.11,33.99-.29,40.47,2.55,20.21,5.55,31.99,12.4,48.6,5.55,13.46,14.31,27.57,23.47,37.82,12.51,13.99,24.43,22.86,39.27,29.21,11.79,5.05,23.97,6.83,35.26,5.14,4.9-.73,6.39-1.13,15.82-4.3,3.94-1.32,7.46-2.4,7.83-2.4s1.04.22,1.53.51c.78.47,1.2.14,5.07-3.97,4.03-4.27,4.86-5.49,3.75-5.51-.85,0-5.81-3.93-8.01-6.33-4.88-5.33-7.38-9.6-11.59-19.81-.35-.85-.65-1.75-.65-1.95,0-.75.64-.33,1.12.73.54,1.21,7.13,10.17,10.4,14.15,1.84,2.24,10.79,11.59,11.1,11.59.07,0,1.44-1.97,3.05-4.37,1.61-2.4,3.36-4.89,3.88-5.53.54-.65.96-1.3.96-1.48s-.92-.89-2.01-1.57c-1.09-.67-3.11-2.14-4.41-3.2-7.87-6.43-9.64-8.06-23.87-22.02-14.97-14.67-20.41-19.59-32.13-29.02-3.82-3.08-8.66-6.98-10.82-8.73-5.21-4.22-8.99-7.04-17.65-13.14-6.02-4.24-16.4-12.35-21.35-16.68-8.99-7.86-14.85-13.96-21.27-22.15-6.38-8.13-15.11-24.52-16.97-31.84-.53-2.07-1.05-2.69-1.39-1.63h0ZM146.87,572.59c4.96,9.95,13.29,22.53,21.97,33.19,7.38,9.07,8.98,10.89,14.28,16.35,2.09,2.16,4.07,4.3,4.42,4.8,1.35,1.93,1.24.24-.23-3.38-.84-2.07-1.76-4.77-2.04-5.98-.28-1.22-.65-2.65-.83-3.21-.18-.56-.54-2.48-.81-4.27-.27-1.79-.65-4.24-.85-5.45-.64-3.86.22-3.58,1.23.41,2.97,11.75,6.76,20.44,11.96,27.41,1.7,2.28,10.49,11.25,10.76,10.98.09-.09-.69-1.3-1.76-2.72-2.09-2.79-5.29-9.15-6.84-13.58-1.9-5.45-3.73-16.34-3.45-20.5.17-2.49.41-2.2,1.17,1.42.77,3.66,2.8,11.59,3.44,13.42,3.19,9.19,4.3,11.65,8.13,17.89,3.65,5.96,6.5,8.9,12.68,13.08,5.16,3.49,5.18,3.79.12,3.01-1.56-.24-4.31-.43-6.18-.43-6.59,0-15.9-1.69-22.9-4.14-1.34-.47-2.61-1.01-2.83-1.2-.2-.18-.65-.35-.94-.35-.3,0-1.3-.36-2.24-.81-.94-.45-1.81-.81-1.97-.81-.47,0-6.22-3.39-7.08-4.17-.41-.37-.94-.71-1.12-.71-.19,0-2.01-1.25-4.09-2.8-6.59-4.94-7.73-6.98-1.67-2.99,1.99,1.31,4.17,2.65,4.84,2.97.69.33,1.31.7,1.43.83.72.83,14.67,5.7,18.37,6.41,4.55.87,6.65,1.23,9.68,1.64,1.67.23,4.21.57,5.61.76,1.42.19,2.64.22,2.74.06.26-.41-1.44-1.99-2.13-1.99-.28,0-.53-.17-.53-.37s-.59-.61-1.28-.89c-.7-.29-6.04-3.66-11.81-7.46-5.78-3.8-12.13-7.94-14.07-9.17-4.68-2.96-14.11-10-18.18-13.58-5.21-4.58-11.73-11.26-13.55-13.87-.16-.22-.55-.77-.87-1.22-.58-.8-.57-.8.41.02.55.46,2.18,1.91,3.64,3.24,6.14,5.59,16.16,13.21,17.37,13.21.18,0,1.06.64,1.95,1.42,2.67,2.32,2.9,1.68.39-1.09-10.3-11.36-21.07-29.2-26.42-43.72-.91-2.48-.88-3.5.06-1.63h0ZM208.81,613.54c.63,2.6,3.64,11.72,4.57,13.83.35.79,1.13,2.6,1.76,4.07.63,1.45,3.03,6.47,5.35,11.14,2.32,4.68,4.21,8.61,4.21,8.74,0,.57-5.92-5.65-7.31-7.69-4.49-6.54-7.11-13.1-8.54-21.35-.28-1.59-.65-3.71-.86-4.8-.45-2.44-.47-7.07-.03-6.55.17.2.56,1.38.85,2.6h0ZM223.88,620.38c0,.6,2.13,6.34,3.95,10.66,1.92,4.55,7.47,14.93,12,22.45,1.96,3.25,3.57,6.06,3.57,6.2s-1.46-.87-3.21-2.21c-7.79-6.01-13.69-17.25-16.14-30.71-1.01-5.53-1.2-7.71-.65-7.38.26.16.49.62.49.99h0ZM188.34,661.89c11.3,4.79,27.57,5.83,42.38,2.7,4.31-.91,5.85-.8,8.62.6,1.3.66,2.69,1.22,3.03,1.22.37,0,.63.2.63.49,0,.62-8.54,3.05-13.42,3.81-1.9.3-6.22.55-9.6.56-11.51.04-18.77-1.69-29.36-6.99-5.08-2.55-6.63-3.57-5.41-3.57.2,0,1.63.53,3.13,1.17h0Z"/>
    <path class="cls-1" d="M209.24,509.88c-9.29,1.07-14.44,2.36-29.89,7.45-4.27,1.41-8.25,2.68-8.89,2.83-.98.24-1.08.38-.67.87.26.32.87.59,1.32.59s2.58.88,4.74,1.97c4.06,2.05,5.65,2.97,11.43,6.57,7.52,4.7,8.85,5.47,12,6.92,7.48,3.46,16.62,5.68,23.38,5.68,2.72,0,8.99-.91,12.24-1.78,2.48-.66,9.73-3.66,11.35-4.69.57-.36,1.37-.86,1.83-1.14.44-.27,2.34-1.42,4.17-2.54,1.95-1.19,3.85-2.05,4.53-2.05,1.1,0,3.46.81,7.28,2.5,2.36,1.04,2.69.56.69-1.01-.91-.72-2.89-2.37-4.47-3.73-8.34-7.18-12.24-9.93-18.46-13.03-9.47-4.72-21.43-6.71-32.58-5.42h0Z"/>
    <path class="cls-1" d="M481.36,511.85c-1.98.49-3.37,1.65-4.41,3.68-2.81,5.49,1.4,11.28,7.54,10.36,3.82-.57,6.95-5.57,5.75-9.18-.54-1.63-3.63-4.84-4.65-4.84-.27,0-1.02-.08-1.67-.18-.66-.1-1.79-.03-2.56.16h0Z"/>
    <path class="cls-1" d="M168.16,530.86c0,.18.99,4.27,2.19,9.07,2.06,8.22,4.35,15.92,5.03,16.92.17.24,1.32,1.11,2.54,1.9,2.54,1.65,5.45,3.68,11.39,7.96,2.28,1.64,4.25,2.89,4.37,2.77.12-.12-.07-.83-.42-1.57-.58-1.22-.99-2.44-1.91-5.82-.18-.67-1.1-3.78-2.03-6.91-2.62-8.78-2.97-10.11-3.61-13.75-.19-1.06-.51-2.12-.71-2.32-.2-.2-2.56-1.5-5.21-2.86-6.87-3.55-9.33-4.88-9.76-5.28-.49-.46-1.87-.54-1.87-.11h0Z"/>
    <path class="cls-1" d="M491.48,536.83c-5.73,2.33-10.21,4.71-13.62,7.25-2.97,2.21-14.51,13.56-14.15,13.91.12.12.57.05,1.06-.15,1.8-.75,7.97-2.01,12.16-2.48,3.73-.42,13.38-.35,18.22.13.94.09,1.04-.06,1.3-1.93.67-4.84,1.11-10.46,1.13-14.32.02-4.07-.01-4.19-.9-4.17-.51.01-2.83.8-5.19,1.76h0Z"/>
    <path class="cls-1" d="M264.35,544.28c-1.59.34-4.02,1.07-5.49,1.65-2.68,1.06-8.76,4.61-10.53,6.16-1.09.95-.94,1.52.24.91.41-.22,1.26-.6,1.95-.89.69-.29,1.57-.66,2.03-.87,1.57-.69,6.55-1.62,12-2.24,4.96-.56,5.85-.56,9.94.04,2.48.36,5.22.8,6.12.99,2.47.52,8.54,3.23,12.08,5.4,1.75,1.07,3.17,1.82,3.17,1.66s-1.5-1.77-3.38-3.61c-3.33-3.29-6.77-5.85-9.84-7.34-5.03-2.43-12.24-3.17-18.3-1.87h0Z"/>
    <path class="cls-1" d="M267.8,561.25c-8.8,1.26-14.84,3.48-25.09,9.2-7.65,4.27-16.33,8.11-18.34,8.11-1.02,0-1.04.76-.04,1.29.31.16,3.05,1.34,6.06,2.6,3.01,1.26,6.32,2.71,7.32,3.21,2.94,1.47,9.39,3.78,13.91,4.97,3.83,1.01,4.84,1.11,11.71,1.12,11.02.02,13.16-.51,22.16-5.51,9.88-5.49,16.65-7.75,25.91-8.64,3.09-.3,4.66-.61,4.47-.89-.16-.24-2.2-1.77-4.55-3.44s-4.36-3.1-4.47-3.21c-.36-.37-4.16-2.43-7.33-3.96-3.54-1.71-4.13-1.96-6.3-2.62-.89-.27-2.08-.64-2.64-.81-6.01-1.9-15.37-2.48-22.77-1.42h0Z"/>
    <path class="cls-1" d="M774.42,568.83c-4.56.74-8.13,4.33-11.27,11.37-3.71,8.3-9.77,15.45-16.18,19.12-1.38.79-2.49,1.57-2.5,1.76-.01.19.77.23,1.71.1.95-.13,3.19-.41,4.98-.62,6.79-.79,17.17-2.8,22-4.27,8.7-2.64,13.25-5.99,15.24-11.21,1.61-4.23.76-8.19-2.65-12.36-2.56-3.13-6.85-4.6-11.32-3.88h0Z"/>
    <path class="cls-1" d="M214.53,585.92c2.52,2.13,11.51,7.95,14.23,9.2,4.31,1.99,8.03,3.15,9.19,2.87.73-.18.73-.2-.04-.51-4.88-1.94-12.97-6.07-18.99-9.7-2.85-1.72-5.31-3.1-5.49-3.09-.18.01.33.57,1.1,1.23h0Z"/>
    <path class="cls-1" d="M577.55,596.22c-1.94,1.95-3.74,4.67-4.08,6.14-.95,4.15-1.06,5.07-.83,6.83.15,1.1.46,1.91.74,1.91.74,0,3.39-3.7,4.27-5.94,1.08-2.77,2.26-9.5,1.75-10-.26-.26-.93.12-1.86,1.06h0Z"/>
    <path class="cls-1" d="M514.21,597.28c-1.04,2.85-4.88,10.13-7.22,13.66-4.01,6.07-9.89,12.25-17.33,18.2-8.23,6.58-19.4,11.97-29.89,14.42-5.77,1.35-7.72,1.7-9.39,1.7-2.03,0-2.05.8-.04,2.14,2.24,1.49,9.73,8.76,13.01,12.63,5.34,6.3,9.56,12.28,13.96,19.81l1.79,3.05,2.85-.13c7.57-.34,17.85-2.57,25.62-5.57,1.59-.61,3.43-1.31,4.17-1.59.73-.27,1.43-.61,1.57-.75.13-.14-.46-1.08-1.32-2.05-1.57-1.8-5.01-6.83-10.76-15.74-3.05-4.72-7.12-9.21-10.29-11.34-2.16-1.45-6.62-3.61-8.05-3.89-.61-.12-1.14-.39-1.14-.59s.98-.92,2.16-1.58c6.42-3.63,15.78-12.81,20.79-20.42,3.31-5.01,7.5-13.83,9.83-20.66.72-2.11.45-3.33-.29-1.3h0Z"/>
    <path class="cls-1" d="M561.26,600.04c.95,5.33,2.32,8.7,4.28,10.49,1.22,1.12,4.16,3.01,4.68,3.01.72,0-.62-5.25-2.08-8.13-.92-1.83-5.86-6.91-6.71-6.91-.29,0-.35.53-.17,1.55h0Z"/>
    <path class="cls-1" d="M761.93,605.07c-5.2.84-18.06,1.17-24.12.62-2.16-.2-3.54-.18-3.54.04,0,1.58,16.35,2.83,22.04,1.69,1.18-.24,3.17-.63,4.39-.87,3.21-.63,6.1-1.58,6.1-2,0-.22-.04-.34-.1-.31-.06.03-2.22.4-4.78.82h0Z"/>
    <path class="cls-1" d="M582.79,607.08c-1.34.67-3.04,1.81-3.78,2.52-1.75,1.7-3.53,4.73-3.05,5.2.57.57,4.47-.3,5.94-1.33,3.25-2.29,6.6-6.31,5.93-7.13-.7-.84-2.39-.59-5.03.73h0Z"/>
    <path class="cls-1" d="M553.3,613.02c-2.89,1.06-3.41,1.38-2.85,1.76.34.22.98.4,1.42.4s2.2.54,3.86,1.2c2.36.93,3.7,1.2,5.94,1.21,3.21.01,5.97-.85,5.62-1.76-.26-.69-3.22-2.28-4.24-2.28-.41,0-.89-.19-1.02-.41-.26-.42-7.64-.53-8.74-.12h0Z"/>
    <path class="cls-1" d="M703.58,616.68c-9.61,11.06-19.5,21.1-25.18,25.54-2.56,2.01-4.62,3.84-4.55,4.07.07.22,1.02.51,2.11.64,4.35.51,9.8,3.28,15.66,7.94,1.87,1.49,3.51,2.84,3.62,2.99.11.14,1.59,1.44,3.25,2.86,3.58,3.04,4.25,3.89,2.56,3.25-.65-.25-1.67-.67-2.36-.98-.67-.3-2.32-.96-3.66-1.46-1.36-.51-3.58-1.43-5-2.07-1.42-.64-2.62-1.16-2.68-1.16s-2.85-1.49-6.18-3.31c-6.39-3.49-9.43-5.41-10.16-6.41-.4-.54-.7-.52-2.44.14-1.1.41-2.28,1-2.64,1.3-.36.31-1.48.84-2.54,1.2-1.06.36-1.89.72-1.89.81s1.89,1.08,4.17,2.18c2.28,1.1,4.98,2.5,5.96,3.08,1.71,1.02,2.81,1.77,8.7,5.94,2.52,1.78,3.01,2.66,1.22,2.17-.63-.17-1.87-.46-2.77-.64-.91-.18-2.52-.5-3.66-.73-1.14-.23-2.66-.58-3.46-.81-3.7-1.05-4.34-1.23-5.49-1.6-.68-.22-1.89-.72-2.75-1.13-.85-.41-1.61-.64-1.72-.53-.42.43,3.13,6.1,4.43,7.08,3.16,2.37,11.71,5.68,17.85,6.9,10.41,2.07,22.55,1.92,31.8-.4,9.48-2.38,16.39-5.16,31.72-12.78,14.76-7.34,26.63-12.2,31.72-12.98.89-.14,1.63-.45,1.63-.7,0-.86-16.67-12.86-23.51-16.91-10.17-6.03-17.8-9.48-27.94-12.61-6.1-1.89-12-2.93-19.11-3.39l-4.27-.27-2.44,2.81h0ZM709.51,641.78c5.33.66,12.66,1.76,14.19,2.11l1.02.24-.94.36c-3.15,1.21-19.93,1.44-25.91.36-7.73-1.4-10.27-2.19-8.3-2.59,5.51-1.11,13.38-1.3,19.93-.48h0Z"/>
    <path class="cls-1" d="M576.6,618.47c-.97.97,1.83,4.36,5.45,6.6,1.59.98,10.29,3.31,10.29,2.75,0-.13-.51-.6-1.12-1.02-.62-.43-1.93-1.71-2.95-2.89-2.68-3.09-6.35-5.41-9.03-5.7-1.42-.16-2.32-.07-2.64.25h0Z"/>
    <path class="cls-1" d="M565.81,620.58c-1.06.71-1.93,1.46-1.93,1.65s-.42.94-.92,1.63c-.77,1.07-.91,1.81-.9,4.53.02,4.07.46,6.3,1.25,6.3.31,0,.57-.35.57-.75s.35-1.2.75-1.73c1.36-1.76,3.72-6.3,4.34-8.34.71-2.36.43-4.65-.58-4.62-.36.01-1.53.61-2.58,1.32h0Z"/>
    <path class="cls-1" d="M282.79,653.73c-1.04,1.09-6.37,8.13-11.03,14.56-1.27,1.75-2.97,3.86-3.73,4.64-.76.77-1.41,1.61-1.42,1.83-.02.53,7.99,4.38,10.95,5.28,5.73,1.73,7.52,2.16,11.88,2.83,4.15.64,9.18.77,11.88.3,1.4-.24,1.8-.57,2.87-2.36,4.62-7.69,9.95-14.83,14.17-18.98,1.3-1.28,2.3-2.34,2.24-2.35-.07-.01-3.33-.09-7.24-.17-9.64-.21-17.14-1.73-25.82-5.25-1.99-.81-3.63-1.47-3.64-1.47s-.52.53-1.1,1.14h0Z"/>
    <path class="cls-1" d="M140.59,658.89c-1.12.95-1.3,1.36-1.3,3.03,0,1.5.21,2.13.94,2.81,1.97,1.85,5.44.67,6.39-2.18.71-2.14-.73-4.11-3.33-4.53-1.1-.18-1.65,0-2.68.87h0Z"/>
    <path class="cls-1" d="M253.2,677.84c-3.78,2.48-11.67,5.17-17.65,6.02-1.73.25-5.47.45-8.24.45s-5.06.15-5.06.33.89.54,1.95.79c6.91,1.63,12.7,3.02,13.91,3.35,10.05,2.68,29.53,3.26,39.04,1.17,5-1.1,4.88-1.06,4.88-1.76,0-.45-.43-.61-1.61-.61-.89,0-2.11-.2-2.75-.46-1.31-.53-1.63-.65-6.22-2.43-1.92-.74-5.12-2.3-7.2-3.5-5-2.89-8.33-4.6-8.87-4.55-.22.02-1.22.57-2.2,1.21h0Z"/>
    <path class="cls-1" d="M676.93,682.28c0,.24.16.41.41.41.22,0,1.67.91,3.21,2.03,1.55,1.12,3.01,2.03,3.25,2.03s.45.15.45.33c0,.51,5.98,3.52,8.95,4.5,4.43,1.46,4.96,1.59,8.78,2.13,3.01.42,4.32.43,6.71,0,4.72-.82,9.07-2.47,12.24-4.63,2.72-1.86,5.97-4.35,6.23-4.78.5-.83-.13-.86-1.51-.05-4.79,2.78-18.1,4.45-26.56,3.33-4.03-.53-8.99-1.45-11.18-2.07-4.03-1.13-7.25-2.24-8.46-2.91-1.46-.81-2.52-.95-2.52-.34h0Z"/>
    <path class="cls-1" d="M177.72,685.77c-4.64.68-7.13,1.15-9.96,1.91-3.5.93-9.15,2.21-14.03,3.19-5.73,1.14-17.26,1.27-22.37.24-4.64-.93-8.56-2.14-10.82-3.32-1.06-.56-2.04-.89-2.14-.72-.1.17,1.35,2.34,3.26,4.86,3.84,5.08,13.1,14.29,18.03,17.92,1.67,1.23,3.73,2.78,4.55,3.41,6.22,4.79,18.79,10.73,27.57,13.03,6.26,1.64,14.93,2.75,21.6,2.77,8.99.03,21.88-2.59,29.85-6.06.44-.19,1.46-.63,2.24-.96.79-.34,2.24-.93,3.25-1.34,3.41-1.35,11.75-6.05,18.3-10.29,4.27-2.77,10.35-6.36,13.1-7.74,1.34-.67,1.52-1.45.24-1.08-3.32.98-15.86.63-22.08-.62-7.52-1.51-15.28-3.95-22.25-6.99-8.54-3.73-15.94-6.48-19.44-7.23-7.48-1.6-12.69-1.86-18.91-.95h0ZM197.85,694.18c4.88,1.31,5.84,1.98,2.44,1.69-1.46-.12-3.82-.38-5.29-.59-1.45-.2-4.76-.47-7.32-.59-8.26-.4-11.84-.7-11.59-.95.54-.54,5.49-.82,11.79-.66,5.04.13,7.28.38,9.96,1.1h0Z"/>
    <path class="cls-1" d="M390.27,700.25c-.61,2.96-4.52,11.35-6.98,15.01-5.1,7.56-13.56,16.41-19.17,20.04-.61.39-1.14,1.1-1.14,1.51,0,2.56,4.05,15.94,6.55,21.64,3.03,6.91,10.74,20.56,11.63,20.6.28.01.53-.14.53-.33s1.67-1.77,3.74-3.54c11.02-9.4,17.96-17.61,22.48-26.58,1.54-3.05,3.87-9.13,3.87-10.09,0-.29-1.52-2.32-3.38-4.51-5.41-6.37-9.56-13.05-12.15-19.56-2.14-5.37-4.8-13.84-4.8-15.29,0-2.2-.61-1.63-1.17,1.1h0Z"/>
    <path class="cls-1" d="M691.58,698.42c0,.13,1.34,1.63,2.99,3.33,1.64,1.7,4.91,5.29,7.26,7.97,8.04,9.19,12.39,12.78,15.62,12.9,1.67.06,2-.07,3.05-1.23.87-.96,1.18-1.71,1.18-2.85,0-2.42-2.36-4.41-8.34-7.04-4.47-1.97-13.46-6.88-15.17-8.29-.38-.31-1.79-1.45-3.13-2.52s-2.5-2.08-2.57-2.24c-.16-.37-.89-.4-.89-.04h0Z"/>
    <path class="cls-1" d="M726.35,700.65c-1.51.83-2.23,2.13-2.21,4,.02,1.95.36,2.58,2.17,3.98,2.47,1.91,6.22.49,7.18-2.72.41-1.36.36-1.75-.39-3.21-.48-.94-1.19-1.85-1.63-2.08-1.02-.55-4.11-.52-5.12.04h0Z"/>
    <path class="cls-1" d="M223.12,739.54c-5.54,5.78-13.72,15.51-16.13,19.2-6.41,9.81-8.22,19.11-5.81,29.93.52,2.32,1.05,4.23,1.18,4.23.35,0,.77-2.2.77-4.03,0-2.89,3.22-14.19,6.08-21.35,1.47-3.67,6.17-13.42,8.27-17.16,1.88-3.33,5.24-8.31,7.8-11.55,2.45-3.09,2.81-3.66,2.37-3.66-.18,0-2.24,1.99-4.54,4.39h0Z"/>
    <path class="cls-1" d="M187.44,746.52c-1.73.71-3.36,2.82-3.65,4.74-.74,5,3.1,8.58,7.96,7.4,2.23-.54,3.4-1.54,4.51-3.86.78-1.63.81-1.95.35-3.62-.36-1.3-1.04-2.29-2.34-3.44-1.65-1.45-2.03-1.6-3.9-1.59-1.14.01-2.46.18-2.93.37h0Z"/>
    <path class="cls-1" d="M416.51,749.95c-6.18,13.06-16.49,25.05-30.52,35.5-3.17,2.36-5.79,4.32-5.86,4.39s.16,1.1.51,2.32c1.15,4,3.23,14.6,4.49,22.9,1.94,12.73,1.62,24.58-.85,31.68-.65,1.87-.5,2.17.78,1.54.49-.24,2.28-1.01,3.94-1.7,5.69-2.35,6.3-2.63,11.18-5.11,13.34-6.78,26.25-16.75,34.75-26.82,3.81-4.51,6.87-8.54,7.41-9.76.25-.57.61-1.02.8-1.02.21,0,.35-.15.35-.37,0-.2.76-1.63,1.68-3.13,2.16-3.56,5.37-11.02,6.7-15.58,1.32-4.51,2.2-10.34,2.2-14.56,0-3.29-.02-3.35-1.36-4.37-.73-.56-1.64-1.04-1.95-1.04s-.76-.16-.98-.37c-.21-.2-3.11-1.77-6.49-3.51-10.9-5.62-16.31-8.85-21.88-13.07-1.26-.95-2.49-1.76-2.7-1.76s-1.19,1.71-2.2,3.82h0Z"/>
    <path class="cls-1" d="M571.6,779.76c0,.35,3.17,2.57,9.35,6.56,6.75,4.35,9.3,5.58,14.64,7.04,4.3,1.18,12.73,1.16,17.33-.05,4.11-1.08,8.3-2.52,8.3-2.86,0-.16-2.16-.29-4.8-.3-9.3-.02-17.65-1.48-29.97-5.24-4.03-1.23-7.69-2.4-8.13-2.61-1.99-.92-6.42-2.84-6.55-2.84-.1,0-.16.11-.16.28h0Z"/>
    <path class="cls-1" d="M567.66,791.7c-3.25,1.61-5.06,6.48-3.81,10.26,2.47,7.51,13.19,6.47,15.09-1.46.85-3.55-1.03-6.86-5.02-8.79-2.24-1.09-4.08-1.09-6.26,0h0Z"/>
    <path class="cls-1" d="M466.09,798.39c.15,2.24.62,5.81,1.06,7.93,2.34,11.31,6.2,16.76,14.57,20.63,1.67.77,3.37,1.58,3.76,1.78.4.2,1.04.37,1.44.37s.99.23,1.32.51c.32.28-1.08-1.24-3.1-3.36-3.88-4.06-7.11-8.22-9.8-12.61-2.34-3.82-5.53-10.02-6.61-12.81-.51-1.34-1.1-2.76-1.3-3.15-.21-.41-.37-.94-.37-1.24s-.27-.87-.63-1.32c-.57-.72-.61-.43-.37,3.27h0Z"/>
    <path class="cls-1" d="M461.65,800.99c-1.28,2.45-3.19,5.25-6.95,10.17-2.8,3.66-3.88,6.09-3.88,8.66,0,3.09,3.2,4.92,6.06,3.47,1.75-.89,2.5-2.78,2.9-7.3.41-4.55,1.72-11.66,2.68-14.48.9-2.64.45-2.94-.81-.53h0Z"/>
    <path class="cls-1" d="M456.1,831.42c-1.1.4-2,1.94-2.01,3.45-.01,2.03,1.95,3.75,3.92,3.44,1.58-.25,2.42-1,3.01-2.67.95-2.71-2.03-5.27-4.92-4.22h0Z"/>
  </g>
</svg>