<?xml version="1.0" encoding="UTF-8"?>
<svg xmlns="http://www.w3.org/2000/svg" viewBox="0 0 1000 1000">
  <defs>
    <style>
      .cls-1 {
        fill: #2a352f;
      }

      .cls-2 {
        fill: #fff;
      }

      .cls-3 {
        isolation: isolate;
      }

      .cls-4 {
        mix-blend-mode: screen;
      }
    </style>
  </defs>
  <g class="cls-3">
    <g id="Layer_1" data-name="Layer 1">
      <g>
        <path class="cls-1" d="M97.77,764.41c2.44-1.51,4.94-2.95,8.17-4.81-1.96-1.38-3.88-2.74-7.56-5.35-.27,4.53-.44,7.38-.6,10.16Z"/>
        <path class="cls-1" d="M114.67,783.77c2.23.71,4.46,1.41,6.68,2.12.12-.96.24-1.93.36-2.89-2.29-.18-4.58-.37-6.86-.55-.06.44-.12.88-.18,1.33Z"/>
        <path class="cls-1" d="M115.38,762.81c-.89.26-1.77.52-2.66.78,0,1.47-.53,3.32.14,4.32.79,1.18,2.63,1.62,6.57,3.8-2.18-4.79-3.11-6.84-4.05-8.9Z"/>
        <path class="cls-1" d="M146.46,804.4c-2.44-1.66-4.33-2.95-6.59-4.48q-.13,6.73,6.59,4.48Z"/>
        <path class="cls-1" d="M384.27,51.79c4.51,1.14,8.26,1.41,10.66-3.55-4.97-2.51-9.54-5.13-10.66,3.55Z"/>
        <path class="cls-1" d="M49.89,648.93c.87.35,1.75.69,2.62,1.04,1.26-3.13,2.51-6.26,4.58-11.41-6.13,3.16-7.23,6.46-7.2,10.37Z"/>
        <path class="cls-1" d="M45.61,659.03q-.75-9.07-5.62-12.41c-.57,15.72,3.08,22.42,14.75,24.44-1.19-5.28-2.26-10-3.38-14.93-2.31,1.16-3.89,1.96-5.76,2.9Z"/>
        <path class="cls-1" d="M75.59,676.3c-.73.54-1.46,1.08-2.19,1.63.78,3.59,1.11,7.6,6.88,6.65-1.56-2.76-3.12-5.52-4.69-8.28Z"/>
        <path class="cls-1" d="M44.47,619.64c-7.04,8.8-6.78,10.48,3.72,24.57-1.41-9.3-2.47-16.34-3.72-24.57Z"/>
        <path class="cls-1" d="M53.89,377.33c1.88-3.68,3.03-5.92,4.17-8.16-.78-.49-1.56-.99-2.33-1.48-1.97,2.08-4.41,3.99-1.84,9.63Z"/>
        <path class="cls-1" d="M69.45,670.81c-1.3-3.14-2.07-5.01-2.97-7.19q-4.53,5.36,2.97,7.19Z"/>
        <path class="cls-1" d="M257.62,908.35c.96-2.57,1.7-4.55,2.8-7.48-4.32.93-7.53,1.63-13.58,2.93,4.9,2.06,7.55,3.18,10.78,4.54Z"/>
        <path class="cls-1" d="M340.63,43.57c-2.47.92-4.94,1.83-7.41,2.75.17-.18.36-.31.53-.48-3.74,2.09-7.48,4.18-12.12,6.77,10.24,3.53,15.12-1.61,19-9.05Z"/>
        <path class="cls-1" d="M296.24,918.7c.2,1,.39,2,.59,3l7.94-1.76-.53-2.75c-2.67.5-5.33,1.01-8,1.51Z"/>
        <path class="cls-1" d="M349.12,937.89c-9.46-1.59-19.43-1.71-27.01-9.31-.81-.81-2.83-.37-4.54-.53-1.47,4.24-1.77,7.41,2.71,9.14,7.3,2.81,14.38,6.74,21.92,8.19,8.92,1.72,17.77,6.27,28.65,2.97-6-8.41-13.93-9.15-21.74-10.46Z"/>
        <path class="cls-1" d="M135.29,798.78c-2.51,7.72-.07,15.82,4.34,19.43,2.92,2.39,5.58,2.49,8.21-1.73-4.96-4.5-11.57-7.8-12.54-17.7Z"/>
        <path class="cls-1" d="M119.05,211.89c6.81,1.48,2.31,8.08,4.98,12.5,3-5.21,5.62-9.73,8.17-14.16-5.63-5.32-9.25-.99-13.15,1.65Z"/>
        <path class="cls-1" d="M153.22,821.86c-.36.04-.45,2.83-.65,4.47,3.91,2.37,6.51-.15,11.53-4.17-5.38-.26-8.15-.58-10.87-.31Z"/>
        <path class="cls-1" d="M216.83,873.69c-1.58-1.63-5.16-1.22-8.54-1.88,5.5,13.48,18.49,18.56,24.19,29.94,2.39-2.43,5.39-4.34,1.49-8.48-5.94-6.3-11.1-13.38-17.13-19.58Z"/>
        <path class="cls-1" d="M216.33,860.76c-2.41-.41-4.82-.83-7.24-1.24-.11.64-.22,1.28-.33,1.92,2.4.5,4.79,1,7.19,1.49.13-.72.25-1.44.38-2.17Z"/>
        <path class="cls-1" d="M84.85,693.43c-1.65-3.26-2.94-5.81-4.27-8.29-2.34,5.96-2.13,6.05,4.27,8.29Z"/>
        <path class="cls-1" d="M24.59,624.53c-.19-3.57-2.75-4.96-6.09-4.72,0,.04,0,.09,0,.13l-.33-.12s.33.12.33.12c-.08.15-.14.29-.22.44.73,3.75,1.46,7.5,2.19,11.25.17.13.31.27.5.39.01.06.03.13.04.19,4.85-.56,3.74-4.73,3.58-7.68Z"/>
        <path class="cls-1" d="M788.58,864.7c-1.46,2.6-1.08,6.28-1.46,9.53.09.05.19.1.28.14,3.74-1.53,7.48-3.07,11.23-4.6.11-.19.22-.38.33-.57-4.07-6.77-8.07-8.6-10.38-4.5Z"/>
        <path class="cls-1" d="M43.41,385.67q-7.01,2.9-3.85,8.64c1.44-3.24,2.65-5.94,3.85-8.64Z"/>
        <path class="cls-1" d="M37.83,411.06c-.74-.11-1.47-.21-2.21-.32-.16,1.59-.33,3.19-.49,4.78.68.1,1.35.19,2.03.29.22-1.58.45-3.17.67-4.75Z"/>
        <path class="cls-1" d="M32.04,563.69v-12.58c-4.54,4.44-6.09,7.81,0,12.58Z"/>
        <path class="cls-1" d="M32.64,432.17c1.48-3.11,2.95-6.52,2.11-9.19-1.37-4.37-5.43-4-9.11-3.67,4.67,2.77,3.36,8.88,7,12.85Z"/>
        <path class="cls-1" d="M472.74,34.4c.16.49.32.99.48,1.48,4.49-1.46,8.99-2.92,13.48-4.37.03-.05.07-.1.1-.15-2.4-1.22-4.81-2.44-7.21-3.66-2.29,2.24-4.57,4.47-6.86,6.71Z"/>
        <path class="cls-1" d="M20.58,397.37c4.98-2.52,8.36-6,7.31-12.18-.11.04-.22.07-.33.11-2.27,3.92-4.53,7.84-6.8,11.76.05.04.09.07.14.11l-.32.2Z"/>
        <path class="cls-1" d="M63.39,296.58c-.09,0-.25.01-.25.01,3.63,4.09,4.6,3.6,7.44-3.75,0,0-.04.05-.09.11l-.21.24s0,0,0,0h0c-.01-.06-.03-.11-.04-.17-2.28,1.15-4.56,2.3-6.83,3.44.02.04.04.08.06.12-.02,0-.04,0-.06,0Z"/>
        <path class="cls-1" d="M40.62,585.11c-1.09,2.86-2.42,5.66-3.14,8.61-1.11,4.57.8,7.46,5.37,8.5q1.85-6.33-2.23-17.11Z"/>
        <path class="cls-1" d="M28.5,622.55v8.11q4.23-4.03,0-8.11Z"/>
        <path class="cls-1" d="M24.62,544.69c-.41,1.92-.81,3.84-1.22,5.76.62.15,1.25.3,1.87.46.51-1.88,1.03-3.77,1.54-5.65-.73-.19-1.46-.38-2.19-.57Z"/>
        <path class="cls-1" d="M27.88,611.47c.1,2.21.54,4.39.89,6.59,1.3-.21,2.59-.41,3.89-.62-.6-2.28-1.21-4.57-1.81-6.85-1.03.3-2.97.64-2.96.88Z"/>
        <path class="cls-1" d="M17,528.05c-.27,3.7-.49,6.68-.71,9.62,2.01.16,4.02.32,6.25.5.19-4.73.37-8.56-5.53-10.13Z"/>
        <path class="cls-1" d="M25.4,565.05c1.03,8.94-2.33,17.56,6.25,24.48.97-2.96,1.64-4.98,1.71-5.2,2.92.19,5.11.33,7.2.55-1.04-9.15-9.11-12.75-15.16-19.82Z"/>
        <path class="cls-1" d="M26.62,461.23c-.76-2.5-1.42-4.66-2.07-6.81q-.89,4.93,2.07,6.81Z"/>
        <path class="cls-1" d="M26.64,490.92c-2.94.92-5.42,1.69-8.64,2.7,2.93,4,5.08,6.93,7.2,9.83,3.85-3.41,3.04-7.39,1.44-12.53Z"/>
        <path class="cls-1" d="M10.04,544.05c1.93-2.08,3.85-4.15,5.76-6.23-5.36-2.08-6.02-1.31-5.76,6.23Z"/>
        <path class="cls-1" d="M17.47,513.12c8.38-.62,8.49-.64,7.71-9.29-7.36-1.1-7.42,3.84-7.71,9.29Z"/>
        <path class="cls-1" d="M15.75,441.92c-.61.73-1.21,1.46-1.82,2.19,1.94,1.92,3.88,3.84,6.68,6.61.84-6.06-1.17-8.11-4.86-8.8Z"/>
        <path class="cls-1" d="M164.18,835.68c2.18,4.35,3.95,7.87,5.71,11.39q4.16-9.48-5.71-11.39Z"/>
        <path class="cls-1" d="M815,113.92c-3.84,1.23-6.3,2.03-8.76,2.82.34.96.68,1.91,1.02,2.87,2.77-.24,6.07.66,7.74-5.69Z"/>
        <path class="cls-1" d="M824.36,825.85c-2.01,2.62-4.02,5.25-6.03,7.87.9.72,1.79,1.44,2.69,2.15,4.01-1.34,6.01-4.03,3.34-10.03Z"/>
        <path class="cls-1" d="M794.21,851.28c.49.44.97.88,1.46,1.32,1.5-1.37,3.01-2.75,4.51-4.12-.7-.73-1.4-1.46-2.1-2.19-1.29,1.66-2.58,3.33-3.87,4.99Z"/>
        <path class="cls-1" d="M891.35,203.45q2.22-5,0-9.55v9.55Z"/>
        <path class="cls-1" d="M867.52,166.3c-4.51.62-6.94-1.77-7.77-6.46-.36-2.05-2.07-3.85-3.17-5.76-.93.08-1.86.17-2.79.25-.35,2.49-1.89,5.88-.85,7.31,5.12,7.05,12.22,11.48,21.28,14.18.53-5.84,1.31-10.61-6.7-9.51Z"/>
        <path class="cls-1" d="M802.15,853.86c2.84-.64,5.74-1.29,9.11-2.05-.46,3.57-.71,5.52-1.13,8.71,6.09-5.64,11.01-10.2,15.89-14.72-.67-2.59-1.33-5.18-1.95-7.59-12.94-.7-18.69,3.54-21.93,15.66Z"/>
        <path class="cls-1" d="M760.52,74.97c-1.11.74-2.23,1.48-3.35,2.21,1.97,3.03,2.08,7.82,7.25,8.34,3.76-5.82-2.27-7.32-3.9-10.55Z"/>
        <path class="cls-1" d="M773.54,106.76c1.24-.38,2.42-1.26,3.31-2.24.19-.2-.96-1.67-3.68-6.22-.77,3.13-1.43,4.66-1.42,6.2,0,.81,1.41,2.38,1.79,2.26Z"/>
        <path class="cls-1" d="M743.91,84.51c4.11,8.37,5.87,9.44,15.3,9.27q-6.68-9.66-15.3-9.27Z"/>
        <path class="cls-1" d="M429.69,35.44c-1.85-.68-3.7-1.37-5.55-2.05-.23.71-.45,1.41-.68,2.12,1.91.55,3.83,1.09,5.74,1.64.17-.57.33-1.14.5-1.7Z"/>
        <path class="cls-1" d="M790.09,856.76c.27.86.53,1.73.8,2.59,2.16-.55,4.32-1.11,6.48-1.66-.27-1.1-.54-2.21-.82-3.31-2.16.79-4.31,1.59-6.47,2.38Z"/>
        <path class="cls-1" d="M977.91,535.75c.78-.24,1.56-.47,2.33-.71-1.73-5.55-3.46-11.11-5.72-18.37-4.8,9.37,2.82,13.17,3.39,19.07Z"/>
        <path class="cls-1" d="M981.37,552.56c.25,4.29.4,6.88.55,9.48,1.99-2.67,4.74-5.34-.55-9.48Z"/>
        <path class="cls-1" d="M968.14,590.12c1.98-5.73,3.62-10.46,5.25-15.2-1.42-.42-2.85-.85-4.27-1.27,4.69,6.56-6.4,8.7-.98,16.47Z"/>
        <path class="cls-1" d="M901.16,736.05c.71.19,1.41.39,2.12.58.53-2.08,1.06-4.15,1.59-6.23l-2.04-.56c-.56,2.07-1.11,4.14-1.67,6.21Z"/>
        <path class="cls-1" d="M938.43,278.5c-2.42-8.3-4.33-14.81-6.23-21.3-.3,7.04-4.53,14.91,6.23,21.3Z"/>
        <path class="cls-1" d="M949.75,307.94c.29,1.99.58,3.97.87,5.96.81-.13,1.62-.26,2.44-.39-.34-1.98-.68-3.96-1.01-5.94-.76.13-1.53.25-2.29.38Z"/>
        <path class="cls-1" d="M965.33,632.09c.55.2,1.1.39,1.65.59.56-1.52,1.12-3.03,1.69-4.55-.62-.21-1.75-.63-1.77-.59-.59,1.49-1.07,3.02-1.57,4.54Z"/>
        <path class="cls-1" d="M974.24,411.46c-.96-1.5-1.92-3-2.88-4.5-.53.33-1.05.65-1.58.98.78,1.61,1.55,3.21,2.33,4.81.71-.43,1.42-.86,2.13-1.29Z"/>
        <path class="cls-1" d="M769.75,876.9c3.79-1.56,7.59-3.11,13.6-5.58-8.57-4.21-10.96,1.03-13.6,5.58Z"/>
        <path class="cls-1" d="M464.21,977.69c-.11.99-.22,1.98-.33,2.96h5.79c-.01-.72.11-2.03-.05-2.07-1.78-.41-3.6-.62-5.4-.89Z"/>
        <path class="cls-1" d="M529.88,28.7h-12.21c3.7,4.22,4.03,4.07,12.21,0Z"/>
        <path class="cls-1" d="M475.15,968.94c.36.92.72,1.84,1.08,2.76,2.35-.99,4.71-1.98,7.06-2.97l-1.02-2.6c-2.37.94-4.75,1.87-7.12,2.81Z"/>
        <path class="cls-1" d="M560.75,949.43c.16.9,1.64,2.42,1.99,2.27,1.1-.46,1.94-1.59,2.88-2.45-.83-.67-1.66-1.33-2.81-2.27-.86.97-2.17,1.84-2.06,2.45Z"/>
        <path class="cls-1" d="M557.1,36.7c0,.4.01.8.02,1.21,3.99.29,7.98.57,11.97.86-.03-1.18-.06-2.36-.09-3.54-3.97.49-7.93.98-11.9,1.47Z"/>
        <path class="cls-1" d="M410.32,38.7c4.26-1.01,7.24-1.71,11.95-2.83-6.28-5.45-9.43-5.45-11.95,2.83Z"/>
        <path class="cls-1" d="M422.28,965.24c3.98.19,7.13.34,10.23.49-2.85-2.3-5.56-5.84-10.23-.49Z"/>
        <path class="cls-1" d="M448.33,963.82c-2.18.19-4.34.47-6.51.73.1.58.21,1.16.31,1.74h6.27c.33-.85.61-1.23.57-1.57-.04-.34-.43-.92-.63-.9Z"/>
        <path class="cls-1" d="M726.54,69.68c6.78,2.08,8.68,14.01,18.49,7.2-5.03-8.87-8.82-10.44-18.49-7.2Z"/>
        <path class="cls-1" d="M543.05,30.26c3.51.75,7.01,1.5,10.52,2.25l.33-3.28c-3.47-.48-6.93-.97-10.4-1.45-.15.83-.3,1.65-.45,2.48Z"/>
        <path class="cls-1" d="M637.77,48.71h-10.56c4.01,8.59,7.22,3.48,10.56,0Z"/>
        <path class="cls-1" d="M717.97,65.56c-1.61-2.73-3.05-5.17-4.48-7.6-1.5.86-3.03,1.72-5.18,2.92,3.37,2.62,3.78,8.55,9.66,4.68Z"/>
        <path class="cls-1" d="M713.93,75.64c4.83.5,8.1,7.71,14.09,3.64-3.97-4.95-4.97-5.26-14.09-3.64Z"/>
        <path class="cls-1" d="M754.75,75.72c-2-1.16-3.99-2.33-5.99-3.49-.46.74-.92,1.47-1.38,2.21,1.77,1.4,3.53,2.8,5.3,4.2.69-.97,1.38-1.95,2.07-2.92Z"/>
        <path class="cls-1" d="M714.43,906.02c.11.61.22,1.21.34,1.82,2.3-.41,4.6-.81,6.9-1.22-.12-.65-.23-1.31-.35-1.96-2.3.45-4.59.9-6.89,1.35Z"/>
        <path class="cls-1" d="M630.77,956.56c2.41-1.41,4.55-2.67,7.28-4.26q-7.75-2.98-7.28,4.26Z"/>
        <path class="cls-1" d="M692.9,908.97c.65.64,1.3,1.28,1.95,1.92,1.56-1.7,3.11-3.4,4.67-5.09-.35-.39-.71-.78-1.06-1.17-1.85,1.45-3.71,2.89-5.56,4.34Z"/>
        <path class="cls-1" d="M663.06,48.95c-1.31.46-2.5,1.24-3.74,1.9,1.7.25,3.39.5,6.9,1.01-2.17-2.04-2.85-3.02-3.16-2.92Z"/>
        <path class="cls-1" d="M695.56,913.54c-3.87,2.33-7.74,4.65-13.36,8.03,9.23,3.04,12-1.25,13.36-8.03Z"/>
        <path class="cls-1" d="M306.34,936.36c-.03-.05-.07-.1-.1-.15-.02,0-.04,0-.05,0l.16.15Z"/>
        <path class="cls-1" d="M1000,527.6c-13.09,2.71-9.53,15.66-16.27,21.41.72-8.73-.34-17.92,7.35-23.03-.61-3.26-2.31-6.75-1.33-7.98,5.34-6.66,1.86-11.9-1.7-16.59.54-5.16,7.74-9.03,2.68-13.39-4.03-3.47-2.54-7.16-3.24-10.8-.67-3.47.3-8.09-1.57-10.34-4.67-5.58-1.01-10.49-.57-13.95-6.04-8.65-12.92-14.52-8.38-26.38,2.85-7.44,3.01-16.5-3.83-23.73-2.19-2.31-4.21-7.43-3.17-9.81,3.61-8.19-.39-15.83-.1-23.66-1.42,1.04-2.87,2.09-5.23,3.8-2.09-14.83-4-28.45-5.94-42.17.87-.23,2.28-.62,4.21-1.14-2.02-7.21-3.6-14.25-5.99-20.99-1.91-5.4-5.64-10.06-2.86-16.56.61-1.44-2.38-4.49-3.76-6.89-1.69,1.41-2.82,2.35-4.18,3.48-5.56-3.96-4.49-10.3-4.92-15.45-.6-7.23-2.92-12.69-9.02-16.36-.43-1.67-.76-3.32-1.28-4.91-1.06-3.25-3.94-7.14-3.02-9.55,2.71-7.11.74-13.68-5.04-15.01-7.95-1.83-3.13-12.75-11.18-13.13-2.16-.1-4.73-1.12-6.27-2.61-2.72-2.65-7.03-6.26-6.71-8.98.88-7.52-3.11-10.75-8.06-14.22-4.04-2.83-3.53-6.21,0-9.79-6.78-.78-14.11-.44-12.94-11.09.22-2.03-3.31-5.85-5.75-6.58-6.72-2.01-8.71-7.4-10.52-14.07-6.51,3.9-11.76.97-14.26-3.85-3.03-5.83-8.42-4.61-11.82-6.14-1.6-5.25-2.91-9.58-4.5-14.8-6.49,8.38-10.93,10.45-13.39,7.07-1.31-6.23,3.65-2.07,5.61-3.59-1.98-4.35-4.01-8.8-5.44-11.94-6.11-2.16-11.43-3.48-16.23-5.89-4.74-2.39-8.94-5.9-13.4-8.88-7.38-4.93-13.31-11.21-17.16-19.39-.11-.22.98-1.03,1.5-1.57,5.2-1.69,6.91,10.23,13.72,3.76-3.28-6.35-15.24-5.32-11.91-16.55q-3.03,10.06-13.83,9.22s.01.02.01.03c-4.75-3.53-9.43-7.15-14.3-10.47-1.08-.74-2.92-.59-4.37-.46-9.98.93-19.11-2.13-28.09-5.98-.28-6.18-4.54-4.86-8.43-4.74-7.13.22-14.49,4.26-21.47-.76,2.03-5.49,2.03-7.89.3-11.17-1.75,2.86-3.14,6.28-5.49,8.71-4.11,4.25-6.67,1.98-8.53-3.02,2.26-1.16,4.06-2.08,5.86-3.01-10.81-3.45-21.55-4.81-32.28-6.13-.76-.09-2-.3-2.25.08-4.11,6.19-10.11,1.32-15.02,2.69-.31.09-.94-1.07-2.02-2.37,1.96-1.55,3.87-3.07,5.75-4.57-1.03-2.64-2.07-5.29-3.75-9.58,3.23,1.09,4.57,1.75,5.98,1.96,1.1.16,2.27-.25,4.41-.55-6.24-7.69-12.42-1.33-17.98-2.42-1.28-1.41-2.55-2.82-3.83-4.24-.48.53-.97,1.06-1.45,1.59,1.47,1.17,2.95,2.34,4.42,3.51-2.48,1.11-5.34,1.74-7.38,3.43-4.87,4.03-9.88,3.73-13.75-.35-5.13-5.4-11.14-4.91-17.39-4.87-3.48.02-7.52.86-10.32-.63-7.45-3.95-14.78-3.09-23.59-.13-.45-4.95-.8-8.69-1.13-12.32-9.56.49-2.43,11.12-8.49,14.9-1.16-1.76-2.09-3.83-3.59-5.28-1.86-1.79-4.19-3.07-7.44-5.37-1.74,3.63-3.09,6.47-4.42,9.24-.24.05-.48.09-.73.13.1.2.21.41.32.62-.94,1.7-1.88,3.4-2.81,5.1-3.09-.04-6.28.41-9.22-.28-7.72-1.81-14.66-.11-21.3,3.83l.39-.3s-.1-.05-.14-.07c-.03.05-.07.1-.1.15-4.49,1.46-8.99,2.92-13.48,4.37-.16-.49-.32-.99-.48-1.48,2.29-2.24,4.57-4.47,6.86-6.71,2.4,1.22,4.81,2.44,7.21,3.66,1.94-2.9,3.92-5.89,7.22-10.83.06-.97-7.77-3.57-1.87-8.08-3.94,1.14-9.39,4.55-11.55,3.03-8.17-5.71-14.05-1.55-20.4,2.64h13.14c1.58,2.61,3.42,5.65,5.27,8.69h0c-7.18,1.37-14.2,1.4-20.74-2.63-3.57-2.2-2.01-4.33.08-6.45-8.57,2.92-17.04,6.33-25.81,8.44-2.48.6-5.83-2.58-8.79-4.02-3.64,8.07-11.24-.35-15.77,4.48-.84-2.64-1.36-4.26-1.93-6.05-2.23,1.62-4.82,2.47-5.23,3.96-2.15,7.74-6.7,6.33-11.83,3.87-3.18-1.52-6.34-3.15-9.65-4.28-2.59-.88-5.4-1.08-8.11-1.58-.22.81-.43,1.62-.65,2.43,6.36-.18,11.76,1.32,15.01,7.13-11.2,7.49-23.34,8.84-35.75,8.85-5.77,0-11.24.74-15.65,4.9-10.41.68-20.54,1.19-25.44,13.65-.85,2.15-8.05,3.41-11.43,2.28-2.94-.98-4.77-1.27-7.22.16-9.65,5.63-19.32,11.24-27.95,16.25-4.7-1.04-8.8-1.95-13.99-3.1,1.56,3.15,2.39,4.82,3.46,6.97-2.12,1.23-4.19,2.24-6.06,3.54-5.79,4.05-12.4,7.37-17.07,12.52-8.14,8.96-8.79,10.3-15.23,10.78-2.21.17-4.42.3-5.42.36-3.35,5.85-6.08,10.62-8.81,15.39,3.99-1.08,7.99-2.16,13.81-3.73-1.68,2.74-2.66,5.61-3.56,5.58-3.42-.1-6.81-1.14-10.22-1.83-8.44,9.88-21.68,14.75-27.34,27.67-.76,1.74-3.8,2.48-5.85,3.58-3.41,1.83-6.87,3.58-10.73,5.58,1.4,3.66,2.61,6.82,3.82,9.99-5.53,4.67-11.34,8.78-16.17,13.85-5.92,6.23-11.5,12.37-19.62,16-4.48,2.01-7.87,6.55-11.76,9.94.38.62.77,1.24,1.15,1.86,2.21-.38,4.42-.75,6.62-1.13,1.6,8.18-2.33,14.12-7.92,19.32,1.74.91,3.27,1.71,6.09,3.19-5.24.87-9.74.29-12.19,2.31-5.08,4.17-9.06,9.75-13.54,14.69-1.51,1.67-3.03,4.26-4.83,4.55-6.31,1.01-8.15,5.24-9.37,10.77-1.39,6.3-4.75,12.05-3.57,19.05.35,2.1-1.88,4.66-3.07,7.03-.06.03-.12.06-.18.09.01.06.03.12.04.17h0s0,0,0,0l.21-.24c.05-.06.09-.11.09-.11-2.83,7.35-3.81,7.84-7.44,3.75,0,0,.16,0,.25-.01.02,0,.04,0,.06,0-.03-.04-.04-.08-.06-.12-.08.04-.15.08-.23.12-4.47-.16-8.08.99-8.85,6.39-3.14,2.99-4.74,6.52-4.55,13.67,4.61-5.1,6.44-8.4,5.71-12.94,5.15,9.83,4.96,14.6-2.77,18.97-6.22,3.51-8.04,8.02-7.45,14.59.69,7.64-2.3,13.04-8.59,14.6.88,5.51,1.87,10.1,2.07,14.72.03.72-3.59,1.59-5.6,2.43,5.15,4.03,4.06,6.7-1.85,9.04-1.91-3.41-3.65-6.53-5.4-9.65-.54.27-1.07.54-1.61.81,1.31,5.29,2.62,10.59,3.93,15.88l-.36-.27s0,0,0,0h0c-.09.16-.19.33-.28.49.11-.04.22-.07.33-.11,1.05,6.17-2.33,9.66-7.31,12.18l.32-.2c-.05-.04-.09-.07-.14-.11-.06.1-.11.19-.17.29-7.13,3.69-3.75,14.25-12.11,17.33,1.84,2.36,2.96,3.79,4.05,5.19,8.97-7.54,7.82-22.34,20.87-27.38,1.25,10.88-5.15,18.31-8.4,26.71-3.13,1.88-6.23,3.73-8.24,4.94.89,3.54,1.68,6.72,2.44,9.76-12.27,5.01-13.53,17.02-3.16,26.87-2.59,4.32-5.26,8.76-8.14,13.57,1.27.58,3.16,1.45,6.51,2.99-4.86,4.24-8.9,7.77-13.83,12.06,3.44.57,5.48.9,7.15,1.18.52.81.85,1.12.92,1.48,1.89,9.47-3.42,20.09,4.44,28.71.58.64-.06,3.7-.99,4.35-8.06,5.64-3.7,12.45-2.12,19.02-.06.07-.12.13-.18.2.08.02.16.03.25.05,0,.02.01.05.02.07,0-.02,0-.05,0-.07,2.41.45,4.8.9,6.32,1.19.88,11.33,1.68,21.69,2.49,32.05.24,3.07,1.36,6.62-3.61,6.78,1.02,3.66-.56,5.66-3.73,6.63.84,2.13,1.24,5.56,2.63,6.06,4.57,1.64,4.31,5.09,4.35,8.66.05,4.69,0,9.38,0,14.08,3.34-.24,5.9,1.15,6.09,4.72.16,2.96,1.27,7.12-3.58,7.68,1.12,5.1,2.23,10.21,3.39,15.5.5-3.29.97-6.38,1.88-12.38,3.66,11.99,15.59,18.58,8.33,31.32-4.66-4.65-8.85-8.82-13.04-13-.79.66-1.57,1.33-2.36,1.99,4.62,5.88,9.16,11.84,13.93,17.59.84,1.01,3.22,2.06,3.93,1.59,6.82-4.56,8.63,1.5,11.92,5.27,4.65,5.32,7.18,11.34,7.93,18.36.07.69,1.67,1.21,3.16,2.22.84-3.26,1.53-5.92,2.72-10.53,9.81,8.98,1.3,19.77,6.79,26.85-2.24,1.15-3.6,1.81-4.9,2.57-.17.1-.08.68-.16,1.61,21.09,8.29,22.96,26.71,22.38,46.36.68-.19,5.49-4.76,5.86-5.63,1.61.93,3.22,1.86,4.82,2.78.03,1.45-.4,3.11.21,4.08,5.51,8.59,13.5,15.76,13.68,27.15,9.94-2.88,10.99-2.34,13.96,6.5.38,1.14,1.01,2.19,1.37,3.34,3.84,12.34,8.78,23.26,24.65,20.31.3-.06.66.23,1,.39,2.99,3.68,11.66,19.76,13.02,24.13.47,1.53,1.12,3,1.69,4.5.08-.06.17-.11.25-.17,1.2,7.49,3.49,8.89,9.66,5.97-3.16-2.03-6.32-4.06-9.48-6.1,7.85-5.64,16.48-3.95,24.28,5.51-5.31,0-9.95,0-14.6,0,2.45,1.2,4.89,2.42,7.36,3.58,11.91,5.59,24.83,10.03,27.34,26.04.14.91,1.51,1.81,2.49,2.35,6.05,3.34,12.15,6.58,18.24,9.85-.01-.03-.03-.05-.04-.08,3.55,2.27,7.18,4.33,10.52,6.8,5.52,4.08,10.95,6.76,18.26,4.8,2.58-.69,6.74,1.42,9.01,3.55,6.26,5.87,13.52,9.28,21.71,10.12,6.4.65,10.8,3.62,14.09,8.89,8.4-1.41,13.56,5.55,19.04,9.43,12.85,9.09,26.91,14.74,41.3,20.06.57-2.16,1.14-4.31,1.63-6.17,7.96-.67,14.92-.97,20.69,4.35,10.27-2.91,17.36,9.18,27.73,6.22.71-.2,1.91,1.94,2.82,1.88,3.78-.23,7.64-.54,11.26-1.58,1.09-.31,1.61-2.67,2.33-4.29,3.74,1.83,6.54,4.26,5.28,9.72-1.72.25-3.61.52-6.21.89,1.12,2.57,2.15,4.96,3.19,7.35,2.91-2.03,5.81-4.07,8.62-6.03,1.53,1.09,3.3,3.15,5.45,3.73,4.04,1.08,8.3,1.31,12.46,1.89,3.42.48,7.17,2.1,10.17,1.17,4.47-1.39,7.87-.37,10.85,2.38,7.71,7.13,17.55,7.89,26.95,10.12,2.11.5,4.05,1.74,6.07,2.65-1.42-2.57-2.84-5.15-4.69-8.5-10.33,3.58-17.44-3.08-24.36-11.47,8.65-5.72,17.21-4.97,25.83-3.81,3.47.47,7.42,2.15,10.35,1.05,9.62-3.63,18.54-1.23,27.71,1.31,2.43.67,5.26.43,7.8-.02,4.57-.82,9.11-1.94,13.58-3.26,7.76-2.3,16.82-.08,23.33-6.56,8.05-8,18.31-9.53,28.8-11.72-.21,2.31-.34,3.82-.48,5.4,3.99.63,10.03-5.04,11.49,4.73,5.02-9.82,12.26-14.71,22.09-12.73-2.45-11.47,11.13-10.38,12.31-18.08,5.89-.13,10.93-7,18.81-2.54-3.87,3.5-6.84,6.19-9.8,8.89,4.71-.94,8.36-3.42,12.11-5.75,1.15-.71,3.2-1.81,3.74-1.35,4.18,3.49,6.49-.55,6.79-2.82.61-4.59,3.57-5.93,6.74-7.45,7.81-3.77,15.66-7.44,23.55-11.19.64,2.26,1.09,3.84,1.54,5.42.52-.08,1.05-.16,1.57-.23.49-2.99.99-5.98,1.4-8.46,3.7-.96,6.98-1.81,10.25-2.66-.14-.53-.29-1.06-.43-1.59h-7.34c3.39-4.55,5.26-8.71,8.43-10.92,4.75-3.31,10.3-5.54,15.71-7.7,8.72-3.47,17.63-6.44,24.11-13.92l.33.46h0s0,0,0,0c.1-.04.2-.08.31-.12-.09-.05-.19-.1-.28-.14.37-3.24,0-6.93,1.46-9.53,2.31-4.1,6.31-2.27,10.38,4.5-.11.19-.22.38-.33.57.18-.07.36-.15.54-.22l-.21-.35c4.44-3.8,9.24-6.49,15.25-7,2.34-.2,6.31-1.97,6.49-3.43.67-5.33,5.32-8.53,6.01-13.61-.17.16-.34.31-.51.47,2.9-7.52,6.96-14.84,8.27-22.64,1.78-10.62,9.48-15.06,16.28-20.93,2.83-2.44,5.43-5.29,7.61-8.35,3.25-4.58,6.61-7.63,12.23-3.9-1.37,2.86-3.04,5.61-4.06,8.59-2.36,6.86-6.25,12.03-13.33,14.13,0,0-.11.05-.14.05.07.04.14.09.22.13,0-.05,0-.08-.02-.13,11.62.71,15.85-8.48,20.5-16.74.6-1.07-1.59-3.79-2.48-5.74,12.69.65,15.49-1.77,17.29-14.92-1.73-.23-3.46-.47-5.62-.76,5.04-6.87,8.44-16.18,14.37-18.41,7.71-2.9,8.59-12.83,17.94-14.33-1,3.84-1.7,6.47-2.92,11.17,6.91-5.85,8.1-12.99,5.27-17.05-4.93-7.09-1.02-8.84,3.64-11.53,1.47-.85,3.16-1.6,4.19-2.86,4.37-5.33,8.54-10.84,12.51-15.93-.5-.87-2.7-3.02-2.3-4.34,2-6.6,4.62-13.04,13.29-14.6-4.77-2.1-6.47-4.24-4.71-8.85,4.8-12.55,4.61-12.63,10.43-13.33-.6,3.32-1.19,6.63-1.79,9.94,5.21-11,8.31-22.72,13.78-33.13,5.38-10.23,2.79-24.41,14.82-31.32.97-.56,1.28-2.9,1.34-4.43.17-4.53.06-9.07.06-13.72-1.21.9-2.25,1.68-3.72,2.78-2.39-8.32-1.23-15.38,4.17-21.56,5.51-6.3,8.38-13.97,7.93-22.05-.37-6.65,2.16-11.52,5.14-16.66,1.03-1.77,1.95-3.6,3.59-6.64ZM43.41,385.67c-1.2,2.7-2.41,5.4-3.85,8.64q-3.15-5.75,3.85-8.64ZM35.62,410.75c.74.11,1.47.21,2.21.32-.22,1.58-.45,3.17-.67,4.75-.68-.1-1.35-.19-2.03-.29.16-1.59.33-3.19.49-4.78ZM34.75,422.98c.83,2.66-.63,6.08-2.11,9.19-3.64-3.97-2.33-10.08-7-12.85,3.68-.34,7.74-.7,9.11,3.67ZM32.04,551.11v12.58c-6.09-4.77-4.54-8.14,0-12.58ZM17.47,513.12c.29-5.45.35-10.39,7.71-9.29.78,8.65.67,8.68-7.71,9.29ZM25.21,503.45c-2.12-2.89-4.28-5.83-7.2-9.83,3.22-1.01,5.7-1.78,8.64-2.7,1.6,5.14,2.41,9.12-1.44,12.53ZM24.55,454.42c.66,2.16,1.31,4.32,2.07,6.81q-2.96-1.88-2.07-6.81ZM13.93,444.11c.61-.73,1.21-1.46,1.82-2.19,3.69.69,5.7,2.75,4.86,8.8-2.8-2.77-4.74-4.69-6.68-6.61ZM15.8,537.81c-1.92,2.08-3.84,4.16-5.76,6.23-.26-7.55.4-8.31,5.76-6.23ZM22.53,538.18c-2.22-.18-4.24-.34-6.25-.5.22-2.95.44-5.92.71-9.62,5.9,1.57,5.73,5.4,5.53,10.13ZM23.4,550.45c.41-1.92.81-3.84,1.22-5.76.73.19,1.46.38,2.19.57-.51,1.88-1.03,3.77-1.54,5.65-.62-.15-1.25-.3-1.87-.46ZM28.5,630.66v-8.11q4.23,4.08,0,8.11ZM28.76,618.06c-.34-2.19-.79-4.38-.89-6.59-.01-.25,1.93-.59,2.96-.88.6,2.28,1.21,4.57,1.81,6.85-1.3.21-2.59.41-3.89.62ZM33.36,584.32c-.07.23-.74,2.25-1.71,5.2-8.58-6.92-5.22-15.54-6.25-24.48,6.05,7.07,14.13,10.67,15.16,19.82-2.1-.22-4.28-.36-7.2-.55ZM37.47,593.72c.72-2.95,2.06-5.75,3.14-8.61q4.08,10.76,2.23,17.11c-4.58-1.04-6.48-3.93-5.37-8.5ZM44.47,619.64c1.25,8.23,2.31,15.28,3.72,24.57-10.5-14.09-10.76-15.78-3.72-24.57ZM39.99,646.63q4.87,3.34,5.62,12.41c1.86-.94,3.45-1.73,5.76-2.9,1.11,4.93,2.18,9.65,3.38,14.93-11.67-2.02-15.33-8.72-14.75-24.44ZM52.51,649.97c-.87-.35-1.75-.69-2.62-1.04-.03-3.91,1.07-7.21,7.2-10.37-2.07,5.15-3.33,8.28-4.58,11.41ZM53.89,377.33c-2.57-5.65-.13-7.55,1.84-9.63.78.49,1.56.99,2.33,1.48-1.15,2.24-2.29,4.48-4.17,8.16ZM66.48,663.62c.9,2.18,1.67,4.05,2.97,7.19q-7.51-1.83-2.97-7.19ZM73.4,677.93c.73-.54,1.46-1.08,2.19-1.63,1.56,2.76,3.12,5.52,4.69,8.28-5.77.95-6.09-3.06-6.88-6.65ZM80.58,685.14c1.33,2.48,2.62,5.03,4.27,8.29-6.4-2.24-6.61-2.34-4.27-8.29ZM97.77,764.41c.17-2.78.33-5.63.6-10.16,3.68,2.61,5.61,3.97,7.56,5.35-3.22,1.86-5.72,3.3-8.17,4.81ZM139.87,799.91c2.26,1.54,4.15,2.82,6.59,4.48q-6.72,2.25-6.59-4.48ZM112.86,767.92c-.67-1-.14-2.85-.14-4.32.89-.26,1.77-.52,2.66-.78.94,2.06,1.87,4.12,4.05,8.9-3.94-2.18-5.78-2.62-6.57-3.8ZM121.36,785.89c-2.23-.71-4.46-1.41-6.68-2.12.06-.44.12-.88.18-1.33,2.29.18,4.58.37,6.86.55-.12.96-.24,1.93-.36,2.89ZM124.03,224.4c-2.66-4.43,1.83-11.03-4.98-12.5,3.89-2.64,7.51-6.97,13.15-1.65-2.56,4.43-5.17,8.95-8.17,14.16ZM139.62,818.21c-4.41-3.61-6.84-11.71-4.34-19.43.97,9.9,7.58,13.2,12.54,17.7-2.62,4.22-5.29,4.12-8.21,1.73ZM152.56,826.33c.2-1.65.3-4.44.65-4.47,2.72-.27,5.49.05,10.87.31-5.01,4.02-7.61,6.54-11.53,4.17ZM169.89,847.08c-1.77-3.52-3.53-7.04-5.71-11.39q9.87,1.91,5.71,11.39ZM209.1,859.52c2.41.41,4.82.83,7.24,1.24-.13.72-.25,1.44-.38,2.17-2.4-.5-4.79-1-7.19-1.49.11-.64.22-1.28.33-1.92ZM232.47,901.74c-5.7-11.38-18.69-16.46-24.19-29.94,3.38.67,6.96.26,8.54,1.88,6.03,6.2,11.19,13.28,17.13,19.58,3.91,4.14.9,6.04-1.49,8.48ZM257.62,908.35c-3.23-1.36-5.88-2.48-10.78-4.54,6.05-1.31,9.25-2,13.58-2.93-1.09,2.93-1.83,4.9-2.8,7.48ZM296.82,921.7c-.2-1-.39-2-.59-3,2.67-.5,5.33-1.01,8-1.51l.53,2.75-7.94,1.76ZM333.75,45.85c-.17.17-.36.3-.53.48,2.47-.92,4.94-1.83,7.41-2.75-3.88,7.43-8.76,12.58-19,9.05,4.64-2.6,8.38-4.69,12.12-6.77ZM342.22,945.38c-7.54-1.46-14.63-5.38-21.92-8.19-4.49-1.73-4.19-4.91-2.71-9.14,1.71.16,3.73-.28,4.54.53,7.57,7.6,17.55,7.72,27.01,9.31,7.81,1.31,15.74,2.05,21.74,10.46-10.88,3.3-19.72-1.25-28.65-2.97ZM384.27,51.79c1.12-8.68,5.68-6.06,10.66-3.55-2.4,4.96-6.15,4.69-10.66,3.55ZM424.14,33.39c1.85.68,3.7,1.37,5.55,2.05-.17.57-.33,1.14-.5,1.7-1.91-.55-3.83-1.09-5.74-1.64.23-.71.45-1.41.68-2.12ZM410.32,38.7c2.51-8.28,5.67-8.28,11.95-2.83-4.71,1.11-7.69,1.82-11.95,2.83ZM422.28,965.24c4.67-5.36,7.38-1.81,10.23.49-3.1-.15-6.25-.3-10.23-.49ZM448.39,966.3h-6.27c-.1-.58-.21-1.16-.31-1.74,2.17-.26,4.34-.55,6.51-.73.2-.02.59.57.63.9.04.34-.24.73-.57,1.57ZM469.67,980.65h-5.79c.11-.99.22-1.97.33-2.96,1.81.27,3.63.48,5.4.89.16.04.04,1.35.05,2.07ZM476.23,971.7c-.36-.92-.72-1.84-1.08-2.76,2.37-.94,4.75-1.87,7.12-2.81l1.02,2.6c-2.35.99-4.71,1.98-7.06,2.97ZM517.67,28.7h12.21c-8.18,4.07-8.51,4.22-12.21,0ZM553.57,32.51c-3.51-.75-7.01-1.5-10.52-2.25.15-.83.3-1.65.45-2.48,3.47.48,6.93.97,10.4,1.45l-.33,3.28ZM562.74,951.71c-.35.15-1.83-1.37-1.99-2.27-.11-.61,1.19-1.48,2.06-2.45,1.16.93,1.99,1.6,2.81,2.27-.94.87-1.78,1.99-2.88,2.45ZM557.13,37.91c0-.4-.01-.8-.02-1.21,3.97-.49,7.93-.98,11.9-1.47.03,1.18.06,2.36.09,3.54-3.99-.29-7.98-.57-11.97-.86ZM627.2,48.71h10.56c-3.34,3.48-6.55,8.59-10.56,0ZM630.77,956.56q-.47-7.24,7.28-4.26c-2.73,1.6-4.87,2.85-7.28,4.26ZM659.32,50.85c1.24-.66,2.43-1.45,3.74-1.9.31-.11.99.87,3.16,2.92-3.51-.52-5.21-.77-6.9-1.01ZM682.2,921.57c5.62-3.38,9.49-5.7,13.36-8.03-1.36,6.78-4.13,11.07-13.36,8.03ZM694.85,910.9c-.65-.64-1.3-1.28-1.95-1.92,1.85-1.45,3.71-2.89,5.56-4.34.35.39.71.78,1.06,1.17-1.56,1.7-3.11,3.4-4.67,5.09ZM748.76,72.23c2,1.16,3.99,2.33,5.99,3.49-.69.97-1.38,1.95-2.07,2.92-1.77-1.4-3.53-2.8-5.3-4.2.46-.74.92-1.47,1.38-2.21ZM708.31,60.88c2.16-1.21,3.68-2.06,5.18-2.92,1.43,2.43,2.87,4.88,4.48,7.6-5.88,3.87-6.29-2.06-9.66-4.68ZM714.76,907.84c-.11-.61-.22-1.21-.34-1.82,2.3-.45,4.59-.9,6.89-1.35.12.65.23,1.31.35,1.96-2.3.41-4.6.81-6.9,1.22ZM713.93,75.64c9.12-1.62,10.11-1.31,14.09,3.64-5.98,4.07-9.26-3.14-14.09-3.64ZM726.54,69.68c9.67-3.24,13.47-1.67,18.49,7.2-9.81,6.82-11.71-5.12-18.49-7.2ZM743.91,84.51q8.63-.4,15.3,9.27c-9.43.17-11.19-.9-15.3-9.27ZM764.41,85.52c-5.16-.52-5.28-5.31-7.25-8.34,1.12-.73,2.24-1.47,3.35-2.21,1.63,3.23,7.66,4.73,3.9,10.55ZM773.16,98.3c2.72,4.54,3.87,6.02,3.68,6.22-.89.98-2.07,1.86-3.31,2.24-.38.12-1.78-1.45-1.79-2.26-.01-1.53.64-3.07,1.42-6.2ZM769.75,876.9c2.65-4.55,5.04-9.78,13.6-5.58-6.02,2.47-9.81,4.02-13.6,5.58ZM790.89,859.35c-.27-.86-.53-1.73-.8-2.59,2.16-.79,4.31-1.59,6.47-2.38.27,1.1.54,2.21.82,3.31-2.16.55-4.32,1.11-6.48,1.66ZM795.67,852.61c-.49-.44-.97-.88-1.46-1.32,1.29-1.66,2.58-3.33,3.87-4.99.7.73,1.4,1.46,2.1,2.19-1.5,1.37-3.01,2.75-4.51,4.12ZM824.36,825.85c2.67,6,.67,8.68-3.34,10.03-.9-.72-1.79-1.44-2.69-2.15,2.01-2.62,4.02-5.25,6.03-7.87ZM815,113.92c-1.68,6.34-4.97,5.45-7.74,5.69-.34-.96-.68-1.91-1.02-2.87,2.46-.79,4.92-1.58,8.76-2.82ZM810.14,860.51c.41-3.19.67-5.14,1.13-8.71-3.37.76-6.27,1.41-9.11,2.05,3.24-12.11,9-16.36,21.93-15.66.62,2.42,1.28,5,1.95,7.59-4.88,4.52-9.81,9.08-15.89,14.72ZM874.22,175.81c-9.06-2.69-16.15-7.13-21.28-14.18-1.04-1.43.5-4.82.85-7.31.93-.08,1.86-.17,2.79-.25,1.1,1.91,2.81,3.71,3.17,5.76.83,4.7,3.26,7.08,7.77,6.46,8.01-1.1,7.22,3.67,6.7,9.51ZM891.35,203.45v-9.55q2.22,4.55,0,9.55ZM903.28,736.62c-.71-.19-1.41-.39-2.12-.58.56-2.07,1.11-4.14,1.67-6.21l2.04.56c-.53,2.08-1.06,4.15-1.59,6.23ZM932.2,257.19c1.9,6.5,3.8,13.01,6.23,21.3-10.75-6.4-6.53-14.27-6.23-21.3ZM950.62,313.89c-.29-1.99-.58-3.97-.87-5.96.76-.13,1.53-.25,2.29-.38.34,1.98.68,3.96,1.01,5.94-.81.13-1.62.26-2.44.39ZM971.36,406.96c.96,1.5,1.92,3,2.88,4.5-.71.43-1.42.86-2.13,1.29-.78-1.6-1.55-3.21-2.33-4.81.53-.33,1.05-.65,1.58-.98ZM966.98,632.69c-.55-.2-1.1-.39-1.65-.59.5-1.52.98-3.05,1.57-4.54.02-.04,1.15.38,1.77.59-.56,1.52-1.12,3.03-1.69,4.55ZM968.14,590.12c-5.42-7.77,5.67-9.92.98-16.47,1.42.42,2.85.85,4.27,1.27-1.64,4.73-3.27,9.47-5.25,15.2ZM977.91,535.75c-.57-5.9-8.19-9.71-3.39-19.07,2.26,7.26,3.99,12.81,5.72,18.37-.78.24-1.56.47-2.33.71ZM981.92,562.04c-.15-2.6-.3-5.19-.55-9.48,5.29,4.14,2.55,6.81.55,9.48Z"/>
        <path class="cls-1" d="M515.9,999.99s0,0,0,0c0,0,0,0,0,0,3.58-1.87,7.16-3.73,10.74-5.6-.55-.84-1.1-1.67-1.65-2.51-3.03,2.7-6.07,5.4-9.1,8.1-.01,0-.02-.01-.04-.02,0,.01.01.02.02.03h.03Z"/>
        <path class="cls-1" d="M366.62,965.71s0,0,0,0c0,0,0,0,0,0,6.59,1.63,13.17,3.26,19.75,4.89-6.1-4.28-11.93-10.05-19.78-4.9,0,0,0,0,0,0,0,0,0,0,0,0h.03Z"/>
        <path class="cls-1" d="M18.5,619.81c-.11,0-.21,0-.33.01l.33.12s0-.09,0-.13Z"/>
        <path class="cls-1" d="M48.52,687.71c-.15-1.43-1.07-2.79-1.64-4.17-4.9,12.64-.41,22.5,4.51,33.56.88-1.82,3-4.5,2.45-5.34-4.84-7.4-4.48-15.82-5.32-24.04Z"/>
        <path class="cls-1" d="M502.54,14.51c-3.37-.75-6.7-1.65-10.05-2.49,6.82,9.74,16.09,12.53,27.09,10.42-1.12-2.18-2.17-4.24-2.52-4.94-5.85-1.2-10.2-2.04-14.52-3Z"/>
        <path class="cls-1" d="M306.28,936.31c.06.05-.1-.1-.1-.1-.06.01-.11.03-.17.04.09.02.18.04.27.06Z"/>
        <path class="cls-1" d="M299.52,935.35c-6.19,2.7-10.46,0-14.59-4.12-1.24-1.23-2.65-2.29-6.02-5.17,3.51,5.54,5.54,8.73,7.54,11.9,6.95,4.73,13.11-.35,19.57-1.71-2.25-.46-4.78-1.65-6.5-.9Z"/>
        <path class="cls-1" d="M844.4,817.99c.58.94,1.15,1.86,1.72,2.78,2.52.56,5.14.86,7.52,1.79,4.97,1.94,5.91-1.54,7.33-5.26-2.64-1.57-5.18-3.08-7.69-4.59,1.91,9.96-7.57.64-8.89,5.29Z"/>
        <path class="cls-1" d="M401.56,987.01c.09.64.19,1.28.28,1.92,5.89-.93,11.79-1.87,17.68-2.8-.14-.85-.28-1.71-.41-2.56-5.85,1.15-11.7,2.3-17.55,3.45Z"/>
        <path class="cls-1" d="M531.98,988.77c6.19.48,12.38.96,18.57,1.43l.08-1.44c-6.15-.83-12.29-1.66-18.44-2.48-.07.83-.14,1.66-.21,2.49Z"/>
        <path class="cls-1" d="M68.18,284.68c-2.64,5.14-8.01,6.31-4.79,11.78,2.28-1.15,4.56-2.3,6.83-3.44-.49-2.01-1-4.07-2.05-8.34Z"/>
        <path class="cls-1" d="M986.55,408.36c-.82-3.84-1.64-7.69-2.46-11.53-.79.17-1.58.35-2.37.52.62,3.84,1.23,7.68,1.85,11.51,1-.17,1.99-.34,2.99-.51Z"/>
        <path class="cls-1" d="M793.97,877.77c1.79-3.07,3.24-5.56,4.66-8.01-3.74,1.53-7.48,3.07-11.23,4.6,2.05,1.06,4.14,2.14,6.56,3.41Z"/>
        <path class="cls-1" d="M20.78,387.99c-4.09,2.82-4.43,6.1-.02,9.08,2.27-3.92,4.53-7.84,6.8-11.76-2.32.8-4.81,1.33-6.77,2.68Z"/>
        <path class="cls-1" d="M123.93,818.74c.58-.87,1.17-1.74,1.75-2.6-2.56-1.28-5.11-2.56-10.21-5.1,4.24,3.86,6.35,5.79,8.46,7.71Z"/>
        <path class="cls-1" d="M286.15,937.97c.12.04.25.08.37.12l.02.02s-.06-.1-.09-.15c-.05-.03-.09-.05-.14-.08-.05.03-.11.06-.16.09Z"/>
        <path class="cls-1" d="M286.15,937.97c-3.34-1.1-6.73-2.2-12.3-4.02,4.75,6,8.28,6.28,12.3,4.02Z"/>
        <path class="cls-1" d="M0,548.16c.2.98.4,1.97.6,2.95,1.88-.69,3.77-1.36,5.61-2.16.07-.03-.51-2.05-.62-2.04-1.88.32-3.73.8-5.59,1.25Z"/>
        <path class="cls-1" d="M11.19,590.63c-.01.17-.03.35-.07.51.14-.04.26-.09.4-.13,0-.02-.02-.05-.03-.07-.09-.1-.2-.21-.3-.31Z"/>
        <path class="cls-1" d="M13.7,581.39c-5.13-3.05-7.39-.95-6.54,4.45.28,1.77,2.51,3.23,4.04,4.8.23-3.25-4.35-7.83,2.51-9.25Z"/>
        <path class="cls-1" d="M615.78,977.76c.09.31.18.61.27.92,2.87-.49,5.73-.98,8.6-1.47-.05-.69-.1-1.39-.15-2.08-2.91.88-5.81,1.75-8.72,2.63Z"/>
        <path class="cls-1" d="M56.66,727.63c1.8,2.39,3.6,4.79,5.4,7.18.68-.66,1.36-1.33,2.04-1.99-2-2.17-3.99-4.33-5.99-6.5-.48.44-.96.87-1.44,1.31Z"/>
        <path class="cls-1" d="M20.47,631.63c.04.21.08.42.12.63.15-.01.28-.03.42-.05-.01-.06-.03-.13-.04-.19-.19-.13-.33-.26-.5-.39Z"/>
        <path class="cls-1" d="M20.47,631.63c-.73-3.75-1.46-7.5-2.19-11.25-2.31,4.4-1.91,8.22,2.19,11.25Z"/>
        <path class="cls-1" d="M18.18,619.82l.11.56c.08-.15.13-.29.22-.44,0,0-.33-.12-.33-.12Z"/>
        <path class="cls-1" d="M309.77,950.82c.02.55.04,1.1.06,1.65,1.67-.09,3.33-.18,5-.27-.02-.46-.03-.92-.05-1.37h-5.01Z"/>
        <path class="cls-1" d="M296.04,948.85c1.59,1.76,3.19,3.51,4.78,5.27.67-.63,1.34-1.27,2.01-1.9-1.49-1.81-2.97-3.61-4.46-5.42l-2.33,2.05Z"/>
        <path class="cls-1" d="M476.11,1.86c-.29-.59-.57-1.18-.86-1.77-1.61.8-3.22,1.6-4.83,2.4l.87,1.81c1.61-.81,3.21-1.62,4.82-2.43Z"/>
        <path class="cls-1" d="M148.59,834.53c1.8.9,3.61,1.79,5.41,2.69.19-.39.38-.78.56-1.17-1.8-.9-3.6-1.8-5.4-2.69-.19.39-.38.79-.58,1.18Z"/>
        <path class="cls-1" d="M10.78,567.11s-1.3.04-1.31.15c-.21,1.83-.32,3.67-.45,5.51.87-.06,1.73-.12,2.6-.18-.26-1.83-.51-3.65-.84-5.47Z"/>
        <path class="cls-1" d="M674.56,952.2c-.1.11.82,1.54.95,1.49.94-.36,1.8-.95,2.72-1.48-.58-.83-.96-1.37-1.34-1.9-.8.61-1.65,1.17-2.33,1.89Z"/>
        <path class="cls-1" d="M978.98,371.07c.08-.77.16-1.55.24-2.32-3.07.17-6.14.34-9.21.51h-.12s0,.06,0,.09c.03-.02.07-.05.1-.07,3.03.61,6.01,1.2,9,1.8Z"/>
        <path class="cls-1" d="M831.39,851.63c-.9-.06-1.84.46-2.76.74.27.61.51,1.7.83,1.73,1.02.09,2.08-.22,3.27-.4-.55-.91-.91-2.04-1.34-2.07Z"/>
        <path class="cls-1" d="M845.28,828.94c.35-4.08.51-6.03.67-7.85-4.05.58-3.66,2.71-.67,7.85Z"/>
        <path class="cls-1" d="M845.95,821.09c.12-.02.2-.05.33-.06,0,0,0,0,0,0-.05-.08-.1-.17-.15-.25-.05-.01-.1-.02-.14-.03,0,.11-.02.23-.03.34Z"/>
        <path class="cls-1" d="M74.72,762.11c1.89,1.44,3.78,2.88,5.67,4.32.46-.77.92-1.54,1.39-2.31-2.04-1.17-4.09-2.33-6.13-3.5-.31.5-.62.99-.92,1.49Z"/>
      </g>
      <g class="cls-4">
        <path class="cls-2" d="M265.13,761.9c-14.83,5.24-26.98,12.31-42.3,24.62-3.65,2.94-18.99,19.14-22.85,24.13-2.43,3.15-4.79,6.18-5.28,6.78-1.24,1.53-7.4,10.91-9.27,14.11-14.78,25.31-23.94,51.01-28.52,80.04-2.24,14.22-2.96,25.19-2.49,38.37.47,13.35.96,18.9,1.63,18.8.3-.04,1-.89,1.58-1.92,3.49-6.12,16.82-18.19,27.09-24.54,4.7-2.9,15.32-8.5,20.54-10.82,4.2-1.87,18.91-7.51,22.61-8.67,2.27-.71,14.84-5.16,23.94-8.48,8.94-3.25,23.86-10.42,29-13.93,1.6-1.09,4.09-2.7,5.48-3.54,1.4-.85,5.48-3.97,9.05-6.92,13.63-11.28,28.85-28.92,37.51-43.46,9.47-15.9,9.63-16.37,4.84-14.2-15,6.8-33.95,8.76-53.15,5.52-6.05-1.02-13.36-2.82-22.35-5.48-5.11-1.52-10.63-3.13-12.24-3.58-1.6-.44-3.53-1-4.26-1.23-2.55-.8-9.33-2.69-10.69-2.98-1.33-.28-1.18-.51,3.83-5.77,8.15-8.57,11.68-14.54,18.58-31.42,5.24-12.81,7.05-17.1,8.85-20.89,2.51-5.32,2.4-5.77-1.14-4.52h0ZM237.19,834.24c6.17.78,9.65,1.42,13.57,2.51,1.18.33,3.62.84,5.48,1.15,3.67.61,4.16,1.58,1.06,2.1-1.06.18-2.58.76-3.41,1.31-1.73,1.14-5,1.26-9.05.34-7.98-1.82-24.16-2.22-36.39-.9-3.94.42-7.98.94-8.94,1.15-1.81.39-2.49-.51-.8-1.05.53-.17,3.56-1.26,6.81-2.44,6.34-2.32,12.08-3.66,18.68-4.36,6.08-.65,6.28-.65,12.98.19h0ZM238,852.43c-.2.33-.53.54-.83.54-.28,0-2.37.88-4.6,1.93-5.32,2.51-13.14,5.39-19.85,7.29-3.83,1.09-9.36,2.8-10.38,3.21-.59.24-2.71.98-4.79,1.68-2.05.69-5.85,2.19-8.46,3.34-2.61,1.15-4.81,2.02-4.9,1.93-.31-.31,1.92-2.3,6.17-5.51,9.28-7.01,21.81-12.36,33.25-14.18,5.32-.85,14.84-1,14.37-.23h0ZM244.77,867.49c-1.18,3.2-2.3,6.49-2.47,7.3-.53,2.43-1.44,1.79-1.07-.76.61-4.29,4.54-13.56,5.39-12.7.18.18-.65,2.96-1.84,6.16h0ZM232.94,866.76c0,.15-.44,1.09-.97,2.06-1.84,3.38-5.35,12.1-7.06,17.53-2.31,7.33-2.29,7.29-2.52,5.16-.59-5.39,3.46-16.33,8.69-23.5.95-1.3,1.86-1.91,1.86-1.25h0Z"/>
        <path class="cls-2" d="M649.28,533.44c-.87.61-4.36,2.45-7.72,4.07-14.58,7.06-19.48,10.16-25.86,16.38-6.06,5.91-11.67,14.63-14.12,21.95-.36,1.09-.81,2.01-.96,2.01s-.81-.92-1.46-2.06c-2.09-3.69-7.99-9.66-12.72-12.87-5.14-3.48-9.58-5.67-15.91-7.86-3.86-1.33-5.69-1.75-14.58-3.3-1.58-.28-6.09-.5-10.03-.5h-7.16l.31,2.01c.8,5.14.95,14.65.34,21.33-.36,3.96-.44,7.35-.18,7.58.53.46,15.06-.67,24.79-1.92,6.92-.89,8.77-.79,8.05.42-.21.36-.58,6.62-.81,13.95-.47,14.98-.77,19.62-1.48,22.95-.27,1.28-.77,4.18-1.11,6.4-.33,2.22-.83,4.93-1.09,5.97-.26,1.04-.76,3.26-1.09,4.88-.33,1.63-1.04,4.34-1.54,5.97-.51,1.63-1.24,4.09-1.61,5.43-1.52,5.44-7.36,17.64-11.45,23.88-3.16,4.82-11.28,13.61-16.49,17.86-5.59,4.55-8.99,7.1-9.47,7.1-.81,0-.32,1.57.59,1.86,2.55.83,13.98,14.36,18.03,21.36,1.48,2.55,2.29,2.94,2.29,1.09,0-3.35,5.39-15.47,9.45-21.22,4.86-6.89,19.28-18.99,19.28-16.17,0,.29-.48.7-1.01.87-1.23.39-11.56,10.58-13.48,13.3-4.23,5.98-6.97,13.4-8.17,22.09-.79,5.75-.66,9.12.45,11.29.31.6,2.36,3.36,4.6,6.19,2.24,2.82,4.29,5.44,4.59,5.86.65.9-.39,1.78-6.03,5.14l-3.94,2.35.27,2.44c.15,1.34.77,4.75,1.38,7.57.61,2.82,1.12,5.64,1.13,6.27.03,2.17.68,2.55,2.8,1.64,1.43-.61,3.99-.83,10.06-.84,14.69-.03,24.79-2.18,33.95-7.22,8.57-4.72,17.04-14.07,20.24-22.34.69-1.79,1.45-3.49,1.68-3.77.24-.29.43,2.55.43,6.35,0,5.7.19,7.4,1.14,10.01,4.5,12.44,18.33,21.98,36.37,25.07,9.15,1.57,11.25,2.27,14.1,4.72.9.78,1.76,1.3,1.89,1.17s.57-1.44.98-2.9c.41-1.46,1.98-5.48,3.48-8.9,5.18-11.83,9.08-25.88,9.08-32.72,0-8.3-2.25-18.37-5.32-23.82-2.32-4.12-2.08-4.72.63-1.57,6.58,7.62,10.31,15.36,12.36,25.67,1.19,5.97,1.08,15.16-.25,20.95-1.4,6.08-1.32,5.8-2.56,10.09l-1.08,3.74,6.23-.35c7.37-.41,7.13-.07-2.02,2.88l-6.12,1.97-1.99,4.02q-3.07,6.19,3.16,5.76c7.5-.52,16.43-1.39,20.17-1.98,3.72-.58,6.4-.66,5.91-.16-.75.75-11.71,5.3-17.4,7.23-7.82,2.65-10.12,3.24-14.37,3.7-2.61.28-3.5.6-3.62,1.3-.13.73.37.98,2.39,1.22,1.38.16,3.72.54,5.11.83,3.78.79,15.43.65,21.18-.24,2.74-.43,7.77-1.31,11.12-1.95,3.35-.64,7.44-1.26,9.05-1.38,3.33-.24,3.62-.45-4.74,3.47-7.66,3.6-13.95,6.07-15.43,6.07-1.6,0-4.84,1.13-4.84,1.68,0,.49,6.44.9,21.07,1.35,8.35.26,11.94.14,16.39-.54,3.14-.48,5.98-.87,6.33-.87,1.34,0-1.7,1.51-6.28,3.11-8.99,3.15-13.56,3.95-22.51,3.95-8.34,0-15.48-1.14-26.71-4.27-2.71-.76-12.91-4.4-13.99-5-.48-.27-1.18-.5-1.49-.5-1.65,0-25.59-11.96-36.93-18.44-9.47-5.42-18.69-13.24-23.75-20.14l-2.74-3.74-2.45,2.41c-9.06,8.92-20.7,13.68-40.49,16.58-9.2,1.35-13.83,2.96-20.64,7.17-1.86,1.15-3.48,2.03-3.56,1.95-.09-.09-.52-1.63-.96-3.42-.44-1.78-1.29-5.1-1.89-7.33-2.14-7.98-4.81-18.76-5.1-20.62-.52-3.33-.83-3.49-4.34-2.27-9.15,3.19-21.3,5.52-28.73,5.52-2.93,0-3.28.34-2.29,2.22.77,1.46,3.58,11.12,4.54,15.57,1.87,8.71,2.33,13.19,2.33,22.68,0,8.19-.21,10.86-1.31,16.55-1.21,6.24-3.37,14.58-4.54,17.47-.27.66-1.59,4.07-2.94,7.6-3.57,9.28-13.06,29.83-14.09,30.48-.59.38,1.8,6.8,4.64,12.44,11.04,21.98,25.74,38.59,46.71,52.8,7.94,5.38,22.03,13.1,33.25,18.22,4.52,2.06,18.1,7.39,21.02,8.25,1.76.52,3.61,1.16,4.12,1.43.53.28,1.05.49,1.2.49.47,0,.31-1.9-.21-2.44-.94-.98-3.13-8.68-4.1-14.38-.85-5.02-.95-8.44-.83-28.9.08-14.76-.09-25.23-.47-28.79-.85-7.87-2.16-15.24-3.71-20.73-.58-2.08-1.17-4.4-1.86-7.33-.21-.88-1.76-2.39-4.42-4.31-2.23-1.61-4.22-3.09-4.36-3.26-.15-.16-1.6-1.4-3.19-2.73-3.44-2.86-6.81-5.97-14.1-13.03-12.66-12.26-17.57-16.76-20.7-18.97-.64-.45-1.45-1.16-1.89-1.66-.59-.66-8.8-7.04-11.67-9.07-1.67-1.18,10.43,1.22,16.02,3.18,5.16,1.81,11.56,4.95,14.79,7.27,1.62,1.16,6.01,5.15,9.84,8.93,9.43,9.32,14.42,13.45,24.74,20.48,13.47,9.18,27.61,16.11,42.83,20.97,22.71,7.26,53.85,9.24,78.75,5,.89-.15,3.25-.54,5.32-.87,8.52-1.37,21.76-4.51,31.07-7.36,10.27-3.15,19.44-6.41,27.99-9.97,5.16-2.14,6.84-2.85,9.84-4.14,1.92-.82,4.76-2.08,6.38-2.81,1.6-.73,5.05-2.29,7.61-3.44,5.53-2.5,12.81-6.16,16.87-8.47,4.2-2.4,6.97-3.83,8.67-4.47,1.38-.52,1.57-1.66.27-1.66-1.39,0-18.62-9.24-23.41-12.55-1.65-1.14-3.2-2.1-3.41-2.1-.87,0-12.34-8.35-18.84-13.71-18.14-14.98-32.13-31.55-43.42-51.41-4.63-8.14-10.71-21.22-14.62-31.42l-2.35-6.13-4.26.3c-5.43.38-13.14-.72-19.85-2.84-3.09-.98-10.8-5.21-16.87-9.26-5.76-3.85-16.07-9.38-22.35-11.99-1.75-.73-5.21-2.37-7.66-3.64s-4.59-2.18-4.74-2.03c-.16.16-.18.34-.05.43.11.09.9.7,1.7,1.31,2.1,1.62,4.72,5.25,6.37,8.83,4.59,9.93,7.9,18.98,8.24,22.52.31,3.27.16,3.15-1.77-1.36-.83-1.93-3.2-5.94-5.26-8.87-2.06-2.93-4.52-6.47-5.45-7.84-2.44-3.58-9.03-10.76-9.47-10.31-.2.2.11,1.09.66,1.9,1.23,1.82,2.86,6.08,4.41,11.56.63,2.22,1.34,4.68,1.57,5.43,1.25,4.07,3.21,12.48,3.18,13.62-.02.84-2.63-2.12-2.64-2.98,0-.27-1.64-2.6-3.62-5.16-4.83-6.24-10.82-14.94-12.37-17.96-.7-1.36-1.5-2.78-1.81-3.2-.31-.42-.6-2.39-.66-4.4-.12-4.4-1.73-11.49-3.39-14.87-1.41-2.88-3.95-5.56-4.46-4.72-.69,1.13-.57,9.01.16,10.91,1.49,3.85,2.28,5.43,3.47,6.89.68.84,1.72,2.5,2.32,3.69,2.19,4.34,7.74,21.49,7.45,23.01-.32,1.69-9.51-11.88-11.08-16.39-.38-1.09-.87-2.01-1.08-2.01s-.51-.54-.67-1.19c-.16-.65-.44-1.06-.61-.9-.17.16-.09.9.19,1.6,1.14,2.93,1.8,7.5,1.44,9.93-.45,3.09-2.63,11.85-3.59,14.43-1.05,2.82-4.02,8.55-4.63,8.93-.56.35-.35-.68.55-2.69,3.39-7.6,4.11-20.66,1.49-27.13-.64-1.59-.67-1.52-1.38,2.71-.4,2.39-1.16,5.44-1.7,6.78-.55,1.36-1.4,3.83-1.92,5.56-.52,1.74-1.1,3.12-1.3,3.12s-.67-3.74-1.02-8.3c-1.11-14.22-1.45-15.59-2.81-11.4-.81,2.52-4.68,9.12-7.88,13.46-2.64,3.58-11.5,13.12-12.93,13.91-.59.33-.04-1.4,1.78-5.63,1.44-3.35,3.92-9.55,5.48-13.73,1.56-4.18,3.72-9.39,4.77-11.53,3.28-6.65,2.6-6.62-3.25.16-8.7,10.09-14.9,18.17-16.6,21.6-.8,1.63-1.66,1.99-1.66.71,0-1.55,4.16-13.73,5.88-17.2,2.09-4.23,4.39-7.78,6.57-10.15.9-.98,1.45-1.88,1.25-2.06-.19-.18-2.02.22-4.1.9-2.08.68-3.89,1.08-4.07.9-.49-.5,1.76-2.89,4.58-4.88,2.93-2.06,4.63-3.64,3.94-3.64-.26,0-1.81.49-3.41,1.09-2.98,1.11-5.85,1.42-5.85.65s2.34-2.74,4.36-3.61c1.06-.46,2.12-1.09,2.31-1.39.37-.59-.5-.53-9.22.6-4.9.63-15.88.67-16.25.06-.16-.27,1.09-.81,2.74-1.19,1.67-.39,6.86-1.88,11.55-3.31,4.68-1.43,9.89-2.9,11.57-3.26,1.7-.36,3.06-.84,3.06-1.09,0-.67-15.86-.59-20.38.11-3.94.61-11.86,3.14-15.43,4.93-1.12.56-2.21.9-2.37.74-.18-.18-.21-.38-.08-.49,1.16-1.05,9.9-7.03,12.18-8.34,5.85-3.35,14.21-5.72,19.85-5.63,1.97.03,3.56-.15,3.56-.4s-1.14-.89-2.53-1.41c-1.4-.52-5.03-2.17-8.11-3.67-7.45-3.62-11.82-5.26-15.11-5.64-1.49-.18-2.81-.41-2.93-.53-.81-.8,1.7-1.03,9.2-.88,8.51.18,11.04.62,14.79,2.6,4.43,2.34-.11-2.02-5.69-5.46-1.76-1.08-4.57-2.36-6.25-2.84-1.7-.48-3.06-1.1-3.06-1.38,0-.3,3.59-.43,8.65-.3,7.98.2,8.91.33,12.1,1.68,1.92.81,4.47,2.2,5.72,3.12,1.22.9,2.26,1.41,2.26,1.11,0-.74-13.09-12.98-16.92-15.82-1.81-1.34-3.26-2.58-3.27-2.79-.07-1,6.57-.02,12.85,1.88,2.99.91,4.34,1.74,7.74,4.79,2.29,2.05,4.19,3.62,4.28,3.53.32-.32-8.62-11.42-11.33-14.08-3.54-3.47-9.26-6.9-14.1-8.46-2.18-.7-4.55-1.49-5.21-1.75-.67-.25-2.05-.46-3.06-.46s-1.84-.28-1.84-.62c0-.44,1.06-.52,3.56-.29,11.55,1.09,22.87,6.79,32.51,16.36,4.47,4.44,6.41,5.86,4.74,3.49-.49-.71-1.07-1.68-1.26-2.12-.19-.45-.98-1.79-1.75-2.98-2.41-3.71-2.96-6.4-2.96-14.49,0-6.51.12-7.56.98-8.41.96-.95.97-.87.62,2.88-.7,7.42,1.35,13.35,7.53,21.76,2.51,3.42,3.91,4.99,3.91,4.4,0-.09-.36-1.36-.8-2.82-.44-1.47-.8-3.83-.8-5.26,0-3.09.95-7.92,1.65-8.36.55-.34,4.46,7.71,5.01,10.31.72,3.38.95,3.09,1.61-1.95.37-2.82,1.31-7.12,2.1-9.5,2.07-6.29,7.31-17.04,8.31-17.04q.64,0-.31,16.5c-.44,7.71-.66,14.2-.49,14.38.41.42,1.81-1.52,1.81-2.5,0-1.06,2.56-6.08,6.88-13.51,2.05-3.53,3.76-6.77,3.76-7.14s.28-.68.64-.68c1.17,0-.18,13.62-2.58,26.05-1.26,6.51-1.38,7.6-.88,7.6.26,0,.79-.87,1.15-1.9.79-2.22,7.69-9.78,8.48-9.29.35.22.29,1.63-.19,4.18-.53,2.82-1.23,4.58-2.63,6.57-1.07,1.52-1.82,2.81-1.7,2.93.12.12,1.28-.62,2.55-1.62,3.03-2.38,14.84-8.52,14.84-7.71,0,1.02-3.72,5.33-7.34,8.5-4.84,4.25-5.54,4.95-5.21,5.25.15.14,1.68-.62,3.43-1.7,1.76-1.08,3.3-1.95,3.46-1.95s1.89-.75,3.8-1.66c1.92-.9,3.74-1.58,4.02-1.49.28.09-1.78,2.47-4.55,5.26-2.77,2.79-4.95,5.22-4.82,5.37.13.15,1.52-.26,3.06-.9,1.55-.64,4.26-1.54,6.01-1.99,5.96-1.54,18.28-2.48,17.59-1.35-.16.27-2.13,1.21-4.42,2.12-2.26.89-6.89,2.89-10.24,4.42-3.35,1.53-7.06,2.95-8.19,3.15-1.12.19-2.18.65-2.29,1-.29.88,10.01,1.19,19.27.56,6.6-.44,13.65-1.37,17.98-2.36,3.31-.76.96.9-6.44,4.52-12.61,6.19-17.02,7.37-27.61,7.4-4.15.01-7.44.2-7.29.43.15.23,1.38.76,2.77,1.19,1.38.44,4.52,1.55,7.02,2.48,3.67,1.38,11.75,3.29,13.89,3.29.29,0,.48.17.48.43,0,.62-7.87,1.74-12.24,1.74-1.92,0-5.21-.38-7.4-.84-2.18-.47-4.2-.75-4.52-.64-.51.17,5.59,4.74,6.33,4.74.43,0,3.35,2.13,5.05,3.67.74.68,1.51,1.21,1.73,1.21s.4.38.4.87c0,.54-.29.76-.77.57-.43-.17-1.6-.45-2.66-.65-1.06-.2-2.02-.57-2.18-.84-.17-.28-.61-.49-1.04-.49s-2.34-.74-4.26-1.63c-1.92-.89-3.8-1.63-4.15-1.63-.82,0,7.72,8.32,10.64,10.37,1.22.86,2.39,1.57,2.58,1.57s1.04.5,1.84,1.09c2.36,1.72,11.92,6.45,16.92,8.36,8.56,3.28,26.28,4.66,35.76,2.78,19.38-3.85,35.1-14.02,52.24-33.83,3.29-3.8,8.92-9.9,12.54-13.59,3.62-3.69,6.48-6.8,6.36-6.92-.19-.19-2.23.41-4.9,1.44-.58.22-1.92.72-2.93,1.09-1.02.37-4.26,1.9-7.18,3.39-5.13,2.62-5.69,3.09-15.96,13.57-13.62,13.89-17.69,17.26-26.71,22.12-5.84,3.15-9.79,4.52-18.78,6.54-5.69,1.28-23.62.61-27.67-1.04-.44-.18,3.03-.49,7.72-.7,10.8-.47,16.37-1.85,26.12-6.46,10.34-4.89,18.67-12.21,33.37-29.36,3.72-4.34,7.82-8.56,9.14-9.41,1.33-.86,2.39-1.75,2.39-2.01s-.69-.74-1.49-1.07c-4.11-1.67-10.27-5.17-20.7-11.75-10.43-6.58-18.38-10.59-24.9-12.54-7.93-2.37-10.88-2.89-18.09-3.18-7.42-.3-8.14-.22-18.84,2.07-1.28.27-4.9,1.8-7.98,3.36-6.86,3.48-6.67,3.4-6.19,2.62.83-1.37,8.27-5.89,12.31-7.48,7.27-2.85,11.87-3.97,20.96-5.1,10.46-1.3,26.98,1.38,38.1,6.17,4.67,2.02,16.49,8.49,22.08,12.09,4.1,2.64,1.97.39-5.21-5.51-9.47-7.78-12.74-10.01-19.42-13.23-6.53-3.15-13.09-5.18-20.38-6.3-7.73-1.19-11.49-1.03-21.55.89-6.33,1.21-14.53,4.52-19.05,7.68-1.28.9-2.42,1.47-2.58,1.31-.16-.17.41-1.82,1.28-3.72,3.09-6.73,4.27-11.83,4.74-20.51.62-11.43-3.07-23.71-11.11-37.06-1.41-2.33-2.55-4.33-2.55-4.45,0-.71-3.98-6.24-4.13-5.75-.22.66,1.22,4.78,3.24,9.28,5.45,12.16,8.35,24.19,8.35,34.68,0,8.09-.77,13.02-3.31,21.33-1.08,3.53-2.51,5.3-1.79,2.22,2.4-10.23.72-24.26-4.23-35.27-.73-1.63-1.32-3-1.32-3.09s-1.52-3.42-3.4-7.43c-4.38-9.39-8.14-18.25-8.53-20.13-.17-.81-.54-1.52-.79-1.52s-2,.94-3.86,2.09c-1.87,1.16-5.99,3.49-9.23,5.23-23.62,12.66-32.37,22.72-37.51,43.15-.26,1.05-.76,4.5-1.12,7.71-.35,3.2-.85,5.67-1.12,5.51-.65-.4-.52-14.79.16-18.21.8-4.02,3.96-13.35,5.54-16.39,6.05-11.6,13.88-19.48,28.94-29.13,5.21-3.34,8.39-5.86,11.84-9.37,2.61-2.66,4.71-5.14,4.71-5.56,0-1-.48-.92-2.39.41h0ZM606.4,780.1c.03,1.23.27,3.47.53,4.88.27,1.44.75,4.18,1.09,6.13.63,3.64,1.34,7.04,2.16,10.31.27,1.06.75,3.09,1.1,4.61,1.07,4.61,5.17,16.94,6.92,20.78.91,2.01,1.88,4.22,2.16,4.94.44,1.14.4,1.21-.35.59-2-1.68-8.7-13.88-11.32-20.61-2.83-7.27-4.38-15.74-4.38-23.99,0-7.43.92-13.78,1.63-11.29.21.74.41,2.39.44,3.64h0ZM618.74,781.45c.56,3.09,1.26,6.68,1.57,8.03.31,1.36.75,3.29,1,4.34,2.11,9.17,6.62,23.56,9.2,29.3,3.53,7.87,6.11,12.96,8.35,16.44,1.29,2.01,2.22,3.76,2.07,3.91-.38.39-6.87-7.27-9.42-11.12-1.71-2.58-3.05-4.94-6.96-12.21-1.97-3.68-4.92-12.32-5.82-17.09-.31-1.63-.81-4.29-1.11-5.86-.57-3.04-.75-22.21-.2-21.65.18.18.77,2.82,1.33,5.91h0ZM632.46,789.97c1.12,5.86,5.01,17.36,9.66,28.54,1.94,4.67,5.12,11.17,6.4,13.08.87,1.3,1.56,2.45,1.56,2.6,0,.62,5.58,9.44,7.39,11.67,4.44,5.48,2.94,4.86-3.24-1.33-4.08-4.09-11.07-13.49-13.91-18.69-.74-1.36-2.01-4.21-2.8-6.27-.79-2.06-1.64-4.01-1.89-4.29-.24-.27-.45-1.09-.45-1.74s-.21-1.36-.45-1.52c-.25-.17-.61-1.09-.8-2.06-.19-.98-.58-2.85-.87-4.21-1.67-7.71-2.46-14.65-2.19-19.26.11-1.86.91-.11,1.59,3.47h0ZM646.33,796.4c.96,2.93,2.21,6.38,2.81,7.73,3.45,7.76,6.06,13.08,8.1,16.5,4.63,7.76,8.94,14.71,9.28,14.97.2.15.97,1.15,1.67,2.18,2.05,2.99,3.65,4.82,8.38,9.63,2.45,2.48,4.27,4.48,4.1,4.48-.7,0-6.33-3.96-10.06-7.07-2.16-1.81-5.58-5.3-7.58-7.74-2-2.44-4.01-4.87-4.46-5.37-1.02-1.16-7.05-11.56-8.11-14-2.79-6.4-4.81-13.34-5.69-19.54-.28-1.95-.65-4.31-.85-5.29-.2-1.03-.14-1.76.16-1.76.28,0,1.28,2.36,2.23,5.29h0ZM659.84,802.89c.96,2.96,7.19,13.13,11.67,19.05,1.97,2.6,4.58,6.06,5.81,7.71,3.33,4.45,14.65,15.76,19,18.98,2.13,1.58,3.74,2.93,3.62,3.05-.5.52-11.89-6.08-13.68-7.92-.14-.15-1.22-1-2.39-1.89-3.39-2.57-10.97-10.54-14.26-14.99-3.79-5.13-7.12-11.72-9.31-18.45-.94-2.88-1.7-5.48-1.7-5.81,0-.96.91-.76,1.25.27h0ZM679.17,813.53c7.16,8.85,19.85,21.95,24.65,25.46.73.53,2.98,2.19,5,3.68,2.02,1.49,5.07,3.51,6.78,4.48,1.7.96,3.11,1.96,3.11,2.2,0,.6-.92.49-1.32-.16-.18-.29-.7-.54-1.13-.54-1.29,0-10.69-4.72-14.84-7.45-10.36-6.81-19.19-16.64-24.84-27.66-1.11-2.17-2.03-4.08-2.03-4.23,0-1,1.45.33,4.61,4.23h0ZM761.87,816.01c2.77.58,6.95,1.35,9.36,1.73,4.95.78,5.36,1.58.8,1.57-5.16-.01-17.66-2.76-17.66-3.89,0-.71,2.08-.54,7.5.59h0ZM703.71,823.2c9.79,8.38,18.75,14.65,26.87,18.82,3.25,1.66,5.62,3.12,5.27,3.24-.98.32-11.17-3.54-16.18-6.13-6.81-3.53-11.88-7.22-16.44-11.99-3.9-4.07-8.99-10.19-8.99-10.8,0-.97,2.13.57,9.47,6.86h0ZM724.3,825.33c9.2,6.24,25.42,14.62,28.31,14.62.37,0,.69.25.69.54s-.37.54-.8.54c-1.44,0-10-2.54-12.77-3.78-6.44-2.9-10.75-5.1-12.88-6.58-3.46-2.41-9.14-7.49-9.83-8.79-.47-.89-.15-.82,2.3.49,1.54.82,3.82,2.18,4.97,2.96h0ZM749.05,827.89c3.67,1.47,8.92,3.34,11.71,4.17,8.14,2.41,8.04,2.36,5,2.42-2.61.05-9.2-1.34-13.78-2.9-5.69-1.95-13.57-6.22-13.57-7.36,0-.54,1.06-.17,10.64,3.68h0ZM540.79,840.74c9.26,1.66,18.01,5.72,26.66,12.38,2.71,2.09,5.07,4.01,5.22,4.25.52.84-8.36-2.15-11.6-3.91-.48-.26-1.23-.49-1.6-.49-2.66,0-26.43-11.32-26.44-12.59,0-.63,3.02-.49,7.76.36h0ZM544.78,859.65c4.94,6.24,16.98,24.82,16.98,26.21,0,.18.45.98,1.01,1.79,1.15,1.66,3.97,7.38,16.52,33.43,11.5,23.88,13.31,27.45,15.54,30.71,1.3,1.9,1.34,3.22.05,1.79-.51-.57-2.8-3.58-5.1-6.73-2.31-3.15-4.5-6.11-4.9-6.62-3.82-4.85-13.59-20.95-21-34.62-1.85-3.42-4.18-7.71-5.15-9.5-2.35-4.33-11.58-23.39-13.8-28.49-2.56-5.91-2.74-5.81-3.92,2.44-.34,2.39-.84,5.37-1.1,6.62-.27,1.27-.48,3.96-.48,6.08s-.19,3.92-.43,4.07c-.59.38-1.7-4.5-1.7-7.49,0-4.56,1.36-10.96,4.54-21.33.35-1.15,1.07-.76,2.96,1.63h0Z"/>
        <path class="cls-2" d="M683.6,59.95c0,.21.8,1.63,1.78,3.15,3.86,5.99,7.02,14.11,8.63,22.19,1.09,5.46,1.51,20.51.79,28.05-2.39,24.91-2.62,35.15-1.1,49.11.93,8.56,3.73,21.76,6.74,31.74,2.47,8.19,6.37,25.12,9.56,41.51,1.71,8.79,3.26,16.01,3.44,16.01s.48-3.12.67-6.92c.19-3.81.57-11.42.85-16.96.28-5.51.77-15.3,1.09-21.71.32-6.4.81-15.09,1.09-19.26.28-4.18.64-11.99.8-17.36.16-5.37.44-10.62.61-11.67l.32-1.9.43,1.9c.24,1.05.71,6.02,1.06,11.12,1.06,15.47-.28,64.52-1.92,70.11-.21.71-.14,1.25.14,1.25s.82-1.03,1.21-2.28c.71-2.28,1.64-4.56,4.5-11.02.8-1.8,2.48-5.81,3.76-8.95,1.28-3.15,3.3-8.01,4.52-10.85,6.34-14.81,10.6-28.35,12.82-40.7.96-5.37.98-25.69.03-29.85-.38-1.65-1.05-4.56-1.5-6.51-2.91-12.53-8.79-24.36-18.77-37.82-4.31-5.81-15.9-16.98-22.28-21.48-5.69-4.01-19.26-11.7-19.26-10.92h0Z"/>
        <path class="cls-2" d="M646.57,104.05c-3.14,1.95-3.89,5.87-1.85,9.73.35.66,4.04,3.49,8.24,6.32,7.5,5.05,13.35,10.25,18.33,16.31,2.64,3.21,2.89,2.66.51-1.14-4.28-6.84-13.21-24.12-13.21-25.56,0-.27-.87-1.52-1.96-2.82-3.14-3.74-6.9-4.8-10.07-2.83h0Z"/>
        <path class="cls-2" d="M541.01,112.72c0,.32.58,1.44,1.3,2.52,1.6,2.4,5.67,12.97,7.43,19.26,3.03,10.88,4.75,23.28,6.17,44.5,1.84,27.57,6.56,51.66,14.07,71.9,4.33,11.67,14.33,31.13,21.74,42.33,4.45,6.73,18.94,25.48,23.51,30.44,4.55,4.94,21.17,24.92,23.92,28.76,2.02,2.82,3.78,4.97,3.94,4.8.16-.16-1.75-4.48-4.27-9.63-13.14-26.86-20.58-42.33-22.23-46.23-1.01-2.39-2.47-5.81-3.24-7.6-.78-1.79-1.95-4.72-2.61-6.51-.66-1.79-1.39-3.74-1.63-4.34-3.9-9.84-7.91-23.77-11.07-38.53-1.15-5.38-1.68-8.47-3.31-19.26-.6-4.02-1.33-8.5-1.61-9.93-.65-3.31-.66-6.35-.02-6.35.26,0,.6.92.73,2.01,1,7.86,7.47,29.47,11.91,39.78.44,1.03,1.13,2.64,1.51,3.53.38.9,1.16,2.71,1.76,4.07.59,1.36,1.78,4.12,2.69,6.24.89,2.09,2.95,6.67,4.58,10.2,1.63,3.53,2.95,6.53,2.95,6.67s2.65,5.78,5.85,12.45c3.21,6.67,5.85,12.28,5.85,12.4s1.06,2.52,2.34,5.29c1.29,2.8,3.41,7.62,4.74,10.77,1.32,3.15,3.29,7.76,4.39,10.31,1.77,4.09,7.1,18.4,9,24.15,3.1,9.39,6.96,24.41,7.32,28.49.19,2.12,1.05,2.27,1.57.27.19-.72.62-5.16.96-9.88.8-11.03.08-25.02-2.18-42.49-1.41-10.89-6.69-35.98-10.62-50.47-.85-3.15-1.77-6.55-2.06-7.6-1.9-7.05-7.5-25.65-9.12-30.28-2.59-7.38-3.28-9.27-4.31-11.78-.62-1.52-1.29-3.19-1.52-3.8-1.39-3.74-7.52-16.77-9.66-20.51-1.74-3.04-1.88-3.73-.46-2.17.99,1.09,9.62,14.66,9.62,15.14,0,.12.56,1.14,1.23,2.22,7.3,11.93,17.37,34.89,22.55,51.44,1.04,3.31,2.18,6.94,2.56,8.14,6.23,19.43,10.03,45.91,10.08,70.16.01,7.22.16,13.13.32,13.13s1.05-2.85,2-6.38c.94-3.53,2.3-8.56,3.05-11.26,4.39-15.95,6.28-31.74,6.33-52.91.04-18.67-.66-24.61-5.04-43.14-3.69-15.57-7.83-26.37-16.03-41.78-5.08-9.55-5.36-10.02-9.97-17.04-9.71-14.76-20.47-26.99-34.94-39.71-7.02-6.18-24.24-18.95-25.54-18.95-.2,0-1.12-.57-2.02-1.27-3.75-2.88-15.22-9.27-24-13.38-7.66-3.58-9.68-4.47-14.1-6.23-2.5-1-4.94-1.97-5.45-2.18-.53-.22-.93-.14-.93.19h0Z"/>
        <path class="cls-2" d="M619.96,119.26c-2.16.95-3.93,3.74-3.92,6.19.02,4.51,2.64,6.89,7.59,6.89,1.7,0,4.11-.26,5.37-.58,3.54-.9,13.62,1.12,20.17,4.05.92.41,2.55,1.13,3.56,1.57,6.28,2.73,9.05,4.05,11.17,5.31,1.32.78,3.78,2.25,5.48,3.27,1.7,1.02,4.27,2.76,5.72,3.88,1.44,1.11,2.63,1.86,2.63,1.66,0-1.49-9.63-9.82-17.56-15.19-5.03-3.4-14.37-8.35-27.93-14.81-5-2.38-9.93-3.28-12.29-2.24h0Z"/>
        <path class="cls-2" d="M662.32,193.01c0,.24.67,1.38,1.52,2.58.83,1.17,2.24,3.5,3.12,5.13,4.88,9.12,7.54,14.28,9.21,17.91q2.6,5.64,5.84,7.63c3.3,2.02,11.48,8.4,14.53,11.32,1.06,1.02,1.97,1.65,1.97,1.37s-.72-3.45-1.61-7.03c-2.03-8.19-3.18-13.75-3.18-15.3,0-.82-.77-1.81-2.26-2.9-1.22-.9-2.87-2.12-3.59-2.67-1.78-1.35-11.28-8.18-17.56-12.62-2.77-1.96-5.51-4.09-6.06-4.71-1.06-1.19-1.92-1.51-1.92-.71h0Z"/>
        <path class="cls-2" d="M497.91,269.9c0,.12.47,1.03,1.03,2.01,3.74,6.5,6.41,15.79,10.42,36.25,4.35,22.25,9.31,35.55,18.5,49.65,10.05,15.42,21.34,26.27,42.52,40.84,20.86,14.35,42.15,35.28,50.48,49.62,1.01,1.74,2.04,3.15,2.31,3.15.52,0,.39-.54-1.27-5.16-.65-1.81-1.84-5.43-2.68-8.14-2.81-9.12-8.38-24.7-9.11-25.5-.24-.26-.45-.87-.45-1.3,0-1.32-10.33-22.19-14.34-28.98-6.96-11.78-15.9-23.55-25.95-34.19-2.46-2.6-4.42-4.87-4.31-4.99.51-.54,9.64,7.38,15.58,13.51,9.5,9.81,13.73,15.41,21.11,28,2.58,4.4,8.57,16.39,9.08,18.18.17.6,1.41,3.74,2.78,7.05,2.5,6.02,6.68,18.26,6.68,19.54,0,1.09,1.63,4.74,1.97,4.4.17-.18.05-2.12-.28-4.29-.61-4.02-1.11-7.76-2.22-16.39-1.07-8.3-2.66-16.23-4.81-23.88-.25-.88-.69-2.5-.97-3.53-1.24-4.55-5.01-14.81-7.58-20.62-5.31-11.99-12.17-23.57-19.29-32.56-9.72-12.27-27.31-27.72-41.83-36.75-2.18-1.36-5.29-3.33-6.86-4.36-7.5-4.91-18.3-11.09-28.31-16.2-10.06-5.14-12.18-6.07-12.18-5.36h0Z"/>
        <path class="cls-2" d="M900.86,36.34c-3.41.74-7.26,2.94-9.72,5.56-2.97,3.16-3.47,3.96-4.8,7.65-1.27,3.53-1.58,12.16-.54,14.87.33.84,1.08,2.66,1.68,4.07l1.09,2.55-2.08,2.88c-1.14,1.57-2.92,3.88-3.94,5.1-1.01,1.21-3.08,3.69-4.52,5.43-7.89,9.5-21.76,23.99-30.49,31.86-3.35,3.02-5.8,5.57-5.48,5.69.31.12,1.28-.29,2.08-.88,1.35-1,5.27-2.96,12.5-6.28,1.7-.78,3.19-1.41,3.33-1.41s1.28-.47,2.5-1.03c1.22-.56,3.12-1.33,4.12-1.68,1.01-.35,2.35-.86,2.93-1.11.59-.25,3.56-1.23,6.65-2.17,3.09-.94,6.3-1.93,7.18-2.2,7.56-2.31,20.26-5.94,22.61-6.47,4.52-1.01,4.71-1.1,3.46-1.61-1.34-.54-15.22-.12-20.48.62-6.01.85-12.6,2.65-16.92,4.63-5.01,2.29-5,1.77.05-3.29,5.5-5.5,10.01-10.81,14.95-17.59,2.37-3.26,4.56-6.35,4.87-6.89.5-.87.65-.88,1.38-.11.46.48,2.42,1.39,4.39,2.04,10.11,3.32,21.81-1.95,26.24-11.81,1.66-3.69,2.18-9.33,1.21-13.02-1.65-6.29-6.63-12.2-12.02-14.25-3.41-1.3-9.06-1.82-12.24-1.13h0Z"/>
        <path class="cls-2" d="M435.92,341.35c-12.02,2.38-15.71,3.55-23.04,7.3-3.3,1.69-6.13,3.29-6.28,3.54-.15.26.32.46,1.06.46s2.93.38,4.9.84c12.07,2.85,22.75,10.77,36.15,26.83,6.97,8.36,17.48,18.87,22.33,22.33,10.84,7.75,24.63,13.71,38.84,16.79,2.66.58,5.97,1.3,7.45,1.63,1.49.33,3.6.79,4.79,1.03,7.08,1.43,8.69,1.82,10.54,2.59,1.12.46,2.16.69,2.33.51.29-.3-1.06-2.01-1.59-2.01-.36,0-7.4-4.59-12.29-8.02-2.23-1.57-4.14-2.83-4.26-2.83-.41,0-7.61-4.58-13.09-8.32-7.29-4.98-16.97-12.35-18.63-14.2l-1.32-1.47,2.02,1.28c3.8,2.4,4.84,3,9.68,5.63,2.66,1.44,5.5,3.01,6.38,3.54,1.7,1,5.11,2.9,11.17,6.21,8.83,4.82,13.81,7.84,21.18,12.84,4.31,2.93,8,5.35,8.14,5.35.51,0,8.35,5.48,10.22,7.13,1.01.9,1.93,1.5,2.08,1.36.15-.13-.31-1.3-1.01-2.6-.7-1.3-1.71-3.83-2.24-5.62-.95-3.19-1.75-5.43-5.46-15.19-6.26-16.5-19.61-34.07-35.29-46.46-10.4-8.22-24.32-14.89-38.31-18.36-8.7-2.16-13.67-2.72-23.68-2.68-5.59.03-11.3.28-12.77.58h0Z"/>
        <path class="cls-2" d="M794.32,13.63c-.41.97-1.5,2.74-2.42,3.93-6.6,8.53-19.05,31.85-24.77,46.4-10.17,25.88-13.09,54.05-8.99,86.82,1.09,8.72,2.04,13.84,4.52,24.53l.85,3.64-1.86,3.42c-5.44,9.98-31.77,63.6-31.77,64.68,0,.12-1.63,3.69-3.63,7.98-4.24,9.06-5.94,12.84-5.94,13.19,0,.15-.58,1.57-1.28,3.15-4.6,10.36-11.53,26.86-13.86,32.99-.4,1.05-2.21,5.43-4.05,9.77-1.83,4.34-3.62,8.6-3.99,9.5-.37.9-1.79,4.56-3.17,8.14-1.38,3.58-2.86,7.33-3.3,8.33-.43.98-1,2.48-1.22,3.26-.24.8-1.17,3.5-2.09,6.05-2.96,8.19-3.71,10.36-7.71,22.52-2.16,6.57-5.15,16.21-6.64,21.43-1.49,5.21-3.11,10.84-3.59,12.48-.48,1.63-1.07,3.85-1.3,4.88-.23,1.04-.68,2.88-.98,4.07-.31,1.22-.79,3.36-1.09,4.88-.3,1.52-.78,3.91-1.09,5.43-.3,1.48-.79,4.07-1.06,5.7-.28,1.63-.76,4.22-1.06,5.7-.31,1.5-.77,4.29-1.04,6.24-.27,1.97-.73,5.21-1.05,7.33-2.13,14.13-3.16,31.09-3.19,52.15-.01,10.47.12,19.19.3,19.37.18.18.77.04,1.36-.33.85-.53,1.18-.46,1.81.41.42.58.77,1.55.77,2.14,0,1.63,6.03,12.37,9.72,17.31,3.52,4.72,4.71,4.98,3.72.81-3.47-14.51-3.83-63.76-.66-89.7.29-2.39.75-5.81,1.01-7.6.26-1.79.63-4.35.81-5.7.93-6.77,3.49-18.88,6.53-30.93,3.59-14.22,3.55-14.07,4.96-18.72.64-2.12,1.34-4.52,1.58-5.43,1.03-3.92,8.89-26.81,11.83-34.46,1.77-4.61,4.25-11.14,5.49-14.46,1.24-3.31,2.67-7,3.17-8.14.49-1.14,1.1-2.58,1.33-3.17.23-.59.79-1.95,1.22-2.98.44-1.05,2.76-6.89,5.16-13.02,2.4-6.13,4.94-12.42,5.64-14,.7-1.57,1.28-2.99,1.28-3.12s.46-1.28,1.02-2.52c3.53-7.87,9.63-21.75,12-27.3,1.53-3.58,4.1-9.32,5.71-12.75,1.6-3.42,3.36-7.22,3.88-8.41.53-1.19,1.86-4.12,2.97-6.51,2.44-5.26,14.85-33.88,14.85-34.24,0-.15,1.2-2.85,2.66-6,1.46-3.15,2.66-5.82,2.66-5.94s.73-1.74,1.64-3.64c10.23-21.33,20.55-48.4,23.92-62.78.66-2.82,1.4-5.65,1.63-6.24.61-1.57.62,8.47.02,11.29-.27,1.25-.79,4.12-1.14,6.35-.69,4.34-3.31,15.14-4.53,18.72-2.36,6.89-3.29,9.25-5.89,14.87-1.58,3.42-2.87,6.4-2.87,6.67,0,1.14,1.02.05,3.71-3.96,1.62-2.41,4.41-6.4,6.2-8.85,12.48-17.04,18.79-31.58,21.24-48.89,1.88-13.3.46-25.4-4.94-42.06-1.3-4.02-2.69-8.06-3.08-8.95-7.64-17.69-10.43-28.62-10.32-40.37.03-3.74-.14-6.86-.39-6.95-.25-.09-.78.62-1.2,1.6h0Z"/>
        <path class="cls-2" d="M833.91,45.16c-3.1.86-7.78,5.83-8.64,9.2-1.24,4.83-.6,9.11,1.97,13.13,1.63,2.55,5.47,5.63,7.53,6.04,1.53.3,1.54.33,1.54,4.35,0,2.22-.23,5.07-.51,6.32-.28,1.26-.79,3.85-1.14,5.81-2.24,12.48-6.15,25.72-9.61,32.5-.83,1.63-1.52,3.21-1.52,3.47s-.49,1.19-1.09,2.06c-.6.87-.9,1.57-.67,1.57.45,0,2.64-3.26,6.17-9.17,8.1-13.56,12.09-25.88,13.96-43.09.35-3.2,1.27-4.72,2.86-4.72.52,0,2.02-.95,3.3-2.09,5.36-4.79,6.91-12.61,3.65-18.42-1.65-2.95-4.98-5.81-8.12-6.99-2.11-.79-6.81-.78-9.68.01h0Z"/>
        <path class="cls-2" d="M912.63,123.93c-.48,1.04-2.47,3.48-4.39,5.37-9.61,9.49-17.66,12.81-43.2,17.76-8.19,1.59-13.85,2.92-21.5,5.06-3.78,1.06-16.54,6.31-19.63,8.08-1.22.7-3.17,1.82-4.31,2.48-2.98,1.72-9.2,6.07-12.56,8.77-10.23,8.24-23.77,24.33-29.63,35.24-.88,1.63-2.33,4.23-3.2,5.72-.87,1.5-2.39,4.45-3.35,6.51-.96,2.07-3.17,6.67-4.9,10.2-1.72,3.53-3.06,6.7-2.95,7.03.1.32,1.25-.87,2.52-2.6,2.28-3.13,10.6-11.86,14.43-15.16,1-.86,3.83-3.29,6.33-5.44,12.65-10.85,26.66-19.63,39.37-24.66,2.5-.99,5.07-2.01,5.75-2.28,2.71-1.09.9.5-3.72,3.26-16.55,9.89-33.25,22.77-46.4,35.75-6.49,6.41-17.43,18.51-19.43,21.5-2.44,3.64-7.41,10.79-8.59,12.37-1.4,1.87-.61,1.96,2,.22,1.84-1.23,8.99-4.17,21.44-8.82,4.92-1.84,7.02-2.49,14.63-4.52,2.08-.55,5.02-1.36,6.65-1.82,2.99-.84,7.82-2.17,15.32-4.21,26.6-7.22,51.74-22.47,67.89-41.2,5.61-6.51,14.69-18.75,14.69-19.81,0-.12,1.14-2.12,2.55-4.45,2.42-4.03,4.17-7.49,7.2-14.27,5.12-11.45,7.89-21.95,8.63-32.67.4-5.75-.09-6.77-1.64-3.42h0Z"/>
        <path class="cls-2" d="M935.38,196.99c-.5.94-3.26,4.75-6.12,8.44-17.28,22.31-36.72,33.76-84.97,50.06-31.23,10.55-48.31,17.79-64.38,27.29-4.79,2.83-17.21,11.54-21.02,14.73-21.14,17.73-35.72,36.8-47.38,61.92-4.13,8.9-5.03,11.03-5.03,11.83,0,.43-.16.92-.37,1.13-.58.58-7.14,20.03-8.44,25.02-.39,1.51-1.19,4.59-1.8,6.92-.61,2.33-1.55,5.94-2.11,8.11-1.24,4.72-3.71,16.84-4.3,21.05-.23,1.65-.79,5.54-1.25,8.68-2.82,19.43-4.44,44.07-3.86,58.71.49,12.16,1.26,23.11,1.79,25.4l.44,1.9.37-2.17c.2-1.19.37-3.1.37-4.23,0-3.6,1.92-10.04,6.2-20.84,3.77-9.5,6.09-13.73,8.49-15.44,3.96-2.84,19.47-10.4,29.48-14.36,3.35-1.33,6.6-2.63,7.18-2.89.59-.26,4.15-1.67,7.98-3.17,26.82-10.51,43.65-18.03,54.54-24.37,1.02-.6,2.82-1.64,3.99-2.32,29.21-16.99,49.49-34.24,65.89-56.07,8.29-11.02,19.08-28.98,24.6-40.92,1.35-2.91,3.78-8.14,5.38-11.56,4.23-9.05,11.01-26.92,14.21-37.44.49-1.63,1.12-3.48,1.39-4.07.26-.59,1.48-4.4,2.69-8.41,1.21-4.02,2.52-8.31,2.9-9.5.93-2.91,5.26-20.95,6.65-27.68.62-2.98,1.34-6.4,1.61-7.6,2.57-11.5,3.96-19.16,5.02-27.68,1.25-10.09,1.44-12.21,1.09-12.21-.17,0-.74.79-1.22,1.71h0ZM928.08,229.91c-2.33,5.21-7.98,16.37-9.92,19.59-1.17,1.95-2.62,4.42-3.19,5.43-6.67,11.87-23.6,31.46-38.55,44.62-9.95,8.75-30.4,24.55-34.05,26.31-1.01.49-1.96,1.11-2.15,1.41-.45.72.77.51,10.98-1.94,1.92-.46,4.76-1.12,6.38-1.48,5.37-1.19,13.51-3.51,20.96-5.96,3.62-1.19,3.67-1.2,3.26-.56-.39.63-5.39,3-11.19,5.31-2.66,1.06-5.26,2.11-5.85,2.37-.59.26-4.15,1.44-7.98,2.66-3.83,1.22-7.75,2.47-8.78,2.8-2.02.65-9.75,3.53-11.44,4.26-3.83,1.66-19.96,9.94-20.23,10.39-.33.55.01.51,4.8-.59,1.19-.28,3.3-.65,4.79-.84,1.48-.2,4.31-.57,6.38-.85,11.97-1.61,36.29-2.73,35.06-1.62-.27.24-3.56.85-7.4,1.36-3.83.51-8.82,1.29-11.17,1.75-3.77.73-6.17,1.25-16.49,3.58-11.87,2.68-19.59,5.19-28.47,9.25-4.36,1.99-4.77,2.21-4.55,2.43.13.13,3.8-.15,8.11-.62,4.31-.48,11.1-1.12,15-1.42,8.3-.64,28.61-.67,31.71-.04l2.13.43-1.86.33c-1.02.18-4.74.6-8.25.94-10.85,1.04-15.16,1.55-22.61,2.68-11.28,1.71-21.39,3.63-25.54,4.84-1.02.3-3.67,1.07-5.85,1.71-2.18.64-4.59,1.3-5.32,1.47-.74.17-1.61.53-1.97.82-1.07.86-.74,1.65.53,1.3,2.36-.65,11.97-1.88,18.2-2.33,11.49-.82,44.43-.2,44.43.84,0,.21-5.08.67-11.31,1.03-6.23.36-13.46.9-16.1,1.19-2.62.3-7.08.8-9.84,1.12-11.76,1.33-30.96,5.13-32.72,6.48-.8.61-6.17,2.34-6.44,2.07-.31-.32,7.13-7.75,9.31-9.3.9-.64,1.78-1.57,1.93-2.04.43-1.33,13.02-13.36,18.08-17.27.89-.69,2.77-2.37,4.26-3.81,2.36-2.29,13.51-11.53,18.36-15.2.99-.75,3.3-2.65,5.11-4.2,1.81-1.55,4.5-3.76,5.96-4.91,10.96-8.58,15.03-11.89,20.86-16.92,3.67-3.17,9.2-7.87,12.34-10.5,11.12-9.28,32.19-30.42,39.33-39.47,5.03-6.37,11.02-15.09,19.09-27.78,2.48-3.91,3.34-4.41,1.85-1.09h0ZM820.9,288.59c-.89,2.77-1.62,5.49-1.62,6.08s-.21,1.46-.49,1.98c-.45.84-1.12,4.4-3.01,15.85-.42,2.55-.77,5.7-.77,7.05-.02,3.15-1.26,10.2-2.13,12.1-.37.81-1.03,1.47-1.47,1.47-1.65,0,.62-22.36,3.05-30.01,4.68-14.71,7.37-21.58,7.88-20.08.1.3-.54,2.79-1.44,5.56h0ZM839.47,295.57c-1.12,9.98-3.01,18.62-4.17,19.01-.74.25-.61-1.75.44-6.69.26-1.21.75-3.85,1.1-5.97.75-4.45,2.27-9.5,2.87-9.5.06,0-.05,1.41-.25,3.15h0ZM798.07,297.68c-1.18,4.18-1.9,7.54-2.71,12.64-.31,1.95-.8,5.04-1.11,6.92-.31,1.86-.67,9.2-.8,16.25-.24,12.64-.26,12.9-1.57,14.92-.74,1.14-1.72,2.06-2.21,2.06-.79,0-.85-1.28-.59-13.16.25-11.34.48-14.06,1.65-19.67,1.55-7.43,2.81-11.93,4.83-17.31,2.84-7.54,4.33-9.13,2.5-2.66h0ZM775.61,310.33c-2.06,11.65-2.8,21.49-2.84,38.26l-.04,15.79-1.33,2.01c-1.26,1.9-2.08,2.51-2.18,1.63-.03-.25-.14-1.14-.25-2.06-.67-5.53-.84-22.31-.29-27.4.76-7,2.38-16.26,3.79-21.71,1.1-4.23,3.17-9.94,3.5-9.6.09.09-.07,1.47-.36,3.09h0ZM755,325.9c-1.78,9.78-2.08,27.73-.87,52.42.27,5.59.22,5.97-1.1,8.28-.75,1.3-1.59,2.41-1.84,2.41s-.61-1.87-.8-4.21c-.19-2.31-.57-6.16-.84-8.55-.77-6.71-.59-24.15.32-31.15,1.19-9.23,2.45-15.03,4.81-22.25.61-1.88.83.22.32,3.04h0ZM733.88,355.47c-.24,6.73-.05,18.4.51,32.61.54,13.51.68,22.48.38,23.01-.54.93-.66.33-2.74-13.95-2.78-19.1-2.77-27.76.03-43.68,2.05-11.6,2.28-11.34,1.81,2.01h0ZM816.35,380.91c2.94.31,7.77.78,10.8,1.06,6.97.64,9.24,1.06,8.87,1.67-.16.27-4.08.49-8.71.49-8.33,0-15.32.49-23.73,1.66-6.12.85-21.57,3.7-23.15,4.26-.74.26-3.35,1.01-5.85,1.67-6.7,1.78-12.2,3.69-14.84,5.19-1.28.72-2.46,1.2-2.61,1.05-.59-.6,9.79-11.12,12.4-12.56,2.9-1.6,11.17-3.48,19.95-4.52,5.19-.62,20.86-.6,26.87.03h0ZM798.79,399.83c19.05,1.31,25.81,1.88,25.81,2.2,0,.53-8.35,1.01-23.68,1.38-19.9.47-35.78,1.74-44.43,3.55-1.6.33-3.85.8-4.95,1.04-2.71.57-2.92-.04-.69-2.04,1.82-1.63,3.72-2.67,6.97-3.82,6.69-2.36,25.06-3.4,40.97-2.31h0ZM788.84,410.65c1.96.27,6.44.78,9.95,1.12,3.51.34,7.22.78,8.25.98,1.75.33,1.68.37-1.2.71-1.68.19-8.01.51-14.07.71-13.46.44-20.75,1.26-32.88,3.71-7.45,1.5-15.25,3.53-18.41,4.79-3.3,1.31-3.26,1.32-2.53-.28.34-.76.81-1.36,1.07-1.36s.45-.33.45-.71c0-1.34,3.78-5.3,6.28-6.58,2.46-1.26,5.48-2.13,10.48-3,3.66-.64,28.2-.7,32.62-.09h0ZM784,429.71c3.35,0,5.93.22,5.77.49-.16.27-3.11.76-6.57,1.1-27.08,2.65-42.45,5.87-57.41,12.03-.96.39-1.85.55-2.05.35-.19-.2.45-1.44,1.44-2.79.99-1.36,2.38-3.45,3.13-4.72,1.48-2.51,3.12-3.56,6.8-4.33,9.44-1.98,18.78-2.66,32.51-2.36,5.69.13,13.04.23,16.39.23h0ZM760.49,449.68c-.29.27-2.34,1.12-4.52,1.88-4.68,1.64-13.97,5.37-17.98,7.23-1.54.72-2.92,1.31-3.03,1.31-.62,0-12.29,5.26-16.49,7.44q-6.6,3.42-9.52,5.71c-1.44,1.13-2.71,1.95-2.85,1.83-.13-.12.19-1.14.72-2.28,1.46-3.15,8.17-15.01,8.97-15.85,1.67-1.75,15.24-4.68,28.23-6.09,3.25-.35,7.27-.83,9.05-1.07,4.52-.61,8.04-.66,7.45-.12h0Z"/>
        <path class="cls-2" d="M918.46,345.3c-1.54,1.11-2.57,4.8-1.78,6.38,1,1.98,2.74,3.11,4.81,3.13,1.54.02,2.27-.34,3.35-1.66.76-.92,1.52-2.25,1.69-2.93.35-1.47-1.02-4.36-2.43-5.13-1.49-.81-4.36-.7-5.64.22h0Z"/>
        <path class="cls-2" d="M948.28,378.59c-.85.53-2.06,1.13-2.63,1.31-6.49,2.02-12.65,5.04-15.11,7.4-2.4,2.31-3.45,4.59-4.48,9.74-.4,2.01-1.11,4.43-1.56,5.32-1.07,2.12-12.48,14.11-12.96,13.62-.2-.21.04-1.95.55-3.85,1.45-5.47.66-14.81-1.74-20.67-.87-2.12-2.31-6.52-2.67-8.14-.58-2.62-1.73-2.22-3.96,1.36-8.48,13.62-9.49,23.07-3.73,35.22l1.93,4.07-2.08,1.92c-10.59,9.79-16.18,14.55-16.18,13.76,0-.27.34-1.68.75-3.15,2.35-8.33,2.11-12.48-1.34-23.17-1.14-3.53-2.07-6.76-2.07-7.19s-.25-1.44-.56-2.25l-.56-1.47-1.54,1.84c-.86,1.03-1.55,2.07-1.57,2.36-.02.29-.47,1-1.06,1.66-1.43,1.58-4,7-5.35,11.29-1.02,3.22-1.15,4.59-.94,9.79.21,5.32.48,6.69,2.21,11.34,1.19,3.2,1.8,5.59,1.54,6.05-1.13,2.01-17.17,14.12-17.82,13.46-.24-.24-.08-1.63.37-3.15,1.1-3.77,1.48-9.71.86-13.51-.55-3.39-.75-4.18-2.93-11.67-.74-2.55-1.41-5.34-1.5-6.24-.1-1.03-.5-1.69-1.09-1.79-.53-.09-.93.07-.93.38s-1.08,2.12-2.38,4.02c-3.23,4.72-5.91,10.34-6.7,14.05-1.09,5.14-.42,12.86,1.67,19.1l1.77,5.32-1.33,1.07c-2.82,2.27-18.13,12.46-18.36,12.23-.12-.12.32-1.68.95-3.42,1.88-5.2,1.56-17.09-.61-22.74-.9-2.33-1.61-5.66-1.61-7.54s-.63-2.42-1.86-1.54c-.76.54-5.09,6.37-6.84,9.19-.77,1.25-2.03,3.88-2.79,5.83-1.31,3.35-1.37,3.96-1.14,10.74.19,5.59.51,8.02,1.44,10.91.66,2.06.98,3.93.72,4.19-1.97,1.93-16.96,10.28-18.46,10.28-.69,0-.69-.27.06-2.06,1.49-3.58,2.28-7.34,2.28-10.85,0-3.33-.21-4.61-1.9-11.5-.48-1.95-1.02-4.74-1.21-6.24-.23-1.79-.62-2.75-1.14-2.83-.89-.13-5.93,6.2-8.83,11.08-1.04,1.75-2.36,4.83-2.98,6.95-1,3.39-1.08,4.67-.8,11.78l.32,7.98-1.44,1.03c-.8.58-2.31,1.35-3.43,1.76-1.12.41-2,.92-2,1.17,0,.7.8.54,5.75-1.18,5.48-1.9,21.07-5.99,22.83-5.99.67,0,3.7-.6,6.68-1.33,4.93-1.2,6.73-1.35,18.76-1.49,7.34-.09,15.09.04,17.29.3l3.99.46-1.6-1.57c-4.2-4.13-8.78-7.65-11.39-8.78l-2.93-1.26,1.6-1.36c1.38-1.17,12.63-8.22,13.51-8.47.21-.06,2.5,1.64,5.11,3.77,5.21,4.27,8.14,5.97,12.18,7.07,3.08.84,8.19.94,11.81.24,7.56-1.47,9.2-1.83,9.2-2.01,0-.12-1.12-1.25-2.5-2.52-1.38-1.27-4.31-4.11-6.54-6.33-4.58-4.56-9.34-7.94-12.34-8.77-1.12-.31-2.02-.75-2.02-.99,0-.44,5.21-4.46,10.48-8.09,1.81-1.25,3.45-2.52,3.63-2.82.61-1,1.64-.56,4.51,1.94,6.09,5.31,14.53,7.85,22.13,6.66,2.02-.32,4.87-.9,6.33-1.31,1.49-.41,3.25-.89,3.99-1.08,2.87-.76,2.9-.84.74-2.32-1.17-.8-4.15-3.17-6.6-5.25-5-4.25-8.64-6.78-9.74-6.78-.43,0-.9-.16-1.11-.38-.6-.63-4.21-1.79-5.65-1.82-1.29-.03-1.28-.07.53-1.68,1.03-.92,2.93-2.39,4.26-3.31,1.33-.92,3.96-3.06,5.93-4.83,1.97-1.77,3.77-3.17,4.07-3.17s.83.38,1.22.87c.38.48,2.95,1.99,5.77,3.39l5.08,2.52,7.18-.03c6.49-.02,7.57-.17,11.17-1.55,2.18-.83,4.65-1.64,5.45-1.79.8-.15,1.45-.43,1.44-.62-.01-.2-1.36-1.32-3.01-2.52-1.66-1.21-4.42-3.34-6.23-4.81-4.04-3.29-9.7-6.23-12.82-6.68-1.33-.19-2.39-.53-2.39-.78s1.78-2.19,4.02-4.4c2.23-2.2,4.5-4.74,5.11-5.72.9-1.45,1.41-1.76,2.9-1.76,2.09,0,7.13-2.15,9.68-4.14,2.68-2.09,5.74-6.33,6.95-9.64,1.19-3.26,2.81-13.44,2.24-14.05-.19-.21-1.08.07-1.93.6h0Z"/>
        <path class="cls-2" d="M189.1,413.76c2.26,5.49,2.89,15.47,1.54,24.42-3.55,23.55-3.2,37.37,1.34,51.77,1.13,3.58,5.72,13.56,7.12,15.47.44.6,2.28,3.15,4.11,5.7,6.35,8.85,17.33,18.75,29.09,26.22,2.45,1.56,6.68,4.33,9.5,6.23,2.82,1.9,5.2,3.3,5.35,3.15.15-.15-.95-1.57-2.46-3.2-3.64-3.91-7-8.36-10.96-14.49-5-7.76-11.86-22.3-11.32-23.99.21-.65,1.11.76,4.54,7.16,1.81,3.36,4.71,8.26,6.12,10.31.52.75,3.07,4.69,5.72,8.82,2.65,4.12,5,7.46,5.27,7.46s-.02-1.28-.64-2.85c-1.04-2.65-1.12-3.88-1.18-17.5-.09-20.3-.72-24.55-5.58-37.44-.78-2.07-7.44-15.74-8.91-18.29-3.04-5.27-10.41-15.63-18.07-25.4-11.15-14.22-20.42-25.5-20.96-25.5-.24,0-.07.87.38,1.95h0Z"/>
        <path class="cls-2" d="M327.91,433.03c-2.85,1.5-4.85,3.46-6.58,6.44-1.9,3.28-1.96,9.44-.11,12.75,3.53,6.32,9.3,8.96,16,7.34l2.77-.67,2.13,2.09c1.18,1.16,4.89,5.24,8.33,9.14,3.43,3.91,6.33,7.18,6.49,7.33.16.15,1.73,2.22,3.44,4.56,3.42,4.67,4.48,4.88,1.89.38-.91-1.57-1.63-2.92-1.63-3.04,0-.23-4.18-7.16-7.16-11.88-1.1-1.74-3.4-5.07-5.15-7.46l-3.17-4.31,1.36-3.45c.75-1.9,1.36-4.44,1.36-5.67,0-2.82-1.71-7.43-3.65-9.82-3.64-4.49-11.46-6.28-16.3-3.73h0Z"/>
        <path class="cls-2" d="M376.28,437c-4.94,2.18-8.18,7.47-8.16,13.33.01,4.12,1.11,7,3.86,10.15l1.85,2.12-.74,4.07c-.87,4.74-.94,11.78-.19,17.69.58,4.56,2.48,12.95,3.23,14.27.27.47.32-2.77.14-7.6-.31-7.92.05-12.98,1.38-19.54.27-1.36.68-3.41.92-4.61l.43-2.17,3.46-.28c5.64-.46,9.08-2.87,11.92-8.35,2.5-4.83,1.53-11.62-2.24-15.68-2.6-2.8-6.01-4.17-10.32-4.14-2.13.01-4.63.35-5.53.75h0Z"/>
        <path class="cls-2" d="M502.7,443.55c-3.35.36-7.08.83-8.25,1.05-3.46.64-11.87,3-13.99,3.93-7.5,3.27-11.77,5.41-11.79,5.93-.01.34.94.6,2.21.61,2.69.02,9.36,2.25,14.26,4.76,6.23,3.2,12.25,8.3,22.84,19.37,20.22,21.14,29.94,27.3,58.57,37.14,18.52,6.37,28.82,12.12,37.67,21.02,5.81,5.85,5.87,4.89.29-4.61-1.12-1.9-2.39-4.16-2.81-4.99-1.18-2.33-10.03-12.68-14.72-17.2-4.61-4.44-4.9-4.69-10.8-9.21-8.89-6.8-11.58-8.71-16.76-11.84-9.58-5.8-16.77-9.89-17.4-9.89-.29,0-.48-.22-.48-.54,0-.63-.16-.65,2.66.22,4.09,1.25,16.02,6.3,20.8,8.8,6.49,3.4,16.31,10.11,22.29,15.25,6.17,5.3,14.48,14.17,16.42,17.52,1.03,1.79,1.45,2.18,1.58,1.47.16-.9-.16-2.06-1.51-5.53-.23-.59-.96-2.93-1.61-5.16-1.27-4.34-1.87-5.81-5.82-14.38-2.08-4.5-9.37-16.64-10.6-17.65-.17-.14-1.33-1.62-2.55-3.25-3.06-4.1-12.99-13.84-17.19-16.87-6.02-4.33-8.57-5.76-15.7-8.81-11.28-4.82-18.62-6.51-32.46-7.44-4.42-.3-8.22-.5-8.51-.45-.29.04-3.3.38-6.65.73h0Z"/>
        <path class="cls-2" d="M111.09,453.75c0,.99,11.32,22.95,13.76,26.7,7.96,12.21,20.61,21.42,32.42,23.6,5.8,1.07,10.12-.1,12.59-3.41,3.37-4.52,1.88-11.5-4.53-21.27-7.37-11.23-21.53-20.38-36.69-23.71-6.86-1.51-17.56-2.67-17.56-1.9h0Z"/>
        <path class="cls-2" d="M449.33,465.86c-.21.21-.37.83-.37,1.43s-.43,1.68-.98,2.5c-.53.78-1.31,2.31-1.71,3.34-.98,2.58-3.52,7.38-5.46,10.31-2.63,3.97-6.11,7.48-12.34,12.43-7.98,6.34-13.97,11.31-16.44,13.62-6.3,5.9-14.37,16.82-18.72,25.34-1.75,3.42-2.88,4.83-2.88,3.58,0-.7,1.88-4.88,5.31-11.83,5.23-10.57,10.7-17.75,22.89-30.02,3.09-3.11,4.9-5.21,4.04-4.69-3.78,2.3-8.15,4.91-9.47,5.65-6.07,3.42-14.28,10.46-19.37,16.58-4.37,5.26-12,18.03-13.18,22.09-.43,1.47-.98,1.14-2.7-1.63-3.28-5.28-6.57-9.27-13.06-15.87-3.67-3.73-7.15-7.15-7.77-7.63-2.18-1.71-7.59-5.37-7.93-5.37-.21,0-.98-.42-1.78-.98-.77-.54-2.9-1.64-4.71-2.45-3.46-1.55-17.63-6.76-19.69-7.24-.69-.16-1.35-.5-1.52-.78-.17-.28-.77-.49-1.41-.49-1.68,0-.96.55,5.96,4.5,5.8,3.32,9.58,5.68,11.01,6.9.37.32.82.54,1.06.54.23,0,1.06.56,1.81,1.22.76.67,3.72,3.18,6.6,5.58,7.82,6.54,16.92,17.18,21.71,25.37,1.7,2.91.64,2.12-2.19-1.63-4.33-5.74-13.29-14.83-19.47-19.75-1.97-1.57-12.23-8.38-13.62-9.05-8.78-4.19-12.9-6.07-19.95-9.1-4.79-2.06-6.75-3.14-10.38-5.72-4.15-2.95-12.09-10.84-14.4-14.29-1.48-2.22-2.97-2.69-2.44-.76.19.69.49,4.18.66,7.76.35,7.16-.09,11.18-2.62,23.61-1.78,8.77-2.17,12.54-2.17,21.43,0,9.39.48,13.42,2.47,20.62,2.35,8.52,7.5,20.21,11.6,26.37,1.23,1.85,2.06,3.44,1.89,3.61-.19.18-.39.21-.51.08-.1-.12-1.49-1.9-3.13-4.02-9.53-12.29-16.37-30.23-16.37-42.92,0-2.17-.22-4.1-.48-4.26-1.32-.83-1.36,22.77-.06,29.55,3.56,18.45,9.28,30.69,20.92,44.77,6.46,7.81,6.28,7.68,13.18,9.18,14.42,3.12,32.71,12.48,44.37,22.72,4.63,4.06,11.85,11.67,14.79,15.59,2.97,3.96,3.53,4.54,3.96,4.07.23-.24.11-.54-.26-.68-.37-.14-.67-.45-.67-.71s-1.75-3.45-3.91-7.14c-2.16-3.69-4.7-8.13-5.67-9.93-.97-1.79-2.36-4.35-3.09-5.7-2.13-3.91-12.01-23.91-12.99-26.32-1.53-3.74-2.89-6.94-4.39-10.31-.8-1.79-1.75-3.99-2.12-4.88-2.36-5.75-3.16-7.72-3.52-8.68-1.06-2.88-5.03-12.02-5.42-12.48-.87-1.03-.34-1.49.57-.49.99,1.1,9.04,13.62,12.86,20.02,5.09,8.52,8.52,14.42,8.52,14.65,0,.12.77,1.52,1.7,3.09.94,1.59,2.94,5.29,4.47,8.28,1.53,2.98,2.99,5.48,3.27,5.59.31.12.31-1,0-2.96-.28-1.73-.38-7.43-.23-12.64.39-13.57,2.33-22.61,7.4-34.46,2.53-5.91,6.72-14.5,8.49-17.42.69-1.14,1.46-2.57,1.65-3.09.51-1.38,1.32-1.14,2.21.65.43.87,2.4,3.96,4.39,6.89,4.98,7.33,5.62,8.41,8.57,14.33,4.98,9.98,8.53,22.68,9.64,34.51.33,3.53.34,6.62.01,8.68-.62,3.96-.63,4.56-.03,4.56.53,0,1.03-1.3,2.98-7.87,1.38-4.66,2.14-6.67,7.15-18.99,3.77-9.28,11.92-26.82,12.33-26.54.23.15.22.82-.03,1.47-.25.66-.98,3.26-1.62,5.81-.65,2.55-1.61,6.31-2.15,8.41-.54,2.1-1.5,5.86-2.14,8.41-2.77,11.07-8.11,28.38-11.64,37.71-1.12,2.97-3.04,8.03-4.23,11.18-1.19,3.15-2.18,5.95-2.18,6.19,0,.32-7.91,17.04-11.25,23.77-.25.51-.46,1.41-.46,2.01,0,1.82-1.01,1.19-1.39-.87-.21-1.15-.02-3.45.46-5.56.45-1.98,1.56-6.92,2.44-10.93,4.33-19.59,5.23-28.76,4.04-41.3-.84-8.85-1.09-10.34-2.77-16.77-1.59-6.05-3.94-11.78-8.51-20.73-3.85-7.54-4.91-9.09-4.91-7.22,0,.42-.81,2.66-1.81,4.99-5.28,12.37-8.8,28.65-8.84,40.86-.04,12.94,3.64,28.16,11.76,48.68,2.02,5.1,3.67,9.56,3.67,9.9s-.73-.22-1.57-1.19c-.87-1-3.43-3.13-5.72-4.75-2.31-1.63-6.28-4.75-8.94-7.03-2.66-2.28-5.85-4.94-7.18-6-1.33-1.06-2.75-2.18-3.19-2.54-10.59-8.5-27.69-18.65-36.45-21.63-15.22-5.18-30.65-6.01-46.08-2.48-10.71,2.45-20.59,7.38-34.53,17.22-5.69,4.02-12.34,8.43-14.74,9.76-5,2.8-12.93,6.19-14.47,6.19-1.28,0-2.05,1.06-1.17,1.61.94.59,10.96,8.58,13.62,10.86,1.24,1.07,3.38,2.88,4.82,4.08,1.44,1.21,2.84,2.43,3.17,2.75,3.62,3.6,17.78,13.8,19.15,13.8.12,0,1.6.85,3.3,1.9,3.54,2.18,13.2,6.23,18.52,7.77,2.08.6,4.9,1.46,6.38,1.94l2.66.87-3.72-.23c-4.99-.31-19.26-3.96-24.48-6.26-4.68-2.07-9.1-4.34-12.34-6.34-6.5-4.02-5.75-2.65,1.65,2.99,10.32,7.87,15.09,10.55,24.9,13.95,9.77,3.39,15.22,4.22,25.7,3.91,4.79-.14,9.06-.52,9.68-.85.62-.33,2.66-1.87,4.58-3.46,13.57-11.23,33.79-21.79,49.86-26.03,9.84-2.6,23.02-4.27,22.49-2.85-.14.37-.99,1.01-1.95,1.47-12.02,5.76-16.76,7.98-17.03,7.98-.42,0-4.15,1.71-10.96,5.04-8.25,4.02-18.45,10.12-24.21,14.45-1.46,1.1-4.58,3.46-6.92,5.23-2.36,1.79-7.34,6.38-11.17,10.28-5.81,5.92-8.37,8.85-14.25,16.28-.98,1.24-7.26,11.12-8.49,13.35-.71,1.3-1.87,3.37-2.55,4.56-4.26,7.47-9.38,19.05-11.88,26.86-.71,2.22-1.47,4.49-1.67,4.99-.65,1.61.48,1.09,1.17-.54,7.07-16.71,9.02-20.24,16.22-29.41,3.5-4.45,4.88-5.97,5.43-5.97.27,0-.42,1.25-4.83,8.68-2.67,4.5-9.21,18.52-9.21,19.75,0,.15-.81,2.06-1.78,4.23-.98,2.17-2.11,4.82-2.5,5.86-1.26,3.34-4.82,9.93-7.24,13.4-2.95,4.23-8.4,9.33-10.83,10.14-2.29.76-2.42,1.65-.27,1.83.88.07,3.03.4,4.79.73,1.76.33,4.39.82,5.85,1.08,13.57,2.48,16.83,2.83,26.34,2.88,16.23.08,24.99-2.53,36.61-10.92,4.1-2.96,12.73-11.28,14.57-14.04.69-1.03,1.42-1.85,1.65-1.85.73,0-1.56,4.02-4.83,8.47-5.73,7.81-12.92,13.95-19.97,17.04-2.87,1.26-3.85,2.17-2.34,2.17.71,0,6.6-1.84,8.62-2.7.59-.25,2.71-1.1,4.79-1.91,9.2-3.61,21.07-12,29.56-20.9,8.25-8.65,16.26-23.33,19.15-35.11,2.2-8.97,2.56-12.64,3.2-32.99.67-21.38,2.35-44.77,3.22-44.77.65,0,.93.71,1.49,3.85.29,1.6.88,4.78,1.3,7,.83,4.41,1.59,14.87,2.48,34.19.65,14.16,1.34,22.3,2.45,28.76.44,2.55,1.02,5.92,1.29,7.54.88,5.17,4.23,14.71,7.94,22.57,7.77,16.5,18.02,29.27,30.89,38.5,7.45,5.34,11.13,7.9,11.39,7.9.14,0,1.38.77,2.71,1.68,2.93,2.01,3.84,1.71,1.28-.42-7.58-6.3-14.64-15.31-19.87-25.35-3.48-6.67-3.94-7.92-2.96-7.92.32,0,.53.22.53.54,0,.85,6.22,10.26,8.9,13.46,3.68,4.4,14.36,15.12,17.54,17.62,12.34,9.69,19.8,16.02,24.58,20.87,2.77,2.81,5.05,5.01,5.11,4.92.76-1.1,5.43-18.02,6.93-25.12.81-3.85,1.84-15.09,1.84-20.08,0-14.6-3.85-31.45-10.13-44.33-1.43-2.93-2.42-5.32-2.22-5.32,1.21,0,7.78,11.94,10.8,19.64,3.63,9.24,5.8,20.73,5.8,30.71,0,2.82.17,4.98.37,4.78,1.64-1.65,2.3-25.45.96-34.52-2.63-17.8-11.25-37.67-23.42-53.99-4.75-6.36-13.45-15.09-22.18-22.24-2.1-1.72-10.69-7.36-15.16-9.95-4.42-2.56-19.98-10.4-20.64-10.4-.15,0-1.41-.52-2.79-1.14-1.38-.62-3.25-1.46-4.12-1.85-.88-.39-3.03-1.32-4.79-2.07-12.08-5.17-13.58-5.95-12.88-6.67.2-.21,1.3-.1,2.42.24,1.13.35,3.51.62,5.32.62s4.28.23,5.53.52c1.24.28,3.7.79,5.45,1.12,9.58,1.82,23.04,6.69,33.84,12.23,6.75,3.47,10.8,4.02,20.59,2.81,15.54-1.92,32.2-7.71,42.41-14.73,7.11-4.89,18.09-15.57,24.05-23.38,5.78-7.59,12.7-19.92,16.29-29.03,1.64-4.18,4.59-14.81,5.42-19.54.61-3.47,1.73-16,1.47-16.44-.13-.23-.55-.2-.87.05-.34.27-1.68.75-3.01,1.08-10.69,2.64-17.08,3.18-27.77,2.37-17.51-1.33-28.5-.49-41.4,3.18-2.18.62-4.71,1.33-5.59,1.57-6.38,1.75-20.54,8.56-27.72,13.33-12.57,8.35-20.33,15.91-46.99,45.81-11.61,13.02-12.03,13.22-7.07,3.31,4.02-8.03,9.76-17.65,11.34-18.99.18-.15.98-1.36,1.8-2.71,1.39-2.3,5.67-7.98,8.76-11.61,4.1-4.83,15.73-16.65,19.13-19.44,4.1-3.36,10.03-7.57,13.94-9.88,6.38-3.78,17.75-9.13,22.83-10.75.43-.14,1.12-1.23,1.49-2.37.39-1.19,1.12-3.31,1.67-4.83,3.43-9.53,4.51-15.9,4.51-26.59,0-9.95-.56-14.16-3.37-25.29-2.31-9.17-5.51-17.89-6.27-17.09-.14.15.24,2.28.85,4.78,1.73,7.04,2.3,12.32,2.3,21.49,0,10.26-.56,14.01-3.51,23.44-1.78,5.7-2.98,8.64-4.42,10.85-1.42,2.19-1.54,1.95-.45-.92.88-2.32,2.51-8.25,3.4-12.37,1.71-7.87,2.21-20.53,1.08-27.35-2.49-15.09-4.31-20.73-11.54-35.87-4.07-8.52-6.14-13.97-7.48-19.7-.33-1.41-.83-3.58-1.13-4.86-.29-1.27-.62-3.5-.72-4.97-.18-2.55-.74-3.51-1.56-2.7h0ZM474.23,648.76c-1.66,1.33-22.88,11.75-27.93,13.71-8.57,3.33-9.84,3.78-15.96,5.63-5.56,1.68-8.67,2.47-22.88,5.79-5.69,1.33-11.44,1.99-11,1.26.55-.91,10.47-6.42,15.42-8.57,5.58-2.42,22.08-8.04,27.88-9.49,2.29-.57,5.46-1.38,7.08-1.8,1.61-.42,4.36-1.08,6.12-1.47,1.77-.39,5.21-1.29,7.72-2.01,2.5-.72,6.28-1.78,8.46-2.36,2.18-.59,4.06-1.18,4.2-1.33.15-.15.64-.26,1.12-.24.68.02.64.2-.21.88h0ZM331.69,660.36c19.37,1.54,34.77,5.59,46.72,12.27,1.81,1.01,3.67,1.97,4.2,2.16,1.37.49,1.12,1.48-.27,1.03-.69-.22-1.92-.5-2.82-.64-.87-.13-2.45-.47-3.46-.73-1.03-.27-3.99-.76-6.65-1.11-14.63-1.89-33.4-5.26-45.23-8.12-2.34-.57-4.97-1.15-5.85-1.29-3.51-.58-11.52-2.42-11.81-2.71-1.19-1.2,14.26-1.72,25.17-.85h0ZM385.36,686.22c-1.99,5.75-9.17,20.46-12.02,24.64-.56.81-1,1.61-1,1.79,0,.29-1.92,3.47-5.75,9.55-3.59,5.69-12.56,18.78-17.67,25.78-2.85,3.91-6.52,8.99-8.21,11.4-2.29,3.26-2.96,3.93-2.66,2.71.23-.92.58-1.86.82-2.17.24-.3,1.87-4.02,3.64-8.3,7.21-17.4,15.57-32.07,29.73-52.2,5.04-7.16,14.17-18.58,14.37-17.96.11.33-.46,2.5-1.25,4.78h0ZM400.2,690.99c10.04,11.94,19.3,24.93,25.97,36.41,3.05,5.26,10.09,19.43,12.91,25.99.51,1.19,1.79,3.96,2.82,6.13,1.03,2.17,1.77,4.08,1.62,4.23-.15.15-2.51-2.98-5.27-7-2.74-3.98-8.25-11.67-12.19-16.98-11-14.87-24.74-36.39-29.77-46.61-7.2-14.65-6.79-14.88,3.9-2.17h0ZM428.74,802.51c0,.33-.1.54-.24.54s-.37-.22-.56-.54c-.18-.31-.08-.54.24-.54s.56.23.56.54h0Z"/>
        <path class="cls-2" d="M384.31,480.39c-1.44,1.47-1.83,5.21-.64,6.15,1.65,1.31,4.19,1.73,5.69.94,1.7-.89,2.13-1.77,2.13-4.32,0-3.64-4.6-5.41-7.18-2.77h0Z"/>
        <path class="cls-2" d="M910.16,481.24c-1.22.76-2.55,3.38-2.55,5.01,0,.71.6,1.95,1.38,2.88,1.84,2.17,4.92,2.24,6.95.16,1.8-1.84,1.96-5.37.32-7.05-1.21-1.24-4.76-1.82-6.09-.99h0Z"/>
        <path class="cls-2" d="M746.92,487.1c-4.68,1.8-6.69,7.52-4.23,12.01,1.65,2.99,4.01,4.4,7.42,4.4,2.61,0,2.99-.18,5.1-2.33,4.4-4.51,3.63-11.1-1.58-13.61-1.76-.85-5.11-1.08-6.7-.46h0Z"/>
        <path class="cls-2" d="M712.07,506.53c-2.52,1.34-3.41,2.9-3.44,5.99-.02,2.28.22,2.95,1.47,4.17,3.63,3.55,7.87,2.72,10.19-2l1.3-2.66-1.05-1.95c-1.16-2.17-4.08-4.4-5.76-4.4-.63,0-1.81.37-2.71.85h0Z"/>
        <path class="cls-2" d="M824.6,506.26c-2.21.25-6.6.73-9.84,1.08-3.25.35-7.87.97-10.38,1.41-2.5.44-5.83.99-7.45,1.25-9.67,1.53-27.45,6.1-39.16,10.06-12.24,4.15-18.72,6.82-28.41,11.71-17.24,8.7-27.46,15.65-38.04,25.87-5.78,5.58-5.58,4.8-2.99,11.97,2.95,8.14,4.32,15.36,4.32,22.68,0,2.77-.25,5.71-.55,6.51-.69,1.84.1,2.92,1.51,2.03.5-.32,2.55-.87,4.63-1.25,2.08-.38,4.86-.89,6.28-1.16,3.99-.76,13.57-.57,17.93.35,6.56,1.39,5.83,1.98,7.98-6.54,2.76-10.96,3.97-14.29,8.85-24.31,2.73-5.6,4.51-8.36,9.18-14.22,1.9-2.39,3.53-4.44,3.62-4.56.1-.13.29-.09.48.11.18.18-.77,2.22-2.1,4.56-2.96,5.18-4.67,9.01-7.06,15.79-1.01,2.88-2.48,6.99-3.24,9.06-.77,2.12-1.56,4.64-1.78,5.7-.22,1.04-.76,3.36-1.2,5.16-.44,1.79-1.16,4.72-1.6,6.51-.44,1.79-.97,3.68-1.17,4.21-.3.77.11,1.16,2.13,2.03,1.38.6,2.79,1.09,3.14,1.09s3.27,1.12,6.46,2.47c3.19,1.35,8.11,3.08,10.88,3.83,2.77.74,6.38,1.74,7.98,2.2,1.63.47,4.58,1.27,6.65,1.82,2.08.54,4.41,1.25,5.27,1.6,1.68.68,11.44,2.86,16.87,3.78,1.95.33,5.56.59,8.11.59s4.6.22,4.6.49c0,.89-9.9,1.87-18.62,1.84-7.82-.03-17.15-1.02-19.95-2.12-1.65-.65-.69,1.19,1.44,2.76,1.22.9,4.31,3.18,6.81,5.04,7.51,5.57,15.7,10.62,25.75,15.88l9.52,4.98,5.37-3.71c13.78-9.5,24.37-18.47,32.01-27.12,10.6-11.99,15.29-18.4,31.23-42.65,16.36-24.91,20.93-31.34,28.36-39.99,7.41-8.63,17.88-18.93,20.04-19.72,2.01-.74-1.28-1.63-14.47-3.91-13.18-2.28-26.66-3.97-41.24-5.17-8.03-.66-42.26-.64-48.15.03h0ZM833.33,532.7c-.91.81-3.3,2.93-5.32,4.71-9.27,8.17-13.1,12.45-26.25,29.27-.72.92-1.81,2.14-2.41,2.69-1.06.98-1.09.98-1.25-.03-.19-1.22,2.12-5.75,5.91-11.56,6.11-9.38,14.64-17.36,25.65-24.01,4.79-2.89,6.15-3.29,3.67-1.07h0ZM815.82,533.77c-14.56,13.54-17.6,17.33-32.36,40.34-2.16,3.36-3.91,5.17-4.46,4.61-.97-.99,4.44-13.46,8.62-19.86,6.32-9.69,17.13-20,27.67-26.4,2.29-1.39,2.6-.62.53,1.31h0ZM794.47,538.94c-9.52,9.86-17.36,21.16-24.36,35.11-4.41,8.79-7.37,13.57-8.41,13.57-1.68,0,2.62-13.78,6.59-21.11,5.85-10.8,15.03-21.79,23.58-28.2,9.84-7.39,10.25-7.3,2.59.64h0ZM847.75,534.44c-.18.3-2.66,2.47-5.48,4.8-2.82,2.33-6.01,5.07-7.02,6.05-1.02.99-4.95,4.74-8.73,8.36-4.79,4.58-6.74,6.16-6.44,5.21.64-2.07,3.06-5.32,7.32-9.82,5.46-5.78,10.46-9.75,16.95-13.47,3.03-1.74,3.95-2.04,3.41-1.13h0ZM777.78,538.56c0,.18-1.38,2.06-3.07,4.18-3.67,4.61-9.1,12.71-11.34,16.93-4.69,8.83-7.21,14.27-11.76,25.45-2.21,5.43-4.62,9.83-6.18,11.29l-1.33,1.25.38-3.26c1.08-9.3,7.09-24.58,13.35-33.92,4.73-7.05,10.7-14.37,15.11-18.51,3.62-3.4,4.84-4.26,4.84-3.41h0ZM856.73,540.46c-.56.63-2.07,1.88-3.4,2.79s-3.3,2.49-4.44,3.53c-1.12,1.02-2.16,1.75-2.3,1.6-.49-.53.3-1.35,4.45-4.56,5.64-4.36,7.61-5.53,5.69-3.36h0ZM865.57,559.88c2.34.31,2.66.46,1.6.75-3.04.83-12.29,1.48-21.02,1.48s-11.11-.41-8.14-1.41c3-1.01,21.92-1.57,27.56-.83h0ZM856.79,569.96c.9.28-.74.65-8.25,1.86-10.48,1.69-32.64,1.6-29.9-.12.9-.56,5.64-1.56,9.15-1.93,3.25-.34,27.82-.17,29,.19h0ZM820.34,580.6c10,.64,21.09.74,24.9.21,4.04-.56,3.46.38-1.06,1.72-8.09,2.39-18.71,3.74-25.86,3.29-7.77-.49-17.89-2-19.47-2.91-.94-.54-.8-.68,1.22-1.24,5.67-1.55,9.58-1.76,20.27-1.07h0ZM800.12,591.38c6.98,1.35,11.01,1.73,21.76,2.01,8.14.22,12.05.11,13.73-.37,2.23-.64,4-.34,1.97.33-.56.18-1.49.54-2.08.78-4.19,1.76-18.25,3.78-26.34,3.78-5.43,0-15.4-1.37-19.95-2.73-2.08-.62-4.96-1.5-6.52-1.99-1.54-.48-2.79-1.04-2.79-1.25,0-1.51,13.46-1.89,20.22-.58h0ZM771.71,600.68c2.77.52,7.34,1.42,13.78,2.71,10.27,2.06,20.99,3.23,29.53,3.23,8.09,0,9.04.48,3.19,1.61-1.92.37-4.65.93-6.12,1.26-1.47.33-7.66.6-13.83.6-9.79,0-11.83-.16-16.49-1.25-6.49-1.53-18.51-5.57-20.75-6.99-.29-.18.9-.62,2.66-.98,4.31-.87,4.41-.87,8.03-.19h0Z"/>
        <path class="cls-2" d="M37.97,510.67c-.45,1.44-1.7,10.36-3.25,23.23-1.2,9.93-1.45,45.35-.38,53.99,3.33,26.97,7.26,42.69,16.22,64.85,7.26,17.96,18.72,36.79,30.71,50.47,16.37,18.67,31.96,30.5,51.38,38.98,15.43,6.74,31.36,9.11,46.13,6.86,6.41-.97,8.35-1.51,20.7-5.74,5.16-1.77,9.76-3.21,10.24-3.21s1.36.29,2,.68c1.03.62,1.57.19,6.64-5.29,5.27-5.7,6.36-7.33,4.91-7.35-1.11-.01-7.61-5.24-10.48-8.44-6.39-7.11-9.65-12.81-15.16-26.43-.46-1.14-.86-2.34-.86-2.6,0-.99.84-.43,1.46.98.71,1.61,9.32,13.57,13.6,18.88,2.4,2.98,14.12,15.47,14.52,15.47.09,0,1.89-2.63,3.99-5.83,2.1-3.2,4.4-6.53,5.08-7.38.7-.87,1.25-1.74,1.25-1.98s-1.2-1.19-2.63-2.09c-1.43-.9-4.07-2.85-5.77-4.27-10.3-8.58-12.61-10.76-31.23-29.38-19.58-19.58-26.7-26.14-42.03-38.72-5-4.1-11.33-9.31-14.15-11.65-6.82-5.64-11.76-9.39-23.09-17.54-7.87-5.66-21.45-16.48-27.93-22.26-11.76-10.49-19.42-18.63-27.83-29.56-8.34-10.85-19.77-32.72-22.2-42.49-.69-2.77-1.38-3.59-1.82-2.17h0ZM69.4,605.15c6.5,13.27,17.39,30.06,28.74,44.28,9.66,12.1,11.75,14.53,18.68,21.81,2.74,2.88,5.33,5.74,5.78,6.4,1.77,2.58,1.62.33-.3-4.5-1.1-2.77-2.31-6.37-2.67-7.98-.37-1.63-.85-3.53-1.09-4.29-.23-.75-.71-3.31-1.06-5.7-.35-2.39-.85-5.66-1.11-7.27-.84-5.16.29-4.78,1.61.54,3.88,15.68,8.84,27.27,15.65,36.57,2.23,3.04,13.72,15.01,14.08,14.65.12-.12-.9-1.74-2.3-3.64-2.74-3.72-6.93-12.21-8.95-18.12-2.48-7.27-4.88-21.81-4.51-27.35.22-3.32.54-2.93,1.53,1.9,1.01,4.88,3.67,15.47,4.5,17.91,4.17,12.26,5.63,15.54,10.64,23.88,4.78,7.95,8.51,11.87,16.59,17.45,6.76,4.66,6.77,5.06.16,4.02-2.03-.32-5.64-.58-8.09-.58-8.62,0-20.8-2.25-29.96-5.53-1.76-.63-3.42-1.35-3.7-1.61-.26-.24-.85-.46-1.22-.46-.4,0-1.7-.48-2.93-1.09-1.22-.6-2.37-1.09-2.58-1.09-.62,0-8.14-4.52-9.26-5.57-.53-.5-1.23-.94-1.46-.94-.25,0-2.63-1.67-5.35-3.74-8.62-6.59-10.11-9.32-2.18-4,2.61,1.75,5.45,3.53,6.33,3.97.9.45,1.72.93,1.87,1.11.95,1.11,19.2,7.6,24.04,8.55,5.96,1.17,8.7,1.64,12.66,2.19,2.18.3,5.51.76,7.34,1.01,1.86.26,3.46.29,3.58.08.33-.54-1.88-2.66-2.79-2.66-.37,0-.69-.23-.69-.49s-.77-.81-1.68-1.19c-.92-.39-7.9-4.89-15.46-9.96-7.56-5.07-15.87-10.6-18.41-12.24-6.12-3.94-18.46-13.34-23.78-18.12-6.81-6.11-15.35-15.03-17.72-18.51-.2-.3-.72-1.03-1.14-1.63-.76-1.06-.74-1.06.53.03.72.62,2.85,2.54,4.76,4.32,8.03,7.46,21.14,17.63,22.72,17.63.23,0,1.38.85,2.55,1.89,3.49,3.09,3.79,2.24.51-1.45-13.47-15.16-27.57-38.96-34.56-58.33-1.19-3.31-1.15-4.67.07-2.17h0ZM150.43,659.79c.83,3.47,4.77,15.64,5.98,18.45.45,1.05,1.48,3.47,2.31,5.43.82,1.94,3.97,8.63,7,14.87,3.03,6.24,5.51,11.49,5.51,11.67,0,.76-7.74-7.54-9.57-10.26-5.87-8.72-9.3-17.47-11.18-28.49-.36-2.12-.86-4.95-1.12-6.4-.59-3.26-.62-9.44-.04-8.74.22.27.73,1.85,1.12,3.47h0ZM170.15,668.91c0,.8,2.79,8.47,5.17,14.22,2.51,6.07,9.77,19.92,15.69,29.95,2.56,4.34,4.68,8.08,4.68,8.28s-1.92-1.15-4.2-2.96c-10.19-8.02-17.92-23.01-21.12-40.97-1.32-7.38-1.57-10.29-.86-9.84.34.21.64.83.64,1.32h0ZM123.65,724.3c14.78,6.39,36.07,7.77,55.44,3.6,5.64-1.21,7.65-1.07,11.28.81,1.7.88,3.52,1.62,3.96,1.62.48,0,.82.27.82.65,0,.83-11.17,4.06-17.56,5.08-2.49.4-8.14.74-12.56.75-15.06.06-24.56-2.25-38.42-9.33-6.65-3.4-8.67-4.76-7.08-4.76.26,0,2.13.71,4.1,1.56h0Z"/>
        <path class="cls-2" d="M151,521.48c-12.16,1.43-18.89,3.15-39.11,9.95-5.59,1.88-10.79,3.57-11.63,3.78-1.28.32-1.42.5-.88,1.17.34.42,1.14.79,1.73.79s3.38,1.18,6.2,2.63c5.31,2.73,7.4,3.96,14.95,8.77,9.84,6.27,11.58,7.29,15.7,9.24,9.79,4.62,21.74,7.58,30.59,7.58,3.56,0,11.76-1.22,16.02-2.38,3.25-.88,12.73-4.88,14.84-6.25.74-.48,1.8-1.15,2.39-1.52.58-.36,3.06-1.9,5.45-3.39,2.55-1.59,5.03-2.74,5.93-2.74,1.44,0,4.52,1.08,9.52,3.33,3.09,1.39,3.51.75.9-1.35-1.19-.95-3.78-3.16-5.85-4.98-10.91-9.57-16.02-13.25-24.16-17.39-12.39-6.3-28.04-8.95-42.62-7.23h0Z"/>
        <path class="cls-2" d="M507.01,524.1c-2.59.65-4.4,2.2-5.77,4.92-3.68,7.33,1.83,15.05,9.86,13.83,5-.76,9.09-7.43,7.52-12.25-.7-2.17-4.75-6.46-6.09-6.46-.35,0-1.33-.11-2.18-.24-.86-.14-2.34-.04-3.35.21h0Z"/>
        <path class="cls-2" d="M97.26,549.47c0,.24,1.29,5.7,2.87,12.1,2.7,10.96,5.69,21.24,6.58,22.57.22.33,1.73,1.48,3.32,2.53,3.33,2.2,7.13,4.91,14.9,10.62,2.98,2.19,5.56,3.86,5.72,3.69.16-.16-.09-1.11-.55-2.09-.77-1.63-1.29-3.26-2.5-7.76-.24-.9-1.44-5.05-2.66-9.23-3.43-11.72-3.88-13.49-4.72-18.34-.24-1.41-.67-2.83-.93-3.09-.26-.27-3.35-2-6.81-3.82-8.99-4.73-12.21-6.51-12.77-7.05-.64-.62-2.45-.73-2.45-.15h0Z"/>
        <path class="cls-2" d="M520.25,557.43c-7.5,3.11-13.36,6.29-17.82,9.67-3.88,2.94-18.99,18.09-18.52,18.57.15.16.74.07,1.38-.2,2.36-1,10.43-2.68,15.91-3.32,4.88-.57,17.51-.47,23.84.18,1.22.13,1.36-.08,1.7-2.58.88-6.46,1.45-13.96,1.47-19.1.02-5.43-.01-5.59-1.18-5.56-.66.01-3.7,1.06-6.78,2.34h0Z"/>
        <path class="cls-2" d="M223.09,567.38c-2.08.46-5.26,1.43-7.18,2.21-3.51,1.41-11.46,6.15-13.78,8.22-1.42,1.27-1.22,2.03.32,1.21.54-.29,1.65-.8,2.55-1.19.9-.38,2.06-.89,2.66-1.16,2.05-.93,8.57-2.16,15.7-2.99,6.49-.75,7.66-.74,13.01.05,3.25.48,6.83,1.07,8.01,1.32,3.23.69,11.17,4.31,15.8,7.21,2.29,1.43,4.15,2.42,4.15,2.21s-1.97-2.36-4.42-4.82c-4.36-4.39-8.86-7.8-12.88-9.79-6.57-3.25-16.02-4.23-23.94-2.49h0Z"/>
        <path class="cls-2" d="M227.61,590.02c-11.51,1.68-19.42,4.64-32.83,12.28-10,5.7-21.36,10.83-24,10.83-1.33,0-1.36,1.01-.05,1.72.41.22,3.99,1.79,7.93,3.47,3.94,1.68,8.26,3.62,9.58,4.29,3.85,1.96,12.29,5.04,18.2,6.63,5.01,1.35,6.33,1.48,15.32,1.5,14.42.03,17.22-.68,29-7.36,12.93-7.33,21.79-10.34,33.89-11.53,4.04-.4,6.09-.81,5.85-1.18-.21-.31-2.87-2.37-5.96-4.59-3.09-2.22-5.7-4.14-5.84-4.29-.47-.5-5.44-3.24-9.59-5.29-4.63-2.29-5.4-2.61-8.25-3.49-1.17-.36-2.73-.85-3.46-1.09-7.87-2.53-20.11-3.31-29.8-1.89h0Z"/>
        <path class="cls-2" d="M890.42,600.13c-5.97.98-10.63,5.78-14.75,15.16-4.86,11.07-12.78,20.62-21.17,25.51-1.81,1.06-3.26,2.1-3.27,2.35-.01.25,1.01.31,2.23.14,1.24-.18,4.18-.55,6.52-.83,8.89-1.05,22.46-3.74,28.79-5.7,11.39-3.53,17.33-7.99,19.94-14.96,2.11-5.64,1-10.93-3.47-16.5-3.35-4.18-8.96-6.14-14.82-5.18h0Z"/>
        <path class="cls-2" d="M157.91,622.93c3.29,2.84,15.06,10.6,18.62,12.28,5.64,2.65,10.5,4.2,12.02,3.83.96-.23.96-.27-.05-.68-6.38-2.59-16.97-8.1-24.85-12.94-3.72-2.29-6.95-4.14-7.18-4.13-.23.01.43.76,1.44,1.64h0Z"/>
        <path class="cls-2" d="M632.86,636.68c-2.53,2.6-4.89,6.23-5.33,8.19-1.25,5.54-1.39,6.77-1.08,9.12.19,1.47.61,2.55.97,2.55.96,0,4.44-4.94,5.58-7.92,1.41-3.69,2.95-12.68,2.29-13.35-.34-.35-1.22.16-2.43,1.41h0Z"/>
        <path class="cls-2" d="M549.98,638.09c-1.36,3.81-6.39,13.51-9.45,18.23-5.24,8.1-12.94,16.34-22.68,24.29-10.76,8.78-25.38,15.97-39.11,19.24-7.56,1.8-10.1,2.27-12.29,2.27-2.66,0-2.68,1.07-.05,2.85,2.93,1.99,12.73,11.69,17.02,16.85,6.99,8.41,12.5,16.39,18.26,26.43l2.34,4.07,3.72-.17c9.91-.45,23.36-3.43,33.52-7.43,2.08-.82,4.49-1.75,5.45-2.12.96-.36,1.87-.81,2.05-1,.17-.19-.61-1.44-1.72-2.74-2.05-2.4-6.55-9.12-14.08-21-3.99-6.29-9.32-12.28-13.46-15.13-2.82-1.94-8.66-4.82-10.54-5.19-.8-.16-1.49-.52-1.49-.79s1.28-1.22,2.82-2.11c8.4-4.84,20.64-17.1,27.2-27.24,4.33-6.69,9.81-18.45,12.86-27.57.94-2.82.59-4.44-.38-1.74h0Z"/>
        <path class="cls-2" d="M611.54,641.78c1.24,7.11,3.04,11.6,5.6,14,1.6,1.49,5.45,4.02,6.12,4.02.94,0-.81-7-2.72-10.85-1.21-2.44-7.66-9.23-8.77-9.23-.39,0-.46.71-.23,2.06h0Z"/>
        <path class="cls-2" d="M874.08,648.49c-6.81,1.12-23.62,1.57-31.55.83-2.82-.26-4.63-.24-4.63.06,0,2.1,21.39,3.78,28.84,2.26,1.54-.31,4.15-.84,5.75-1.16,4.2-.84,7.98-2.1,7.98-2.67,0-.29-.05-.46-.13-.41-.07.04-2.9.54-6.25,1.09h0Z"/>
        <path class="cls-2" d="M639.7,651.16c-1.76.9-3.98,2.41-4.95,3.37-2.29,2.26-4.61,6.31-3.99,6.94.75.76,5.85-.41,7.77-1.78,4.26-3.05,8.64-8.42,7.76-9.51-.91-1.12-3.13-.79-6.59.98h0Z"/>
        <path class="cls-2" d="M601.13,659.09c-3.78,1.42-4.46,1.85-3.72,2.34.44.29,1.28.53,1.86.53s2.87.73,5.05,1.6c3.09,1.24,4.85,1.6,7.77,1.62,4.2.02,7.81-1.13,7.36-2.35-.34-.92-4.22-3.04-5.55-3.04-.53,0-1.16-.26-1.34-.54-.34-.56-10-.7-11.43-.16h0Z"/>
        <path class="cls-2" d="M797.73,663.97c-12.57,14.76-25.51,28.15-32.94,34.08-3.35,2.68-6.05,5.13-5.96,5.43.09.3,1.33.68,2.77.85,5.69.68,12.82,4.37,20.48,10.6,2.45,1.99,4.59,3.79,4.74,3.98.15.19,2.08,1.92,4.26,3.81,4.68,4.06,5.56,5.19,3.35,4.33-.84-.33-2.18-.9-3.09-1.31-.88-.4-3.03-1.28-4.79-1.95-1.77-.68-4.68-1.91-6.54-2.77-1.86-.86-3.42-1.55-3.51-1.55s-3.72-1.99-8.09-4.42c-8.35-4.66-12.33-7.22-13.3-8.55-.52-.71-.91-.69-3.2.19-1.44.55-2.99,1.33-3.46,1.74-.48.41-1.94,1.12-3.33,1.6-1.38.49-2.47.96-2.47,1.09s2.47,1.44,5.45,2.9c2.98,1.47,6.52,3.33,7.79,4.11,2.23,1.36,3.67,2.36,11.39,7.93,3.3,2.38,3.94,3.55,1.6,2.89-.82-.23-2.45-.61-3.62-.85-1.19-.24-3.3-.67-4.79-.98-1.49-.3-3.48-.78-4.52-1.08-4.84-1.4-5.68-1.64-7.18-2.14-.89-.29-2.47-.95-3.59-1.5-1.12-.55-2.11-.86-2.26-.71-.55.57,4.09,8.14,5.79,9.44,4.13,3.16,15.32,7.58,23.36,9.21,13.62,2.76,29.5,2.56,41.61-.54,12.4-3.17,21.44-6.89,41.5-17.06,19.31-9.79,34.84-16.27,41.5-17.32,1.17-.18,2.13-.6,2.13-.93,0-1.15-21.81-17.16-30.75-22.57-13.3-8.05-23.29-12.65-36.55-16.82-7.99-2.52-15.7-3.91-25.01-4.52l-5.59-.37-3.19,3.74h0ZM805.5,697.46c6.97.89,16.56,2.34,18.57,2.82l1.33.32-1.22.48c-4.13,1.61-26.07,1.92-33.89.48-10.11-1.87-13.44-2.92-10.85-3.45,7.21-1.48,17.51-1.73,26.07-.64h0Z"/>
        <path class="cls-2" d="M631.62,666.36c-1.27,1.29,2.39,5.82,7.13,8.81,2.08,1.31,13.46,4.42,13.46,3.67,0-.18-.67-.79-1.46-1.36-.82-.57-2.52-2.28-3.86-3.85-3.5-4.12-8.3-7.21-11.81-7.61-1.86-.21-3.04-.09-3.46.34h0Z"/>
        <path class="cls-2" d="M617.49,669.18c-1.38.95-2.53,1.95-2.53,2.2s-.55,1.25-1.2,2.17c-1,1.43-1.19,2.41-1.18,6.05.02,5.43.6,8.41,1.63,8.41.4,0,.74-.46.74-1s.45-1.6.99-2.31c1.78-2.34,4.87-8.41,5.68-11.12.93-3.15.56-6.2-.76-6.16-.47.01-2,.81-3.38,1.76h0Z"/>
        <path class="cls-2" d="M247.22,713.41c-1.36,1.46-8.34,10.85-14.43,19.43-1.66,2.33-3.88,5.15-4.88,6.19-1,1.03-1.84,2.15-1.85,2.44-.02.7,10.45,5.85,14.33,7.05,7.5,2.31,9.84,2.88,15.54,3.78,5.43.86,12.01,1.03,15.54.4,1.84-.33,2.35-.76,3.76-3.15,6.05-10.26,13.02-19.79,18.53-25.33,1.7-1.71,3.01-3.12,2.93-3.13-.09-.01-4.36-.12-9.47-.23-12.61-.28-22.42-2.31-33.79-7.01-2.61-1.08-4.75-1.96-4.76-1.96s-.68.71-1.44,1.52h0Z"/>
        <path class="cls-2" d="M61.18,720.3c-1.47,1.26-1.7,1.82-1.7,4.04,0,2.01.27,2.84,1.22,3.75,2.58,2.47,7.11.89,8.35-2.91.93-2.86-.96-5.48-4.36-6.05-1.44-.24-2.16,0-3.51,1.16h0Z"/>
        <path class="cls-2" d="M208.51,745.58c-4.94,3.3-15.27,6.9-23.09,8.03-2.27.33-7.16.6-10.77.6s-6.62.2-6.62.43,1.17.72,2.55,1.05c9.05,2.18,16.61,4.03,18.2,4.46,13.14,3.57,38.63,4.35,51.08,1.56,6.54-1.47,6.38-1.41,6.38-2.35,0-.6-.56-.81-2.1-.81-1.17,0-2.76-.27-3.59-.61-1.72-.71-2.13-.87-8.14-3.24-2.51-.99-6.7-3.07-9.42-4.67-6.54-3.86-10.9-6.14-11.6-6.07-.29.03-1.6.76-2.87,1.62h0Z"/>
        <path class="cls-2" d="M762.88,751.5c0,.33.21.54.53.54.29,0,2.18,1.22,4.2,2.71,2.02,1.49,3.93,2.71,4.26,2.71s.59.2.59.43c0,.68,7.82,4.7,11.71,6.01,5.8,1.95,6.49,2.13,11.49,2.84,3.94.56,5.66.57,8.78.01,6.17-1.09,11.87-3.29,16.02-6.18,3.56-2.48,7.81-5.8,8.15-6.37.65-1.11-.17-1.14-1.98-.07-6.26,3.72-23.68,5.94-34.74,4.44-5.27-.71-11.76-1.94-14.63-2.76-5.27-1.51-9.49-2.98-11.07-3.88-1.92-1.08-3.3-1.27-3.3-.45h0Z"/>
        <path class="cls-2" d="M109.76,756.16c-6.07.9-9.32,1.54-13.04,2.55-4.57,1.24-11.97,2.95-18.36,4.25-7.5,1.52-22.59,1.69-29.26.32-6.07-1.24-11.21-2.85-14.15-4.43-1.38-.74-2.66-1.18-2.79-.96-.13.23,1.77,3.12,4.27,6.48,5.03,6.78,17.14,19.07,23.59,23.91,2.18,1.64,4.88,3.7,5.96,4.55,8.13,6.39,24.58,14.32,36.07,17.38,8.18,2.18,19.53,3.66,28.25,3.69,11.76.04,28.63-3.46,39.05-8.09.58-.26,1.92-.84,2.93-1.29,1.03-.45,2.93-1.24,4.26-1.78,4.46-1.8,15.38-8.07,23.94-13.73,5.59-3.69,13.54-8.49,17.13-10.33,1.76-.9,1.99-1.94.32-1.43-4.35,1.31-20.75.83-28.89-.83-9.84-2.01-19.99-5.27-29.1-9.33-11.17-4.98-20.85-8.65-25.43-9.65-9.79-2.13-16.61-2.49-24.74-1.27h0ZM136.1,767.39c6.38,1.75,7.64,2.64,3.19,2.26-1.92-.16-5-.51-6.92-.78-1.89-.27-6.23-.63-9.58-.79-10.8-.54-15.49-.93-15.16-1.27.71-.72,7.18-1.09,15.43-.87,6.6.17,9.53.5,13.04,1.46h0Z"/>
        <path class="cls-2" d="M387.83,775.49c-.8,3.95-5.91,15.14-9.14,20.02-6.67,10.09-17.75,21.9-25.09,26.75-.8.53-1.49,1.46-1.49,2.01,0,3.42,5.3,21.27,8.56,28.87,3.97,9.23,14.05,27.44,15.22,27.49.37.01.69-.19.69-.43s2.18-2.36,4.9-4.72c14.42-12.55,23.5-23.49,29.41-35.46,2.01-4.07,5.07-12.19,5.07-13.46,0-.39-1.99-3.09-4.42-6.02-7.07-8.5-12.5-17.42-15.9-26.1-2.8-7.16-6.28-18.47-6.28-20.4,0-2.93-.79-2.17-1.53,1.47h0Z"/>
        <path class="cls-2" d="M782.03,773.04c0,.18,1.75,2.17,3.91,4.45,2.15,2.27,6.43,7.05,9.5,10.64,10.53,12.26,16.2,17.05,20.43,17.21,2.18.09,2.62-.09,3.99-1.64,1.14-1.28,1.54-2.28,1.54-3.8,0-3.23-3.09-5.89-10.91-9.4-5.85-2.63-17.61-9.18-19.85-11.06-.5-.42-2.34-1.93-4.1-3.37-1.76-1.43-3.27-2.78-3.36-2.98-.21-.49-1.16-.53-1.16-.05h0Z"/>
        <path class="cls-2" d="M827.53,776.01c-1.98,1.11-2.92,2.84-2.9,5.33.02,2.6.47,3.44,2.84,5.31,3.24,2.55,8.13.66,9.4-3.63.53-1.81.47-2.33-.51-4.29-.63-1.25-1.56-2.47-2.13-2.78-1.33-.73-5.37-.7-6.7.05h0Z"/>
        <path class="cls-2" d="M169.16,827.91c-7.25,7.71-17.95,20.69-21.1,25.61-8.39,13.09-10.75,25.5-7.6,39.94.67,3.09,1.38,5.64,1.55,5.64.46,0,1.01-2.93,1.01-5.37,0-3.86,4.21-18.94,7.95-28.49,1.92-4.9,8.07-17.91,10.83-22.9,2.46-4.45,6.85-11.09,10.21-15.41,3.2-4.12,3.68-4.88,3.1-4.88-.23,0-2.93,2.66-5.94,5.86h0Z"/>
        <path class="cls-2" d="M122.48,837.22c-2.27.94-4.4,3.77-4.77,6.32-.97,6.67,4.06,11.45,10.41,9.87,2.91-.72,4.45-2.06,5.9-5.15,1.02-2.18,1.06-2.6.46-4.83-.47-1.74-1.36-3.06-3.06-4.59-2.16-1.93-2.66-2.14-5.11-2.12-1.49.01-3.22.24-3.83.49h0Z"/>
        <path class="cls-2" d="M422.17,841.8c-8.09,17.43-21.58,33.43-39.93,47.37-4.15,3.15-7.57,5.77-7.66,5.86s.21,1.47.66,3.09c1.5,5.33,4.22,19.48,5.87,30.55,2.54,16.98,2.12,32.79-1.12,42.27-.85,2.5-.66,2.89,1.02,2.05.64-.32,2.98-1.35,5.16-2.27,7.45-3.13,8.24-3.5,14.63-6.82,17.45-9.05,34.35-22.35,45.47-35.78,4.98-6.02,8.99-11.4,9.7-13.02.33-.76.79-1.36,1.05-1.36.27,0,.45-.2.45-.49,0-.27,1-2.17,2.19-4.18,2.82-4.75,7.02-14.71,8.76-20.78,1.73-6.02,2.88-13.79,2.88-19.43,0-4.4-.02-4.47-1.78-5.83-.96-.74-2.14-1.38-2.55-1.38s-1-.22-1.28-.49c-.28-.27-4.07-2.36-8.49-4.69-14.26-7.5-21.34-11.81-28.63-17.44-1.65-1.27-3.26-2.34-3.54-2.34s-1.56,2.28-2.87,5.1h0ZM421.15,885.7c-.64,6.27-5.96,25.83-9.02,33.21-5.29,12.75-12.87,26.4-19.86,35.76-4.37,5.86-4.46,5.96-4.83,5.59-.2-.2-.11-.71.2-1.09.57-.71,1.18-1.79,4.77-8.52,2.73-5.11,7.92-17.04,11.31-25.99,6.7-17.69,9.64-25.11,11.7-29.63,3.16-6.89,4.22-9.29,4.8-10.85.82-2.2,1.23-1.52.92,1.52h0Z"/>
        <path class="cls-2" d="M625.07,881.57c0,.47,4.15,3.44,12.24,8.76,8.83,5.81,12.17,7.45,19.15,9.4,5.63,1.57,16.65,1.54,22.67-.06,5.37-1.43,10.85-3.36,10.85-3.82,0-.21-2.82-.39-6.28-.39-12.17-.03-23.09-1.98-39.21-6.99-5.27-1.64-10.06-3.2-10.64-3.48-2.61-1.23-8.39-3.79-8.57-3.79-.13,0-.21.15-.21.38h0Z"/>
        <path class="cls-2" d="M619.91,897.51c-4.25,2.15-6.61,8.65-4.98,13.69,3.24,10.01,17.25,8.63,19.74-1.95,1.12-4.74-1.35-9.15-6.56-11.73-2.93-1.45-5.34-1.45-8.19,0h0Z"/>
        <path class="cls-2" d="M487.03,906.43c.19,2.98.82,7.75,1.39,10.58,3.06,15.09,8.11,22.37,19.07,27.53,2.18,1.03,4.41,2.1,4.92,2.37.52.27,1.36.49,1.89.49s1.3.3,1.73.68c.42.37-1.41-1.66-4.06-4.48-5.08-5.42-9.3-10.96-12.82-16.82-3.06-5.1-7.24-13.37-8.64-17.09-.67-1.79-1.44-3.68-1.7-4.21-.27-.54-.48-1.25-.48-1.66s-.36-1.17-.82-1.76c-.75-.96-.79-.57-.48,4.37h0Z"/>
        <path class="cls-2" d="M481.22,909.9c-1.67,3.26-4.18,7-9.1,13.57-3.66,4.88-5.08,8.12-5.08,11.56,0,4.12,4.19,6.57,7.93,4.64,2.28-1.18,3.27-3.71,3.8-9.74.53-6.08,2.25-15.56,3.51-19.32,1.18-3.53.59-3.92-1.06-.71h0Z"/>
        <path class="cls-2" d="M473.96,950.5c-1.44.53-2.62,2.59-2.63,4.6-.02,2.71,2.55,5.01,5.13,4.59,2.07-.33,3.17-1.33,3.93-3.56,1.24-3.62-2.66-7.03-6.43-5.63h0Z"/>
      </g>
    </g>
  </g>
</svg>